<?xml version="1.0" encoding="UTF-8"?>
<!DOCTYPE svg PUBLIC "-//W3C//DTD SVG 1.1//EN" "http://www.w3.org/Graphics/SVG/1.1/DTD/svg11.dtd">
<svg xmlns="http://www.w3.org/2000/svg" version="1.1" width="460px" height="543px" style="shape-rendering:geometricPrecision; text-rendering:geometricPrecision; image-rendering:optimizeQuality; fill-rule:evenodd; clip-rule:evenodd" xmlns:xlink="http://www.w3.org/1999/xlink">
<g><path style="opacity:1" fill="#38383c" d="M -0.5,-0.5 C 152.833,-0.5 306.167,-0.5 459.5,-0.5C 459.5,1.16667 459.5,2.83333 459.5,4.5C 458.5,4.5 457.5,4.5 456.5,4.5C 456.667,66.8342 456.5,129.168 456,191.5C 455.83,201.009 455.33,210.342 454.5,219.5C 454.5,216.833 454.5,214.167 454.5,211.5C 454.506,141.225 454.506,71.2246 454.5,1.5C 304.642,3.4964 154.642,4.16306 4.5,3.5C 4.5,66.8333 4.5,130.167 4.5,193.5C 3.50089,130.336 3.16755,67.0022 3.5,3.5C 2.04125,3.43255 0.707917,3.76589 -0.5,4.5C -0.5,2.83333 -0.5,1.16667 -0.5,-0.5 Z"/></g>
<g><path style="opacity:1" fill="#ac1d34" d="M 432.5,213.5 C 432.5,216.167 432.5,218.833 432.5,221.5C 432.734,230.539 431.401,239.205 428.5,247.5C 426.363,258.266 423.363,268.933 419.5,279.5C 417.631,277.365 416.964,274.698 417.5,271.5C 421.203,260.161 423.203,248.494 423.5,236.5C 423.5,235.167 423.5,233.833 423.5,232.5C 424.833,224.167 426.167,215.833 427.5,207.5C 428.833,148.098 428.833,88.5976 427.5,29C 295.333,28.1673 163.333,28.334 31.5,29.5C 31.3333,91.8342 31.5,154.168 32,216.5C 32.5467,220.16 33.0467,223.827 33.5,227.5C 33.5854,229.333 34.2521,230.666 35.5,231.5C 35.5,232.833 35.5,234.167 35.5,235.5C 36.7982,251.402 39.7982,266.902 44.5,282C 44.1667,283.167 43.8333,284.333 43.5,285.5C 42.3777,284.37 41.0443,283.703 39.5,283.5C 39.4431,282.391 39.1098,281.391 38.5,280.5C 33.4287,256.359 29.5953,232.026 27,207.5C 26.5,146.501 26.3333,85.5009 26.5,24.5C 161.5,24.3333 296.5,24.5 431.5,25C 432.498,87.7621 432.831,150.595 432.5,213.5 Z"/></g>
<g><path style="opacity:1" fill="#972639" d="M 26.5,22.5 C 162.237,22.1685 297.903,22.5018 433.5,23.5C 433.832,87.0022 433.499,150.336 432.5,213.5C 432.831,150.595 432.498,87.7621 431.5,25C 296.5,24.5 161.5,24.3333 26.5,24.5C 26.3333,85.5009 26.5,146.501 27,207.5C 29.5953,232.026 33.4287,256.359 38.5,280.5C 36.3522,275.315 34.6856,269.981 33.5,264.5C 33.5,263.833 33.5,263.167 33.5,262.5C 30.1175,246.991 27.6175,231.324 26,215.5C 25.5,151.501 25.3333,87.5009 25.5,23.5C 25.5,22.8333 25.8333,22.5 26.5,22.5 Z"/></g>
<g><path style="opacity:0.998" fill="#191919" d="M 454.5,211.5 C 451.59,212.973 450.923,215.14 452.5,218C 449.442,221.618 447.609,225.785 447,230.5C 446.667,229.833 446.333,229.167 446,228.5C 445.784,230.384 445.117,232.051 444,233.5C 442.784,231.038 442.118,228.371 442,225.5C 441.818,228.226 441.318,230.893 440.5,233.5C 439.729,231.138 438.895,228.804 438,226.5C 438.2,230.949 438.866,235.282 440,239.5C 435.813,234.221 434.48,228.221 436,221.5C 436.903,217.229 438.07,213.063 439.5,209C 437.837,149.88 436.837,90.713 436.5,31.5C 436.665,28.4816 436.498,25.4816 436,22.5C 435.5,22 435,21.5 434.5,21C 297.999,20.1673 161.666,20.3339 25.5,21.5C 24.8826,21.6107 24.3826,21.944 24,22.5C 23.168,84.3347 23.3347,146.001 24.5,207.5C 24.8025,225.149 26.9692,242.482 31,259.5C 31.2355,261.119 32.0689,262.119 33.5,262.5C 33.5,263.167 33.5,263.833 33.5,264.5C 34.0379,274.089 36.3712,283.089 40.5,291.5C 42.3302,297.464 43.8302,303.464 45,309.5C 45.9344,310.858 46.7677,312.192 47.5,313.5C 48.1174,313.611 48.6174,313.944 49,314.5C 50.1305,317.445 50.9638,320.445 51.5,323.5C 51.5,325.5 51.5,327.5 51.5,329.5C 50.5655,328.432 50.2322,327.099 50.5,325.5C 49.1667,325.5 47.8333,325.5 46.5,325.5C 46.8769,328.525 47.0435,331.525 47,334.5C 45.9887,335.337 44.8221,335.67 43.5,335.5C 43.5,330.5 43.5,325.5 43.5,320.5C 39.7181,320.27 35.8848,320.27 32,320.5C 29.1698,316.672 29.6698,313.006 33.5,309.5C 31.2822,308.076 29.7822,306.076 29,303.5C 28.5172,304.448 28.3505,305.448 28.5,306.5C 26.0582,306.881 25.3915,306.214 26.5,304.5C 24.7762,302.125 23.1095,299.792 21.5,297.5C 20.5448,295.254 19.8782,292.921 19.5,290.5C 19.9465,287.99 19.2798,285.99 17.5,284.5C 14.5615,276.077 12.5615,267.411 11.5,258.5C 11.5797,255.219 10.913,252.219 9.5,249.5C 5.22738,231.207 3.56072,212.54 4.5,193.5C 4.5,130.167 4.5,66.8333 4.5,3.5C 154.642,4.16306 304.642,3.4964 454.5,1.5C 454.506,71.2246 454.506,141.225 454.5,211.5 Z"/></g>
<g><path style="opacity:1" fill="#802835" d="M 433.5,23.5 C 433.833,23.5 434.167,23.5 434.5,23.5C 434.5,87.8333 434.5,152.167 434.5,216.5C 434.5,216.833 434.5,217.167 434.5,217.5C 433.833,218.833 433.167,220.167 432.5,221.5C 432.5,218.833 432.5,216.167 432.5,213.5C 433.499,150.336 433.832,87.0022 433.5,23.5 Z"/></g>
<g><path style="opacity:1" fill="#bdb2b0" d="M 34.5,32.5 C 34.5,32.1667 34.5,31.8333 34.5,31.5C 164.833,31.5 295.167,31.5 425.5,31.5C 425.832,92.0023 425.499,152.336 424.5,212.5C 424.5,152.5 424.5,92.5 424.5,32.5C 294.5,32.5 164.5,32.5 34.5,32.5 Z"/></g>
<g><path style="opacity:1" fill="#ce9ea1" d="M 33.5,31.5 C 164.332,30.5004 295.332,30.1671 426.5,30.5C 427.499,89.331 427.832,148.331 427.5,207.5C 426.167,215.833 424.833,224.167 423.5,232.5C 423.336,225.798 423.669,219.131 424.5,212.5C 425.499,152.336 425.832,92.0023 425.5,31.5C 295.167,31.5 164.833,31.5 34.5,31.5C 34.1667,31.5 33.8333,31.5 33.5,31.5 Z"/></g>
<g><path style="opacity:1" fill="#9c293c" d="M 31.5,29.5 C 163.333,28.334 295.333,28.1673 427.5,29C 428.833,88.5976 428.833,148.098 427.5,207.5C 427.832,148.331 427.499,89.331 426.5,30.5C 295.334,29.5004 164.001,29.1671 32.5,29.5C 32.1667,29.5 31.8333,29.5 31.5,29.5 Z"/></g>
<g><path style="opacity:1" fill="#461218" d="M 26.5,22.5 C 26.5,22.1667 26.5,21.8333 26.5,21.5C 162.167,21.3333 297.834,21.5 433.5,22C 434.056,22.3826 434.389,22.8826 434.5,23.5C 434.167,23.5 433.833,23.5 433.5,23.5C 297.903,22.5018 162.237,22.1685 26.5,22.5 Z"/></g>
<g><path style="opacity:1" fill="#201513" d="M 25.5,21.5 C 161.666,20.3339 297.999,20.1673 434.5,21C 435,21.5 435.5,22 436,22.5C 436.498,25.4816 436.665,28.4816 436.5,31.5C 435.833,28.8333 435.167,26.1667 434.5,23.5C 434.389,22.8826 434.056,22.3826 433.5,22C 297.834,21.5 162.167,21.3333 26.5,21.5C 26.1667,21.5 25.8333,21.5 25.5,21.5 Z"/></g>
<g><path style="opacity:1" fill="#1b1619" d="M 32.5,18.5 C 161.333,17.334 290.333,17.1673 419.5,18C 357.141,19.1652 294.641,19.6652 232,19.5C 165.493,19.4768 98.9928,19.1434 32.5,18.5 Z"/></g>
<g><path style="opacity:1" fill="#bc7780" d="M 32.5,29.5 C 164.001,29.1671 295.334,29.5004 426.5,30.5C 295.332,30.1671 164.332,30.5004 33.5,31.5C 33.5,91.1667 33.5,150.833 33.5,210.5C 32.5009,150.336 32.1676,90.0023 32.5,29.5 Z"/></g>
<g><path style="opacity:1" fill="#c6aaa9" d="M 33.5,31.5 C 33.8333,31.5 34.1667,31.5 34.5,31.5C 34.5,31.8333 34.5,32.1667 34.5,32.5C 34.3333,90.8343 34.5,149.168 35,207.5C 36.728,223.515 38.5613,239.515 40.5,255.5C 38.401,248.935 36.7344,242.268 35.5,235.5C 35.5,234.167 35.5,232.833 35.5,231.5C 34.6719,224.519 34.0052,217.519 33.5,210.5C 33.5,150.833 33.5,91.1667 33.5,31.5 Z"/></g>
<g><path style="opacity:1" fill="#b3b5b2" d="M 34.5,32.5 C 164.5,32.5 294.5,32.5 424.5,32.5C 424.5,92.5 424.5,152.5 424.5,212.5C 423.669,219.131 423.336,225.798 423.5,232.5C 422.351,232.791 421.684,233.624 421.5,235C 420.667,240.166 419.833,245.333 419,250.5C 418.581,251.672 417.915,252.672 417,253.5C 416.406,259.175 415.74,264.842 415,270.5C 413.795,271.071 412.628,271.738 411.5,272.5C 412.778,277.187 412.611,281.854 411,286.5C 409.795,287.071 408.628,287.738 407.5,288.5C 408.374,290.747 408.708,293.08 408.5,295.5C 408.5,296.167 408.5,296.833 408.5,297.5C 406.327,300.625 404.327,303.958 402.5,307.5C 399.998,315.187 397.665,322.854 395.5,330.5C 384.31,360.411 368.643,387.745 348.5,412.5C 347.5,412.5 346.5,412.5 345.5,412.5C 345.5,413.5 345.5,414.5 345.5,415.5C 344.5,415.5 343.5,415.5 342.5,415.5C 342.5,416.5 342.5,417.5 342.5,418.5C 341.127,418.343 339.793,418.51 338.5,419C 339.337,420.011 339.67,421.178 339.5,422.5C 338.5,422.5 337.5,422.5 336.5,422.5C 336.167,425.5 334.5,427.167 331.5,427.5C 330.833,429.5 330.167,431.5 329.5,433.5C 327.801,433.34 326.134,433.506 324.5,434C 325.38,435.356 325.714,436.856 325.5,438.5C 298.361,467.457 267.027,490.957 231.5,509C 229.326,509.877 227.659,509.377 226.5,507.5C 241.398,489.523 250.731,468.856 254.5,445.5C 256.67,446.838 258.336,448.672 259.5,451C 260.449,451.617 261.282,451.451 262,450.5C 265.954,442.34 269.454,434.007 272.5,425.5C 272.833,425.5 273.167,425.5 273.5,425.5C 275.417,423.704 277.25,421.704 279,419.5C 279.483,418.552 279.649,417.552 279.5,416.5C 281.638,416.703 283.305,417.703 284.5,419.5C 285.489,417.412 285.156,415.412 283.5,413.5C 285.26,411.446 287.093,409.446 289,407.5C 289.909,401.388 289.576,395.388 288,389.5C 285.09,392.067 284.256,391.4 285.5,387.5C 286.425,388.641 287.259,388.641 288,387.5C 288.456,386.256 287.956,385.423 286.5,385C 288.12,382.627 289.454,380.127 290.5,377.5C 292.226,369.333 291.726,361.333 289,353.5C 277.988,339.654 265.488,327.321 251.5,316.5C 247.833,313.833 244.167,311.167 240.5,308.5C 234.891,303.689 228.891,299.356 222.5,295.5C 221.245,286.933 222.912,279.1 227.5,272C 242.659,270.681 255.659,264.848 266.5,254.5C 270.772,265.765 275.939,276.765 282,287.5C 296.478,304.305 314.312,315.305 335.5,320.5C 332.778,315.332 330.444,309.999 328.5,304.5C 329.002,303.479 329.668,303.312 330.5,304C 342.62,314.095 351.953,326.262 358.5,340.5C 361.196,334.417 362.863,328.083 363.5,321.5C 364.165,318.351 364.498,315.018 364.5,311.5C 364.598,305.599 363.931,299.933 362.5,294.5C 360.693,288.273 359.36,281.939 358.5,275.5C 358.5,273.167 358.5,270.833 358.5,268.5C 359.5,268.5 360.5,268.5 361.5,268.5C 361.5,267.167 361.5,265.833 361.5,264.5C 362.317,261.521 363.151,258.521 364,255.5C 381.249,228.085 385.249,198.751 376,167.5C 375.667,162.5 375.333,157.5 375,152.5C 373.048,150.106 370.548,148.606 367.5,148C 357.843,145.502 348.176,143.169 338.5,141C 341.445,138.628 342.778,135.795 342.5,132.5C 337.758,135.025 332.758,136.859 327.5,138C 304.929,137.96 282.429,139.127 260,141.5C 258.833,141.167 257.667,140.833 256.5,140.5C 260.777,133.394 266.777,128.227 274.5,125C 282.451,122.943 290.451,121.277 298.5,120C 294.544,117.292 290.211,115.459 285.5,114.5C 281.409,113.105 277.076,112.438 272.5,112.5C 265.838,111.951 259.172,111.284 252.5,110.5C 253.93,107.567 255.93,105.067 258.5,103C 245.869,105.151 233.535,108.651 221.5,113.5C 220.977,111.164 221.477,108.83 223,106.5C 225.783,102.049 228.95,97.8826 232.5,94C 223.825,94.8335 216.158,98.1669 209.5,104C 204.167,110.333 198.833,116.667 193.5,123C 192.833,123.667 192.167,123.667 191.5,123C 189.064,120.293 187.564,117.127 187,113.5C 191.378,93.2679 187.044,75.2679 174,59.5C 169.985,55.3179 165.818,51.3179 161.5,47.5C 160.942,55.5723 159.942,63.5723 158.5,71.5C 160.12,74.9678 161.287,78.6345 162,82.5C 161.898,90.4957 161.898,98.4957 162,106.5C 163.07,116.554 168.236,123.387 177.5,127C 166.945,127.127 160.445,121.96 158,111.5C 161.531,80.9022 150.697,56.9022 125.5,39.5C 126.608,60.3353 122.441,80.002 113,98.5C 112.667,102.833 112.333,107.167 112,111.5C 109.672,107.648 106.838,104.982 103.5,103.5C 106.731,112.218 108.231,121.218 108,130.5C 104.86,127.36 101.694,124.194 98.5,121C 97.6683,120.312 97.0016,120.479 96.5,121.5C 105.692,135.779 107.858,151.112 103,167.5C 100.614,174.742 97.7809,181.742 94.5,188.5C 89.8595,187.736 85.8595,188.903 82.5,192C 80.5273,192.495 78.5273,192.662 76.5,192.5C 74.6827,203.395 74.0161,214.395 74.5,225.5C 72.9451,228.94 71.1118,232.273 69,235.5C 60.5694,246.715 52.4028,258.049 44.5,269.5C 44.1667,269.5 43.8333,269.5 43.5,269.5C 42.1331,265.027 41.1331,260.36 40.5,255.5C 38.5613,239.515 36.728,223.515 35,207.5C 34.5,149.168 34.3333,90.8343 34.5,32.5 Z"/></g>
<g><path style="opacity:1" fill="#331214" d="M 434.5,23.5 C 435.167,26.1667 435.833,28.8333 436.5,31.5C 436.667,92.1676 436.5,152.834 436,213.5C 435.768,214.737 435.268,215.737 434.5,216.5C 434.5,152.167 434.5,87.8333 434.5,23.5 Z"/></g>
<g><path style="opacity:1" fill="#2b1215" d="M 25.5,21.5 C 25.8333,21.5 26.1667,21.5 26.5,21.5C 26.5,21.8333 26.5,22.1667 26.5,22.5C 25.8333,22.5 25.5,22.8333 25.5,23.5C 24.5009,84.6644 24.1676,145.998 24.5,207.5C 23.3347,146.001 23.168,84.3347 24,22.5C 24.3826,21.944 24.8826,21.6107 25.5,21.5 Z"/></g>
<g><path style="opacity:1" fill="#a43e4f" d="M 31.5,29.5 C 31.8333,29.5 32.1667,29.5 32.5,29.5C 32.1676,90.0023 32.5009,150.336 33.5,210.5C 34.0052,217.519 34.6719,224.519 35.5,231.5C 34.2521,230.666 33.5854,229.333 33.5,227.5C 33.0467,223.827 32.5467,220.16 32,216.5C 31.5,154.168 31.3333,91.8342 31.5,29.5 Z"/></g>
<g><path style="opacity:1" fill="#191919" d="M 272.5,112.5 C 266.931,114.017 261.264,115.017 255.5,115.5C 250.009,115.915 245.675,118.415 242.5,123C 247.595,121.229 252.929,120.063 258.5,119.5C 265.219,119.374 271.886,118.707 278.5,117.5C 280.297,115.248 282.63,114.248 285.5,114.5C 290.211,115.459 294.544,117.292 298.5,120C 290.451,121.277 282.451,122.943 274.5,125C 266.777,128.227 260.777,133.394 256.5,140.5C 257.667,140.833 258.833,141.167 260,141.5C 282.429,139.127 304.929,137.96 327.5,138C 332.758,136.859 337.758,135.025 342.5,132.5C 342.778,135.795 341.445,138.628 338.5,141C 348.176,143.169 357.843,145.502 367.5,148C 370.548,148.606 373.048,150.106 375,152.5C 375.333,157.5 375.667,162.5 376,167.5C 385.249,198.751 381.249,228.085 364,255.5C 363.151,258.521 362.317,261.521 361.5,264.5C 360.883,264.389 360.383,264.056 360,263.5C 359.667,255.5 359.333,247.5 359,239.5C 354.677,251.58 354.511,263.58 358.5,275.5C 359.36,281.939 360.693,288.273 362.5,294.5C 363.218,303.482 363.552,312.482 363.5,321.5C 362.863,328.083 361.196,334.417 358.5,340.5C 351.953,326.262 342.62,314.095 330.5,304C 329.668,303.312 329.002,303.479 328.5,304.5C 330.444,309.999 332.778,315.332 335.5,320.5C 314.312,315.305 296.478,304.305 282,287.5C 275.939,276.765 270.772,265.765 266.5,254.5C 255.659,264.848 242.659,270.681 227.5,272C 222.912,279.1 221.245,286.933 222.5,295.5C 222.421,298.271 222.921,300.937 224,303.5C 226.255,309.489 228.755,315.156 231.5,320.5C 232.219,322.764 232.552,325.097 232.5,327.5C 229.892,327.6 227.558,326.933 225.5,325.5C 224.292,322.956 222.292,321.622 219.5,321.5C 219.5,320.5 219.5,319.5 219.5,318.5C 216.833,318.167 214.167,317.833 211.5,317.5C 208.649,315.574 205.649,313.907 202.5,312.5C 202.167,312.5 201.833,312.5 201.5,312.5C 188.505,303.335 175.172,294.668 161.5,286.5C 159.013,280.188 156.513,273.855 154,267.5C 152.957,264.243 152.457,260.91 152.5,257.5C 152.47,249.454 152.637,241.454 153,233.5C 151.337,235.158 150.504,237.158 150.5,239.5C 146.529,252.192 146.529,264.859 150.5,277.5C 149.448,277.649 148.448,277.483 147.5,277C 143.952,274.279 140.286,271.779 136.5,269.5C 131.131,263.13 125.131,257.463 118.5,252.5C 115.237,248.06 111.737,243.727 108,239.5C 104.548,232.789 100.548,226.456 96,220.5C 94.2133,215.264 92.5467,209.931 91,204.5C 90.4541,201.145 90.6208,197.812 91.5,194.5C 91.3601,192.97 90.6935,191.97 89.5,191.5C 91.0725,190.313 92.7392,189.313 94.5,188.5C 97.7809,181.742 100.614,174.742 103,167.5C 107.858,151.112 105.692,135.779 96.5,121.5C 97.0016,120.479 97.6683,120.312 98.5,121C 101.694,124.194 104.86,127.36 108,130.5C 108.231,121.218 106.731,112.218 103.5,103.5C 106.838,104.982 109.672,107.648 112,111.5C 112.333,107.167 112.667,102.833 113,98.5C 122.441,80.002 126.608,60.3353 125.5,39.5C 150.697,56.9022 161.531,80.9022 158,111.5C 160.445,121.96 166.945,127.127 177.5,127C 168.236,123.387 163.07,116.554 162,106.5C 161.898,98.4957 161.898,90.4957 162,82.5C 161.287,78.6345 160.12,74.9678 158.5,71.5C 159.942,63.5723 160.942,55.5723 161.5,47.5C 165.818,51.3179 169.985,55.3179 174,59.5C 187.044,75.2679 191.378,93.2679 187,113.5C 187.564,117.127 189.064,120.293 191.5,123C 192.167,123.667 192.833,123.667 193.5,123C 198.833,116.667 204.167,110.333 209.5,104C 216.158,98.1669 223.825,94.8335 232.5,94C 228.95,97.8826 225.783,102.049 223,106.5C 221.477,108.83 220.977,111.164 221.5,113.5C 233.535,108.651 245.869,105.151 258.5,103C 255.93,105.067 253.93,107.567 252.5,110.5C 259.172,111.284 265.838,111.951 272.5,112.5 Z"/></g>
<g><path style="opacity:1" fill="#74242f" d="M 131.5,68.5 C 132.268,69.2625 132.768,70.2625 133,71.5C 133.499,76.8229 133.666,82.1563 133.5,87.5C 134.036,90.6981 133.369,93.3647 131.5,95.5C 132.553,88.5361 132.72,81.5361 132,74.5C 131.721,77.4568 130.887,80.1234 129.5,82.5C 130.167,77.8333 130.833,73.1667 131.5,68.5 Z"/></g>
<g><path style="opacity:1" fill="#491d20" d="M 133.5,87.5 C 133.666,82.1563 133.499,76.8229 133,71.5C 132.768,70.2625 132.268,69.2625 131.5,68.5C 131.215,66.712 131.548,65.0453 132.5,63.5C 134.566,71.5777 134.899,79.5777 133.5,87.5 Z"/></g>
<g><path style="opacity:1" fill="#4b181c" d="M 131.5,95.5 C 131.663,97.8568 131.497,100.19 131,102.5C 128.921,105.324 127.421,108.324 126.5,111.5C 126.187,108.753 126.52,106.086 127.5,103.5C 129.038,100.852 130.372,98.1854 131.5,95.5 Z"/></g>
<g><path style="opacity:1" fill="#333332" d="M 272.5,112.5 C 277.076,112.438 281.409,113.105 285.5,114.5C 282.63,114.248 280.297,115.248 278.5,117.5C 271.886,118.707 265.219,119.374 258.5,119.5C 264.294,118.215 270.294,117.382 276.5,117C 269.589,115.616 262.589,115.116 255.5,115.5C 261.264,115.017 266.931,114.017 272.5,112.5 Z"/></g>
<g><path style="opacity:1" fill="#9a2739" d="M 131.5,95.5 C 130.372,98.1854 129.038,100.852 127.5,103.5C 126.52,106.086 126.187,108.753 126.5,111.5C 125.833,119.343 125.167,127.343 124.5,135.5C 121.958,124.992 120.958,114.325 121.5,103.5C 123.917,96.3455 126.583,89.3455 129.5,82.5C 130.887,80.1234 131.721,77.4568 132,74.5C 132.72,81.5361 132.553,88.5361 131.5,95.5 Z"/></g>
<g><path style="opacity:1" fill="#ababa9" d="M 255.5,115.5 C 262.589,115.116 269.589,115.616 276.5,117C 270.294,117.382 264.294,118.215 258.5,119.5C 252.929,120.063 247.595,121.229 242.5,123C 245.675,118.415 250.009,115.915 255.5,115.5 Z"/></g>
<g><path style="opacity:1" fill="#a7a7a6" d="M 236.5,115.5 C 238.199,115.34 239.866,115.506 241.5,116C 233.098,124.034 223.098,128.534 211.5,129.5C 211.281,128.325 211.614,127.325 212.5,126.5C 220.241,122.041 228.241,118.375 236.5,115.5 Z"/></g>
<g><path style="opacity:1" fill="#37191b" d="M 121.5,103.5 C 120.958,114.325 121.958,124.992 124.5,135.5C 125.167,127.343 125.833,119.343 126.5,111.5C 126.666,121.172 126.5,130.839 126,140.5C 125.075,139.953 124.242,139.287 123.5,138.5C 122.349,134.664 120.683,131.164 118.5,128C 119.314,121.247 119.814,114.414 120,107.5C 120.21,105.942 120.71,104.609 121.5,103.5 Z"/></g>
<g><path style="opacity:1" fill="#989897" d="M 214.5,111.5 C 215.097,111.735 215.43,112.235 215.5,113C 215.203,120.017 212.203,125.517 206.5,129.5C 208.508,123.577 211.175,117.577 214.5,111.5 Z"/></g>
<g><path style="opacity:1" fill="#9f9f9f" d="M 234.5,152.5 C 234.55,150.41 233.55,149.077 231.5,148.5C 230.571,149.689 230.238,151.022 230.5,152.5C 229.566,151.432 229.232,150.099 229.5,148.5C 225.092,148.062 223.425,150.062 224.5,154.5C 224.028,152.469 223.028,150.802 221.5,149.5C 222.091,148.849 222.757,148.182 223.5,147.5C 215.023,146.973 206.69,146.139 198.5,145C 207.845,143.152 217.179,143.152 226.5,145C 231.363,147.066 236.363,148.732 241.5,150C 238.823,150.168 236.49,151.001 234.5,152.5 Z"/></g>
<g><path style="opacity:1" fill="#e4e4e4" d="M 234.5,152.5 C 233.167,153.833 231.833,153.833 230.5,152.5C 230.238,151.022 230.571,149.689 231.5,148.5C 233.55,149.077 234.55,150.41 234.5,152.5 Z"/></g>
<g><path style="opacity:1" fill="#aaaaa9" d="M 346.5,152.5 C 353.345,152.042 360.012,152.542 366.5,154C 361.917,159.315 356.25,161.648 349.5,161C 347.759,159.38 345.925,157.88 344,156.5C 343.333,155.833 343.333,155.167 344,154.5C 344.995,153.934 345.828,153.267 346.5,152.5 Z"/></g>
<g><path style="opacity:1" fill="#e4e4e4" d="M 221.5,149.5 C 223.028,150.802 224.028,152.469 224.5,154.5C 224.511,156.017 225.177,157.184 226.5,158C 229.871,158.744 233.037,158.244 236,156.5C 236.09,158.768 234.923,160.268 232.5,161C 223.042,162.381 219.376,158.547 221.5,149.5 Z"/></g>
<g><path style="opacity:1" fill="#782a37" d="M 124.5,165.5 C 123.507,173.984 123.174,182.651 123.5,191.5C 123.167,191.5 122.833,191.5 122.5,191.5C 122.666,182.494 122.5,173.494 122,164.5C 121.292,165.381 120.458,166.047 119.5,166.5C 122.933,156.216 124.6,155.883 124.5,165.5 Z"/></g>
<g><path style="opacity:1" fill="#2f1214" d="M 124.5,165.5 C 124.263,176.198 124.596,186.865 125.5,197.5C 124.262,195.786 123.595,193.786 123.5,191.5C 123.174,182.651 123.507,173.984 124.5,165.5 Z"/></g>
<g><path style="opacity:1" fill="#a3a3a3" d="M 337.5,163.5 C 342.575,170.215 349.241,174.715 357.5,177C 359.017,178.685 360.684,180.185 362.5,181.5C 364.808,178.025 367.308,174.692 370,171.5C 367.693,179.375 365.36,187.375 363,195.5C 363.381,189.763 361.214,185.263 356.5,182C 350.214,179.275 344.714,175.442 340,170.5C 338.589,168.35 337.755,166.016 337.5,163.5 Z"/></g>
<g><path style="opacity:1" fill="#862735" d="M 119.5,166.5 C 118.245,177.504 118.245,188.504 119.5,199.5C 116.885,191.858 115.885,183.858 116.5,175.5C 117.046,172.353 118.046,169.353 119.5,166.5 Z"/></g>
<g><path style="opacity:1" fill="#a82236" d="M 122.5,191.5 C 122.5,194.167 122.5,196.833 122.5,199.5C 121.5,199.5 120.5,199.5 119.5,199.5C 118.245,188.504 118.245,177.504 119.5,166.5C 120.458,166.047 121.292,165.381 122,164.5C 122.5,173.494 122.666,182.494 122.5,191.5 Z"/></g>
<g><path style="opacity:1" fill="#c2a4a4" d="M 94.5,188.5 C 92.7392,189.313 91.0725,190.313 89.5,191.5C 86.652,192.772 83.652,193.605 80.5,194C 79.944,194.383 79.6107,194.883 79.5,195.5C 79.5,195.833 79.5,196.167 79.5,196.5C 78.0337,197.347 77.2004,198.68 77,200.5C 75.7618,208.787 75.2618,217.12 75.5,225.5C 75.1667,225.5 74.8333,225.5 74.5,225.5C 74.0161,214.395 74.6827,203.395 76.5,192.5C 78.5273,192.662 80.5273,192.495 82.5,192C 85.8595,188.903 89.8595,187.736 94.5,188.5 Z"/></g>
<g><path style="opacity:1" fill="#2a1517" d="M 116.5,175.5 C 115.885,183.858 116.885,191.858 119.5,199.5C 121.205,207.234 125.205,213.567 131.5,218.5C 131.5,218.833 131.5,219.167 131.5,219.5C 129.411,219.143 127.411,218.477 125.5,217.5C 122.783,213.008 120.449,208.342 118.5,203.5C 117.914,203.291 117.414,202.957 117,202.5C 116.138,204.087 115.471,205.754 115,207.5C 114.667,207.167 114.333,206.833 114,206.5C 115.006,196.176 115.839,185.843 116.5,175.5 Z"/></g>
<g><path style="opacity:1" fill="#2b1617" d="M 125.5,198.5 C 127.88,200.237 129.547,202.57 130.5,205.5C 131.325,206.386 132.325,206.719 133.5,206.5C 133.481,208.06 133.148,209.56 132.5,211C 132.8,213.024 133.633,213.524 135,212.5C 135.505,214.518 136.005,216.518 136.5,218.5C 135.061,216.64 133.395,214.973 131.5,213.5C 127.966,209.254 125.966,204.254 125.5,198.5 Z"/></g>
<g><path style="opacity:1" fill="#962739" d="M 122.5,191.5 C 122.833,191.5 123.167,191.5 123.5,191.5C 123.595,193.786 124.262,195.786 125.5,197.5C 125.5,197.833 125.5,198.167 125.5,198.5C 125.966,204.254 127.966,209.254 131.5,213.5C 131.703,215.044 132.37,216.378 133.5,217.5C 133.043,218.298 132.376,218.631 131.5,218.5C 125.205,213.567 121.205,207.234 119.5,199.5C 120.5,199.5 121.5,199.5 122.5,199.5C 122.5,196.833 122.5,194.167 122.5,191.5 Z"/></g>
<g><path style="opacity:1" fill="#ae1d34" d="M 91.5,239.5 C 89.592,235.74 87.4253,232.074 85,228.5C 84.8333,229 84.6667,229.5 84.5,230C 86.9823,235.129 89.3157,240.296 91.5,245.5C 90.4452,254.671 88.6118,254.671 86,245.5C 85.2825,244.549 84.4491,244.383 83.5,245C 82.9294,247.611 82.0961,250.111 81,252.5C 80.8171,249.635 80.3171,246.969 79.5,244.5C 76.8718,228.629 76.8718,212.629 79.5,196.5C 79.5,196.167 79.5,195.833 79.5,195.5C 82.7842,195.277 85.9509,194.61 89,193.5C 89.1045,196.473 88.9379,199.473 88.5,202.5C 90.0873,210.338 92.254,218.005 95,225.5C 95.3333,225.167 95.6667,224.833 96,224.5C 96.6614,226.916 98.1614,228.582 100.5,229.5C 103.187,234.595 106.021,239.595 109,244.5C 108.848,246.519 108.348,248.519 107.5,250.5C 99.3996,251.131 96.7329,247.631 99.5,240C 95.865,230.301 94.0317,230.468 94,240.5C 93.3292,239.748 92.4959,239.414 91.5,239.5 Z"/></g>
<g><path style="opacity:1" fill="#742c38" d="M 131.5,213.5 C 133.395,214.973 135.061,216.64 136.5,218.5C 137.867,220.142 138.201,221.808 137.5,223.5C 135.21,222.533 133.21,221.2 131.5,219.5C 131.5,219.167 131.5,218.833 131.5,218.5C 132.376,218.631 133.043,218.298 133.5,217.5C 132.37,216.378 131.703,215.044 131.5,213.5 Z"/></g>
<g><path style="opacity:1" fill="#983140" d="M 79.5,196.5 C 76.8718,212.629 76.8718,228.629 79.5,244.5C 79.5,246.5 79.5,248.5 79.5,250.5C 78.8333,249.5 78.1667,248.5 77.5,247.5C 75.8879,240.269 75.2213,232.935 75.5,225.5C 75.2618,217.12 75.7618,208.787 77,200.5C 77.2004,198.68 78.0337,197.347 79.5,196.5 Z"/></g>
<g><path style="opacity:0.999" fill="#1c1b1b" d="M 436.5,31.5 C 436.837,90.713 437.837,149.88 439.5,209C 438.07,213.063 436.903,217.229 436,221.5C 434.48,228.221 435.813,234.221 440,239.5C 438.866,235.282 438.2,230.949 438,226.5C 438.895,228.804 439.729,231.138 440.5,233.5C 441.318,230.893 441.818,228.226 442,225.5C 442.118,228.371 442.784,231.038 444,233.5C 445.117,232.051 445.784,230.384 446,228.5C 446.333,229.167 446.667,229.833 447,230.5C 447.609,225.785 449.442,221.618 452.5,218C 450.923,215.14 451.59,212.973 454.5,211.5C 454.5,214.167 454.5,216.833 454.5,219.5C 454.5,219.833 454.5,220.167 454.5,220.5C 453.199,224.943 452.532,229.609 452.5,234.5C 448.133,265.911 440.133,296.244 428.5,325.5C 427.778,325.082 427.278,324.416 427,323.5C 426.535,324.931 425.701,326.097 424.5,327C 424.665,328.117 424.998,329.284 425.5,330.5C 424.372,331.262 423.205,331.929 422,332.5C 422.152,334.519 422.652,336.519 423.5,338.5C 421.814,342.576 420.147,346.576 418.5,350.5C 415.392,350.944 412.726,352.278 410.5,354.5C 411.885,355.551 412.885,356.884 413.5,358.5C 412.167,358.833 410.833,359.167 409.5,359.5C 410.066,362.417 410.066,365.417 409.5,368.5C 405.093,378.414 399.76,387.747 393.5,396.5C 392.399,395.402 391.066,395.235 389.5,396C 388.107,398.666 386.441,401.166 384.5,403.5C 385.167,404.167 385.833,404.833 386.5,405.5C 385.726,406.711 384.893,406.711 384,405.5C 383.89,408.646 382.557,409.646 380,408.5C 381.07,411.222 380.237,413.388 377.5,415C 377.833,415.333 378.167,415.667 378.5,416C 375.325,417.995 373.658,420.828 373.5,424.5C 372.5,424.5 371.5,424.5 370.5,424.5C 369.951,426.901 369.118,429.235 368,431.5C 367.107,430.289 366.274,430.289 365.5,431.5C 365.709,432.086 366.043,432.586 366.5,433C 365.027,433.71 364.36,434.876 364.5,436.5C 361.179,441.152 357.513,445.485 353.5,449.5C 351.319,449.284 349.653,450.117 348.5,452C 348.833,452.333 349.167,452.667 349.5,453C 347.866,453.494 346.199,453.66 344.5,453.5C 344.5,454.5 344.5,455.5 344.5,456.5C 343.127,456.343 341.793,456.51 340.5,457C 342.037,458.11 342.703,459.61 342.5,461.5C 323.367,481.708 302.034,499.041 278.5,513.5C 276.973,513.427 275.973,514.094 275.5,515.5C 266.928,521.286 257.928,526.286 248.5,530.5C 246.973,530.427 245.973,531.094 245.5,532.5C 240.677,535.462 235.511,537.796 230,539.5C 221.8,536.495 213.966,532.828 206.5,528.5C 206.027,527.094 205.027,526.427 203.5,526.5C 203.17,523.891 201.67,522.224 199,521.5C 197.586,522.413 196.086,522.413 194.5,521.5C 192.435,521.047 190.768,520.047 189.5,518.5C 187.718,516.394 186.385,514.061 185.5,511.5C 182.834,511.067 180.168,510.567 177.5,510C 176.378,507.876 174.878,506.043 173,504.5C 172.439,505.022 171.772,505.355 171,505.5C 169.594,504.586 168.094,503.92 166.5,503.5C 166.027,502.094 165.027,501.427 163.5,501.5C 135.949,481.617 111.615,458.284 90.5,431.5C 89.4647,429.795 89.4647,428.128 90.5,426.5C 88.8614,425.678 87.1947,425.011 85.5,424.5C 80.6889,418.891 76.3556,412.891 72.5,406.5C 72.573,404.973 71.9063,403.973 70.5,403.5C 67.4316,400.378 65.0983,396.711 63.5,392.5C 63.573,390.973 62.9063,389.973 61.5,389.5C 51.6588,373.68 43.3255,357.013 36.5,339.5C 36.7709,337.62 36.1042,336.287 34.5,335.5C 29.6012,323.034 25.2679,310.367 21.5,297.5C 23.1095,299.792 24.7762,302.125 26.5,304.5C 25.3915,306.214 26.0582,306.881 28.5,306.5C 28.3505,305.448 28.5172,304.448 29,303.5C 29.7822,306.076 31.2822,308.076 33.5,309.5C 29.6698,313.006 29.1698,316.672 32,320.5C 35.8848,320.27 39.7181,320.27 43.5,320.5C 43.5,325.5 43.5,330.5 43.5,335.5C 44.8221,335.67 45.9887,335.337 47,334.5C 47.0435,331.525 46.8769,328.525 46.5,325.5C 47.8333,325.5 49.1667,325.5 50.5,325.5C 50.2322,327.099 50.5655,328.432 51.5,329.5C 52.5224,332.728 54.1891,335.562 56.5,338C 55.6634,339.011 55.33,340.178 55.5,341.5C 56.5,341.5 57.5,341.5 58.5,341.5C 58.6524,345.469 60.1524,348.803 63,351.5C 63.3333,353.5 63.6667,355.5 64,357.5C 65.4685,358.989 66.9685,360.323 68.5,361.5C 70.1947,363.535 71.528,365.868 72.5,368.5C 73.7364,372.986 75.5697,377.319 78,381.5C 80.5068,383.189 82.0068,385.522 82.5,388.5C 83.3569,389.425 84.3569,390.092 85.5,390.5C 87.3264,392.147 88.6597,394.147 89.5,396.5C 90.5558,402.284 93.3891,406.95 98,410.5C 98.5396,412.135 98.0396,413.468 96.5,414.5C 97.7757,415.645 99.109,415.645 100.5,414.5C 102.186,415.857 103.852,417.19 105.5,418.5C 106.833,419.5 108.167,420.5 109.5,421.5C 111.024,425.202 113.19,428.536 116,431.5C 124.672,441.338 133.839,450.672 143.5,459.5C 150.618,467.29 158.618,473.957 167.5,479.5C 169.925,483.045 173.258,485.045 177.5,485.5C 177.488,488.142 178.821,489.475 181.5,489.5C 185.075,493.247 189.075,496.413 193.5,499C 200.748,503.102 208.082,506.936 215.5,510.5C 219.122,514.564 223.622,517.231 229,518.5C 232.695,516.775 236.195,514.775 239.5,512.5C 240.568,511.566 241.901,511.232 243.5,511.5C 246.541,511.449 249.208,510.449 251.5,508.5C 252.554,508.68 253.554,509.013 254.5,509.5C 254.64,508.236 254.64,507.069 254.5,506C 256.167,505.667 257.833,505.333 259.5,505C 263.403,502.092 267.07,498.925 270.5,495.5C 273.165,494.148 275.498,492.482 277.5,490.5C 281.987,487.219 286.987,484.886 292.5,483.5C 293.654,480.31 295.988,478.644 299.5,478.5C 300.855,476.139 302.188,473.806 303.5,471.5C 304.833,469.5 306.5,467.833 308.5,466.5C 312.1,464.57 315.1,461.903 317.5,458.5C 318.833,457.833 319.833,456.833 320.5,455.5C 328.479,449.521 335.479,442.521 341.5,434.5C 345.563,429.93 349.063,424.93 352,419.5C 354.677,416.491 357.677,413.824 361,411.5C 373.823,391.87 385.656,371.537 396.5,350.5C 398.226,347.555 400.393,344.889 403,342.5C 403.333,340.5 403.667,338.5 404,336.5C 405.011,335.663 406.178,335.33 407.5,335.5C 407.461,337.359 408.294,338.692 410,339.5C 412.754,333.692 412.92,327.858 410.5,322C 412.648,315.176 414.814,308.343 417,301.5C 417.535,303.271 418.369,303.604 419.5,302.5C 418.407,298.892 418.24,295.225 419,291.5C 420.604,288.753 421.438,285.753 421.5,282.5C 422.893,274.921 424.893,267.587 427.5,260.5C 429.703,251.15 431.869,241.816 434,232.5C 434.499,227.511 434.666,222.511 434.5,217.5C 434.5,217.167 434.5,216.833 434.5,216.5C 435.268,215.737 435.768,214.737 436,213.5C 436.5,152.834 436.667,92.1676 436.5,31.5 Z"/></g>
<g><path style="opacity:0.122" fill="#b3b2b3" d="M 454.5,220.5 C 454.638,225.414 453.972,230.081 452.5,234.5C 452.532,229.609 453.199,224.943 454.5,220.5 Z"/></g>
<g><path style="opacity:1" fill="#331317" d="M 434.5,217.5 C 434.666,222.511 434.499,227.511 434,232.5C 431.869,241.816 429.703,251.15 427.5,260.5C 427.467,256.131 427.8,251.798 428.5,247.5C 431.401,239.205 432.734,230.539 432.5,221.5C 433.167,220.167 433.833,218.833 434.5,217.5 Z"/></g>
<g><path style="opacity:1" fill="#a2a2a2" d="M 341.5,249.5 C 340.833,253.5 340.167,257.5 339.5,261.5C 337.665,248.15 339.165,235.15 344,222.5C 344.308,221.692 344.808,221.025 345.5,220.5C 346.667,222.167 347.833,223.833 349,225.5C 352.068,219.701 355.401,214.034 359,208.5C 355.877,218.354 352.043,228.021 347.5,237.5C 346.416,236.335 345.583,235.002 345,233.5C 342.582,238.513 341.415,243.846 341.5,249.5 Z"/></g>
<g><path style="opacity:1" fill="#461c1f" d="M 25.5,23.5 C 25.3333,87.5009 25.5,151.501 26,215.5C 27.6175,231.324 30.1175,246.991 33.5,262.5C 32.0689,262.119 31.2355,261.119 31,259.5C 26.9692,242.482 24.8025,225.149 24.5,207.5C 24.1676,145.998 24.5009,84.6644 25.5,23.5 Z"/></g>
<g><path style="opacity:1" fill="#cc8788" d="M 91.5,239.5 C 92.2623,241.262 93.5956,242.262 95.5,242.5C 94.0998,243.1 93.0998,244.1 92.5,245.5C 92.1667,245.5 91.8333,245.5 91.5,245.5C 89.3157,240.296 86.9823,235.129 84.5,230C 84.6667,229.5 84.8333,229 85,228.5C 87.4253,232.074 89.592,235.74 91.5,239.5 Z"/></g>
<g><path style="opacity:1" fill="#404040" d="M 152.5,257.5 C 151.833,251.5 151.167,245.5 150.5,239.5C 150.504,237.158 151.337,235.158 153,233.5C 152.637,241.454 152.47,249.454 152.5,257.5 Z"/></g>
<g><path style="opacity:1" fill="#191919" d="M 74.5,225.5 C 74.8333,225.5 75.1667,225.5 75.5,225.5C 75.2213,232.935 75.8879,240.269 77.5,247.5C 78.0355,251.819 78.5355,256.152 79,260.5C 81.1175,270.02 84.2842,279.02 88.5,287.5C 89.5,287.5 90.5,287.5 91.5,287.5C 92.5,287.833 93.1667,288.5 93.5,289.5C 93.7329,291.062 94.3995,292.395 95.5,293.5C 96.2632,295.368 97.2632,297.035 98.5,298.5C 102.426,304.025 106.093,309.691 109.5,315.5C 109.685,317.196 110.519,318.529 112,319.5C 112.494,321.134 112.66,322.801 112.5,324.5C 115.406,324.957 118.072,325.957 120.5,327.5C 122.424,330.091 124.758,332.425 127.5,334.5C 134.953,343.293 143.287,350.96 152.5,357.5C 158.839,362.996 165.505,367.996 172.5,372.5C 173.514,373.674 174.847,374.34 176.5,374.5C 180.666,380.339 186,384.673 192.5,387.5C 196.917,392.253 201.917,396.253 207.5,399.5C 215.449,407.443 223.782,415.11 232.5,422.5C 232.048,432.251 230.882,441.917 229,451.5C 225.892,463.339 222.559,475.006 219,486.5C 229.312,468.729 236.146,449.729 239.5,429.5C 240.167,429.5 240.5,429.833 240.5,430.5C 244.439,436.108 249.106,441.108 254.5,445.5C 250.731,468.856 241.398,489.523 226.5,507.5C 220.95,504.558 215.283,501.891 209.5,499.5C 205.798,497.313 202.465,494.646 199.5,491.5C 197.599,489.204 195.266,487.371 192.5,486C 194.203,483.306 196.536,481.306 199.5,480C 196.986,479.431 194.652,479.931 192.5,481.5C 190.792,481.297 189.459,480.464 188.5,479C 186.5,478.667 184.5,478.333 182.5,478C 184.81,477.503 187.143,477.337 189.5,477.5C 189.359,474.52 187.859,472.52 185,471.5C 183.118,472.093 182.118,473.427 182,475.5C 180.266,474.751 178.433,474.251 176.5,474C 176.034,472.701 176.034,471.201 176.5,469.5C 174.263,470.449 171.929,471.116 169.5,471.5C 169.5,470.167 168.833,469.5 167.5,469.5C 165.998,467.825 164.665,465.992 163.5,464C 161.372,463.345 159.372,462.511 157.5,461.5C 154.769,457.766 151.436,454.766 147.5,452.5C 141.242,445.575 134.575,438.908 127.5,432.5C 122.617,426.042 117.284,420.042 111.5,414.5C 102.164,400.492 92.8304,386.492 83.5,372.5C 83.5,372.167 83.5,371.833 83.5,371.5C 80.1822,364.864 76.8489,358.198 73.5,351.5C 73.5191,349.94 73.8524,348.44 74.5,347C 71.8858,344.803 69.8858,342.136 68.5,339C 70.0356,337.401 70.5356,335.567 70,333.5C 63.6179,328.405 60.1179,321.738 59.5,313.5C 58.6761,311.579 57.3428,310.246 55.5,309.5C 55.1667,308.5 54.5,307.833 53.5,307.5C 52.8333,304.167 52.1667,300.833 51.5,297.5C 51.6813,294.603 51.3479,291.77 50.5,289C 50.9444,287.238 51.4444,287.405 52,289.5C 52.0525,286.513 50.7191,284.18 48,282.5C 47.0406,278.031 45.8739,273.698 44.5,269.5C 52.4028,258.049 60.5694,246.715 69,235.5C 71.1118,232.273 72.9451,228.94 74.5,225.5 Z"/></g>
<g><path style="opacity:1" fill="#c39c9d" d="M 106.5,259.5 C 106.768,261.099 106.434,262.432 105.5,263.5C 102.833,260.5 100.167,257.5 97.5,254.5C 96.8333,253.167 96.1667,253.167 95.5,254.5C 94.8826,254.611 94.3826,254.944 94,255.5C 93.2612,258.546 92.4279,261.546 91.5,264.5C 90.5655,265.568 90.2322,266.901 90.5,268.5C 89.6618,268.842 89.3284,269.508 89.5,270.5C 87.8993,271.643 87.2326,270.976 87.5,268.5C 87.9971,266.182 88.3305,263.848 88.5,261.5C 89.4511,260.081 89.7845,258.415 89.5,256.5C 91.197,253.984 92.5303,251.151 93.5,248C 93.2568,247.098 92.9234,246.265 92.5,245.5C 93.0998,244.1 94.0998,243.1 95.5,242.5C 95.795,240.577 96.6283,238.91 98,237.5C 97.6743,241.47 97.6743,245.47 98,249.5C 100.698,253.025 103.531,256.358 106.5,259.5 Z"/></g>
<g><path style="opacity:1" fill="#9b2736" d="M 89.5,191.5 C 90.6935,191.97 91.3601,192.97 91.5,194.5C 90.6208,197.812 90.4541,201.145 91,204.5C 92.5467,209.931 94.2133,215.264 96,220.5C 100.548,226.456 104.548,232.789 108,239.5C 111.737,243.727 115.237,248.06 118.5,252.5C 116.203,250.706 114.037,248.706 112,246.5C 111.365,247.966 110.531,249.3 109.5,250.5C 110.325,251.386 111.325,251.719 112.5,251.5C 112.334,255.514 112.501,259.514 113,263.5C 113.953,265.455 115.287,267.122 117,268.5C 117.483,269.448 117.649,270.448 117.5,271.5C 115.194,268.527 112.527,265.86 109.5,263.5C 109.799,261.396 109.466,259.396 108.5,257.5C 107.818,258.243 107.151,258.909 106.5,259.5C 103.531,256.358 100.698,253.025 98,249.5C 97.6743,245.47 97.6743,241.47 98,237.5C 96.6283,238.91 95.795,240.577 95.5,242.5C 93.5956,242.262 92.2623,241.262 91.5,239.5C 92.4959,239.414 93.3292,239.748 94,240.5C 94.0317,230.468 95.865,230.301 99.5,240C 96.7329,247.631 99.3996,251.131 107.5,250.5C 108.348,248.519 108.848,246.519 109,244.5C 106.021,239.595 103.187,234.595 100.5,229.5C 98.1614,228.582 96.6614,226.916 96,224.5C 95.6667,224.833 95.3333,225.167 95,225.5C 92.254,218.005 90.0873,210.338 88.5,202.5C 88.9379,199.473 89.1045,196.473 89,193.5C 85.9509,194.61 82.7842,195.277 79.5,195.5C 79.6107,194.883 79.944,194.383 80.5,194C 83.652,193.605 86.652,192.772 89.5,191.5 Z"/></g>
<g><path style="opacity:1" fill="#a53a49" d="M 423.5,236.5 C 423.203,248.494 421.203,260.161 417.5,271.5C 417.167,271.5 416.833,271.5 416.5,271.5C 418.707,259.693 421.041,248.026 423.5,236.5 Z"/></g>
<g><path style="opacity:1" fill="#a22437" d="M 79.5,244.5 C 80.3171,246.969 80.8171,249.635 81,252.5C 82.0961,250.111 82.9294,247.611 83.5,245C 84.4491,244.383 85.2825,244.549 86,245.5C 88.6118,254.671 90.4452,254.671 91.5,245.5C 91.8333,245.5 92.1667,245.5 92.5,245.5C 92.9234,246.265 93.2568,247.098 93.5,248C 92.5303,251.151 91.197,253.984 89.5,256.5C 88.3886,255.34 87.3886,254.007 86.5,252.5C 86.1667,253.333 85.8333,254.167 85.5,255C 86.4158,257.324 87.4158,259.491 88.5,261.5C 88.3305,263.848 87.9971,266.182 87.5,268.5C 87.2326,270.976 87.8993,271.643 89.5,270.5C 90.4959,270.414 91.3292,270.748 92,271.5C 91.5618,274.199 91.7284,276.865 92.5,279.5C 93.086,279.291 93.586,278.957 94,278.5C 96.4355,282.483 97.1022,286.816 96,291.5C 95.2917,290.619 94.4584,289.953 93.5,289.5C 93.1667,288.5 92.5,287.833 91.5,287.5C 86.1046,275.688 82.1046,263.354 79.5,250.5C 79.5,248.5 79.5,246.5 79.5,244.5 Z"/></g>
<g><path style="opacity:1" fill="#50191e" d="M 89.5,256.5 C 89.7845,258.415 89.4511,260.081 88.5,261.5C 87.4158,259.491 86.4158,257.324 85.5,255C 85.8333,254.167 86.1667,253.333 86.5,252.5C 87.3886,254.007 88.3886,255.34 89.5,256.5 Z"/></g>
<g><path style="opacity:1" fill="#a4a1a1" d="M 150.5,239.5 C 151.167,245.5 151.833,251.5 152.5,257.5C 152.457,260.91 152.957,264.243 154,267.5C 156.513,273.855 159.013,280.188 161.5,286.5C 158.319,284.163 154.986,281.996 151.5,280C 150.748,279.329 150.414,278.496 150.5,277.5C 146.529,264.859 146.529,252.192 150.5,239.5 Z"/></g>
<g><path style="opacity:0.051" fill="#949494" d="M 9.5,249.5 C 10.913,252.219 11.5797,255.219 11.5,258.5C 10.087,255.781 9.42032,252.781 9.5,249.5 Z"/></g>
<g><path style="opacity:1" fill="#912737" d="M 118.5,252.5 C 125.131,257.463 131.131,263.13 136.5,269.5C 128.295,266.082 122.295,260.415 118.5,252.5 Z"/></g>
<g><path style="opacity:1" fill="#ad1d30" d="M 97.5,254.5 C 98.4798,257.116 99.9798,259.449 102,261.5C 102.495,263.473 102.662,265.473 102.5,267.5C 99.0632,266.756 96.3965,264.756 94.5,261.5C 95.3742,259.253 95.7076,256.92 95.5,254.5C 96.1667,253.167 96.8333,253.167 97.5,254.5 Z"/></g>
<g><path style="opacity:1" fill="#696969" d="M 341.5,249.5 C 341.666,255.842 341.5,262.175 341,268.5C 340.338,266.187 339.838,263.854 339.5,261.5C 340.167,257.5 340.833,253.5 341.5,249.5 Z"/></g>
<g><path style="opacity:1" fill="#979897" d="M 361.5,264.5 C 361.5,265.833 361.5,267.167 361.5,268.5C 360.5,268.5 359.5,268.5 358.5,268.5C 358.5,270.833 358.5,273.167 358.5,275.5C 354.511,263.58 354.677,251.58 359,239.5C 359.333,247.5 359.667,255.5 360,263.5C 360.383,264.056 360.883,264.389 361.5,264.5 Z"/></g>
<g><path style="opacity:1" fill="#9f293d" d="M 95.5,254.5 C 95.7076,256.92 95.3742,259.253 94.5,261.5C 96.3965,264.756 99.0632,266.756 102.5,267.5C 102.662,265.473 102.495,263.473 102,261.5C 99.9798,259.449 98.4798,257.116 97.5,254.5C 100.167,257.5 102.833,260.5 105.5,263.5C 103.877,267.327 102.877,271.327 102.5,275.5C 101.5,275.5 100.5,275.5 99.5,275.5C 98.2733,272.418 96.7733,269.418 95,266.5C 94.1841,265.177 93.0174,264.511 91.5,264.5C 92.4279,261.546 93.2612,258.546 94,255.5C 94.3826,254.944 94.8826,254.611 95.5,254.5 Z"/></g>
<g><path style="opacity:1" fill="#d18a8f" d="M 123.5,278.5 C 122.833,276.833 122.167,275.167 121.5,273.5C 121.504,271.158 122.337,269.158 124,267.5C 123.89,271.129 123.724,274.796 123.5,278.5 Z"/></g>
<g><path style="opacity:1" fill="#c7a7a9" d="M 423.5,232.5 C 423.5,233.833 423.5,235.167 423.5,236.5C 421.041,248.026 418.707,259.693 416.5,271.5C 414.451,279.692 411.784,287.692 408.5,295.5C 408.708,293.08 408.374,290.747 407.5,288.5C 408.628,287.738 409.795,287.071 411,286.5C 412.611,281.854 412.778,277.187 411.5,272.5C 412.628,271.738 413.795,271.071 415,270.5C 415.74,264.842 416.406,259.175 417,253.5C 417.915,252.672 418.581,251.672 419,250.5C 419.833,245.333 420.667,240.166 421.5,235C 421.684,233.624 422.351,232.791 423.5,232.5 Z"/></g>
<g><path style="opacity:1" fill="#8b2636" d="M 428.5,247.5 C 427.8,251.798 427.467,256.131 427.5,260.5C 424.893,267.587 422.893,274.921 421.5,282.5C 420.349,284.779 419.349,287.112 418.5,289.5C 418.253,286.061 418.586,282.728 419.5,279.5C 423.363,268.933 426.363,258.266 428.5,247.5 Z"/></g>
<g><path style="opacity:1" fill="#892839" d="M 108.5,267.5 C 109.5,268.833 110.5,270.167 111.5,271.5C 108.708,271.452 106.875,272.785 106,275.5C 105.503,277.81 105.337,280.143 105.5,282.5C 103.673,276.963 104.673,271.963 108.5,267.5 Z"/></g>
<g><path style="opacity:1" fill="#9a2635" d="M 90.5,268.5 C 94.078,271.311 96.4114,274.978 97.5,279.5C 97.8938,280.967 98.2272,282.467 98.5,284C 98.3684,287.676 97.3684,290.842 95.5,293.5C 94.3995,292.395 93.7329,291.062 93.5,289.5C 94.4584,289.953 95.2917,290.619 96,291.5C 97.1022,286.816 96.4355,282.483 94,278.5C 93.586,278.957 93.086,279.291 92.5,279.5C 91.7284,276.865 91.5618,274.199 92,271.5C 91.3292,270.748 90.4959,270.414 89.5,270.5C 89.3284,269.508 89.6618,268.842 90.5,268.5 Z"/></g>
<g><path style="opacity:1" fill="#ab2437" d="M 111.5,271.5 C 114.558,273.556 116.891,276.223 118.5,279.5C 117.178,283.79 116.011,288.123 115,292.5C 114.617,293.056 114.117,293.389 113.5,293.5C 110.601,290.048 107.934,286.382 105.5,282.5C 105.337,280.143 105.503,277.81 106,275.5C 106.875,272.785 108.708,271.452 111.5,271.5 Z"/></g>
<g><path style="opacity:1" fill="#32181a" d="M 109.5,263.5 C 108.566,264.568 108.232,265.901 108.5,267.5C 104.673,271.963 103.673,276.963 105.5,282.5C 107.934,286.382 110.601,290.048 113.5,293.5C 113.371,295.216 113.038,296.883 112.5,298.5C 109.113,297.113 106.779,294.78 105.5,291.5C 104.888,288.303 102.888,286.969 99.5,287.5C 99.6633,285.143 99.4966,282.81 99,280.5C 98.6174,279.944 98.1174,279.611 97.5,279.5C 96.4114,274.978 94.078,271.311 90.5,268.5C 90.2322,266.901 90.5655,265.568 91.5,264.5C 93.0174,264.511 94.1841,265.177 95,266.5C 96.7733,269.418 98.2733,272.418 99.5,275.5C 100.5,275.5 101.5,275.5 102.5,275.5C 102.877,271.327 103.877,267.327 105.5,263.5C 106.434,262.432 106.768,261.099 106.5,259.5C 107.151,258.909 107.818,258.243 108.5,257.5C 109.466,259.396 109.799,261.396 109.5,263.5 Z"/></g>
<g><path style="opacity:1" fill="#301719" d="M 77.5,247.5 C 78.1667,248.5 78.8333,249.5 79.5,250.5C 82.1046,263.354 86.1046,275.688 91.5,287.5C 90.5,287.5 89.5,287.5 88.5,287.5C 84.2842,279.02 81.1175,270.02 79,260.5C 78.5355,256.152 78.0355,251.819 77.5,247.5 Z"/></g>
<g><path style="opacity:1" fill="#ae1d33" d="M 118.5,252.5 C 122.295,260.415 128.295,266.082 136.5,269.5C 138.374,271.115 139.708,273.115 140.5,275.5C 143.962,276.277 146.629,278.277 148.5,281.5C 150.872,282.347 152.872,283.681 154.5,285.5C 159.796,285.977 163.462,288.643 165.5,293.5C 165.291,294.086 164.957,294.586 164.5,295C 167.762,295.268 170.262,296.768 172,299.5C 172.483,298.552 172.649,297.552 172.5,296.5C 173.5,296.5 174.5,296.5 175.5,296.5C 175.52,298.143 174.853,299.476 173.5,300.5C 176.028,302.505 175.695,304.171 172.5,305.5C 171.548,307.045 171.215,308.712 171.5,310.5C 169.143,310.663 166.81,310.497 164.5,310C 162.852,307.517 160.685,305.684 158,304.5C 158.499,300.486 158.333,296.486 157.5,292.5C 155.465,291.403 154.132,289.737 153.5,287.5C 153.821,290.791 153.321,294.125 152,297.5C 150.989,298.337 149.822,298.67 148.5,298.5C 148.5,297.167 148.5,295.833 148.5,294.5C 145.892,294.6 143.558,293.933 141.5,292.5C 140.677,289.023 140.177,285.356 140,281.5C 138.167,283.167 136.333,284.833 134.5,286.5C 133.06,285.048 131.394,284.048 129.5,283.5C 127.5,281.833 125.5,280.167 123.5,278.5C 123.724,274.796 123.89,271.129 124,267.5C 122.337,269.158 121.504,271.158 121.5,273.5C 119.62,273.771 118.287,273.104 117.5,271.5C 117.649,270.448 117.483,269.448 117,268.5C 115.287,267.122 113.953,265.455 113,263.5C 112.501,259.514 112.334,255.514 112.5,251.5C 111.325,251.719 110.325,251.386 109.5,250.5C 110.531,249.3 111.365,247.966 112,246.5C 114.037,248.706 116.203,250.706 118.5,252.5 Z"/></g>
<g><path style="opacity:1" fill="#301718" d="M 43.5,269.5 C 43.8333,269.5 44.1667,269.5 44.5,269.5C 45.8739,273.698 47.0406,278.031 48,282.5C 50.7191,284.18 52.0525,286.513 52,289.5C 51.4444,287.405 50.9444,287.238 50.5,289C 51.3479,291.77 51.6813,294.603 51.5,297.5C 50.8333,296.833 50.1667,296.167 49.5,295.5C 46.8824,286.979 44.8824,278.313 43.5,269.5 Z"/></g>
<g><path style="opacity:1" fill="#c2a0a1" d="M 109.5,263.5 C 112.527,265.86 115.194,268.527 117.5,271.5C 118.287,273.104 119.62,273.771 121.5,273.5C 122.167,275.167 122.833,276.833 123.5,278.5C 125.5,280.167 127.5,281.833 129.5,283.5C 131.194,285.861 133.194,287.861 135.5,289.5C 135.768,291.099 135.434,292.432 134.5,293.5C 130.459,289.723 126.292,286.057 122,282.5C 119.077,287.435 117.244,292.768 116.5,298.5C 115.463,299.93 114.796,301.597 114.5,303.5C 114.443,304.609 114.11,305.609 113.5,306.5C 112.883,306.611 112.383,306.944 112,307.5C 111.264,304.408 111.431,301.408 112.5,298.5C 113.038,296.883 113.371,295.216 113.5,293.5C 114.117,293.389 114.617,293.056 115,292.5C 116.011,288.123 117.178,283.79 118.5,279.5C 116.891,276.223 114.558,273.556 111.5,271.5C 110.5,270.167 109.5,268.833 108.5,267.5C 108.232,265.901 108.566,264.568 109.5,263.5 Z"/></g>
<g><path style="opacity:1" fill="#9f293b" d="M 35.5,235.5 C 36.7344,242.268 38.401,248.935 40.5,255.5C 41.1331,260.36 42.1331,265.027 43.5,269.5C 44.8824,278.313 46.8824,286.979 49.5,295.5C 47.1703,293.458 46.0036,290.792 46,287.5C 44.6914,289.891 43.6914,289.891 43,287.5C 44.1259,291.634 44.9592,295.967 45.5,300.5C 43.5797,297.661 41.9131,294.661 40.5,291.5C 40.1667,288.833 39.8333,286.167 39.5,283.5C 41.0443,283.703 42.3777,284.37 43.5,285.5C 43.8333,284.333 44.1667,283.167 44.5,282C 39.7982,266.902 36.7982,251.402 35.5,235.5 Z"/></g>
<g><path style="opacity:0.333" fill="#6c6c6d" d="M 17.5,284.5 C 19.2798,285.99 19.9465,287.99 19.5,290.5C 18.2616,288.786 17.595,286.786 17.5,284.5 Z"/></g>
<g><path style="opacity:1" fill="#812c38" d="M 141.5,292.5 C 142.167,293.5 142.833,294.5 143.5,295.5C 141.589,294.925 139.922,293.925 138.5,292.5C 138.657,291.127 138.49,289.793 138,288.5C 137.329,289.252 136.496,289.586 135.5,289.5C 133.194,287.861 131.194,285.861 129.5,283.5C 131.394,284.048 133.06,285.048 134.5,286.5C 136.333,284.833 138.167,283.167 140,281.5C 140.177,285.356 140.677,289.023 141.5,292.5 Z"/></g>
<g><path style="opacity:1" fill="#3d151a" d="M 33.5,264.5 C 34.6856,269.981 36.3522,275.315 38.5,280.5C 39.1098,281.391 39.4431,282.391 39.5,283.5C 39.8333,286.167 40.1667,288.833 40.5,291.5C 36.3712,283.089 34.0379,274.089 33.5,264.5 Z"/></g>
<g><path style="opacity:1" fill="#7a2230" d="M 97.5,279.5 C 98.1174,279.611 98.6174,279.944 99,280.5C 99.4966,282.81 99.6633,285.143 99.5,287.5C 102.888,286.969 104.888,288.303 105.5,291.5C 104.033,290.708 102.7,290.708 101.5,291.5C 99.1459,293.246 98.1459,295.579 98.5,298.5C 97.2632,297.035 96.2632,295.368 95.5,293.5C 97.3684,290.842 98.3684,287.676 98.5,284C 98.2272,282.467 97.8938,280.967 97.5,279.5 Z"/></g>
<g><path style="opacity:1" fill="#a1263a" d="M 134.5,293.5 C 133.452,299.025 131.785,304.358 129.5,309.5C 129.103,310.525 128.437,310.692 127.5,310C 123.602,306.271 119.935,302.438 116.5,298.5C 117.244,292.768 119.077,287.435 122,282.5C 126.292,286.057 130.459,289.723 134.5,293.5 Z"/></g>
<g><path style="opacity:1" fill="#b01a32" d="M 121.5,286.5 C 125.197,287.361 127.864,289.527 129.5,293C 129.355,293.772 129.022,294.439 128.5,295C 130.282,297.243 130.782,299.743 130,302.5C 128.951,301.483 127.784,301.316 126.5,302C 128.848,303.688 129.015,305.522 127,307.5C 123.383,304.866 122.883,301.866 125.5,298.5C 124.609,297.41 123.609,297.41 122.5,298.5C 121.509,294.555 121.176,290.555 121.5,286.5 Z"/></g>
<g><path style="opacity:1" fill="#a5273a" d="M 136.5,269.5 C 140.286,271.779 143.952,274.279 147.5,277C 148.448,277.483 149.448,277.649 150.5,277.5C 150.414,278.496 150.748,279.329 151.5,280C 154.986,281.996 158.319,284.163 161.5,286.5C 175.172,294.668 188.505,303.335 201.5,312.5C 198.675,312.838 196.508,311.838 195,309.5C 194.586,309.957 194.086,310.291 193.5,310.5C 191.677,309.253 189.677,308.586 187.5,308.5C 187.5,307.167 187.5,305.833 187.5,304.5C 185.176,304.338 183.509,303.172 182.5,301C 181.056,300.219 179.723,300.386 178.5,301.5C 179.013,306.786 179.18,312.119 179,317.5C 181.344,320.93 183.844,324.263 186.5,327.5C 182.293,325.565 178.627,322.898 175.5,319.5C 175.861,315.089 176.361,310.756 177,306.5C 175.269,310.067 173.769,313.734 172.5,317.5C 172.167,317.5 171.833,317.5 171.5,317.5C 165.908,314.407 161.074,310.407 157,305.5C 156.892,301.823 156.892,298.157 157,294.5C 155.533,297.079 154.366,299.746 153.5,302.5C 149.505,301.165 146.172,298.831 143.5,295.5C 142.833,294.5 142.167,293.5 141.5,292.5C 143.558,293.933 145.892,294.6 148.5,294.5C 148.5,295.833 148.5,297.167 148.5,298.5C 149.822,298.67 150.989,298.337 152,297.5C 153.321,294.125 153.821,290.791 153.5,287.5C 154.132,289.737 155.465,291.403 157.5,292.5C 158.333,296.486 158.499,300.486 158,304.5C 160.685,305.684 162.852,307.517 164.5,310C 166.81,310.497 169.143,310.663 171.5,310.5C 171.215,308.712 171.548,307.045 172.5,305.5C 175.695,304.171 176.028,302.505 173.5,300.5C 174.853,299.476 175.52,298.143 175.5,296.5C 174.5,296.5 173.5,296.5 172.5,296.5C 172.649,297.552 172.483,298.552 172,299.5C 170.262,296.768 167.762,295.268 164.5,295C 164.957,294.586 165.291,294.086 165.5,293.5C 163.462,288.643 159.796,285.977 154.5,285.5C 152.872,283.681 150.872,282.347 148.5,281.5C 146.629,278.277 143.962,276.277 140.5,275.5C 139.708,273.115 138.374,271.115 136.5,269.5 Z"/></g>
<g><path style="opacity:1" fill="#ab1e34" d="M 49.5,295.5 C 50.1667,296.167 50.8333,296.833 51.5,297.5C 52.1667,300.833 52.8333,304.167 53.5,307.5C 53.8585,311.144 55.0252,314.477 57,317.5C 57.3148,320.372 57.8148,323.205 58.5,326C 58.1667,326.5 57.8333,327 57.5,327.5C 55.5218,324.613 53.6885,321.613 52,318.5C 50.3747,314.037 48.8747,309.537 47.5,305C 47.1639,303.97 46.4972,303.47 45.5,303.5C 45.5,302.5 45.5,301.5 45.5,300.5C 44.9592,295.967 44.1259,291.634 43,287.5C 43.6914,289.891 44.6914,289.891 46,287.5C 46.0036,290.792 47.1703,293.458 49.5,295.5 Z"/></g>
<g><path style="opacity:1" fill="#c2a1a0" d="M 138.5,292.5 C 139.922,293.925 141.589,294.925 143.5,295.5C 146.172,298.831 149.505,301.165 153.5,302.5C 154.366,299.746 155.533,297.079 157,294.5C 156.892,298.157 156.892,301.823 157,305.5C 161.074,310.407 165.908,314.407 171.5,317.5C 171.912,319.973 170.912,321.306 168.5,321.5C 165.743,318.421 162.41,316.088 158.5,314.5C 157.362,311.733 155.528,311.066 153,312.5C 151.188,318.1 149.688,323.767 148.5,329.5C 146.386,330.784 145.386,332.784 145.5,335.5C 144.559,337.05 143.893,338.716 143.5,340.5C 142.35,341.85 141.683,341.684 141.5,340C 142.348,337.23 142.681,334.397 142.5,331.5C 143.345,330.329 144.011,328.995 144.5,327.5C 144.557,326.391 144.89,325.391 145.5,324.5C 147.086,319.326 148.753,314.159 150.5,309C 147.851,305.164 144.518,301.998 140.5,299.5C 139.211,298.363 138.211,297.03 137.5,295.5C 137.263,294.209 137.596,293.209 138.5,292.5 Z"/></g>
<g><path style="opacity:1" fill="#401718" d="M 138.5,292.5 C 137.596,293.209 137.263,294.209 137.5,295.5C 135.855,300.405 134.355,305.405 133,310.5C 132.617,311.056 132.117,311.389 131.5,311.5C 131.5,310.167 130.833,309.5 129.5,309.5C 131.785,304.358 133.452,299.025 134.5,293.5C 135.434,292.432 135.768,291.099 135.5,289.5C 136.496,289.586 137.329,289.252 138,288.5C 138.49,289.793 138.657,291.127 138.5,292.5 Z"/></g>
<g><path style="opacity:1" fill="#4c181e" d="M 40.5,291.5 C 41.9131,294.661 43.5797,297.661 45.5,300.5C 45.5,301.5 45.5,302.5 45.5,303.5C 46.7868,306.698 47.4535,310.031 47.5,313.5C 46.7677,312.192 45.9344,310.858 45,309.5C 43.8302,303.464 42.3302,297.464 40.5,291.5 Z"/></g>
<g><path style="opacity:1" fill="#762833" d="M 114.5,303.5 C 117.573,305.569 119.906,308.236 121.5,311.5C 119.704,310.207 118.037,308.707 116.5,307C 115.552,306.517 114.552,306.351 113.5,306.5C 114.11,305.609 114.443,304.609 114.5,303.5 Z"/></g>
<g><path style="opacity:1" fill="#5d5d5d" d="M 362.5,294.5 C 363.931,299.933 364.598,305.599 364.5,311.5C 364.498,315.018 364.165,318.351 363.5,321.5C 363.552,312.482 363.218,303.482 362.5,294.5 Z"/></g>
<g><path style="opacity:1" fill="#862939" d="M 137.5,295.5 C 138.211,297.03 139.211,298.363 140.5,299.5C 139.178,299.33 138.011,299.663 137,300.5C 135.146,304.932 133.98,309.598 133.5,314.5C 134.092,316.423 135.092,318.089 136.5,319.5C 132.842,318.203 131.176,315.537 131.5,311.5C 132.117,311.389 132.617,311.056 133,310.5C 134.355,305.405 135.855,300.405 137.5,295.5 Z"/></g>
<g><path style="opacity:1" fill="#ac2036" d="M 140.5,299.5 C 144.518,301.998 147.851,305.164 150.5,309C 148.753,314.159 147.086,319.326 145.5,324.5C 142.685,322.658 139.685,320.991 136.5,319.5C 135.092,318.089 134.092,316.423 133.5,314.5C 133.98,309.598 135.146,304.932 137,300.5C 138.011,299.663 139.178,299.33 140.5,299.5 Z"/></g>
<g><path style="opacity:1" fill="#a92438" d="M 105.5,291.5 C 106.779,294.78 109.113,297.113 112.5,298.5C 111.431,301.408 111.264,304.408 112,307.5C 112.383,306.944 112.883,306.611 113.5,306.5C 114.552,306.351 115.552,306.517 116.5,307C 118.037,308.707 119.704,310.207 121.5,311.5C 123.041,313.878 124.375,316.378 125.5,319C 124.744,322.125 124.411,325.291 124.5,328.5C 123.041,328.567 121.708,328.234 120.5,327.5C 118.615,325.947 117.615,323.947 117.5,321.5C 114.607,319.959 111.94,317.959 109.5,315.5C 106.093,309.691 102.426,304.025 98.5,298.5C 98.1459,295.579 99.1459,293.246 101.5,291.5C 102.7,290.708 104.033,290.708 105.5,291.5 Z"/></g>
<g><path style="opacity:1" fill="#4e1617" d="M 175.5,319.5 C 175.167,319.5 174.833,319.5 174.5,319.5C 174.5,318.167 173.833,317.5 172.5,317.5C 173.769,313.734 175.269,310.067 177,306.5C 176.361,310.756 175.861,315.089 175.5,319.5 Z"/></g>
<g><path style="opacity:1" fill="#922a39" d="M 202.5,312.5 C 205.649,313.907 208.649,315.574 211.5,317.5C 215.865,320.683 220.532,323.35 225.5,325.5C 225.5,325.833 225.5,326.167 225.5,326.5C 220.914,326.484 217.248,324.651 214.5,321C 211.107,318.637 207.44,316.804 203.5,315.5C 202.873,314.583 202.539,313.583 202.5,312.5 Z"/></g>
<g><path style="opacity:1" fill="#cba7a9" d="M 408.5,297.5 C 404.915,308.887 400.581,319.887 395.5,330.5C 397.665,322.854 399.998,315.187 402.5,307.5C 404.327,303.958 406.327,300.625 408.5,297.5 Z"/></g>
<g><path style="opacity:1" fill="#3c1418" d="M 211.5,317.5 C 214.167,317.833 216.833,318.167 219.5,318.5C 219.5,319.5 219.5,320.5 219.5,321.5C 222.292,321.622 224.292,322.956 225.5,325.5C 220.532,323.35 215.865,320.683 211.5,317.5 Z"/></g>
<g><path style="opacity:1" fill="#291616" d="M 116.5,298.5 C 119.935,302.438 123.602,306.271 127.5,310C 128.437,310.692 129.103,310.525 129.5,309.5C 130.833,309.5 131.5,310.167 131.5,311.5C 131.176,315.537 132.842,318.203 136.5,319.5C 136.369,320.239 136.536,320.906 137,321.5C 139.663,323.334 142.163,325.334 144.5,327.5C 144.011,328.995 143.345,330.329 142.5,331.5C 141.833,331.167 141.167,330.833 140.5,330.5C 139.833,329.167 138.833,328.167 137.5,327.5C 135.486,324.653 132.986,322.32 130,320.5C 128.523,321.444 127.523,322.777 127,324.5C 126.747,321.8 126.747,319.133 127,316.5C 125.296,314.627 123.463,312.96 121.5,311.5C 119.906,308.236 117.573,305.569 114.5,303.5C 114.796,301.597 115.463,299.93 116.5,298.5 Z"/></g>
<g><path style="opacity:1" fill="#38161b" d="M 109.5,315.5 C 111.94,317.959 114.607,319.959 117.5,321.5C 117.615,323.947 118.615,325.947 120.5,327.5C 118.072,325.957 115.406,324.957 112.5,324.5C 112.66,322.801 112.494,321.134 112,319.5C 110.519,318.529 109.685,317.196 109.5,315.5 Z"/></g>
<g><path style="opacity:1" fill="#762633" d="M 136.5,319.5 C 139.685,320.991 142.685,322.658 145.5,324.5C 144.89,325.391 144.557,326.391 144.5,327.5C 142.163,325.334 139.663,323.334 137,321.5C 136.536,320.906 136.369,320.239 136.5,319.5 Z"/></g>
<g><path style="opacity:1" fill="#9b2639" d="M 222.5,295.5 C 228.891,299.356 234.891,303.689 240.5,308.5C 236.167,306.5 231.833,304.5 227.5,302.5C 226.884,306.549 228.05,309.882 231,312.5C 231.333,312.167 231.667,311.833 232,311.5C 232.333,313.833 232.667,316.167 233,318.5C 235,321.784 237,325.117 239,328.5C 243.215,330.749 247.382,332.916 251.5,335C 254.52,339.42 258.52,343.587 263.5,347.5C 259.449,345.948 256.115,343.448 253.5,340C 250.495,339.467 247.828,338.3 245.5,336.5C 243.188,334.364 240.688,332.364 238,330.5C 236.058,326.931 233.892,323.598 231.5,320.5C 228.755,315.156 226.255,309.489 224,303.5C 222.921,300.937 222.421,298.271 222.5,295.5 Z"/></g>
<g><path style="opacity:1" fill="#2b1718" d="M 421.5,282.5 C 421.438,285.753 420.604,288.753 419,291.5C 418.24,295.225 418.407,298.892 419.5,302.5C 418.369,303.604 417.535,303.271 417,301.5C 414.814,308.343 412.648,315.176 410.5,322C 412.92,327.858 412.754,333.692 410,339.5C 408.294,338.692 407.461,337.359 407.5,335.5C 406.178,335.33 405.011,335.663 404,336.5C 403.667,338.5 403.333,340.5 403,342.5C 400.393,344.889 398.226,347.555 396.5,350.5C 402.289,336.568 407.789,322.568 413,308.5C 415.259,302.26 417.092,295.927 418.5,289.5C 419.349,287.112 420.349,284.779 421.5,282.5 Z"/></g>
<g><path style="opacity:1" fill="#9f2539" d="M 158.5,314.5 C 156.883,313.962 155.216,313.629 153.5,313.5C 153.344,316.066 153.678,318.566 154.5,321C 153.73,322.775 152.563,324.275 151,325.5C 150.506,327.134 150.34,328.801 150.5,330.5C 152.167,330.5 153.833,330.5 155.5,330.5C 155.628,327.226 156.961,327.059 159.5,330C 155.305,331.38 154.638,333.713 157.5,337C 160.479,338.955 163.145,338.788 165.5,336.5C 165.285,340.733 163.285,342.066 159.5,340.5C 155.21,337.509 151.543,333.842 148.5,329.5C 149.688,323.767 151.188,318.1 153,312.5C 155.528,311.066 157.362,311.733 158.5,314.5 Z"/></g>
<g><path style="opacity:1" fill="#3e1618" d="M 231.5,320.5 C 233.892,323.598 236.058,326.931 238,330.5C 240.688,332.364 243.188,334.364 245.5,336.5C 245.158,337.338 244.492,337.672 243.5,337.5C 237.497,333.829 231.497,330.162 225.5,326.5C 225.5,326.167 225.5,325.833 225.5,325.5C 227.558,326.933 229.892,327.6 232.5,327.5C 232.552,325.097 232.219,322.764 231.5,320.5 Z"/></g>
<g><path style="opacity:1" fill="#802432" d="M 121.5,311.5 C 123.463,312.96 125.296,314.627 127,316.5C 126.747,319.133 126.747,321.8 127,324.5C 127.523,322.777 128.523,321.444 130,320.5C 132.986,322.32 135.486,324.653 137.5,327.5C 135.456,326.969 133.789,325.802 132.5,324C 131.5,323.333 130.5,323.333 129.5,324C 128.152,326.01 126.818,328.01 125.5,330C 126.414,331.406 127.08,332.906 127.5,334.5C 124.758,332.425 122.424,330.091 120.5,327.5C 121.708,328.234 123.041,328.567 124.5,328.5C 124.411,325.291 124.744,322.125 125.5,319C 124.375,316.378 123.041,313.878 121.5,311.5 Z"/></g>
<g><path style="opacity:1" fill="#c1a8a7" d="M 174.5,319.5 C 174.833,319.5 175.167,319.5 175.5,319.5C 178.627,322.898 182.293,325.565 186.5,327.5C 188.08,329.805 190.08,330.472 192.5,329.5C 193.167,330.833 193.833,332.167 194.5,333.5C 200.881,337.017 206.881,341.017 212.5,345.5C 212.737,346.791 212.404,347.791 211.5,348.5C 205.554,345.523 199.888,342.023 194.5,338C 193.552,337.517 192.552,337.351 191.5,337.5C 191.112,333.456 188.779,331.456 184.5,331.5C 180.561,329.554 176.894,327.221 173.5,324.5C 173.216,322.585 173.549,320.919 174.5,319.5 Z"/></g>
<g><path style="opacity:1" fill="#cd868b" d="M 194.5,333.5 C 193.833,332.167 193.167,330.833 192.5,329.5C 193.27,325.229 194.77,321.229 197,317.5C 195.872,322.707 195.039,328.04 194.5,333.5 Z"/></g>
<g><path style="opacity:1" fill="#ad1e35" d="M 158.5,314.5 C 162.41,316.088 165.743,318.421 168.5,321.5C 168.539,322.583 168.873,323.583 169.5,324.5C 168.037,328.521 166.703,332.521 165.5,336.5C 163.145,338.788 160.479,338.955 157.5,337C 154.638,333.713 155.305,331.38 159.5,330C 156.961,327.059 155.628,327.226 155.5,330.5C 153.833,330.5 152.167,330.5 150.5,330.5C 150.34,328.801 150.506,327.134 151,325.5C 152.563,324.275 153.73,322.775 154.5,321C 153.678,318.566 153.344,316.066 153.5,313.5C 155.216,313.629 156.883,313.962 158.5,314.5 Z"/></g>
<g><path style="opacity:0.991" fill="#3c3a3b" d="M 428.5,325.5 C 427.404,330.132 425.737,334.466 423.5,338.5C 422.652,336.519 422.152,334.519 422,332.5C 423.205,331.929 424.372,331.262 425.5,330.5C 424.998,329.284 424.665,328.117 424.5,327C 425.701,326.097 426.535,324.931 427,323.5C 427.278,324.416 427.778,325.082 428.5,325.5 Z"/></g>
<g><path style="opacity:1" fill="#291616" d="M 55.5,309.5 C 57.3428,310.246 58.6761,311.579 59.5,313.5C 60.1179,321.738 63.6179,328.405 70,333.5C 70.5356,335.567 70.0356,337.401 68.5,339C 69.8858,342.136 71.8858,344.803 74.5,347C 73.8524,348.44 73.5191,349.94 73.5,351.5C 71.9862,349.636 70.6528,347.636 69.5,345.5C 64.3192,333.788 59.6525,321.788 55.5,309.5 Z"/></g>
<g><path style="opacity:1" fill="#49181e" d="M 171.5,317.5 C 171.833,317.5 172.167,317.5 172.5,317.5C 173.833,317.5 174.5,318.167 174.5,319.5C 173.549,320.919 173.216,322.585 173.5,324.5C 171.526,328.668 169.693,333.001 168,337.5C 167.195,340.696 167.362,343.696 168.5,346.5C 169.609,346.557 170.609,346.89 171.5,347.5C 172.5,348.833 173.5,350.167 174.5,351.5C 169.254,350.755 166.087,347.755 165,342.5C 162.472,343.934 160.638,343.267 159.5,340.5C 163.285,342.066 165.285,340.733 165.5,336.5C 166.703,332.521 168.037,328.521 169.5,324.5C 168.873,323.583 168.539,322.583 168.5,321.5C 170.912,321.306 171.912,319.973 171.5,317.5 Z"/></g>
<g><path style="opacity:1" fill="#a1273a" d="M 173.5,324.5 C 176.894,327.221 180.561,329.554 184.5,331.5C 185.401,333.727 187.067,334.727 189.5,334.5C 187.96,342.119 185.626,349.453 182.5,356.5C 181.07,356.579 179.736,356.246 178.5,355.5C 177.451,353.784 176.118,352.451 174.5,351.5C 173.5,350.167 172.5,348.833 171.5,347.5C 174.898,348.877 177.898,350.877 180.5,353.5C 181.086,353.291 181.586,352.957 182,352.5C 183.326,348.216 183.992,343.883 184,339.5C 183.586,339.957 183.086,340.291 182.5,340.5C 181.928,338.083 180.928,335.916 179.5,334C 180.956,333.577 181.456,332.744 181,331.5C 178.888,330.777 176.888,329.777 175,328.5C 174.228,328.645 173.561,328.978 173,329.5C 172.627,333.21 171.293,336.544 169,339.5C 168.503,341.81 168.337,344.143 168.5,346.5C 167.362,343.696 167.195,340.696 168,337.5C 169.693,333.001 171.526,328.668 173.5,324.5 Z"/></g>
<g><path style="opacity:0.078" fill="#bdbdbd" d="M 34.5,335.5 C 36.1042,336.287 36.7709,337.62 36.5,339.5C 35.3263,338.486 34.6596,337.153 34.5,335.5 Z"/></g>
<g><path style="opacity:1" fill="#ac1e33" d="M 137.5,327.5 C 138.833,328.167 139.833,329.167 140.5,330.5C 140.678,331.695 141.011,332.862 141.5,334C 139.854,336.595 139.187,339.428 139.5,342.5C 135.647,341.655 132.981,339.321 131.5,335.5C 130.311,334.571 128.978,334.238 127.5,334.5C 127.08,332.906 126.414,331.406 125.5,330C 126.818,328.01 128.152,326.01 129.5,324C 130.5,323.333 131.5,323.333 132.5,324C 133.789,325.802 135.456,326.969 137.5,327.5 Z"/></g>
<g><path style="opacity:1" fill="#af1c33" d="M 240.5,308.5 C 244.167,311.167 247.833,313.833 251.5,316.5C 251.5,317.833 251.5,319.167 251.5,320.5C 254.315,321.126 256.815,322.46 259,324.5C 258.667,327.5 258.333,330.5 258,333.5C 259.343,329.726 261.843,328.726 265.5,330.5C 267.603,333.414 269.437,336.414 271,339.5C 272.011,340.337 273.178,340.67 274.5,340.5C 274.608,342.783 275.441,344.783 277,346.5C 277.71,345.027 278.876,344.36 280.5,344.5C 280.972,347.815 282.805,350.149 286,351.5C 290.007,359.385 291.174,367.719 289.5,376.5C 287.738,376.643 286.071,376.309 284.5,375.5C 283.41,374.609 283.41,373.609 284.5,372.5C 282.833,371.833 281.167,371.167 279.5,370.5C 278.289,369.28 278.289,368.113 279.5,367C 278.584,366.626 277.75,366.126 277,365.5C 275.612,366.554 274.112,366.72 272.5,366C 271.577,363.959 271.244,361.792 271.5,359.5C 274.167,359.5 276.833,359.5 279.5,359.5C 278.241,354.506 274.908,351.839 269.5,351.5C 267.223,350.551 265.223,349.218 263.5,347.5C 258.52,343.587 254.52,339.42 251.5,335C 247.382,332.916 243.215,330.749 239,328.5C 237,325.117 235,321.784 233,318.5C 232.667,316.167 232.333,313.833 232,311.5C 231.667,311.833 231.333,312.167 231,312.5C 228.05,309.882 226.884,306.549 227.5,302.5C 231.833,304.5 236.167,306.5 240.5,308.5 Z"/></g>
<g><path style="opacity:1" fill="#ad1f35" d="M 201.5,312.5 C 201.833,312.5 202.167,312.5 202.5,312.5C 202.539,313.583 202.873,314.583 203.5,315.5C 207.44,316.804 211.107,318.637 214.5,321C 217.248,324.651 220.914,326.484 225.5,326.5C 231.497,330.162 237.497,333.829 243.5,337.5C 250.706,341.931 257.706,346.597 264.5,351.5C 265.084,354.245 266.418,356.578 268.5,358.5C 268.013,359.446 267.68,360.446 267.5,361.5C 268.651,363.325 269.318,365.325 269.5,367.5C 271.167,367.5 272.833,367.5 274.5,367.5C 275.195,369.978 276.695,371.978 279,373.5C 279.55,376.263 280.383,378.93 281.5,381.5C 281.167,382.167 280.833,382.833 280.5,383.5C 278.554,379.725 276.054,376.391 273,373.5C 272.311,374.357 271.478,375.023 270.5,375.5C 269.315,374.147 267.981,372.98 266.5,372C 267.38,370.644 267.714,369.144 267.5,367.5C 265.362,367.703 263.695,368.703 262.5,370.5C 262.167,370 261.833,369.5 261.5,369C 263.638,364.661 263.971,360.161 262.5,355.5C 258.68,358.139 256.68,361.805 256.5,366.5C 253.297,365.155 249.964,364.155 246.5,363.5C 243.807,362.448 241.14,361.448 238.5,360.5C 239.353,355.111 240.186,349.778 241,344.5C 239.311,349.062 237.145,353.396 234.5,357.5C 228.008,354.088 221.674,350.421 215.5,346.5C 217.902,332.284 216.902,331.951 212.5,345.5C 206.881,341.017 200.881,337.017 194.5,333.5C 195.039,328.04 195.872,322.707 197,317.5C 194.77,321.229 193.27,325.229 192.5,329.5C 190.08,330.472 188.08,329.805 186.5,327.5C 183.844,324.263 181.344,320.93 179,317.5C 179.18,312.119 179.013,306.786 178.5,301.5C 179.723,300.386 181.056,300.219 182.5,301C 183.509,303.172 185.176,304.338 187.5,304.5C 187.5,305.833 187.5,307.167 187.5,308.5C 189.677,308.586 191.677,309.253 193.5,310.5C 194.086,310.291 194.586,309.957 195,309.5C 196.508,311.838 198.675,312.838 201.5,312.5 Z"/></g>
<g><path style="opacity:1" fill="#af1c32" d="M 171.5,347.5 C 170.609,346.89 169.609,346.557 168.5,346.5C 168.337,344.143 168.503,341.81 169,339.5C 171.293,336.544 172.627,333.21 173,329.5C 173.561,328.978 174.228,328.645 175,328.5C 176.888,329.777 178.888,330.777 181,331.5C 181.456,332.744 180.956,333.577 179.5,334C 180.928,335.916 181.928,338.083 182.5,340.5C 183.086,340.291 183.586,339.957 184,339.5C 183.992,343.883 183.326,348.216 182,352.5C 181.586,352.957 181.086,353.291 180.5,353.5C 177.898,350.877 174.898,348.877 171.5,347.5 Z"/></g>
<g><path style="opacity:1" fill="#8c293a" d="M 145.5,335.5 C 146.922,335.709 148.255,336.209 149.5,337C 152.767,340.777 156.434,343.943 160.5,346.5C 155.309,344.307 150.642,341.307 146.5,337.5C 145.712,338.77 144.712,339.77 143.5,340.5C 143.893,338.716 144.559,337.05 145.5,335.5 Z"/></g>
<g><path style="opacity:1" fill="#952c3b" d="M 140.5,330.5 C 141.167,330.833 141.833,331.167 142.5,331.5C 142.681,334.397 142.348,337.23 141.5,340C 141.683,341.684 142.35,341.85 143.5,340.5C 142.65,342.494 142.15,344.494 142,346.5C 143.821,349.149 146.321,350.816 149.5,351.5C 150.883,353.32 151.883,355.32 152.5,357.5C 143.287,350.96 134.953,343.293 127.5,334.5C 128.978,334.238 130.311,334.571 131.5,335.5C 132.981,339.321 135.647,341.655 139.5,342.5C 139.187,339.428 139.854,336.595 141.5,334C 141.011,332.862 140.678,331.695 140.5,330.5 Z"/></g>
<g><path style="opacity:1" fill="#571219" d="M 245.5,336.5 C 247.828,338.3 250.495,339.467 253.5,340C 256.115,343.448 259.449,345.948 263.5,347.5C 265.223,349.218 267.223,350.551 269.5,351.5C 269.631,352.376 269.298,353.043 268.5,353.5C 267.378,352.37 266.044,351.703 264.5,351.5C 257.706,346.597 250.706,341.931 243.5,337.5C 244.492,337.672 245.158,337.338 245.5,336.5 Z"/></g>
<g><path style="opacity:1" fill="#301516" d="M 51.5,323.5 C 56.5679,335.742 62.2346,347.742 68.5,359.5C 68.5,360.167 68.5,360.833 68.5,361.5C 66.9685,360.323 65.4685,358.989 64,357.5C 63.6667,355.5 63.3333,353.5 63,351.5C 60.1524,348.803 58.6524,345.469 58.5,341.5C 57.5,341.5 56.5,341.5 55.5,341.5C 55.33,340.178 55.6634,339.011 56.5,338C 54.1891,335.562 52.5224,332.728 51.5,329.5C 51.5,327.5 51.5,325.5 51.5,323.5 Z"/></g>
<g><path style="opacity:1" fill="#c9999c" d="M 184.5,331.5 C 188.779,331.456 191.112,333.456 191.5,337.5C 189.5,344.833 187.5,352.167 185.5,359.5C 184.326,360.514 183.66,361.847 183.5,363.5C 182.434,365.852 181.267,368.186 180,370.5C 179.506,368.866 179.34,367.199 179.5,365.5C 180.434,364.432 180.768,363.099 180.5,361.5C 181.931,360.22 182.598,358.553 182.5,356.5C 185.626,349.453 187.96,342.119 189.5,334.5C 187.067,334.727 185.401,333.727 184.5,331.5 Z"/></g>
<g><path style="opacity:1" fill="#2c1818" d="M 148.5,329.5 C 151.543,333.842 155.21,337.509 159.5,340.5C 160.638,343.267 162.472,343.934 165,342.5C 166.087,347.755 169.254,350.755 174.5,351.5C 176.118,352.451 177.451,353.784 178.5,355.5C 179.736,356.246 181.07,356.579 182.5,356.5C 182.598,358.553 181.931,360.22 180.5,361.5C 175.871,358.841 171.538,355.674 167.5,352C 165.648,351.227 164.314,351.727 163.5,353.5C 161.917,351.492 160.917,349.159 160.5,346.5C 156.434,343.943 152.767,340.777 149.5,337C 148.255,336.209 146.922,335.709 145.5,335.5C 145.386,332.784 146.386,330.784 148.5,329.5 Z"/></g>
<g><path style="opacity:1" fill="#a52135" d="M 45.5,303.5 C 46.4972,303.47 47.1639,303.97 47.5,305C 48.8747,309.537 50.3747,314.037 52,318.5C 53.6885,321.613 55.5218,324.613 57.5,327.5C 57.8333,327 58.1667,326.5 58.5,326C 57.8148,323.205 57.3148,320.372 57,317.5C 55.0252,314.477 53.8585,311.144 53.5,307.5C 54.5,307.833 55.1667,308.5 55.5,309.5C 59.6525,321.788 64.3192,333.788 69.5,345.5C 72.0996,355.371 76.7662,364.038 83.5,371.5C 83.5,371.833 83.5,372.167 83.5,372.5C 84.1882,375.718 85.1882,378.884 86.5,382C 86.4907,383.404 85.9907,384.57 85,385.5C 84.187,383.564 83.687,381.564 83.5,379.5C 82.325,379.719 81.325,379.386 80.5,378.5C 77.7519,373.596 75.2519,368.596 73,363.5C 71.9513,361.616 70.4513,360.282 68.5,359.5C 62.2346,347.742 56.5679,335.742 51.5,323.5C 50.9638,320.445 50.1305,317.445 49,314.5C 48.6174,313.944 48.1174,313.611 47.5,313.5C 47.4535,310.031 46.7868,306.698 45.5,303.5 Z"/></g>
<g><path style="opacity:1" fill="#ad1e33" d="M 160.5,346.5 C 160.198,351.214 159.532,355.88 158.5,360.5C 157.278,358.022 155.278,357.022 152.5,357.5C 151.883,355.32 150.883,353.32 149.5,351.5C 146.321,350.816 143.821,349.149 142,346.5C 142.15,344.494 142.65,342.494 143.5,340.5C 144.712,339.77 145.712,338.77 146.5,337.5C 150.642,341.307 155.309,344.307 160.5,346.5 Z"/></g>
<g><path style="opacity:1" fill="#ab2035" d="M 191.5,337.5 C 192.552,337.351 193.552,337.517 194.5,338C 199.888,342.023 205.554,345.523 211.5,348.5C 209.515,353.959 207.348,359.292 205,364.5C 204.505,366.473 204.338,368.473 204.5,370.5C 203.5,370.5 202.5,370.5 201.5,370.5C 196.695,366.023 191.362,362.356 185.5,359.5C 187.5,352.167 189.5,344.833 191.5,337.5 Z"/></g>
<g><path style="opacity:1" fill="#872835" d="M 69.5,345.5 C 70.6528,347.636 71.9862,349.636 73.5,351.5C 76.8489,358.198 80.1822,364.864 83.5,371.5C 76.7662,364.038 72.0996,355.371 69.5,345.5 Z"/></g>
<g><path style="opacity:0.986" fill="#353435" d="M 418.5,350.5 C 416.023,356.787 413.023,362.787 409.5,368.5C 410.066,365.417 410.066,362.417 409.5,359.5C 410.833,359.167 412.167,358.833 413.5,358.5C 412.885,356.884 411.885,355.551 410.5,354.5C 412.726,352.278 415.392,350.944 418.5,350.5 Z"/></g>
<g><path style="opacity:1" fill="#c69c9d" d="M 246.5,363.5 C 249.534,366.016 252.868,368.016 256.5,369.5C 256.672,370.492 256.338,371.158 255.5,371.5C 249.598,368.965 243.765,366.299 238,363.5C 237.055,363.905 236.388,364.572 236,365.5C 233.189,372.766 230.689,380.099 228.5,387.5C 227.89,388.391 227.557,389.391 227.5,390.5C 227.5,391.5 227.5,392.5 227.5,393.5C 225.186,396.795 223.352,400.462 222,404.5C 222.023,399.396 222.857,394.396 224.5,389.5C 225.234,388.292 225.567,386.959 225.5,385.5C 228.926,378.226 231.593,370.56 233.5,362.5C 231.38,360.108 228.713,358.441 225.5,357.5C 221.656,355.078 217.99,352.411 214.5,349.5C 214.263,348.209 214.596,347.209 215.5,346.5C 221.674,350.421 228.008,354.088 234.5,357.5C 237.145,353.396 239.311,349.062 241,344.5C 240.186,349.778 239.353,355.111 238.5,360.5C 241.14,361.448 243.807,362.448 246.5,363.5 Z"/></g>
<g><path style="opacity:1" fill="#441619" d="M 215.5,346.5 C 214.596,347.209 214.263,348.209 214.5,349.5C 212.151,355.244 209.985,361.244 208,367.5C 207.211,369.712 207.378,371.712 208.5,373.5C 208.833,374.167 209.167,374.833 209.5,375.5C 206.808,373.794 204.141,372.128 201.5,370.5C 202.5,370.5 203.5,370.5 204.5,370.5C 204.338,368.473 204.505,366.473 205,364.5C 207.348,359.292 209.515,353.959 211.5,348.5C 212.404,347.791 212.737,346.791 212.5,345.5C 216.902,331.951 217.902,332.284 215.5,346.5 Z"/></g>
<g><path style="opacity:1" fill="#9e293d" d="M 214.5,349.5 C 217.99,352.411 221.656,355.078 225.5,357.5C 222.081,355.913 218.415,355.247 214.5,355.5C 214.261,357.467 214.594,359.301 215.5,361C 210.687,363.794 208.354,367.961 208.5,373.5C 207.378,371.712 207.211,369.712 208,367.5C 209.985,361.244 212.151,355.244 214.5,349.5 Z"/></g>
<g><path style="opacity:1" fill="#ac1d34" d="M 180.5,361.5 C 180.768,363.099 180.434,364.432 179.5,365.5C 178.184,368.408 177.184,371.408 176.5,374.5C 174.847,374.34 173.514,373.674 172.5,372.5C 170.706,367.578 167.206,364.578 162,363.5C 161.037,359.851 161.537,356.518 163.5,353.5C 164.314,351.727 165.648,351.227 167.5,352C 171.538,355.674 175.871,358.841 180.5,361.5 Z"/></g>
<g><path style="opacity:1" fill="#8e2736" d="M 160.5,346.5 C 160.917,349.159 161.917,351.492 163.5,353.5C 161.537,356.518 161.037,359.851 162,363.5C 167.206,364.578 170.706,367.578 172.5,372.5C 165.505,367.996 158.839,362.996 152.5,357.5C 155.278,357.022 157.278,358.022 158.5,360.5C 159.532,355.88 160.198,351.214 160.5,346.5 Z"/></g>
<g><path style="opacity:1" fill="#af1b33" d="M 225.5,357.5 C 226.3,359.741 227.966,360.741 230.5,360.5C 230.257,368.318 228.257,375.651 224.5,382.5C 220.143,377.82 214.809,374.82 208.5,373.5C 208.354,367.961 210.687,363.794 215.5,361C 214.594,359.301 214.261,357.467 214.5,355.5C 218.415,355.247 222.081,355.913 225.5,357.5 Z"/></g>
<g><path style="opacity:1" fill="#a62639" d="M 416.5,271.5 C 416.833,271.5 417.167,271.5 417.5,271.5C 416.964,274.698 417.631,277.365 419.5,279.5C 418.586,282.728 418.253,286.061 418.5,289.5C 417.092,295.927 415.259,302.26 413,308.5C 407.789,322.568 402.289,336.568 396.5,350.5C 385.656,371.537 373.823,391.87 361,411.5C 357.677,413.824 354.677,416.491 352,419.5C 349.063,424.93 345.563,429.93 341.5,434.5C 334.242,441.092 327.242,448.092 320.5,455.5C 319.833,456.833 318.833,457.833 317.5,458.5C 313.9,460.43 310.9,463.097 308.5,466.5C 306.5,467.833 304.833,469.5 303.5,471.5C 297.681,475.489 292.015,479.656 286.5,484C 282.486,484.858 279.486,487.025 277.5,490.5C 269.764,493.87 262.431,498.037 255.5,503C 253.527,503.495 251.527,503.662 249.5,503.5C 249.191,506.346 247.525,507.846 244.5,508C 243.748,508.671 243.414,509.504 243.5,510.5C 243.5,510.833 243.5,511.167 243.5,511.5C 241.901,511.232 240.568,511.566 239.5,512.5C 235.983,513.729 232.483,515.062 229,516.5C 224.13,515.078 219.63,513.078 215.5,510.5C 211.132,506.807 206.465,503.473 201.5,500.5C 204.086,499.52 206.753,499.187 209.5,499.5C 215.283,501.891 220.95,504.558 226.5,507.5C 227.659,509.377 229.326,509.877 231.5,509C 267.027,490.957 298.361,467.457 325.5,438.5C 333.91,430.427 341.577,421.761 348.5,412.5C 368.643,387.745 384.31,360.411 395.5,330.5C 400.581,319.887 404.915,308.887 408.5,297.5C 408.5,296.833 408.5,296.167 408.5,295.5C 411.784,287.692 414.451,279.692 416.5,271.5 Z"/></g>
<g><path style="opacity:1" fill="#3e1517" d="M 260.5,370.5 C 258.952,370.821 258.285,371.821 258.5,373.5C 256.723,376.505 255.723,379.838 255.5,383.5C 255.167,384.167 254.833,384.833 254.5,385.5C 252.34,388.933 251.007,392.766 250.5,397C 250.439,398.711 251.106,400.044 252.5,401C 248.211,401.488 246.211,403.988 246.5,408.5C 245.768,409.808 244.934,411.142 244,412.5C 243.517,411.552 243.351,410.552 243.5,409.5C 244.447,407.266 245.114,404.932 245.5,402.5C 245.167,401.5 244.833,400.5 244.5,399.5C 238.611,396.725 232.945,393.725 227.5,390.5C 227.557,389.391 227.89,388.391 228.5,387.5C 232.011,389.756 235.678,391.756 239.5,393.5C 242.012,395.73 244.845,396.397 248,395.5C 250.352,389.281 252.186,382.947 253.5,376.5C 255.213,375.365 255.88,373.698 255.5,371.5C 256.338,371.158 256.672,370.492 256.5,369.5C 260.909,357.425 262.242,357.758 260.5,370.5 Z"/></g>
<g><path style="opacity:1" fill="#cf8082" d="M 260.5,370.5 C 262.428,372.474 264.761,373.974 267.5,375C 264.498,374.842 261.498,374.342 258.5,373.5C 258.285,371.821 258.952,370.821 260.5,370.5 Z"/></g>
<g><path style="opacity:1" fill="#922838" d="M 183.5,363.5 C 188.905,368.2 194.905,371.866 201.5,374.5C 201.183,377.572 201.516,380.572 202.5,383.5C 203.244,382.009 203.91,380.509 204.5,379C 206.352,378.227 207.686,378.727 208.5,380.5C 207.167,380.5 205.833,380.5 204.5,380.5C 204.399,384.65 203.399,388.483 201.5,392C 204.094,394.086 206.094,396.586 207.5,399.5C 201.917,396.253 196.917,392.253 192.5,387.5C 186,384.673 180.666,380.339 176.5,374.5C 177.184,371.408 178.184,368.408 179.5,365.5C 179.34,367.199 179.506,368.866 180,370.5C 181.267,368.186 182.434,365.852 183.5,363.5 Z"/></g>
<g><path style="opacity:1" fill="#331718" d="M 185.5,359.5 C 191.362,362.356 196.695,366.023 201.5,370.5C 204.141,372.128 206.808,373.794 209.5,375.5C 214.595,379.271 219.928,382.604 225.5,385.5C 225.567,386.959 225.234,388.292 224.5,389.5C 221.496,386.996 218.163,384.996 214.5,383.5C 212.5,382.5 210.5,381.5 208.5,380.5C 207.686,378.727 206.352,378.227 204.5,379C 203.91,380.509 203.244,382.009 202.5,383.5C 201.516,380.572 201.183,377.572 201.5,374.5C 194.905,371.866 188.905,368.2 183.5,363.5C 183.66,361.847 184.326,360.514 185.5,359.5 Z"/></g>
<g><path style="opacity:1" fill="#ae1c34" d="M 192.5,387.5 C 191.292,384.956 189.292,383.622 186.5,383.5C 185.958,379.787 183.792,377.454 180,376.5C 179.517,375.552 179.351,374.552 179.5,373.5C 180.5,373.5 181.5,373.5 182.5,373.5C 182.338,371.473 182.505,369.473 183,367.5C 183.414,367.043 183.914,366.709 184.5,366.5C 189.547,370.052 194.714,373.386 200,376.5C 200.25,380.762 199.25,384.762 197,388.5C 195.644,387.62 194.144,387.286 192.5,387.5 Z"/></g>
<g><path style="opacity:1" fill="#9e2b3d" d="M 255.5,371.5 C 255.88,373.698 255.213,375.365 253.5,376.5C 253.677,374.019 252.677,372.186 250.5,371C 245.4,371.247 241.4,369.414 238.5,365.5C 237.914,365.709 237.414,366.043 237,366.5C 236.269,373.044 234.769,379.377 232.5,385.5C 234.855,388.254 237.188,390.921 239.5,393.5C 235.678,391.756 232.011,389.756 228.5,387.5C 230.689,380.099 233.189,372.766 236,365.5C 236.388,364.572 237.055,363.905 238,363.5C 243.765,366.299 249.598,368.965 255.5,371.5 Z"/></g>
<g><path style="opacity:1" fill="#b01a34" d="M 253.5,399.5 C 252.957,398.258 252.623,396.925 252.5,395.5C 253.767,392.295 254.434,388.962 254.5,385.5C 254.833,384.833 255.167,384.167 255.5,383.5C 258.01,382.217 260.677,381.217 263.5,380.5C 263.5,379.5 263.5,378.5 263.5,377.5C 267.048,378.702 270.715,379.369 274.5,379.5C 274.657,380.873 274.49,382.207 274,383.5C 272.663,384.904 271.497,386.404 270.5,388C 272.016,391.49 273.182,391.323 274,387.5C 274.827,388.662 275.66,389.829 276.5,391C 276.355,391.772 276.022,392.439 275.5,393C 276.667,393.5 277.5,394.333 278,395.5C 278.414,395.043 278.914,394.709 279.5,394.5C 284.841,397.851 285.841,402.185 282.5,407.5C 281.914,407.291 281.414,406.957 281,406.5C 280.882,408.573 279.882,409.907 278,410.5C 273.634,408.421 269.134,406.587 264.5,405C 261.841,401.287 258.174,399.454 253.5,399.5 Z"/></g>
<g><path style="opacity:1" fill="#952637" d="M 68.5,359.5 C 70.4513,360.282 71.9513,361.616 73,363.5C 75.2519,368.596 77.7519,373.596 80.5,378.5C 81.325,379.386 82.325,379.719 83.5,379.5C 83.687,381.564 84.187,383.564 85,385.5C 85.9907,384.57 86.4907,383.404 86.5,382C 85.1882,378.884 84.1882,375.718 83.5,372.5C 92.8304,386.492 102.164,400.492 111.5,414.5C 109.302,413.986 107.302,412.986 105.5,411.5C 105.167,412 104.833,412.5 104.5,413C 106.561,415.626 108.228,418.459 109.5,421.5C 108.167,420.5 106.833,419.5 105.5,418.5C 99.7325,411.412 94.3992,404.078 89.5,396.5C 88.6597,394.147 87.3264,392.147 85.5,390.5C 81.5349,382.923 77.2015,375.59 72.5,368.5C 71.528,365.868 70.1947,363.535 68.5,361.5C 68.5,360.833 68.5,360.167 68.5,359.5 Z"/></g>
<g><path style="opacity:1" fill="#3b1217" d="M 72.5,368.5 C 77.2015,375.59 81.5349,382.923 85.5,390.5C 84.3569,390.092 83.3569,389.425 82.5,388.5C 82.0068,385.522 80.5068,383.189 78,381.5C 75.5697,377.319 73.7364,372.986 72.5,368.5 Z"/></g>
<g><path style="opacity:1" fill="#9d2d3e" d="M 225.5,357.5 C 228.713,358.441 231.38,360.108 233.5,362.5C 231.593,370.56 228.926,378.226 225.5,385.5C 219.928,382.604 214.595,379.271 209.5,375.5C 209.167,374.833 208.833,374.167 208.5,373.5C 214.809,374.82 220.143,377.82 224.5,382.5C 228.257,375.651 230.257,368.318 230.5,360.5C 227.966,360.741 226.3,359.741 225.5,357.5 Z"/></g>
<g><path style="opacity:1" fill="#9a2439" d="M 253.5,376.5 C 252.186,382.947 250.352,389.281 248,395.5C 244.845,396.397 242.012,395.73 239.5,393.5C 241.833,393.5 244.167,393.5 246.5,393.5C 246.626,391.8 247.293,390.3 248.5,389C 247.541,386.88 247.374,384.713 248,382.5C 248.667,383.833 249.333,383.833 250,382.5C 250.061,379.723 251.228,377.723 253.5,376.5 Z"/></g>
<g><path style="opacity:1" fill="#a72438" d="M 251.5,316.5 C 265.488,327.321 277.988,339.654 289,353.5C 291.726,361.333 292.226,369.333 290.5,377.5C 286.432,381.576 282.098,385.242 277.5,388.5C 280.15,391.651 282.984,394.651 286,397.5C 287.684,403.378 286.018,408.045 281,411.5C 278.235,416.03 275.735,420.697 273.5,425.5C 273.167,425.5 272.833,425.5 272.5,425.5C 272.965,421.56 274.298,417.893 276.5,414.5C 276.167,413.833 275.833,413.167 275.5,412.5C 268.309,409.745 260.975,407.411 253.5,405.5C 252.287,405.253 251.62,404.586 251.5,403.5C 254.682,404.826 258.015,405.326 261.5,405C 258.82,402.89 256.154,401.057 253.5,399.5C 258.174,399.454 261.841,401.287 264.5,405C 269.134,406.587 273.634,408.421 278,410.5C 279.882,409.907 280.882,408.573 281,406.5C 281.414,406.957 281.914,407.291 282.5,407.5C 285.841,402.185 284.841,397.851 279.5,394.5C 278.914,394.709 278.414,395.043 278,395.5C 277.5,394.333 276.667,393.5 275.5,393C 276.022,392.439 276.355,391.772 276.5,391C 275.66,389.829 274.827,388.662 274,387.5C 273.182,391.323 272.016,391.49 270.5,388C 271.497,386.404 272.663,384.904 274,383.5C 274.49,382.207 274.657,380.873 274.5,379.5C 270.715,379.369 267.048,378.702 263.5,377.5C 263.5,378.5 263.5,379.5 263.5,380.5C 260.677,381.217 258.01,382.217 255.5,383.5C 255.723,379.838 256.723,376.505 258.5,373.5C 261.498,374.342 264.498,374.842 267.5,375C 264.761,373.974 262.428,372.474 260.5,370.5C 262.242,357.758 260.909,357.425 256.5,369.5C 252.868,368.016 249.534,366.016 246.5,363.5C 249.964,364.155 253.297,365.155 256.5,366.5C 256.68,361.805 258.68,358.139 262.5,355.5C 263.971,360.161 263.638,364.661 261.5,369C 261.833,369.5 262.167,370 262.5,370.5C 263.695,368.703 265.362,367.703 267.5,367.5C 267.714,369.144 267.38,370.644 266.5,372C 267.981,372.98 269.315,374.147 270.5,375.5C 271.478,375.023 272.311,374.357 273,373.5C 276.054,376.391 278.554,379.725 280.5,383.5C 280.833,382.833 281.167,382.167 281.5,381.5C 280.383,378.93 279.55,376.263 279,373.5C 276.695,371.978 275.195,369.978 274.5,367.5C 272.833,367.5 271.167,367.5 269.5,367.5C 269.318,365.325 268.651,363.325 267.5,361.5C 267.68,360.446 268.013,359.446 268.5,358.5C 266.418,356.578 265.084,354.245 264.5,351.5C 266.044,351.703 267.378,352.37 268.5,353.5C 269.298,353.043 269.631,352.376 269.5,351.5C 274.908,351.839 278.241,354.506 279.5,359.5C 276.833,359.5 274.167,359.5 271.5,359.5C 271.244,361.792 271.577,363.959 272.5,366C 274.112,366.72 275.612,366.554 277,365.5C 277.75,366.126 278.584,366.626 279.5,367C 278.289,368.113 278.289,369.28 279.5,370.5C 281.167,371.167 282.833,371.833 284.5,372.5C 283.41,373.609 283.41,374.609 284.5,375.5C 286.071,376.309 287.738,376.643 289.5,376.5C 291.174,367.719 290.007,359.385 286,351.5C 282.805,350.149 280.972,347.815 280.5,344.5C 278.876,344.36 277.71,345.027 277,346.5C 275.441,344.783 274.608,342.783 274.5,340.5C 273.178,340.67 272.011,340.337 271,339.5C 269.437,336.414 267.603,333.414 265.5,330.5C 261.843,328.726 259.343,329.726 258,333.5C 258.333,330.5 258.667,327.5 259,324.5C 256.815,322.46 254.315,321.126 251.5,320.5C 251.5,319.167 251.5,317.833 251.5,316.5 Z"/></g>
<g><path style="opacity:1" fill="#af1b33" d="M 253.5,376.5 C 251.228,377.723 250.061,379.723 250,382.5C 249.333,383.833 248.667,383.833 248,382.5C 247.374,384.713 247.541,386.88 248.5,389C 247.293,390.3 246.626,391.8 246.5,393.5C 244.167,393.5 241.833,393.5 239.5,393.5C 237.188,390.921 234.855,388.254 232.5,385.5C 234.769,379.377 236.269,373.044 237,366.5C 237.414,366.043 237.914,365.709 238.5,365.5C 241.4,369.414 245.4,371.247 250.5,371C 252.677,372.186 253.677,374.019 253.5,376.5 Z"/></g>
<g><path style="opacity:1" fill="#bbaeac" d="M 290.5,377.5 C 289.454,380.127 288.12,382.627 286.5,385C 287.956,385.423 288.456,386.256 288,387.5C 287.259,388.641 286.425,388.641 285.5,387.5C 284.256,391.4 285.09,392.067 288,389.5C 289.576,395.388 289.909,401.388 289,407.5C 287.093,409.446 285.26,411.446 283.5,413.5C 285.156,415.412 285.489,417.412 284.5,419.5C 283.305,417.703 281.638,416.703 279.5,416.5C 279.649,417.552 279.483,418.552 279,419.5C 277.25,421.704 275.417,423.704 273.5,425.5C 275.735,420.697 278.235,416.03 281,411.5C 286.018,408.045 287.684,403.378 286,397.5C 282.984,394.651 280.15,391.651 277.5,388.5C 282.098,385.242 286.432,381.576 290.5,377.5 Z"/></g>
<g><path style="opacity:0.024" fill="#b0b0b0" d="M 61.5,389.5 C 62.9063,389.973 63.573,390.973 63.5,392.5C 62.0937,392.027 61.427,391.027 61.5,389.5 Z"/></g>
<g><path style="opacity:1" fill="#ae1c34" d="M 208.5,380.5 C 210.5,381.5 212.5,382.5 214.5,383.5C 214.756,385.776 216.09,386.943 218.5,387C 220.122,388.295 221.455,389.795 222.5,391.5C 220.925,395.397 219.258,399.231 217.5,403C 219.937,404.279 220.437,405.779 219,407.5C 215.93,405.553 213.43,403.053 211.5,400C 210.207,399.51 208.873,399.343 207.5,399.5C 206.094,396.586 204.094,394.086 201.5,392C 203.399,388.483 204.399,384.65 204.5,380.5C 205.833,380.5 207.167,380.5 208.5,380.5 Z"/></g>
<g><path style="opacity:1" fill="#ae1d35" d="M 88.5,388.5 C 90.0418,389.301 91.7085,389.634 93.5,389.5C 95.646,395.12 98.8126,400.12 103,404.5C 104.128,406.345 104.628,408.345 104.5,410.5C 99.5872,409.046 96.7538,405.712 96,400.5C 93.483,398.659 91.483,396.326 90,393.5C 88.9914,391.975 88.4914,390.308 88.5,388.5 Z"/></g>
<g><path style="opacity:1" fill="#9c2a3b" d="M 214.5,383.5 C 218.163,384.996 221.496,386.996 224.5,389.5C 222.857,394.396 222.023,399.396 222,404.5C 223.352,400.462 225.186,396.795 227.5,393.5C 226.931,398.96 224.931,403.794 221.5,408C 225.021,409.858 227.521,412.692 229,416.5C 231.287,419.312 234.121,421.312 237.5,422.5C 240.024,418.257 242.024,413.923 243.5,409.5C 243.351,410.552 243.517,411.552 244,412.5C 244.934,411.142 245.768,409.808 246.5,408.5C 245.997,414.01 244.997,419.344 243.5,424.5C 242.127,424.343 240.793,424.51 239.5,425C 242.661,429.656 245.994,434.156 249.5,438.5C 246.5,435.833 243.5,433.167 240.5,430.5C 240.5,429.833 240.167,429.5 239.5,429.5C 237.5,426.833 235.167,424.5 232.5,422.5C 223.782,415.11 215.449,407.443 207.5,399.5C 208.873,399.343 210.207,399.51 211.5,400C 213.43,403.053 215.93,405.553 219,407.5C 220.437,405.779 219.937,404.279 217.5,403C 219.258,399.231 220.925,395.397 222.5,391.5C 221.455,389.795 220.122,388.295 218.5,387C 216.09,386.943 214.756,385.776 214.5,383.5 Z"/></g>
<g><path style="opacity:1" fill="#6f2028" d="M 254.5,385.5 C 254.434,388.962 253.767,392.295 252.5,395.5C 252.623,396.925 252.957,398.258 253.5,399.5C 256.154,401.057 258.82,402.89 261.5,405C 258.015,405.326 254.682,404.826 251.5,403.5C 249.621,404.897 247.954,406.563 246.5,408.5C 246.211,403.988 248.211,401.488 252.5,401C 251.106,400.044 250.439,398.711 250.5,397C 251.007,392.766 252.34,388.933 254.5,385.5 Z"/></g>
<g><path style="opacity:0.031" fill="#a3a3a3" d="M 70.5,403.5 C 71.9063,403.973 72.573,404.973 72.5,406.5C 71.0937,406.027 70.427,405.027 70.5,403.5 Z"/></g>
<g><path style="opacity:1" fill="#ad1d34" d="M 227.5,390.5 C 232.945,393.725 238.611,396.725 244.5,399.5C 244.833,400.5 245.167,401.5 245.5,402.5C 245.114,404.932 244.447,407.266 243.5,409.5C 242.024,413.923 240.024,418.257 237.5,422.5C 234.121,421.312 231.287,419.312 229,416.5C 227.521,412.692 225.021,409.858 221.5,408C 224.931,403.794 226.931,398.96 227.5,393.5C 227.5,392.5 227.5,391.5 227.5,390.5 Z"/></g>
<g><path style="opacity:1" fill="#af1d34" d="M 251.5,403.5 C 251.62,404.586 252.287,405.253 253.5,405.5C 260.975,407.411 268.309,409.745 275.5,412.5C 275.833,413.167 276.167,413.833 276.5,414.5C 274.298,417.893 272.965,421.56 272.5,425.5C 269.454,434.007 265.954,442.34 262,450.5C 261.282,451.451 260.449,451.617 259.5,451C 258.336,448.672 256.67,446.838 254.5,445.5C 253.246,442.907 251.58,440.573 249.5,438.5C 245.994,434.156 242.661,429.656 239.5,425C 240.793,424.51 242.127,424.343 243.5,424.5C 244.997,419.344 245.997,414.01 246.5,408.5C 247.954,406.563 249.621,404.897 251.5,403.5 Z"/></g>
<g><path style="opacity:1" fill="#301518" d="M 89.5,396.5 C 94.3992,404.078 99.7325,411.412 105.5,418.5C 103.852,417.19 102.186,415.857 100.5,414.5C 99.109,415.645 97.7757,415.645 96.5,414.5C 98.0396,413.468 98.5396,412.135 98,410.5C 93.3891,406.95 90.5558,402.284 89.5,396.5 Z"/></g>
<g><path style="opacity:0.945" fill="#393738" d="M 393.5,396.5 C 385.278,410.971 375.611,424.304 364.5,436.5C 364.36,434.876 365.027,433.71 366.5,433C 366.043,432.586 365.709,432.086 365.5,431.5C 366.274,430.289 367.107,430.289 368,431.5C 369.118,429.235 369.951,426.901 370.5,424.5C 371.5,424.5 372.5,424.5 373.5,424.5C 373.658,420.828 375.325,417.995 378.5,416C 378.167,415.667 377.833,415.333 377.5,415C 380.237,413.388 381.07,411.222 380,408.5C 382.557,409.646 383.89,408.646 384,405.5C 384.893,406.711 385.726,406.711 386.5,405.5C 385.833,404.833 385.167,404.167 384.5,403.5C 386.441,401.166 388.107,398.666 389.5,396C 391.066,395.235 392.399,395.402 393.5,396.5 Z"/></g>
<g><path style="opacity:1" fill="#c6a7a8" d="M 348.5,412.5 C 341.577,421.761 333.91,430.427 325.5,438.5C 325.714,436.856 325.38,435.356 324.5,434C 326.134,433.506 327.801,433.34 329.5,433.5C 330.167,431.5 330.833,429.5 331.5,427.5C 334.5,427.167 336.167,425.5 336.5,422.5C 337.5,422.5 338.5,422.5 339.5,422.5C 339.67,421.178 339.337,420.011 338.5,419C 339.793,418.51 341.127,418.343 342.5,418.5C 342.5,417.5 342.5,416.5 342.5,415.5C 343.5,415.5 344.5,415.5 345.5,415.5C 345.5,414.5 345.5,413.5 345.5,412.5C 346.5,412.5 347.5,412.5 348.5,412.5 Z"/></g>
<g><path style="opacity:0.846" fill="#4d4c4d" d="M 85.5,424.5 C 87.1947,425.011 88.8614,425.678 90.5,426.5C 89.4647,428.128 89.4647,429.795 90.5,431.5C 88.4525,429.45 86.7859,427.117 85.5,424.5 Z"/></g>
<g><path style="opacity:1" fill="#44151b" d="M 240.5,430.5 C 243.5,433.167 246.5,435.833 249.5,438.5C 251.58,440.573 253.246,442.907 254.5,445.5C 249.106,441.108 244.439,436.108 240.5,430.5 Z"/></g>
<g><path style="opacity:1" fill="#601d26" d="M 127.5,432.5 C 134.575,438.908 141.242,445.575 147.5,452.5C 139.812,446.812 133.146,440.146 127.5,432.5 Z"/></g>
<g><path style="opacity:1" fill="#4a151c" d="M 341.5,434.5 C 335.479,442.521 328.479,449.521 320.5,455.5C 327.242,448.092 334.242,441.092 341.5,434.5 Z"/></g>
<g><path style="opacity:1" fill="#a72135" d="M 111.5,414.5 C 117.284,420.042 122.617,426.042 127.5,432.5C 133.146,440.146 139.812,446.812 147.5,452.5C 150.231,456.234 153.564,459.234 157.5,461.5C 158.167,462.5 158.833,463.5 159.5,464.5C 159.369,465.239 159.536,465.906 160,466.5C 163.704,469.379 167.204,472.379 170.5,475.5C 173.426,476.453 176.093,477.787 178.5,479.5C 183.016,482.256 187.349,485.256 191.5,488.5C 191.5,489.5 191.5,490.5 191.5,491.5C 188.031,491.453 184.698,490.787 181.5,489.5C 178.821,489.475 177.488,488.142 177.5,485.5C 173.258,485.045 169.925,483.045 167.5,479.5C 160.711,471.431 152.711,464.764 143.5,459.5C 133.839,450.672 124.672,441.338 116,431.5C 113.19,428.536 111.024,425.202 109.5,421.5C 108.228,418.459 106.561,415.626 104.5,413C 104.833,412.5 105.167,412 105.5,411.5C 107.302,412.986 109.302,413.986 111.5,414.5 Z"/></g>
<g><path style="opacity:1" fill="#4e1b20" d="M 147.5,452.5 C 151.436,454.766 154.769,457.766 157.5,461.5C 153.564,459.234 150.231,456.234 147.5,452.5 Z"/></g>
<g><path style="opacity:1" fill="#a3a3a2" d="M 232.5,422.5 C 235.167,424.5 237.5,426.833 239.5,429.5C 236.146,449.729 229.312,468.729 219,486.5C 222.559,475.006 225.892,463.339 229,451.5C 230.882,441.917 232.048,432.251 232.5,422.5 Z"/></g>
<g><path style="opacity:0.941" fill="#3f3e3f" d="M 353.5,449.5 C 350.542,454.126 346.876,458.126 342.5,461.5C 342.703,459.61 342.037,458.11 340.5,457C 341.793,456.51 343.127,456.343 344.5,456.5C 344.5,455.5 344.5,454.5 344.5,453.5C 346.199,453.66 347.866,453.494 349.5,453C 349.167,452.667 348.833,452.333 348.5,452C 349.653,450.117 351.319,449.284 353.5,449.5 Z"/></g>
<g><path style="opacity:1" fill="#551923" d="M 317.5,458.5 C 315.1,461.903 312.1,464.57 308.5,466.5C 310.9,463.097 313.9,460.43 317.5,458.5 Z"/></g>
<g><path style="opacity:1" fill="#862634" d="M 143.5,459.5 C 152.711,464.764 160.711,471.431 167.5,479.5C 158.618,473.957 150.618,467.29 143.5,459.5 Z"/></g>
<g><path style="opacity:1" fill="#41161b" d="M 157.5,461.5 C 159.372,462.511 161.372,463.345 163.5,464C 164.665,465.992 165.998,467.825 167.5,469.5C 164.851,467.86 162.184,466.193 159.5,464.5C 158.833,463.5 158.167,462.5 157.5,461.5 Z"/></g>
<g><path style="opacity:1" fill="#8d2939" d="M 159.5,464.5 C 162.184,466.193 164.851,467.86 167.5,469.5C 168.833,469.5 169.5,470.167 169.5,471.5C 172.688,473.932 175.688,476.599 178.5,479.5C 176.093,477.787 173.426,476.453 170.5,475.5C 167.204,472.379 163.704,469.379 160,466.5C 159.536,465.906 159.369,465.239 159.5,464.5 Z"/></g>
<g><path style="opacity:1" fill="#331718" d="M 303.5,471.5 C 302.188,473.806 300.855,476.139 299.5,478.5C 295.988,478.644 293.654,480.31 292.5,483.5C 286.987,484.886 281.987,487.219 277.5,490.5C 279.486,487.025 282.486,484.858 286.5,484C 292.015,479.656 297.681,475.489 303.5,471.5 Z"/></g>
<g><path style="opacity:1" fill="#271717" d="M 199.5,491.5 C 196.447,491.428 193.781,490.428 191.5,488.5C 187.349,485.256 183.016,482.256 178.5,479.5C 175.688,476.599 172.688,473.932 169.5,471.5C 171.929,471.116 174.263,470.449 176.5,469.5C 176.034,471.201 176.034,472.701 176.5,474C 178.433,474.251 180.266,474.751 182,475.5C 182.118,473.427 183.118,472.093 185,471.5C 187.859,472.52 189.359,474.52 189.5,477.5C 187.143,477.337 184.81,477.503 182.5,478C 184.5,478.333 186.5,478.667 188.5,479C 189.459,480.464 190.792,481.297 192.5,481.5C 194.652,479.931 196.986,479.431 199.5,480C 196.536,481.306 194.203,483.306 192.5,486C 195.266,487.371 197.599,489.204 199.5,491.5 Z"/></g>
<g><path style="opacity:1" fill="#9a2535" d="M 191.5,488.5 C 193.781,490.428 196.447,491.428 199.5,491.5C 202.465,494.646 205.798,497.313 209.5,499.5C 206.753,499.187 204.086,499.52 201.5,500.5C 206.465,503.473 211.132,506.807 215.5,510.5C 208.082,506.936 200.748,503.102 193.5,499C 189.075,496.413 185.075,493.247 181.5,489.5C 184.698,490.787 188.031,491.453 191.5,491.5C 191.5,490.5 191.5,489.5 191.5,488.5 Z"/></g>
<g><path style="opacity:1" fill="#8b2837" d="M 277.5,490.5 C 275.498,492.482 273.165,494.148 270.5,495.5C 261.732,500.939 252.732,505.939 243.5,510.5C 243.414,509.504 243.748,508.671 244.5,508C 247.525,507.846 249.191,506.346 249.5,503.5C 251.527,503.662 253.527,503.495 255.5,503C 262.431,498.037 269.764,493.87 277.5,490.5 Z"/></g>
<g><path style="opacity:0.204" fill="#9f9f9f" d="M 163.5,501.5 C 165.027,501.427 166.027,502.094 166.5,503.5C 164.973,503.573 163.973,502.906 163.5,501.5 Z"/></g>
<g><path style="opacity:1" fill="#341518" d="M 270.5,495.5 C 267.07,498.925 263.403,502.092 259.5,505C 257.833,505.333 256.167,505.667 254.5,506C 254.64,507.069 254.64,508.236 254.5,509.5C 253.554,509.013 252.554,508.68 251.5,508.5C 249.208,510.449 246.541,511.449 243.5,511.5C 243.5,511.167 243.5,510.833 243.5,510.5C 252.732,505.939 261.732,500.939 270.5,495.5 Z"/></g>
<g><path style="opacity:0.788" fill="#3f3d3e" d="M 166.5,503.5 C 168.094,503.92 169.594,504.586 171,505.5C 171.772,505.355 172.439,505.022 173,504.5C 174.878,506.043 176.378,507.876 177.5,510C 180.168,510.567 182.834,511.067 185.5,511.5C 186.385,514.061 187.718,516.394 189.5,518.5C 181.313,514.244 173.646,509.244 166.5,503.5 Z"/></g>
<g><path style="opacity:0.004" fill="#c9c9c9" d="M 278.5,513.5 C 278.027,514.906 277.027,515.573 275.5,515.5C 275.973,514.094 276.973,513.427 278.5,513.5 Z"/></g>
<g><path style="opacity:1" fill="#661e28" d="M 215.5,510.5 C 219.63,513.078 224.13,515.078 229,516.5C 232.483,515.062 235.983,513.729 239.5,512.5C 236.195,514.775 232.695,516.775 229,518.5C 223.622,517.231 219.122,514.564 215.5,510.5 Z"/></g>
<g><path style="opacity:0.906" fill="#4f4b4e" d="M 194.5,521.5 C 196.086,522.413 197.586,522.413 199,521.5C 201.67,522.224 203.17,523.891 203.5,526.5C 200.008,525.59 197.008,523.924 194.5,521.5 Z"/></g>
<g><path style="opacity:0.082" fill="#a0a0a0" d="M 203.5,526.5 C 205.027,526.427 206.027,527.094 206.5,528.5C 204.973,528.573 203.973,527.906 203.5,526.5 Z"/></g>
<g><path style="opacity:0.004" fill="#b9b9b9" d="M 248.5,530.5 C 248.027,531.906 247.027,532.573 245.5,532.5C 245.973,531.094 246.973,530.427 248.5,530.5 Z"/></g>
</svg>
