<?xml version="1.0" encoding="UTF-8"?>
<!DOCTYPE svg PUBLIC "-//W3C//DTD SVG 1.1//EN" "http://www.w3.org/Graphics/SVG/1.1/DTD/svg11.dtd">
<svg xmlns="http://www.w3.org/2000/svg" version="1.1" width="585px" height="426px" style="shape-rendering:geometricPrecision; text-rendering:geometricPrecision; image-rendering:optimizeQuality; fill-rule:evenodd; clip-rule:evenodd" xmlns:xlink="http://www.w3.org/1999/xlink">
<g><path style="opacity:0.995" fill="#030303" d="M 359.5,16.5 C 361.833,18.1667 363.833,20.1667 365.5,22.5C 366.419,25.0892 368.086,27.0892 370.5,28.5C 374.35,32.3669 376.683,37.0335 377.5,42.5C 377.523,44.9267 378.023,47.26 379,49.5C 379.499,44.1771 379.666,38.8437 379.5,33.5C 380.167,29.5 380.833,25.5 381.5,21.5C 382.5,22.1667 383.5,22.8333 384.5,23.5C 384.427,25.0269 385.094,26.0269 386.5,26.5C 388.063,27.9448 389.396,29.6115 390.5,31.5C 390.738,33.4044 391.738,34.7377 393.5,35.5C 398.206,44.0598 399.539,53.2265 397.5,63C 397.981,66.7723 399.148,70.2723 401,73.5C 404.029,68.77 407.529,64.4366 411.5,60.5C 413.436,59.741 415.269,58.741 417,57.5C 418.935,59.0339 420.101,61.0339 420.5,63.5C 420.5,63.8333 420.5,64.1667 420.5,64.5C 419.115,65.3023 419.282,65.9689 421,66.5C 421.765,66.4301 422.265,66.0967 422.5,65.5C 428.682,63.3646 435.015,61.3646 441.5,59.5C 442.239,59.369 442.906,59.5357 443.5,60C 442.177,60.8159 441.511,61.9826 441.5,63.5C 440.711,63.7828 440.044,64.2828 439.5,65C 442.817,65.4983 446.15,65.665 449.5,65.5C 454.122,65.1561 458.455,65.8227 462.5,67.5C 464.635,69.0709 466.968,70.4043 469.5,71.5C 470.043,71.56 470.376,71.8933 470.5,72.5C 458.74,72.0006 449.74,76.5006 443.5,86C 459.772,84.6372 476.105,83.4705 492.5,82.5C 494.085,83.4737 495.085,84.9737 495.5,87C 497.473,87.4955 499.473,87.6621 501.5,87.5C 507.553,88.0393 513.22,89.706 518.5,92.5C 519.386,98.4603 520.053,104.46 520.5,110.5C 521.542,118.131 522.209,125.798 522.5,133.5C 522.291,139.674 521.124,145.674 519,151.5C 516.539,158.246 513.706,164.746 510.5,171C 510.167,171.5 509.833,172 509.5,172.5C 508.509,168.555 508.176,164.555 508.5,160.5C 508.543,156.107 508.043,155.774 507,159.5C 506.183,165.016 506.349,170.35 507.5,175.5C 507.215,178.829 507.882,181.829 509.5,184.5C 512.845,197.007 513.012,209.674 510,222.5C 508.624,225.125 507.458,225.125 506.5,222.5C 506.416,219.318 505.083,216.985 502.5,215.5C 499.93,210.262 496.264,205.928 491.5,202.5C 491.5,202.167 491.5,201.833 491.5,201.5C 491.217,200.711 490.717,200.044 490,199.5C 489.26,200.749 489.427,201.749 490.5,202.5C 490.773,204.451 490.107,205.951 488.5,207C 488.833,207.333 489.167,207.667 489.5,208C 487.803,208.384 486.137,208.218 484.5,207.5C 481.515,206.674 478.849,205.341 476.5,203.5C 476.027,202.094 475.027,201.427 473.5,201.5C 466.858,197.761 461.358,192.761 457,186.5C 453.574,179.803 450.908,172.803 449,165.5C 447.629,167.041 446.129,168.375 444.5,169.5C 442.973,169.427 441.973,170.094 441.5,171.5C 438.136,173.683 434.47,175.016 430.5,175.5C 427.612,174.99 425.279,175.656 423.5,177.5C 420.175,182.732 419.841,188.065 422.5,193.5C 421.769,195.749 420.769,197.916 419.5,200C 419.978,201.642 420.978,202.809 422.5,203.5C 422.439,205.592 421.439,207.092 419.5,208C 421.891,208.691 421.891,209.691 419.5,211C 416.51,211.847 415.176,210.68 415.5,207.5C 413.167,207.5 410.833,207.5 408.5,207.5C 408.027,206.094 407.027,205.427 405.5,205.5C 404.286,202.647 403.953,199.814 404.5,197C 403.094,194.551 401.094,193.551 398.5,194C 399.672,194.419 400.672,195.085 401.5,196C 401.034,197.299 401.034,198.799 401.5,200.5C 398.89,198.432 395.89,196.932 392.5,196C 391.833,195.333 391.167,194.667 390.5,194C 396.876,192.714 396.542,191.714 389.5,191C 387.814,186.603 384.814,185.436 380.5,187.5C 380.833,185.5 381.167,183.5 381.5,181.5C 378.143,182.627 374.809,182.627 371.5,181.5C 371.422,178.513 372.589,177.847 375,179.5C 376.5,178.5 378,177.5 379.5,176.5C 375.527,175.619 371.36,175.619 367,176.5C 364.98,175.968 364.147,174.635 364.5,172.5C 367.797,172.671 368.131,172.005 365.5,170.5C 363.865,169.319 362.198,169.319 360.5,170.5C 359.06,169.048 357.394,168.048 355.5,167.5C 352.457,165.107 349.624,162.441 347,159.5C 344.943,156.279 343.109,152.946 341.5,149.5C 340.176,141.869 338.009,134.536 335,127.5C 334.094,124.156 334.594,121.156 336.5,118.5C 343.321,107.729 345.654,96.0628 343.5,83.5C 343.145,80.9333 342.479,78.4333 341.5,76C 342.176,74.3167 343.176,74.1501 344.5,75.5C 344.461,76.7562 344.961,77.7562 346,78.5C 346.796,75.9615 346.629,73.6282 345.5,71.5C 344.816,67.2765 343.816,63.1098 342.5,59C 342.85,57.7425 343.517,57.4092 344.5,58C 345.667,59.8333 346.833,61.6667 348,63.5C 351.232,53.84 354.065,44.1733 356.5,34.5C 356.853,28.2645 357.853,22.2645 359.5,16.5 Z"/></g>
<g><path style="opacity:0.145" fill="#8e8e8e" d="M 381.5,21.5 C 380.833,25.5 380.167,29.5 379.5,33.5C 379.174,29.1161 379.508,24.7828 380.5,20.5C 381.107,20.6236 381.44,20.9569 381.5,21.5 Z"/></g>
<g><path style="opacity:0.209" fill="#707070" d="M 359.5,16.5 C 357.853,22.2645 356.853,28.2645 356.5,34.5C 356.5,28.1667 356.5,21.8333 356.5,15.5C 357.791,15.2627 358.791,15.596 359.5,16.5 Z"/></g>
<g><path style="opacity:0.408" fill="#747474" d="M 365.5,22.5 C 367.914,23.9108 369.581,25.9108 370.5,28.5C 368.086,27.0892 366.419,25.0892 365.5,22.5 Z"/></g>
<g><path style="opacity:0.176" fill="#adadad" d="M 384.5,23.5 C 385.906,23.9731 386.573,24.9731 386.5,26.5C 385.094,26.0269 384.427,25.0269 384.5,23.5 Z"/></g>
<g><path style="opacity:0.247" fill="#767676" d="M 390.5,31.5 C 392.262,32.2623 393.262,33.5956 393.5,35.5C 391.738,34.7377 390.738,33.4044 390.5,31.5 Z"/></g>
<g><path style="opacity:0.043" fill="#9f9f9f" d="M 379.5,33.5 C 379.666,38.8437 379.499,44.1771 379,49.5C 378.023,47.26 377.523,44.9267 377.5,42.5C 378.167,39.5 378.833,36.5 379.5,33.5 Z"/></g>
<g><path style="opacity:0.931" fill="#323232" d="M 420.5,63.5 C 420.101,61.0339 418.935,59.0339 417,57.5C 415.269,58.741 413.436,59.741 411.5,60.5C 412.29,59.2058 413.29,58.0391 414.5,57C 418.653,54.9208 422.986,53.4208 427.5,52.5C 427.649,53.552 427.483,54.552 427,55.5C 424.575,58.0534 422.408,60.7201 420.5,63.5 Z"/></g>
<g><path style="opacity:0.008" fill="#747474" d="M 441.5,59.5 C 442.209,58.596 443.209,58.2627 444.5,58.5C 444.727,60.9328 443.727,62.5994 441.5,63.5C 441.511,61.9826 442.177,60.8159 443.5,60C 442.906,59.5357 442.239,59.369 441.5,59.5 Z"/></g>
<g><path style="opacity:0.071" fill="#8c8c8c" d="M 420.5,64.5 C 420.842,65.3382 421.508,65.6716 422.5,65.5C 422.265,66.0967 421.765,66.4301 421,66.5C 419.282,65.9689 419.115,65.3023 420.5,64.5 Z"/></g>
<g><path style="opacity:0.016" fill="#a7a7a7" d="M 441.5,63.5 C 444.167,64.1667 446.833,64.8333 449.5,65.5C 446.15,65.665 442.817,65.4983 439.5,65C 440.044,64.2828 440.711,63.7828 441.5,63.5 Z"/></g>
<g><path style="opacity:0.2" fill="#5c5c5c" d="M 462.5,67.5 C 465.682,67.584 468.015,68.9173 469.5,71.5C 466.968,70.4043 464.635,69.0709 462.5,67.5 Z"/></g>
<g><path style="opacity:0.302" fill="#4b4b4b" d="M 344.5,75.5 C 343.176,74.1501 342.176,74.3167 341.5,76C 342.479,78.4333 343.145,80.9333 343.5,83.5C 341.609,80.0428 339.942,76.3761 338.5,72.5C 338.833,72.1667 339.167,71.8333 339.5,71.5C 341.858,72.1539 343.525,73.4872 344.5,75.5 Z"/></g>
<g><path style="opacity:0.059" fill="#999999" d="M 345.5,71.5 C 346.629,73.6282 346.796,75.9615 346,78.5C 344.961,77.7562 344.461,76.7562 344.5,75.5C 345.434,74.4324 345.768,73.099 345.5,71.5 Z"/></g>
<g><path style="opacity:0.816" fill="#2d2d2d" d="M 501.5,87.5 C 499.473,87.6621 497.473,87.4955 495.5,87C 495.085,84.9737 494.085,83.4737 492.5,82.5C 499.522,77.6906 500.855,78.8572 496.5,86C 498.382,86.1981 500.048,86.6981 501.5,87.5 Z"/></g>
<g><path style="opacity:0.995" fill="#010101" d="M 159.5,92.5 C 159.929,100.709 160.929,108.709 162.5,116.5C 163.882,126.302 164.715,136.302 165,146.5C 166.615,159.959 169.948,172.959 175,185.5C 178.411,189.399 181.578,193.399 184.5,197.5C 184.856,198.87 185.69,199.87 187,200.5C 189.77,201.348 192.603,201.681 195.5,201.5C 212.167,201.833 228.833,202.167 245.5,202.5C 251.43,202.872 257.097,202.205 262.5,200.5C 275.326,198.421 286.659,193.088 296.5,184.5C 298.587,183.415 299.92,181.749 300.5,179.5C 301.864,177.809 303.197,176.142 304.5,174.5C 306.262,173.738 307.262,172.404 307.5,170.5C 310.199,166.81 312.865,163.143 315.5,159.5C 317.532,158.952 318.532,157.619 318.5,155.5C 321.888,156.165 322.888,155.165 321.5,152.5C 321.668,150.829 322.335,149.496 323.5,148.5C 323.502,152.874 324.502,156.874 326.5,160.5C 327.36,163.632 328.36,166.632 329.5,169.5C 329.5,170.167 329.5,170.833 329.5,171.5C 329.5,175.5 329.5,179.5 329.5,183.5C 330.5,183.5 331.5,183.5 332.5,183.5C 332.336,186.187 332.503,188.854 333,191.5C 333.826,189.595 334.993,189.261 336.5,190.5C 335.978,191.607 335.645,192.774 335.5,194C 336.472,196.782 337.305,199.615 338,202.5C 339.113,203.711 340.28,203.711 341.5,202.5C 343.246,204.252 345.246,205.585 347.5,206.5C 360.218,223.218 375.218,237.551 392.5,249.5C 397.309,253.738 402.309,257.738 407.5,261.5C 410.563,265.566 414.229,268.899 418.5,271.5C 421.833,275.5 425.5,279.167 429.5,282.5C 434.173,287.506 438.84,292.506 443.5,297.5C 445.747,294.091 447.414,290.424 448.5,286.5C 451.089,282.552 454.089,278.886 457.5,275.5C 454.397,281.952 451.564,288.618 449,295.5C 447.834,298.503 446.167,301.17 444,303.5C 440.563,300.678 437.563,297.345 435,293.5C 432.826,308.547 429.159,323.214 424,337.5C 423.333,341.167 423.333,344.833 424,348.5C 426.57,352.44 428.07,356.773 428.5,361.5C 437.083,361.276 443.25,364.942 447,372.5C 447.667,374.167 447.667,375.833 447,377.5C 444.749,379.377 442.249,380.877 439.5,382C 428.168,385.232 416.835,388.398 405.5,391.5C 406.163,395.49 406.83,399.49 407.5,403.5C 407.449,405.1 407.116,406.6 406.5,408C 402.186,410.66 397.519,412.327 392.5,413C 381.167,415 369.833,415 358.5,413C 354.271,411.885 350.271,410.219 346.5,408C 341.366,403.867 336.532,399.367 332,394.5C 330.913,390.234 329.246,386.234 327,382.5C 325.89,384.037 324.39,384.703 322.5,384.5C 321.314,380.746 320.314,376.913 319.5,373C 319.095,372.055 318.428,371.388 317.5,371C 310.167,370.333 302.833,369.667 295.5,369C 269.169,368.5 242.835,368.333 216.5,368.5C 216.608,370.783 217.441,372.783 219,374.5C 222.038,377.203 224.705,380.203 227,383.5C 227.865,385.888 227.032,387.388 224.5,388C 212.397,391.377 200.064,392.377 187.5,391C 185.461,389.074 183.794,386.907 182.5,384.5C 182.573,382.973 181.906,381.973 180.5,381.5C 178.757,378.753 176.424,376.753 173.5,375.5C 171.662,374.322 169.995,374.655 168.5,376.5C 165.755,377.084 163.422,378.418 161.5,380.5C 160.948,382.003 160.948,383.669 161.5,385.5C 161.229,387.38 161.896,388.713 163.5,389.5C 166.617,395.289 169.284,401.289 171.5,407.5C 172.143,411.433 171.143,414.766 168.5,417.5C 166.786,418.738 164.786,419.405 162.5,419.5C 155.841,419.954 149.174,420.287 142.5,420.5C 139.813,420.664 137.146,420.497 134.5,420C 128.572,412.219 125.405,403.386 125,393.5C 124.052,378.46 122.719,363.46 121,348.5C 118.688,345.354 116.188,342.354 113.5,339.5C 117.853,329.971 121.187,320.138 123.5,310C 122.762,306.384 122.096,302.718 121.5,299C 122.291,290.535 122.791,282.035 123,273.5C 123.396,270.343 124.229,267.343 125.5,264.5C 127.585,262.316 128.585,259.649 128.5,256.5C 129.501,253.828 130.501,251.162 131.5,248.5C 133.104,247.713 133.771,246.38 133.5,244.5C 135.234,240.7 137.234,237.034 139.5,233.5C 141.25,232.341 142.25,230.674 142.5,228.5C 144.052,226.058 145.052,223.391 145.5,220.5C 138.518,188.147 136.685,155.48 140,122.5C 141.88,114.194 144.547,106.194 148,98.5C 150.234,94.5422 153.067,91.0422 156.5,88C 157.449,87.3828 158.282,87.5494 159,88.5C 159.49,89.7932 159.657,91.1266 159.5,92.5 Z"/></g>
<g><path style="opacity:0.204" fill="#717171" d="M 159.5,92.5 C 161.364,100.255 162.364,108.255 162.5,116.5C 160.929,108.709 159.929,100.709 159.5,92.5 Z"/></g>
<g><path style="opacity:0.125" fill="#5d5d5d" d="M 520.5,110.5 C 523.057,118.048 523.724,125.714 522.5,133.5C 522.209,125.798 521.542,118.131 520.5,110.5 Z"/></g>
<g><path style="opacity:0.728" fill="#291718" d="M 336.5,118.5 C 334.594,121.156 334.094,124.156 335,127.5C 338.009,134.536 340.176,141.869 341.5,149.5C 340.11,148.101 339.11,146.434 338.5,144.5C 335.396,137.853 333.73,130.853 333.5,123.5C 330.99,123.054 328.99,123.72 327.5,125.5C 325.22,137.046 324.886,148.713 326.5,160.5C 324.502,156.874 323.502,152.874 323.5,148.5C 323.5,147.833 323.167,147.5 322.5,147.5C 321.576,139.48 322.076,131.48 324,123.5C 328.015,121.408 332.181,119.741 336.5,118.5 Z"/></g>
<g><path style="opacity:1" fill="#4a0b11" d="M 338.5,144.5 C 336.209,141.501 334.376,138.168 333,134.5C 332.047,131.568 331.547,128.568 331.5,125.5C 330.167,125.5 328.833,125.5 327.5,125.5C 328.99,123.72 330.99,123.054 333.5,123.5C 333.73,130.853 335.396,137.853 338.5,144.5 Z"/></g>
<g><path style="opacity:0.902" fill="#3d3b3c" d="M 322.5,147.5 C 323.167,147.5 323.5,147.833 323.5,148.5C 322.335,149.496 321.668,150.829 321.5,152.5C 322.888,155.165 321.888,156.165 318.5,155.5C 318.532,157.619 317.532,158.952 315.5,159.5C 318.273,155.734 320.606,151.734 322.5,147.5 Z"/></g>
<g><path style="opacity:0.155" fill="#717171" d="M 508.5,160.5 C 507.513,165.305 507.179,170.305 507.5,175.5C 506.349,170.35 506.183,165.016 507,159.5C 508.043,155.774 508.543,156.107 508.5,160.5 Z"/></g>
<g><path style="opacity:1" fill="#9b272a" d="M 327.5,125.5 C 328.833,125.5 330.167,125.5 331.5,125.5C 331.547,128.568 332.047,131.568 333,134.5C 334.376,138.168 336.209,141.501 338.5,144.5C 339.11,146.434 340.11,148.101 341.5,149.5C 343.109,152.946 344.943,156.279 347,159.5C 349.624,162.441 352.457,165.107 355.5,167.5C 358.629,171.131 361.963,174.631 365.5,178C 371.945,181.95 377.945,186.45 383.5,191.5C 379.21,188.861 374.544,187.027 369.5,186C 368.833,184.333 368.167,182.667 367.5,181C 365.782,180.654 364.115,180.154 362.5,179.5C 361.85,176.345 360.183,173.845 357.5,172C 353.733,170.381 350.4,168.215 347.5,165.5C 343.742,156.974 338.742,149.308 332.5,142.5C 331.645,137.136 330.645,131.803 329.5,126.5C 328.877,128.966 328.043,131.299 327,133.5C 326.833,136 326.667,138.5 326.5,141C 327.802,150.462 328.802,159.962 329.5,169.5C 328.36,166.632 327.36,163.632 326.5,160.5C 324.886,148.713 325.22,137.046 327.5,125.5 Z"/></g>
<g><path style="opacity:0.008" fill="#7b7b7b" d="M 444.5,169.5 C 444.027,170.906 443.027,171.573 441.5,171.5C 441.973,170.094 442.973,169.427 444.5,169.5 Z"/></g>
<g><path style="opacity:0.267" fill="#848484" d="M 307.5,170.5 C 307.262,172.404 306.262,173.738 304.5,174.5C 304.738,172.596 305.738,171.262 307.5,170.5 Z"/></g>
<g><path style="opacity:0.359" fill="#5e5e5e" d="M 430.5,175.5 C 428.285,176.268 425.952,176.935 423.5,177.5C 425.279,175.656 427.612,174.99 430.5,175.5 Z"/></g>
<g><path style="opacity:0.275" fill="#676767" d="M 300.5,179.5 C 299.92,181.749 298.587,183.415 296.5,184.5C 297.08,182.251 298.413,180.585 300.5,179.5 Z"/></g>
<g><path style="opacity:0.151" fill="#8e8e8e" d="M 507.5,175.5 C 508.657,178.273 509.324,181.273 509.5,184.5C 507.882,181.829 507.215,178.829 507.5,175.5 Z"/></g>
<g><path style="opacity:1" fill="#1d0403" d="M 329.5,171.5 C 331.303,175.949 332.803,180.615 334,185.5C 334.383,186.056 334.883,186.389 335.5,186.5C 339.498,193.162 343.498,199.829 347.5,206.5C 345.246,205.585 343.246,204.252 341.5,202.5C 340.28,203.711 339.113,203.711 338,202.5C 337.305,199.615 336.472,196.782 335.5,194C 335.645,192.774 335.978,191.607 336.5,190.5C 334.993,189.261 333.826,189.595 333,191.5C 332.503,188.854 332.336,186.187 332.5,183.5C 331.5,183.5 330.5,183.5 329.5,183.5C 329.5,179.5 329.5,175.5 329.5,171.5 Z"/></g>
<g><path style="opacity:1" fill="#c12426" d="M 383.5,191.5 C 383.5,193.167 383.5,194.833 383.5,196.5C 387.234,197.413 390.9,198.747 394.5,200.5C 400.27,204.23 405.937,208.23 411.5,212.5C 412.736,213.246 414.07,213.579 415.5,213.5C 415.672,215.492 415.005,217.158 413.5,218.5C 414.689,219.429 416.022,219.762 417.5,219.5C 417.281,218.325 417.614,217.325 418.5,216.5C 421.279,218.624 424.279,220.291 427.5,221.5C 428.807,222.153 430.14,222.82 431.5,223.5C 432.757,221.201 432.423,219.201 430.5,217.5C 430.5,215.833 430.5,214.167 430.5,212.5C 431.822,212.67 432.989,212.337 434,211.5C 440.299,215.393 446.466,219.393 452.5,223.5C 451.454,227.779 452.954,230.445 457,231.5C 458.84,233.681 460.007,236.181 460.5,239C 459.008,243.13 457.675,247.297 456.5,251.5C 454.597,253.562 452.263,254.896 449.5,255.5C 451.042,258.367 453.209,260.701 456,262.5C 456.498,265.482 456.665,268.482 456.5,271.5C 453.098,273.431 450.931,276.431 450,280.5C 448.345,283.153 446.345,285.486 444,287.5C 443.814,289.9 443.314,292.234 442.5,294.5C 439.342,291.172 436.342,287.672 433.5,284C 432.255,283.209 430.922,282.709 429.5,282.5C 426.833,277.833 423.167,274.167 418.5,271.5C 415.437,267.434 411.771,264.101 407.5,261.5C 404.009,257.509 400.343,253.676 396.5,250C 395.207,249.51 393.873,249.343 392.5,249.5C 390.502,244.996 387.169,242.162 382.5,241C 376.936,233.767 370.436,227.601 363,222.5C 362.138,220.913 361.471,219.246 361,217.5C 351.841,209.325 344.508,199.659 339,188.5C 338.184,187.177 337.017,186.511 335.5,186.5C 334.883,186.389 334.383,186.056 334,185.5C 332.803,180.615 331.303,175.949 329.5,171.5C 329.5,170.833 329.5,170.167 329.5,169.5C 328.802,159.962 327.802,150.462 326.5,141C 326.667,138.5 326.833,136 327,133.5C 328.043,131.299 328.877,128.966 329.5,126.5C 330.645,131.803 331.645,137.136 332.5,142.5C 338.742,149.308 343.742,156.974 347.5,165.5C 350.4,168.215 353.733,170.381 357.5,172C 360.183,173.845 361.85,176.345 362.5,179.5C 364.115,180.154 365.782,180.654 367.5,181C 368.167,182.667 368.833,184.333 369.5,186C 374.544,187.027 379.21,188.861 383.5,191.5 Z"/></g>
<g><path style="opacity:1" fill="#190203" d="M 355.5,167.5 C 357.394,168.048 359.06,169.048 360.5,170.5C 362.198,169.319 363.865,169.319 365.5,170.5C 368.131,172.005 367.797,172.671 364.5,172.5C 364.147,174.635 364.98,175.968 367,176.5C 371.36,175.619 375.527,175.619 379.5,176.5C 378,177.5 376.5,178.5 375,179.5C 372.589,177.847 371.422,178.513 371.5,181.5C 374.809,182.627 378.143,182.627 381.5,181.5C 381.167,183.5 380.833,185.5 380.5,187.5C 384.814,185.436 387.814,186.603 389.5,191C 396.542,191.714 396.876,192.714 390.5,194C 391.167,194.667 391.833,195.333 392.5,196C 395.89,196.932 398.89,198.432 401.5,200.5C 401.034,198.799 401.034,197.299 401.5,196C 400.672,195.085 399.672,194.419 398.5,194C 401.094,193.551 403.094,194.551 404.5,197C 403.953,199.814 404.286,202.647 405.5,205.5C 397.917,201.255 390.583,196.588 383.5,191.5C 377.945,186.45 371.945,181.95 365.5,178C 361.963,174.631 358.629,171.131 355.5,167.5 Z"/></g>
<g><path style="opacity:0.451" fill="#606060" d="M 184.5,197.5 C 187.973,199.566 191.639,200.9 195.5,201.5C 192.603,201.681 189.77,201.348 187,200.5C 185.69,199.87 184.856,198.87 184.5,197.5 Z"/></g>
<g><path style="opacity:0.58" fill="#291818" d="M 422.5,193.5 C 435.03,201.857 446.53,211.524 457,222.5C 463.714,229.927 466.381,238.594 465,248.5C 463.209,251.952 461.042,255.118 458.5,258C 458.93,259.434 459.764,260.601 461,261.5C 463.711,267.444 462.544,272.11 457.5,275.5C 454.089,278.886 451.089,282.552 448.5,286.5C 450.412,281.099 453.078,276.099 456.5,271.5C 458.427,268.863 458.927,265.863 458,262.5C 455.984,260.316 453.817,258.316 451.5,256.5C 462.354,252.114 465.521,244.448 461,233.5C 458.647,229.656 455.814,226.323 452.5,223.5C 443.319,213.906 433.319,205.24 422.5,197.5C 422.08,199.326 422.08,201.326 422.5,203.5C 420.978,202.809 419.978,201.642 419.5,200C 420.769,197.916 421.769,195.749 422.5,193.5 Z"/></g>
<g><path style="opacity:0.082" fill="#858585" d="M 491.5,201.5 C 490.833,201.5 490.5,201.833 490.5,202.5C 489.427,201.749 489.26,200.749 490,199.5C 490.717,200.044 491.217,200.711 491.5,201.5 Z"/></g>
<g><path style="opacity:0.631" fill="#3b3b3b" d="M 262.5,200.5 C 257.097,202.205 251.43,202.872 245.5,202.5C 250.984,201.482 256.651,200.816 262.5,200.5 Z"/></g>
<g><path style="opacity:0.114" fill="#7b7b7b" d="M 473.5,201.5 C 475.027,201.427 476.027,202.094 476.5,203.5C 474.973,203.573 473.973,202.906 473.5,201.5 Z"/></g>
<g><path style="opacity:1" fill="#a32d2e" d="M 383.5,191.5 C 390.583,196.588 397.917,201.255 405.5,205.5C 407.027,205.427 408.027,206.094 408.5,207.5C 414.729,211.046 420.729,215.046 426.5,219.5C 426.833,220.167 427.167,220.833 427.5,221.5C 424.279,220.291 421.279,218.624 418.5,216.5C 417.614,217.325 417.281,218.325 417.5,219.5C 416.022,219.762 414.689,219.429 413.5,218.5C 415.005,217.158 415.672,215.492 415.5,213.5C 414.07,213.579 412.736,213.246 411.5,212.5C 405.937,208.23 400.27,204.23 394.5,200.5C 390.9,198.747 387.234,197.413 383.5,196.5C 383.5,194.833 383.5,193.167 383.5,191.5 Z"/></g>
<g><path style="opacity:0.797" fill="#3e3e3e" d="M 490.5,202.5 C 490.833,202.5 491.167,202.5 491.5,202.5C 491.878,204.921 492.545,207.254 493.5,209.5C 492.791,210.404 491.791,210.737 490.5,210.5C 488.033,210.245 486.033,209.245 484.5,207.5C 486.137,208.218 487.803,208.384 489.5,208C 489.167,207.667 488.833,207.333 488.5,207C 490.107,205.951 490.773,204.451 490.5,202.5 Z"/></g>
<g><path style="opacity:1" fill="#90252b" d="M 335.5,186.5 C 337.017,186.511 338.184,187.177 339,188.5C 344.508,199.659 351.841,209.325 361,217.5C 361.471,219.246 362.138,220.913 363,222.5C 370.436,227.601 376.936,233.767 382.5,241C 387.169,242.162 390.502,244.996 392.5,249.5C 375.218,237.551 360.218,223.218 347.5,206.5C 343.498,199.829 339.498,193.162 335.5,186.5 Z"/></g>
<g><path style="opacity:1" fill="#a62d2f" d="M 452.5,223.5 C 446.466,219.393 440.299,215.393 434,211.5C 432.989,212.337 431.822,212.67 430.5,212.5C 430.5,214.167 430.5,215.833 430.5,217.5C 430.167,217.5 429.833,217.5 429.5,217.5C 428.201,212.236 425.868,207.569 422.5,203.5C 422.08,201.326 422.08,199.326 422.5,197.5C 433.319,205.24 443.319,213.906 452.5,223.5 Z"/></g>
<g><path style="opacity:1" fill="#1e0406" d="M 422.5,203.5 C 425.868,207.569 428.201,212.236 429.5,217.5C 429.649,218.552 429.483,219.552 429,220.5C 428.329,219.748 427.496,219.414 426.5,219.5C 420.729,215.046 414.729,211.046 408.5,207.5C 410.833,207.5 413.167,207.5 415.5,207.5C 415.176,210.68 416.51,211.847 419.5,211C 421.891,209.691 421.891,208.691 419.5,208C 421.439,207.092 422.439,205.592 422.5,203.5 Z"/></g>
<g><path style="opacity:0.004" fill="#cacaca" d="M 493.5,209.5 C 494.751,210.472 494.418,211.139 492.5,211.5C 491.584,211.457 490.917,211.124 490.5,210.5C 491.791,210.737 492.791,210.404 493.5,209.5 Z"/></g>
<g><path style="opacity:0.478" fill="#6c6c6c" d="M 502.5,215.5 C 505.083,216.985 506.416,219.318 506.5,222.5C 504.929,220.365 503.596,218.032 502.5,215.5 Z"/></g>
<g><path style="opacity:1" fill="#540307" d="M 429.5,217.5 C 429.833,217.5 430.167,217.5 430.5,217.5C 432.423,219.201 432.757,221.201 431.5,223.5C 430.14,222.82 428.807,222.153 427.5,221.5C 427.167,220.833 426.833,220.167 426.5,219.5C 427.496,219.414 428.329,219.748 429,220.5C 429.483,219.552 429.649,218.552 429.5,217.5 Z"/></g>
<g><path style="opacity:0.098" fill="#787878" d="M 142.5,228.5 C 142.25,230.674 141.25,232.341 139.5,233.5C 139.75,231.326 140.75,229.659 142.5,228.5 Z"/></g>
<g><path style="opacity:0.09" fill="#818181" d="M 133.5,244.5 C 133.771,246.38 133.104,247.713 131.5,248.5C 131.66,246.847 132.326,245.514 133.5,244.5 Z"/></g>
<g><path style="opacity:1" fill="#7a1f22" d="M 392.5,249.5 C 393.873,249.343 395.207,249.51 396.5,250C 400.343,253.676 404.009,257.509 407.5,261.5C 402.309,257.738 397.309,253.738 392.5,249.5 Z"/></g>
<g><path style="opacity:1" fill="#9c2b30" d="M 452.5,223.5 C 455.814,226.323 458.647,229.656 461,233.5C 465.521,244.448 462.354,252.114 451.5,256.5C 453.817,258.316 455.984,260.316 458,262.5C 458.927,265.863 458.427,268.863 456.5,271.5C 456.665,268.482 456.498,265.482 456,262.5C 453.209,260.701 451.042,258.367 449.5,255.5C 452.263,254.896 454.597,253.562 456.5,251.5C 457.675,247.297 459.008,243.13 460.5,239C 460.007,236.181 458.84,233.681 457,231.5C 452.954,230.445 451.454,227.779 452.5,223.5 Z"/></g>
<g><path style="opacity:0.624" fill="#585858" d="M 128.5,256.5 C 128.585,259.649 127.585,262.316 125.5,264.5C 125.98,261.557 126.98,258.89 128.5,256.5 Z"/></g>
<g><path style="opacity:1" fill="#581616" d="M 407.5,261.5 C 411.771,264.101 415.437,267.434 418.5,271.5C 414.229,268.899 410.563,265.566 407.5,261.5 Z"/></g>
<g><path style="opacity:1" fill="#772723" d="M 418.5,271.5 C 423.167,274.167 426.833,277.833 429.5,282.5C 425.5,279.167 421.833,275.5 418.5,271.5 Z"/></g>
<g><path style="opacity:1" fill="#a52f31" d="M 456.5,271.5 C 453.078,276.099 450.412,281.099 448.5,286.5C 447.414,290.424 445.747,294.091 443.5,297.5C 438.84,292.506 434.173,287.506 429.5,282.5C 430.922,282.709 432.255,283.209 433.5,284C 436.342,287.672 439.342,291.172 442.5,294.5C 443.314,292.234 443.814,289.9 444,287.5C 446.345,285.486 448.345,283.153 450,280.5C 450.931,276.431 453.098,273.431 456.5,271.5 Z"/></g>
<g><path style="opacity:0.008" fill="#7c7c7c" d="M 173.5,375.5 C 171.883,376.038 170.216,376.371 168.5,376.5C 169.995,374.655 171.662,374.322 173.5,375.5 Z"/></g>
<g><path style="opacity:0.008" fill="#7b7b7b" d="M 180.5,381.5 C 181.906,381.973 182.573,382.973 182.5,384.5C 181.094,384.027 180.427,383.027 180.5,381.5 Z"/></g>
<g><path style="opacity:0.078" fill="#898989" d="M 161.5,385.5 C 162.674,386.514 163.34,387.847 163.5,389.5C 161.896,388.713 161.229,387.38 161.5,385.5 Z"/></g>
<g><path style="opacity:0.055" fill="#979797" d="M 171.5,407.5 C 172.634,409.966 172.801,412.633 172,415.5C 171.184,416.823 170.017,417.489 168.5,417.5C 171.143,414.766 172.143,411.433 171.5,407.5 Z"/></g>
<g><path style="opacity:0.399" fill="#555555" d="M 162.5,419.5 C 155.883,421.386 149.217,421.719 142.5,420.5C 149.174,420.287 155.841,419.954 162.5,419.5 Z"/></g>
</svg>
