<?xml version="1.0" encoding="UTF-8"?>
<!DOCTYPE svg PUBLIC "-//W3C//DTD SVG 1.1//EN" "http://www.w3.org/Graphics/SVG/1.1/DTD/svg11.dtd">
<svg xmlns="http://www.w3.org/2000/svg" version="1.1" width="578px" height="620px" style="shape-rendering:geometricPrecision; text-rendering:geometricPrecision; image-rendering:optimizeQuality; fill-rule:evenodd; clip-rule:evenodd" xmlns:xlink="http://www.w3.org/1999/xlink">
<g><path style="opacity:1" fill="#000000" d="M -0.5,-0.5 C 192.167,-0.5 384.833,-0.5 577.5,-0.5C 577.5,206.167 577.5,412.833 577.5,619.5C 384.833,619.5 192.167,619.5 -0.5,619.5C -0.5,412.833 -0.5,206.167 -0.5,-0.5 Z"/></g>
<g><path style="opacity:1" fill="#454545" d="M 201.5,130.5 C 201.5,130.833 201.5,131.167 201.5,131.5C 192.857,137.802 184.19,144.135 175.5,150.5C 174.833,149.833 174.167,149.167 173.5,148.5C 174.552,148.649 175.552,148.483 176.5,148C 184.542,141.655 192.875,135.821 201.5,130.5 Z"/></g>
<g><path style="opacity:1" fill="#e7e7e7" d="M 286.5,39.5 C 286.695,36.0444 286.695,32.3778 286.5,28.5C 287.038,26.8828 287.371,25.2161 287.5,23.5C 285.5,23.5 283.5,23.5 281.5,23.5C 281.192,29.4254 281.525,35.2588 282.5,41C 281.833,41.6667 281.167,42.3333 280.5,43C 276.179,43.499 271.846,43.6657 267.5,43.5C 267.5,45.5 267.5,47.5 267.5,49.5C 271.483,48.5474 275.316,47.2141 279,45.5C 280.944,46.4394 282.611,47.7727 284,49.5C 284.168,58.1858 284.668,66.8525 285.5,75.5C 286.086,75.2907 286.586,74.9574 287,74.5C 287.333,64.8333 287.667,55.1667 288,45.5C 288.977,44.2264 289.811,44.2264 290.5,45.5C 295.305,46.4872 300.305,46.8205 305.5,46.5C 305.5,44.1667 305.5,41.8333 305.5,39.5C 304.209,39.2627 303.209,39.596 302.5,40.5C 300.152,40.6695 297.818,41.0029 295.5,41.5C 293.312,41.6927 291.645,40.8594 290.5,39C 295.73,38.5339 300.896,37.7006 306,36.5C 307.167,36.8333 308.333,37.1667 309.5,37.5C 308.805,41.619 308.805,45.619 309.5,49.5C 303.602,49.705 297.602,49.705 291.5,49.5C 292,57.838 292.667,66.1713 293.5,74.5C 305.166,85.6711 317.833,95.5045 331.5,104C 342.4,115.574 354.733,125.241 368.5,133C 369.893,134.171 370.727,135.671 371,137.5C 378.882,145.732 388.048,152.065 398.5,156.5C 401.328,155.116 404.328,154.449 407.5,154.5C 412.344,155.67 417.177,155.67 422,154.5C 425.141,155.322 428.307,155.989 431.5,156.5C 429.799,159.925 428.633,163.591 428,167.5C 425.167,169.667 422.333,171.833 419.5,174C 409.988,172.504 400.321,172.171 390.5,173C 389.194,178.446 389.194,183.946 390.5,189.5C 394.667,193.087 399.334,195.92 404.5,198C 420.52,205.178 436.853,211.511 453.5,217C 473.96,226.899 494.627,236.232 515.5,245C 517.559,246.185 517.726,247.352 516,248.5C 514.535,247.67 513.035,247.504 511.5,248C 508.273,250.112 504.94,251.945 501.5,253.5C 498.903,253.279 498.903,252.779 501.5,252C 498.833,251.333 498.833,250.667 501.5,250C 501.272,249.601 500.938,249.435 500.5,249.5C 502.493,247.837 504.826,246.67 507.5,246C 490.557,238.909 473.89,231.242 457.5,223C 433.652,215.563 410.985,205.729 389.5,193.5C 389.062,193.565 388.728,193.399 388.5,193C 390.709,192.043 390.543,190.876 388,189.5C 387.667,195.167 387.333,200.833 387,206.5C 386.667,196.833 386.333,187.167 386,177.5C 385.502,180.817 385.335,184.15 385.5,187.5C 384.515,183.366 384.182,179.032 384.5,174.5C 381.833,174.5 379.167,174.5 376.5,174.5C 360.864,173.014 345.198,172.014 329.5,171.5C 344.17,171.667 358.837,171.5 373.5,171C 374.833,170.667 376.167,170.333 377.5,170C 367.293,169.828 357.293,168.995 347.5,167.5C 350.045,167.849 352.045,167.016 353.5,165C 350.69,164.218 348.023,163.384 345.5,162.5C 350.371,162.808 355.037,161.975 359.5,160C 335.979,140.311 312.312,120.811 288.5,101.5C 278.003,108.583 267.336,115.416 256.5,122C 244.962,129.605 233.962,137.938 223.5,147C 214.811,152.205 205.811,156.705 196.5,160.5C 195.167,160.5 194.5,161.167 194.5,162.5C 192.5,163.167 190.5,163.833 188.5,164.5C 188.631,165.376 188.298,166.043 187.5,166.5C 179.165,165.55 170.831,165.883 162.5,167.5C 164.594,168.518 166.594,169.518 168.5,170.5C 167.833,171.5 167.167,172.5 166.5,173.5C 165.796,171.656 164.463,171.156 162.5,172C 163.056,172.383 163.389,172.883 163.5,173.5C 162.295,174.686 160.961,174.686 159.5,173.5C 156.21,168.376 152.043,164.042 147,160.5C 146.333,159.5 146.333,158.5 147,157.5C 154.421,156.684 161.921,156.184 169.5,156C 171.37,153.96 173.37,152.127 175.5,150.5C 184.19,144.135 192.857,137.802 201.5,131.5C 206.965,128.934 212.298,126.101 217.5,123C 235.558,109.943 253.891,97.2765 272.5,85C 269.725,85.3737 267.058,86.3737 264.5,88C 242.503,100.855 221.503,115.022 201.5,130.5C 192.875,135.821 184.542,141.655 176.5,148C 175.552,148.483 174.552,148.649 173.5,148.5C 173.859,146.629 174.859,145.129 176.5,144C 196.887,128.613 217.553,113.613 238.5,99C 252.656,90.2562 267.323,82.5896 282.5,76C 281.874,75.2496 281.374,74.4162 281,73.5C 280.731,65.4363 280.564,57.4363 280.5,49.5C 275.861,52.1337 270.861,53.1337 265.5,52.5C 264.516,49.1881 263.516,45.8548 262.5,42.5C 262.709,41.914 263.043,41.414 263.5,41C 268.489,40.5007 273.489,40.3341 278.5,40.5C 278.5,34.1667 278.5,27.8333 278.5,21.5C 282.472,21.5325 286.306,20.8658 290,19.5C 294.249,19.7081 294.582,21.0415 291,23.5C 289.582,29.1128 288.082,34.4462 286.5,39.5 Z"/></g>
<g><path style="opacity:1" fill="#121212" d="M 347.5,167.5 C 357.293,168.995 367.293,169.828 377.5,170C 376.167,170.333 374.833,170.667 373.5,171C 358.837,171.5 344.17,171.667 329.5,171.5C 321.798,171.569 314.131,171.069 306.5,170C 306.833,169.667 307.167,169.333 307.5,169C 320.806,167.787 334.139,167.287 347.5,167.5 Z"/></g>
<g><path style="opacity:1" fill="#5b5b5b" d="M 158.5,166.5 C 160.337,166.639 160.67,167.306 159.5,168.5C 158.702,168.043 158.369,167.376 158.5,166.5 Z"/></g>
<g><path style="opacity:1" fill="#212121" d="M 188.5,164.5 C 215.834,165.658 243.167,165.658 270.5,164.5C 279.198,164.511 287.865,165.011 296.5,166C 291.547,166.995 286.547,167.662 281.5,168C 243.818,168.275 206.151,169.108 168.5,170.5C 166.594,169.518 164.594,168.518 162.5,167.5C 170.831,165.883 179.165,165.55 187.5,166.5C 188.298,166.043 188.631,165.376 188.5,164.5 Z"/></g>
<g><path style="opacity:1" fill="#222222" d="M 357.5,163.5 C 379.263,163.042 400.929,164.209 422.5,167C 412.326,168.639 401.993,168.972 391.5,168C 379.875,166.806 368.208,166.139 356.5,166C 355.833,165.667 355.167,165.333 354.5,165C 355.737,164.768 356.737,164.268 357.5,163.5 Z"/></g>
<g><path style="opacity:1" fill="#444444" d="M 162.5,162.5 C 162.5,162.833 162.5,163.167 162.5,163.5C 158.395,164.809 154.729,163.809 151.5,160.5C 153.5,159.167 155.5,159.167 157.5,160.5C 157.291,161.086 156.957,161.586 156.5,162C 158.473,162.495 160.473,162.662 162.5,162.5 Z"/></g>
<g><path style="opacity:1" fill="#1d1d1d" d="M 201.5,131.5 C 201.5,131.167 201.5,130.833 201.5,130.5C 221.503,115.022 242.503,100.855 264.5,88C 267.058,86.3737 269.725,85.3737 272.5,85C 253.891,97.2765 235.558,109.943 217.5,123C 212.298,126.101 206.965,128.934 201.5,131.5 Z"/></g>
<g><path style="opacity:1" fill="#0f0f0f" d="M 271.5,108.5 C 271.5,107.833 271.167,107.5 270.5,107.5C 275.577,102.781 280.91,98.2806 286.5,94C 288.044,92.8129 289.711,92.4795 291.5,93C 311.5,109.667 331.5,126.333 351.5,143C 359.014,149.074 367.014,154.074 375.5,158C 376.727,156.413 376.394,155.079 374.5,154C 366.828,149.833 359.495,145.166 352.5,140C 331.922,122.412 311.089,105.246 290,88.5C 255.312,114.913 219.145,138.913 181.5,160.5C 181.5,161.167 181.5,161.833 181.5,162.5C 175.19,163.19 168.857,163.524 162.5,163.5C 162.5,163.167 162.5,162.833 162.5,162.5C 162.586,161.504 162.252,160.671 161.5,160C 165.25,159.74 168.916,159.073 172.5,158C 175.833,154.667 179.167,151.333 182.5,148C 184.873,148.362 187.207,147.695 189.5,146C 207.563,133.607 225.896,121.607 244.5,110C 246.207,109.805 247.874,109.805 249.5,110C 261.927,98.1703 274.927,87.3369 288.5,77.5C 288.554,78.5301 288.888,79.6967 289.5,81C 300.376,88.2031 310.376,96.5365 319.5,106C 321.207,106.195 322.874,106.195 324.5,106C 336.789,115.287 348.789,124.954 360.5,135C 368.015,138.846 374.682,143.846 380.5,150C 387.009,153.755 393.676,157.255 400.5,160.5C 401.386,159.675 401.719,158.675 401.5,157.5C 409.705,158.096 417.872,158.096 426,157.5C 426.5,157.833 427,158.167 427.5,158.5C 426.05,159.85 425.383,161.516 425.5,163.5C 404.849,162.002 384.182,160.669 363.5,159.5C 356.005,152.842 348.338,146.342 340.5,140C 335.002,132.393 328.002,126.393 319.5,122C 314.611,117.614 310.278,112.78 306.5,107.5C 305.719,108.729 305.219,110.062 305,111.5C 299.76,106.916 294.593,102.416 289.5,98C 284.178,102.179 278.178,105.679 271.5,108.5 Z"/></g>
<g><path style="opacity:1" fill="#3d3d3d" d="M 196.5,160.5 C 204.5,161.167 212.5,161.833 220.5,162.5C 211.833,162.5 203.167,162.5 194.5,162.5C 194.5,161.167 195.167,160.5 196.5,160.5 Z"/></g>
<g><path style="opacity:1" fill="#202020" d="M 270.5,107.5 C 271.167,107.5 271.5,107.833 271.5,108.5C 252.883,120.819 234.55,133.652 216.5,147C 206.585,151.63 196.918,156.63 187.5,162C 185.527,162.495 183.527,162.662 181.5,162.5C 181.5,161.833 181.5,161.167 181.5,160.5C 183.199,160.66 184.866,160.494 186.5,160C 192.675,156.412 199.009,153.078 205.5,150C 227.565,136.31 249.232,122.143 270.5,107.5 Z"/></g>
<g><path style="opacity:1" fill="#e5e5e5" d="M 270.5,107.5 C 249.232,122.143 227.565,136.31 205.5,150C 199.009,153.078 192.675,156.412 186.5,160C 184.866,160.494 183.199,160.66 181.5,160.5C 219.145,138.913 255.312,114.913 290,88.5C 311.089,105.246 331.922,122.412 352.5,140C 359.495,145.166 366.828,149.833 374.5,154C 376.394,155.079 376.727,156.413 375.5,158C 367.014,154.074 359.014,149.074 351.5,143C 331.5,126.333 311.5,109.667 291.5,93C 289.711,92.4795 288.044,92.8129 286.5,94C 280.91,98.2806 275.577,102.781 270.5,107.5 Z"/></g>
<g><path style="opacity:1" fill="#070707" d="M 345.5,162.5 C 338.536,152.065 328.87,145.232 316.5,142C 304.146,141.016 291.813,139.85 279.5,138.5C 267.88,139.604 256.547,142.104 245.5,146C 239.033,150.635 233.033,155.802 227.5,161.5C 225.257,162.474 222.924,162.808 220.5,162.5C 212.5,161.833 204.5,161.167 196.5,160.5C 205.811,156.705 214.811,152.205 223.5,147C 233.962,137.938 244.962,129.605 256.5,122C 267.336,115.416 278.003,108.583 288.5,101.5C 312.312,120.811 335.979,140.311 359.5,160C 355.037,161.975 350.371,162.808 345.5,162.5 Z"/></g>
<g><path style="opacity:1" fill="#787878" d="M 302.5,40.5 C 303.209,39.596 304.209,39.2627 305.5,39.5C 305.5,41.8333 305.5,44.1667 305.5,46.5C 300.305,46.8205 295.305,46.4872 290.5,45.5C 295.167,45.5 299.833,45.5 304.5,45.5C 304.923,43.2188 304.256,41.5521 302.5,40.5 Z"/></g>
<g><path style="opacity:1" fill="#929292" d="M 286.5,28.5 C 286.695,32.3778 286.695,36.0444 286.5,39.5C 285.167,35.8333 285.167,32.1667 286.5,28.5 Z"/></g>
<g><path style="opacity:1" fill="#424242" d="M 166.5,173.5 C 165.5,173.5 164.5,173.5 163.5,173.5C 163.389,172.883 163.056,172.383 162.5,172C 164.463,171.156 165.796,171.656 166.5,173.5 Z"/></g>
<g><path style="opacity:1" fill="#030303" d="M 376.5,174.5 C 379.167,174.5 381.833,174.5 384.5,174.5C 384.182,179.032 384.515,183.366 385.5,187.5C 385.793,194.255 385.46,200.922 384.5,207.5C 384.259,222.363 384.926,237.03 386.5,251.5C 387.914,264.619 388.581,277.785 388.5,291C 387.27,334.177 387.27,377.344 388.5,420.5C 387.549,421.919 387.216,423.585 387.5,425.5C 384.287,425.19 381.287,425.523 378.5,426.5C 376.185,432.44 374.185,438.44 372.5,444.5C 368.686,444.651 367.019,446.651 367.5,450.5C 315.166,451.51 262.833,451.177 210.5,449.5C 209.329,447.831 207.996,446.331 206.5,445C 210.943,440.504 209.943,438.004 203.5,437.5C 202.694,433.054 200.694,429.221 197.5,426C 196.517,425.409 195.85,425.743 195.5,427C 196.906,428.978 197.906,431.145 198.5,433.5C 190.016,434.493 181.349,434.826 172.5,434.5C 173.031,431.763 173.864,429.096 175,426.5C 177.461,427.218 179.961,427.885 182.5,428.5C 186.449,427.316 190.449,426.316 194.5,425.5C 194.291,424.914 193.957,424.414 193.5,424C 191.236,423.764 189.069,423.264 187,422.5C 186.333,386.833 186.333,351.167 187,315.5C 187.608,312.183 188.108,308.849 188.5,305.5C 187.737,291.515 187.237,277.515 187,263.5C 183.009,234.297 181.676,204.963 183,175.5C 203.896,173.503 224.896,172.17 246,171.5C 279.162,172.927 312.329,174.26 345.5,175.5C 355.842,175.316 366.175,174.983 376.5,174.5 Z"/></g>
<g><path style="opacity:1" fill="#121212" d="M 389.5,193.5 C 410.985,205.729 433.652,215.563 457.5,223C 473.89,231.242 490.557,238.909 507.5,246C 504.826,246.67 502.493,247.837 500.5,249.5C 499.127,249.657 497.793,249.49 496.5,249C 480.834,241.009 464.834,234.009 448.5,228C 430.104,218.803 411.437,210.136 392.5,202C 389.875,199.804 388.875,196.97 389.5,193.5 Z"/></g>
<g><path style="opacity:1" fill="#141414" d="M 173.5,208.5 C 174.5,208.5 175.5,208.5 176.5,208.5C 176.449,213.052 174.116,215.719 169.5,216.5C 135.457,229.855 102.791,245.855 71.5,264.5C 69.8333,263.5 68.5,262.167 67.5,260.5C 75.608,254.111 84.608,249.278 94.5,246C 100.002,242.415 105.669,239.081 111.5,236C 132.078,226.542 152.745,217.376 173.5,208.5 Z"/></g>
<g><path style="opacity:1" fill="#191919" d="M 83.5,270.5 C 83.5,271.167 83.5,271.833 83.5,272.5C 73.5523,269.272 73.219,264.939 82.5,259.5C 83.1667,259.833 83.8333,260.167 84.5,260.5C 112.883,243.933 142.55,230.267 173.5,219.5C 174.458,219.047 175.292,218.381 176,217.5C 176.749,218.635 176.583,219.635 175.5,220.5C 143.735,235.216 112.401,250.716 81.5,267C 80.6634,268.011 80.33,269.178 80.5,270.5C 81.5,270.5 82.5,270.5 83.5,270.5 Z"/></g>
<g><path style="opacity:1" fill="#0a0a0a" d="M 167.5,438.5 C 164.513,440.108 163.846,442.442 165.5,445.5C 164.66,446.735 163.66,447.735 162.5,448.5C 161.596,449.209 161.263,450.209 161.5,451.5C 142.992,451.17 124.659,451.503 106.5,452.5C 95.5015,452.872 84.5015,453.206 73.5,453.5C 72.9094,452.849 72.2427,452.182 71.5,451.5C 73.188,450.479 74.5213,449.145 75.5,447.5C 85.1225,445.128 94.7892,444.961 104.5,447C 118.167,447.667 131.833,447.667 145.5,447C 151.579,446.158 157.579,444.991 163.5,443.5C 161.433,442.866 159.6,441.866 158,440.5C 155.834,442.121 153.334,442.955 150.5,443C 142.5,443.167 134.5,443.333 126.5,443.5C 112.104,443.569 97.771,442.902 83.5,441.5C 83.5,440.5 83.5,439.5 83.5,438.5C 82.5,438.5 81.5,438.5 80.5,438.5C 84.1256,397.545 84.4589,356.545 81.5,315.5C 81.5,314.833 81.5,314.167 81.5,313.5C 80.9634,307.865 81.6301,302.532 83.5,297.5C 81.0427,293.388 80.0427,288.888 80.5,284C 80.6667,281.167 80.8333,278.333 81,275.5C 82.417,274.922 83.2504,273.922 83.5,272.5C 83.5,271.833 83.5,271.167 83.5,270.5C 87.4263,267.193 91.7596,264.36 96.5,262C 122.833,249.167 149.167,236.333 175.5,223.5C 179.827,290.418 181.827,357.418 181.5,424.5C 179.08,424.708 176.747,424.374 174.5,423.5C 171.368,428.099 169.035,433.099 167.5,438.5 Z"/></g>
<g><path style="opacity:1" fill="#e7e7e7" d="M 171.5,207.5 C 172.492,207.328 173.158,207.662 173.5,208.5C 152.745,217.376 132.078,226.542 111.5,236C 105.669,239.081 100.002,242.415 94.5,246C 84.608,249.278 75.608,254.111 67.5,260.5C 68.5,262.167 69.8333,263.5 71.5,264.5C 102.791,245.855 135.457,229.855 169.5,216.5C 170.833,217.5 172.167,218.5 173.5,219.5C 142.55,230.267 112.883,243.933 84.5,260.5C 83.8333,260.167 83.1667,259.833 82.5,259.5C 73.219,264.939 73.5523,269.272 83.5,272.5C 83.2504,273.922 82.417,274.922 81,275.5C 80.8333,278.333 80.6667,281.167 80.5,284C 80.0427,288.888 81.0427,293.388 83.5,297.5C 82.5,297.5 81.5,297.5 80.5,297.5C 80.1786,303.026 80.5119,308.36 81.5,313.5C 81.5,314.167 81.5,314.833 81.5,315.5C 80.1197,329.987 79.6197,344.654 80,359.5C 80.3333,353.833 80.6667,348.167 81,342.5C 81.6667,360.5 81.6667,378.5 81,396.5C 80.6667,396.167 80.3333,395.833 80,395.5C 79.6667,396.833 79.3333,398.167 79,399.5C 78.8324,366.664 78.3324,333.997 77.5,301.5C 78.5827,292.007 78.5827,282.673 77.5,273.5C 75.7867,271.15 73.4534,270.15 70.5,270.5C 69.3369,266.688 66.6702,264.688 62.5,264.5C 62.6216,260.853 64.2882,258.019 67.5,256C 95.2728,239.959 123.939,225.626 153.5,213C 159.436,210.86 165.436,209.027 171.5,207.5 Z"/></g>
<g><path style="opacity:1" fill="#d3d3d3" d="M 169.5,298.5 C 168.668,325.664 168.168,352.997 168,380.5C 167.667,384.167 167.333,387.833 167,391.5C 166.833,389 166.667,386.5 166.5,384C 167.602,355.508 167.769,327.008 167,298.5C 166.832,323.67 166.332,348.67 165.5,373.5C 165.667,347.165 165.5,320.831 165,294.5C 162.659,283.983 157.825,274.816 150.5,267C 139.598,265.38 128.598,265.046 117.5,266C 109.906,268.214 104.073,272.714 100,279.5C 97.9585,288.082 96.4585,296.749 95.5,305.5C 94.087,302.781 93.4203,299.781 93.5,296.5C 93.1681,277.011 102.501,265.511 121.5,262C 130.833,261.333 140.167,261.333 149.5,262C 160.713,271.587 167.38,283.754 169.5,298.5 Z"/></g>
<g><path style="opacity:1" fill="#111111" d="M 165.5,373.5 C 165.287,380.174 164.954,386.841 164.5,393.5C 163.669,404.659 163.169,415.993 163,427.5C 160.619,426.565 158.119,426.232 155.5,426.5C 145.481,426.107 135.481,425.44 125.5,424.5C 116.194,426.047 106.861,427.38 97.5,428.5C 96.1167,411.867 95.45,395.2 95.5,378.5C 95.5,354.167 95.5,329.833 95.5,305.5C 96.4585,296.749 97.9585,288.082 100,279.5C 104.073,272.714 109.906,268.214 117.5,266C 128.598,265.046 139.598,265.38 150.5,267C 157.825,274.816 162.659,283.983 165,294.5C 165.5,320.831 165.667,347.165 165.5,373.5 Z"/></g>
<g><path style="opacity:1" fill="#e9e9e9" d="M 345.5,162.5 C 348.023,163.384 350.69,164.218 353.5,165C 352.045,167.016 350.045,167.849 347.5,167.5C 334.139,167.287 320.806,167.787 307.5,169C 307.167,169.333 306.833,169.667 306.5,170C 314.131,171.069 321.798,171.569 329.5,171.5C 345.198,172.014 360.864,173.014 376.5,174.5C 366.175,174.983 355.842,175.316 345.5,175.5C 312.329,174.26 279.162,172.927 246,171.5C 224.896,172.17 203.896,173.503 183,175.5C 181.676,204.963 183.009,234.297 187,263.5C 187.237,277.515 187.737,291.515 188.5,305.5C 188.108,308.849 187.608,312.183 187,315.5C 186.333,351.167 186.333,386.833 187,422.5C 189.069,423.264 191.236,423.764 193.5,424C 193.957,424.414 194.291,424.914 194.5,425.5C 190.449,426.316 186.449,427.316 182.5,428.5C 179.961,427.885 177.461,427.218 175,426.5C 173.864,429.096 173.031,431.763 172.5,434.5C 181.342,435.822 190.342,435.822 199.5,434.5C 199.376,433.893 199.043,433.56 198.5,433.5C 197.906,431.145 196.906,428.978 195.5,427C 195.85,425.743 196.517,425.409 197.5,426C 200.694,429.221 202.694,433.054 203.5,437.5C 209.943,438.004 210.943,440.504 206.5,445C 207.996,446.331 209.329,447.831 210.5,449.5C 262.833,451.177 315.166,451.51 367.5,450.5C 367.019,446.651 368.686,444.651 372.5,444.5C 374.185,438.44 376.185,432.44 378.5,426.5C 381.833,426.5 385.167,426.5 388.5,426.5C 388.5,424.5 388.5,422.5 388.5,420.5C 387.27,377.344 387.27,334.177 388.5,291C 388.581,277.785 387.914,264.619 386.5,251.5C 386.289,236.656 385.623,221.99 384.5,207.5C 385.46,200.922 385.793,194.255 385.5,187.5C 385.335,184.15 385.502,180.817 386,177.5C 386.333,187.167 386.667,196.833 387,206.5C 387.333,200.833 387.667,195.167 388,189.5C 390.543,190.876 390.709,192.043 388.5,193C 388.728,193.399 389.062,193.565 389.5,193.5C 388.875,196.97 389.875,199.804 392.5,202C 411.437,210.136 430.104,218.803 448.5,228C 464.834,234.009 480.834,241.009 496.5,249C 497.793,249.49 499.127,249.657 500.5,249.5C 500.938,249.435 501.272,249.601 501.5,250C 498.833,250.667 498.833,251.333 501.5,252C 498.903,252.779 498.903,253.279 501.5,253.5C 500.235,254.479 498.901,255.479 497.5,256.5C 497.167,260.5 496.833,264.5 496.5,268.5C 499.085,324.127 500.085,379.793 499.5,435.5C 507.159,435.75 508.825,438.75 504.5,444.5C 508.352,447.019 508.352,449.686 504.5,452.5C 508.61,457.269 510.11,462.603 509,468.5C 508.329,469.252 507.496,469.586 506.5,469.5C 503.833,469.5 501.167,469.5 498.5,469.5C 498.175,477.352 498.508,485.018 499.5,492.5C 499.5,518.833 499.5,545.167 499.5,571.5C 466.811,566.38 436.144,571.88 407.5,588C 404.167,590.667 400.833,593.333 397.5,596C 379.989,594.894 362.322,594.061 344.5,593.5C 339.82,593.751 335.154,594.084 330.5,594.5C 311.823,594.589 293.157,594.256 274.5,593.5C 254.822,594.398 235.155,594.398 215.5,593.5C 217.292,592.691 219.292,592.191 221.5,592C 220.333,591.833 219.167,591.667 218,591.5C 210.853,592.536 203.687,592.703 196.5,592C 205.7,591.7 214.7,590.867 223.5,589.5C 277.794,590.398 332.127,590.732 386.5,590.5C 387.497,583.866 387.83,577.2 387.5,570.5C 377.503,569.335 367.503,568.168 357.5,567C 331.169,566.5 304.835,566.333 278.5,566.5C 278.918,565.778 279.584,565.278 280.5,565C 280,564.833 279.5,564.667 279,564.5C 267.031,564.174 255.031,564.508 243,565.5C 239.167,565.333 235.333,565.167 231.5,565C 256.978,563.329 282.478,563.162 308,564.5C 314.833,564.333 321.667,564.167 328.5,564C 316.5,563.667 304.5,563.333 292.5,563C 316.091,561.835 339.591,562.668 363,565.5C 363.765,565.43 364.265,565.097 364.5,564.5C 371.718,566.055 379.052,567.055 386.5,567.5C 386.554,544.828 386.888,522.162 387.5,499.5C 388.494,489.681 388.827,479.681 388.5,469.5C 386.167,469.5 383.833,469.5 381.5,469.5C 377.853,466.364 374.02,463.364 370,460.5C 369.36,458.735 369.527,457.068 370.5,455.5C 371.043,455.44 371.376,455.107 371.5,454.5C 368.02,453.194 364.687,453.194 361.5,454.5C 312.184,454.916 262.851,455.083 213.5,455C 215.421,456.241 215.754,457.741 214.5,459.5C 212.333,460.792 210,461.625 207.5,462C 206.349,467.843 203.016,471.676 197.5,473.5C 198.524,470.445 199.857,467.445 201.5,464.5C 201.333,464.167 201.167,463.833 201,463.5C 198.846,464.23 196.679,464.897 194.5,465.5C 189.445,464.991 184.445,463.991 179.5,462.5C 188.024,461.755 196.691,460.922 205.5,460C 206.672,459.581 207.672,458.915 208.5,458C 197.172,457.5 185.838,457.333 174.5,457.5C 172.5,457.5 170.5,457.5 168.5,457.5C 168.804,456.85 169.137,456.183 169.5,455.5C 173.18,454.236 176.847,454.236 180.5,455.5C 185.299,454.883 189.966,454.216 194.5,453.5C 198.514,453.666 202.514,453.499 206.5,453C 206.957,452.586 207.291,452.086 207.5,451.5C 204.232,450.513 200.898,450.18 197.5,450.5C 188.009,449.67 178.342,449.17 168.5,449C 180.859,448.752 193.192,448.086 205.5,447C 194.324,445.688 182.99,445.022 171.5,445C 183.207,444.879 192.874,444.379 200.5,443.5C 203.259,443.067 204.592,441.4 204.5,438.5C 193.185,439.294 181.852,439.627 170.5,439.5C 169.791,438.596 168.791,438.263 167.5,438.5C 169.035,433.099 171.368,428.099 174.5,423.5C 176.747,424.374 179.08,424.708 181.5,424.5C 181.827,357.418 179.827,290.418 175.5,223.5C 149.167,236.333 122.833,249.167 96.5,262C 91.7596,264.36 87.4263,267.193 83.5,270.5C 82.5,270.5 81.5,270.5 80.5,270.5C 80.33,269.178 80.6634,268.011 81.5,267C 112.401,250.716 143.735,235.216 175.5,220.5C 176.583,219.635 176.749,218.635 176,217.5C 175.292,218.381 174.458,219.047 173.5,219.5C 172.167,218.5 170.833,217.5 169.5,216.5C 174.116,215.719 176.449,213.052 176.5,208.5C 175.5,208.5 174.5,208.5 173.5,208.5C 173.158,207.662 172.492,207.328 171.5,207.5C 172.78,206.069 174.447,205.402 176.5,205.5C 176.5,195.833 176.5,186.167 176.5,176.5C 171.97,176.597 167.47,176.264 163,175.5C 161.319,175.392 160.152,174.725 159.5,173.5C 160.961,174.686 162.295,174.686 163.5,173.5C 164.5,173.5 165.5,173.5 166.5,173.5C 167.167,172.5 167.833,171.5 168.5,170.5C 206.151,169.108 243.818,168.275 281.5,168C 286.547,167.662 291.547,166.995 296.5,166C 287.865,165.011 279.198,164.511 270.5,164.5C 243.167,165.658 215.834,165.658 188.5,164.5C 190.5,163.833 192.5,163.167 194.5,162.5C 203.167,162.5 211.833,162.5 220.5,162.5C 222.924,162.808 225.257,162.474 227.5,161.5C 233.033,155.802 239.033,150.635 245.5,146C 256.547,142.104 267.88,139.604 279.5,138.5C 291.813,139.85 304.146,141.016 316.5,142C 328.87,145.232 338.536,152.065 345.5,162.5 Z"/></g>
<g><path style="opacity:1" fill="#e5e5e5" d="M 325.5,201.5 C 319.32,201.597 312.986,201.764 306.5,202C 304.494,202.083 303.494,202.583 303.5,203.5C 304.767,211.008 306.6,218.341 309,225.5C 310.238,242.299 309.404,258.966 306.5,275.5C 306.167,273.167 305.833,270.833 305.5,268.5C 309.398,247.01 307.731,226.01 300.5,205.5C 301.043,205.44 301.376,205.107 301.5,204.5C 295.346,203.183 289.346,203.183 283.5,204.5C 268.367,204.551 255.534,209.218 245,218.5C 243.248,221.672 241.248,224.672 239,227.5C 237.416,231.425 236.083,235.425 235,239.5C 231.389,259.33 229.389,279.33 229,299.5C 228.42,330.853 228.92,362.186 230.5,393.5C 229.698,392.048 229.198,390.382 229,388.5C 228.667,389.167 228.333,389.833 228,390.5C 227.667,381.5 227.333,372.5 227,363.5C 226.503,366.146 226.336,368.813 226.5,371.5C 223.121,328.843 224.287,286.176 230,243.5C 233.689,225.607 243.189,211.773 258.5,202C 264.547,201.065 270.547,199.898 276.5,198.5C 288.458,200.983 300.458,200.983 312.5,198.5C 316.196,198.783 319.863,199.283 323.5,200C 324.416,200.278 325.082,200.778 325.5,201.5 Z"/></g>
<g><path style="opacity:1" fill="#585858" d="M 384.5,207.5 C 385.623,221.99 386.289,236.656 386.5,251.5C 384.926,237.03 384.259,222.363 384.5,207.5 Z"/></g>
<g><path style="opacity:1" fill="#686868" d="M 390.5,216.5 C 390.5,224.167 390.5,231.833 390.5,239.5C 389.35,228.434 389.35,220.768 390.5,216.5 Z"/></g>
<g><path style="opacity:1" fill="#0b0b0b" d="M 390.5,216.5 C 396.765,223.266 403.265,229.933 410,236.5C 411.543,235.423 411.543,234.089 410,232.5C 405.402,227.614 401.402,222.614 398,217.5C 407.37,222.934 417.203,227.434 427.5,231C 435.584,235.457 443.418,240.291 451,245.5C 451.692,244.975 452.192,244.308 452.5,243.5C 450.684,242.185 449.017,240.685 447.5,239C 454.989,241.74 462.323,245.074 469.5,249C 474.967,251.735 480.633,253.902 486.5,255.5C 486.5,255.833 486.5,256.167 486.5,256.5C 485.566,257.568 485.232,258.901 485.5,260.5C 487.591,260.682 489.591,260.348 491.5,259.5C 491.833,260.333 492.167,261.167 492.5,262C 490.686,281.113 490.02,300.279 490.5,319.5C 491.5,319.5 492.5,319.5 493.5,319.5C 493.348,358.506 493.681,397.506 494.5,436.5C 478.956,438.606 463.29,439.939 447.5,440.5C 436.214,437.652 425.047,437.985 414,441.5C 411.867,439.546 409.367,438.213 406.5,437.5C 404.426,433.259 401.76,429.425 398.5,426C 396.866,425.506 395.199,425.34 393.5,425.5C 392.048,398.525 391.048,371.525 390.5,344.5C 391.695,309.492 391.695,274.492 390.5,239.5C 390.5,231.833 390.5,224.167 390.5,216.5 Z"/></g>
<g><path style="opacity:1" fill="#151515" d="M 486.5,256.5 C 486.5,256.167 486.5,255.833 486.5,255.5C 486.586,254.504 486.252,253.671 485.5,253C 458.501,239.114 430.834,226.78 402.5,216C 398.833,213.667 395.167,211.333 391.5,209C 389.963,207.89 389.297,206.39 389.5,204.5C 423.719,220.772 458.385,236.272 493.5,251C 494.833,251.667 494.833,252.333 493.5,253C 491.14,254.18 488.807,255.347 486.5,256.5 Z"/></g>
<g><path style="opacity:1" fill="#050505" d="M 322.5,326.5 C 320.957,334.616 320.29,342.95 320.5,351.5C 319.586,367.398 320.92,383.065 324.5,398.5C 320.167,398.5 315.833,398.5 311.5,398.5C 310.935,391.582 309.102,384.915 306,378.5C 304.012,371.549 302.179,364.549 300.5,357.5C 299.119,358 298.453,359 298.5,360.5C 300.994,372.133 304.161,383.466 308,394.5C 306.421,396.041 304.587,397.208 302.5,398C 294.507,398.5 286.507,398.666 278.5,398.5C 277.983,378.81 276.983,359.144 275.5,339.5C 275.877,334.547 275.211,329.881 273.5,325.5C 272.213,326.871 271.547,328.705 271.5,331C 273.185,348.432 274.018,365.932 274,383.5C 274.618,389.412 275.452,395.246 276.5,401C 271.114,404.125 265.614,404.291 260,401.5C 258.933,391.207 258.099,380.874 257.5,370.5C 256.914,370.709 256.414,371.043 256,371.5C 255.226,379.863 255.393,388.196 256.5,396.5C 256.167,397.167 255.833,397.833 255.5,398.5C 254.158,396.995 252.492,396.328 250.5,396.5C 248.715,367.53 247.382,338.53 246.5,309.5C 245.914,309.709 245.414,310.043 245,310.5C 243.652,338.78 244.818,366.946 248.5,395C 245.445,403.86 239.445,406.693 230.5,403.5C 230.5,400.167 230.5,396.833 230.5,393.5C 228.92,362.186 228.42,330.853 229,299.5C 229.389,279.33 231.389,259.33 235,239.5C 236.083,235.425 237.416,231.425 239,227.5C 241.248,224.672 243.248,221.672 245,218.5C 255.534,209.218 268.367,204.551 283.5,204.5C 289.358,204.178 295.025,204.511 300.5,205.5C 307.731,226.01 309.398,247.01 305.5,268.5C 305.833,270.833 306.167,273.167 306.5,275.5C 309.404,258.966 310.238,242.299 309,225.5C 306.6,218.341 304.767,211.008 303.5,203.5C 308.524,202.362 313.524,202.362 318.5,203.5C 323.994,224.724 326.327,246.557 325.5,269C 325.333,278.833 325.167,288.667 325,298.5C 323.415,307.764 322.582,317.098 322.5,326.5 Z"/></g>
<g><path style="opacity:1" fill="#fefefe" d="M 265.5,260.5 C 266.113,266.271 265.446,271.604 263.5,276.5C 262.887,270.729 263.554,265.396 265.5,260.5 Z"/></g>
<g><path style="opacity:1" fill="#454545" d="M 265.5,260.5 C 263.554,265.396 262.887,270.729 263.5,276.5C 262.511,271.025 262.178,265.358 262.5,259.5C 263.791,259.263 264.791,259.596 265.5,260.5 Z"/></g>
<g><path style="opacity:1" fill="#dfdfdf" d="M 247.5,219.5 C 249.124,219.36 250.29,220.027 251,221.5C 252.308,233.373 254.641,245.04 258,256.5C 258.934,261.351 258.601,266.017 257,270.5C 255.697,263.643 254.697,256.643 254,249.5C 250.07,239.877 247.903,229.877 247.5,219.5 Z"/></g>
<g><path style="opacity:1" fill="#d4d4d4" d="M 292.5,234.5 C 294.491,259.144 295.157,284.144 294.5,309.5C 293.5,309.5 292.5,309.5 291.5,309.5C 291.294,284.489 291.627,259.489 292.5,234.5 Z"/></g>
<g><path style="opacity:1" fill="#e6e6e6" d="M 281.5,232.5 C 282.931,232.881 283.764,233.881 284,235.5C 285.17,242.845 285.337,250.178 284.5,257.5C 282.981,249.233 281.981,240.9 281.5,232.5 Z"/></g>
<g><path style="opacity:1" fill="#e8e8e8" d="M 284.5,206.5 C 285.75,206.577 286.583,207.244 287,208.5C 287.937,217.7 289.103,226.867 290.5,236C 290.167,237.5 289.833,239 289.5,240.5C 287.105,229.276 285.438,217.943 284.5,206.5 Z"/></g>
<g><path style="opacity:1" fill="#7f7f7f" d="M 283.5,204.5 C 289.346,203.183 295.346,203.183 301.5,204.5C 301.376,205.107 301.043,205.44 300.5,205.5C 295.025,204.511 289.358,204.178 283.5,204.5 Z"/></g>
<g><path style="opacity:1" fill="#f6f6f6" d="M 325.5,201.5 C 334.75,203.583 340.584,209.249 343,218.5C 343.893,223.523 344.893,228.523 346,233.5C 349.446,287.288 350.28,341.122 348.5,395C 349.914,402.104 350.581,409.27 350.5,416.5C 309.9,417.34 269.234,417.507 228.5,417C 225.715,416.274 225.048,414.774 226.5,412.5C 227.124,412.083 227.457,411.416 227.5,410.5C 226.775,409.133 226.108,407.8 225.5,406.5C 225.347,403.423 226.014,400.589 227.5,398C 226.571,389.197 226.237,380.364 226.5,371.5C 226.336,368.813 226.503,366.146 227,363.5C 227.333,372.5 227.667,381.5 228,390.5C 228.333,389.833 228.667,389.167 229,388.5C 229.198,390.382 229.698,392.048 230.5,393.5C 230.5,396.833 230.5,400.167 230.5,403.5C 239.445,406.693 245.445,403.86 248.5,395C 244.818,366.946 243.652,338.78 245,310.5C 245.414,310.043 245.914,309.709 246.5,309.5C 247.382,338.53 248.715,367.53 250.5,396.5C 252.492,396.328 254.158,396.995 255.5,398.5C 255.833,397.833 256.167,397.167 256.5,396.5C 255.393,388.196 255.226,379.863 256,371.5C 256.414,371.043 256.914,370.709 257.5,370.5C 258.099,380.874 258.933,391.207 260,401.5C 265.614,404.291 271.114,404.125 276.5,401C 275.452,395.246 274.618,389.412 274,383.5C 274.018,365.932 273.185,348.432 271.5,331C 271.547,328.705 272.213,326.871 273.5,325.5C 273.813,330.353 274.479,335.02 275.5,339.5C 276.983,359.144 277.983,378.81 278.5,398.5C 286.507,398.666 294.507,398.5 302.5,398C 304.587,397.208 306.421,396.041 308,394.5C 304.161,383.466 300.994,372.133 298.5,360.5C 298.453,359 299.119,358 300.5,357.5C 302.179,364.549 304.012,371.549 306,378.5C 309.102,384.915 310.935,391.582 311.5,398.5C 315.833,398.5 320.167,398.5 324.5,398.5C 320.92,383.065 319.586,367.398 320.5,351.5C 321.678,343.356 322.345,335.022 322.5,326.5C 322.582,317.098 323.415,307.764 325,298.5C 325.167,288.667 325.333,278.833 325.5,269C 326.327,246.557 323.994,224.724 318.5,203.5C 313.524,202.362 308.524,202.362 303.5,203.5C 303.494,202.583 304.494,202.083 306.5,202C 312.986,201.764 319.32,201.597 325.5,201.5 Z"/></g>
<g><path style="opacity:1" fill="#5d5d5d" d="M 330.5,161.5 C 331.043,161.56 331.376,161.893 331.5,162.5C 318.006,163.825 304.673,163.825 291.5,162.5C 304.677,162.829 317.677,162.495 330.5,161.5 Z"/></g>
<g><path style="opacity:1" fill="#afafaf" d="M 239.5,161.5 C 243.97,162.486 248.637,162.819 253.5,162.5C 248.652,163.814 243.652,163.814 238.5,162.5C 238.624,161.893 238.957,161.56 239.5,161.5 Z"/></g>
<g><path style="opacity:1" fill="#191919" d="M 269.5,142.5 C 285.264,142.508 300.93,143.675 316.5,146C 326.623,149.227 335.289,154.727 342.5,162.5C 340.579,163.641 338.579,163.808 336.5,163C 319.509,148.664 299.842,143.164 277.5,146.5C 273.445,146.575 269.445,147.075 265.5,148C 260.073,150.42 254.407,152.087 248.5,153C 243.616,155.22 239.282,158.22 235.5,162C 234.167,162.667 232.833,162.667 231.5,162C 236.167,158 240.833,154 245.5,150C 253.387,146.757 261.387,144.257 269.5,142.5 Z"/></g>
<g><path style="opacity:1" fill="#0b0b0b" d="M 330.5,161.5 C 317.677,162.495 304.677,162.829 291.5,162.5C 278.825,161.277 266.158,161.277 253.5,162.5C 248.637,162.819 243.97,162.486 239.5,161.5C 242.455,159.06 245.789,157.227 249.5,156C 258.742,152.552 268.242,150.386 278,149.5C 289.539,149.918 301.039,150.752 312.5,152C 318.97,154.4 324.97,157.567 330.5,161.5 Z"/></g>
<g><path style="opacity:1" fill="#fcfcfc" d="M 263.5,286.5 C 265.97,287.36 266.137,288.694 264,290.5C 263.51,289.207 263.343,287.873 263.5,286.5 Z"/></g>
<g><path style="opacity:1" fill="#eaeaea" d="M 127.5,268.5 C 142.05,266.942 152.55,272.608 159,285.5C 160.071,294.457 160.571,303.457 160.5,312.5C 160.027,341.027 159.027,369.527 157.5,398C 157.538,405.002 158.205,411.836 159.5,418.5C 158.147,419.524 157.48,420.857 157.5,422.5C 155.508,422.672 153.842,422.005 152.5,420.5C 150.56,421.095 148.56,421.428 146.5,421.5C 131.499,418.985 116.499,418.985 101.5,421.5C 99.0953,379.508 98.9287,337.508 101,295.5C 101.628,288.727 103.628,282.393 107,276.5C 110.803,272.171 115.636,270.338 121.5,271C 123.611,270.155 125.611,269.322 127.5,268.5 Z"/></g>
<g><path style="opacity:1" fill="#070707" d="M 153.5,381.5 C 152.505,393.322 152.172,405.322 152.5,417.5C 148.833,417.5 145.167,417.5 141.5,417.5C 129.764,416.573 118.097,416.24 106.5,416.5C 104.977,412.62 103.977,408.62 103.5,404.5C 103.333,371.165 103.5,337.832 104,304.5C 104.177,297.378 105.177,290.378 107,283.5C 108.25,280.084 110.417,277.417 113.5,275.5C 114.086,275.709 114.586,276.043 115,276.5C 118.538,273.999 121.871,274.332 125,277.5C 126.628,276.181 126.461,274.848 124.5,273.5C 138.463,269.419 148.629,273.753 155,286.5C 156.082,293.104 156.582,299.771 156.5,306.5C 156.098,331.533 155.098,356.533 153.5,381.5 Z"/></g>
<g><path style="opacity:1" fill="#e6e6e6" d="M 483.5,382.5 C 482.253,388.63 481.586,394.963 481.5,401.5C 481.5,407.5 481.5,413.5 481.5,419.5C 480.839,421.134 480.506,422.967 480.5,425C 480.547,427.295 481.213,429.129 482.5,430.5C 482.5,431.5 482.5,432.5 482.5,433.5C 469.218,431.97 455.885,430.97 442.5,430.5C 433.274,430.912 424.107,431.912 415,433.5C 413.167,433.333 411.333,433.167 409.5,433C 409.043,432.586 408.709,432.086 408.5,431.5C 419.075,429.182 429.742,427.515 440.5,426.5C 452.537,427.371 464.537,428.371 476.5,429.5C 479.359,385.22 480.192,340.887 479,296.5C 476.196,285.385 470.696,275.885 462.5,268C 452.167,267.333 441.833,267.333 431.5,268C 422.572,269.933 416.405,275.099 413,283.5C 411.453,290.782 410.119,298.116 409,305.5C 408.239,345.184 408.739,384.851 410.5,424.5C 409.5,424.5 408.5,424.5 407.5,424.5C 405.756,385.851 405.256,347.185 406,308.5C 407.017,299.064 408.684,289.731 411,280.5C 416.412,271.116 424.579,265.616 435.5,264C 444.5,263.333 453.5,263.333 462.5,264C 469.429,268.603 474.595,274.77 478,282.5C 480.244,287.654 481.91,292.987 483,298.5C 483.5,326.498 483.667,354.498 483.5,382.5 Z"/></g>
<g><path style="opacity:1" fill="#e0e0e0" d="M 472.5,361.5 C 472.665,358.482 472.498,355.482 472,352.5C 470.767,374.823 469.767,397.156 469,419.5C 469.229,383.662 470.062,347.829 471.5,312C 471.576,304.116 471.076,296.283 470,288.5C 469.536,289.094 469.369,289.761 469.5,290.5C 463.686,276.762 453.353,271.762 438.5,275.5C 439.879,276.863 439.713,277.863 438,278.5C 434.891,275.891 431.725,275.891 428.5,278.5C 426.939,277.653 425.439,277.986 424,279.5C 419.632,288.411 417.466,297.744 417.5,307.5C 417.638,302.586 416.972,297.919 415.5,293.5C 415.936,285.123 419.603,278.623 426.5,274C 431.694,273.869 436.694,272.869 441.5,271C 458.918,269.096 469.752,276.596 474,293.5C 474.666,316.349 474.166,339.016 472.5,361.5 Z"/></g>
<g><path style="opacity:1" fill="#060606" d="M 469.5,290.5 C 470.077,296.807 470.41,303.14 470.5,309.5C 468.926,346.511 467.592,383.511 466.5,420.5C 450.183,418.691 433.85,418.024 417.5,418.5C 417.5,381.5 417.5,344.5 417.5,307.5C 417.466,297.744 419.632,288.411 424,279.5C 425.439,277.986 426.939,277.653 428.5,278.5C 431.725,275.891 434.891,275.891 438,278.5C 439.713,277.863 439.879,276.863 438.5,275.5C 453.353,271.762 463.686,276.762 469.5,290.5 Z"/></g>
<g><path style="opacity:1" fill="#878787" d="M 182.5,271.5 C 183.828,276.119 184.494,281.119 184.5,286.5C 184.167,291.5 183.833,296.5 183.5,301.5C 182.501,291.522 182.168,281.522 182.5,271.5 Z"/></g>
<g><path style="opacity:1" fill="#787878" d="M 83.5,297.5 C 81.6301,302.532 80.9634,307.865 81.5,313.5C 80.5119,308.36 80.1786,303.026 80.5,297.5C 81.5,297.5 82.5,297.5 83.5,297.5 Z"/></g>
<g><path style="opacity:1" fill="#474747" d="M 118.5,314.5 C 120.265,313.539 122.265,313.205 124.5,313.5C 124.5,316.833 124.5,320.167 124.5,323.5C 123.523,320.713 123.19,317.713 123.5,314.5C 121.833,314.5 120.167,314.5 118.5,314.5 Z"/></g>
<g><path style="opacity:1" fill="#e8e8e8" d="M 124.5,323.5 C 124.5,320.167 124.5,316.833 124.5,313.5C 122.265,313.205 120.265,313.539 118.5,314.5C 110.55,317.38 107.384,314.713 109,306.5C 113.763,305.606 118.597,304.939 123.5,304.5C 123.5,297.167 123.5,289.833 123.5,282.5C 130.556,279.561 134.223,281.894 134.5,289.5C 133.188,294.079 132.521,298.746 132.5,303.5C 137.511,303.334 142.511,303.501 147.5,304C 149.821,307.123 149.487,310.123 146.5,313C 142.339,313.667 138.339,313.167 134.5,311.5C 134.333,332.503 134.5,353.503 135,374.5C 137.18,384.74 137.847,395.073 137,405.5C 133.199,406.515 129.366,406.349 125.5,405C 124.426,404.261 123.759,403.261 123.5,402C 125.055,389.404 125.722,376.737 125.5,364C 125.36,350.491 125.026,336.991 124.5,323.5 Z"/></g>
<g><path style="opacity:1" fill="#171717" d="M 130.5,285.5 C 130.059,292.507 129.892,299.507 130,306.5C 134.851,305.774 140.018,305.774 145.5,306.5C 145.5,307.833 145.5,309.167 145.5,310.5C 142.77,310.527 140.27,309.86 138,308.5C 135.667,308.583 133.834,309.583 132.5,311.5C 131.231,341.85 131.565,372.184 133.5,402.5C 131.167,402.5 128.833,402.5 126.5,402.5C 128.053,390.745 128.72,378.911 128.5,367C 128.109,348.5 127.776,330 127.5,311.5C 124.934,311.656 122.434,311.322 120,310.5C 117.1,312.42 114.1,312.753 111,311.5C 110.517,310.552 110.351,309.552 110.5,308.5C 115.232,308.622 119.898,308.122 124.5,307C 126.229,305.211 126.896,303.044 126.5,300.5C 126.5,295.5 126.5,290.5 126.5,285.5C 127.833,285.5 129.167,285.5 130.5,285.5 Z"/></g>
<g><path style="opacity:1" fill="#646464" d="M 130.5,285.5 C 129.167,285.5 127.833,285.5 126.5,285.5C 126.5,290.5 126.5,295.5 126.5,300.5C 125.512,295.36 125.179,290.026 125.5,284.5C 127.415,284.216 129.081,284.549 130.5,285.5 Z"/></g>
<g><path style="opacity:1" fill="#353535" d="M 77.5,273.5 C 78.5827,282.673 78.5827,292.007 77.5,301.5C 77.5,334.833 77.5,368.167 77.5,401.5C 76.259,358.995 76.259,316.328 77.5,273.5 Z"/></g>
<g><path style="opacity:1" fill="#505050" d="M 273.5,325.5 C 275.211,329.881 275.877,334.547 275.5,339.5C 274.479,335.02 273.813,330.353 273.5,325.5 Z"/></g>
<g><path style="opacity:1" fill="#e7e7e7" d="M 446.5,301.5 C 445.566,302.568 445.232,303.901 445.5,305.5C 448.5,305.5 451.5,305.5 454.5,305.5C 462.673,304.56 464.673,307.727 460.5,315C 457.493,315.301 454.493,315.135 451.5,314.5C 450.432,313.566 449.099,313.232 447.5,313.5C 447.173,323.681 447.506,333.681 448.5,343.5C 448.313,356.52 448.646,369.52 449.5,382.5C 450.055,390.822 450.388,399.156 450.5,407.5C 450.038,408.88 449.038,409.547 447.5,409.5C 444.855,408.892 442.188,408.392 439.5,408C 438.57,406.806 437.903,405.473 437.5,404C 438.928,397.252 439.594,390.419 439.5,383.5C 438.646,361.175 438.312,338.842 438.5,316.5C 433.79,316.607 429.123,316.774 424.5,317C 421.204,314.199 420.871,311.199 423.5,308C 428.184,307.565 432.851,307.065 437.5,306.5C 437.5,299.167 437.5,291.833 437.5,284.5C 439.547,284.489 441.547,284.156 443.5,283.5C 445.029,283.529 446.196,284.196 447,285.5C 447.676,290.871 447.509,296.204 446.5,301.5 Z"/></g>
<g><path style="opacity:1" fill="#171717" d="M 447.5,313.5 C 446.307,313.97 445.64,314.97 445.5,316.5C 444.946,320.479 444.612,324.479 444.5,328.5C 445.008,353.871 446.008,379.204 447.5,404.5C 445.167,404.5 442.833,404.5 440.5,404.5C 442.041,393.583 442.708,382.583 442.5,371.5C 442.107,352.155 441.44,332.821 440.5,313.5C 438.266,313.62 436.099,313.287 434,312.5C 431.1,314.42 428.1,314.753 425,313.5C 424.517,312.552 424.351,311.552 424.5,310.5C 427.518,310.665 430.518,310.498 433.5,310C 436.007,309.907 438.174,309.074 440,307.5C 439.913,300.518 439.746,293.518 439.5,286.5C 441.167,286.5 442.833,286.5 444.5,286.5C 443.759,293.842 443.259,301.175 443,308.5C 448.211,307.459 453.711,307.459 459.5,308.5C 459.5,309.833 459.5,311.167 459.5,312.5C 456.565,312.283 453.731,311.617 451,310.5C 448.725,310.278 447.559,311.278 447.5,313.5 Z"/></g>
<g><path style="opacity:1" fill="#4e4e4e" d="M 322.5,326.5 C 322.345,335.022 321.678,343.356 320.5,351.5C 320.29,342.95 320.957,334.616 322.5,326.5 Z"/></g>
<g><path style="opacity:1" fill="#a6a6a6" d="M 93.5,296.5 C 93.4203,299.781 94.087,302.781 95.5,305.5C 95.5,329.833 95.5,354.167 95.5,378.5C 94.6679,354.67 94.1679,330.67 94,306.5C 93.79,304.942 93.29,303.609 92.5,302.5C 92.2053,300.265 92.5386,298.265 93.5,296.5 Z"/></g>
<g><path style="opacity:1" fill="#f8f8f8" d="M 169.5,298.5 C 169.876,339.197 169.21,379.863 167.5,420.5C 166.67,411.676 166.17,402.676 166,393.5C 165.422,405.207 165.422,416.874 166,428.5C 165.667,428.167 165.333,427.833 165,427.5C 164.5,416.172 164.333,404.838 164.5,393.5C 164.954,386.841 165.287,380.174 165.5,373.5C 166.332,348.67 166.832,323.67 167,298.5C 167.769,327.008 167.602,355.508 166.5,384C 166.667,386.5 166.833,389 167,391.5C 167.333,387.833 167.667,384.167 168,380.5C 168.168,352.997 168.668,325.664 169.5,298.5 Z"/></g>
<g><path style="opacity:1" fill="#e3e3e3" d="M 92.5,302.5 C 93.29,303.609 93.79,304.942 94,306.5C 94.1679,330.67 94.6679,354.67 95.5,378.5C 95.45,395.2 96.1167,411.867 97.5,428.5C 106.861,427.38 116.194,426.047 125.5,424.5C 135.481,425.44 145.481,426.107 155.5,426.5C 147.362,427.767 139.029,428.434 130.5,428.5C 121.174,428.402 112.007,429.402 103,431.5C 100.245,431.475 97.5783,431.141 95,430.5C 91.6117,387.873 90.7784,345.206 92.5,302.5 Z"/></g>
<g><path style="opacity:1" fill="#5f5f5f" d="M 153.5,381.5 C 153.5,393.833 153.5,406.167 153.5,418.5C 149.298,418.817 145.298,418.483 141.5,417.5C 145.167,417.5 148.833,417.5 152.5,417.5C 152.172,405.322 152.505,393.322 153.5,381.5 Z"/></g>
<g><path style="opacity:1" fill="#4a4a4a" d="M 483.5,382.5 C 483.663,389.062 482.996,395.395 481.5,401.5C 481.586,394.963 482.253,388.63 483.5,382.5 Z"/></g>
<g><path style="opacity:1" fill="#848484" d="M 225.5,406.5 C 226.108,407.8 226.775,409.133 227.5,410.5C 227.457,411.416 227.124,412.083 226.5,412.5C 226.374,410.8 225.707,409.3 224.5,408C 224.57,407.235 224.903,406.735 225.5,406.5 Z"/></g>
<g><path style="opacity:1" fill="#6e6e6e" d="M 103.5,404.5 C 103.977,408.62 104.977,412.62 106.5,416.5C 105.5,416.5 104.5,416.5 103.5,416.5C 103.5,412.5 103.5,408.5 103.5,404.5 Z"/></g>
<g><path style="opacity:1" fill="#e6e6e6" d="M 472.5,361.5 C 471.633,382.596 471.3,403.596 471.5,424.5C 470.167,424.5 468.833,424.5 467.5,424.5C 463.627,422.57 459.294,421.903 454.5,422.5C 441.254,421.126 428.087,421.459 415,423.5C 413.518,383.511 413.185,343.511 414,303.5C 415.043,300.243 415.543,296.91 415.5,293.5C 416.972,297.919 417.638,302.586 417.5,307.5C 417.5,344.5 417.5,381.5 417.5,418.5C 433.85,418.024 450.183,418.691 466.5,420.5C 467.592,383.511 468.926,346.511 470.5,309.5C 470.41,303.14 470.077,296.807 469.5,290.5C 469.369,289.761 469.536,289.094 470,288.5C 471.076,296.283 471.576,304.116 471.5,312C 470.062,347.829 469.229,383.662 469,419.5C 469.767,397.156 470.767,374.823 472,352.5C 472.498,355.482 472.665,358.482 472.5,361.5 Z"/></g>
<g><path style="opacity:1" fill="#484848" d="M 449.5,382.5 C 451.456,390.788 451.789,399.122 450.5,407.5C 450.388,399.156 450.055,390.822 449.5,382.5 Z"/></g>
<g><path style="opacity:1" fill="#656565" d="M 447.5,313.5 C 449.099,313.232 450.432,313.566 451.5,314.5C 450.5,314.5 449.5,314.5 448.5,314.5C 448.5,324.167 448.5,333.833 448.5,343.5C 447.506,333.681 447.173,323.681 447.5,313.5 Z"/></g>
<g><path style="opacity:1" fill="#767676" d="M 446.5,301.5 C 446.5,302.5 446.5,303.5 446.5,304.5C 449.385,304.194 452.052,304.527 454.5,305.5C 451.5,305.5 448.5,305.5 445.5,305.5C 445.232,303.901 445.566,302.568 446.5,301.5 Z"/></g>
<g><path style="opacity:1" fill="#858585" d="M 77.5,401.5 C 78.1663,408.492 78.4997,415.659 78.5,423C 78.4972,430.533 77.8306,437.699 76.5,444.5C 77.4822,430.245 77.8156,415.912 77.5,401.5 Z"/></g>
<g><path style="opacity:1" fill="#8c8c8c" d="M 454.5,422.5 C 459.294,421.903 463.627,422.57 467.5,424.5C 463.063,423.887 458.73,423.22 454.5,422.5 Z"/></g>
<g><path style="opacity:1" fill="#3b3b3b" d="M 388.5,420.5 C 388.5,422.5 388.5,424.5 388.5,426.5C 385.167,426.5 381.833,426.5 378.5,426.5C 381.287,425.523 384.287,425.19 387.5,425.5C 387.216,423.585 387.549,421.919 388.5,420.5 Z"/></g>
<g><path style="opacity:1" fill="#c5c5c5" d="M 164.5,393.5 C 164.333,404.838 164.5,416.172 165,427.5C 165.333,427.833 165.667,428.167 166,428.5C 165.422,416.874 165.422,405.207 166,393.5C 166.17,402.676 166.67,411.676 167.5,420.5C 167.073,423.788 167.74,426.788 169.5,429.5C 167,429.833 164.5,430.167 162,430.5C 151.33,430.038 140.83,429.371 130.5,428.5C 139.029,428.434 147.362,427.767 155.5,426.5C 158.119,426.232 160.619,426.565 163,427.5C 163.169,415.993 163.669,404.659 164.5,393.5 Z"/></g>
<g><path style="opacity:1" fill="#797979" d="M 481.5,419.5 C 481.244,423.269 481.577,426.936 482.5,430.5C 481.213,429.129 480.547,427.295 480.5,425C 480.506,422.967 480.839,421.134 481.5,419.5 Z"/></g>
<g><path style="opacity:1" fill="#121212" d="M 393.5,428.5 C 397.066,428.88 399.399,430.88 400.5,434.5C 393.197,435.497 385.863,435.831 378.5,435.5C 378.472,433.418 379.139,431.584 380.5,430C 383.855,429.454 387.188,429.621 390.5,430.5C 392.03,430.36 393.03,429.693 393.5,428.5 Z"/></g>
<g><path style="opacity:1" fill="#484848" d="M 198.5,433.5 C 199.043,433.56 199.376,433.893 199.5,434.5C 190.342,435.822 181.342,435.822 172.5,434.5C 181.349,434.826 190.016,434.493 198.5,433.5 Z"/></g>
<g><path style="opacity:1" fill="#1d1d1d" d="M 200.5,443.5 C 190.828,443.666 181.161,443.5 171.5,443C 169.505,442.076 169.172,440.91 170.5,439.5C 181.852,439.627 193.185,439.294 204.5,438.5C 204.592,441.4 203.259,443.067 200.5,443.5 Z"/></g>
<g><path style="opacity:1" fill="#161616" d="M 419.5,449.5 C 417.114,449.741 415.114,449.075 413.5,447.5C 412.77,446.288 411.77,445.288 410.5,444.5C 410.833,444.167 411.167,443.833 411.5,443.5C 413.912,444.818 416.246,444.651 418.5,443C 428.68,442.314 438.846,442.481 449,443.5C 459.156,442.814 469.323,442.314 479.5,442C 487.376,440.015 495.376,438.849 503.5,438.5C 503.439,440.592 502.439,442.092 500.5,443C 497.529,443.794 494.529,444.461 491.5,445C 474.509,445.903 457.509,446.57 440.5,447C 433.466,447.738 426.466,448.572 419.5,449.5 Z"/></g>
<g><path style="opacity:1" fill="#363636" d="M 388.5,438.5 C 393.243,439.079 397.91,440.079 402.5,441.5C 394.521,442.665 386.521,442.832 378.5,442C 382.138,441.241 385.471,440.075 388.5,438.5 Z"/></g>
<g><path style="opacity:1" fill="#e9e9e9" d="M 77.5,301.5 C 78.3324,333.997 78.8324,366.664 79,399.5C 79.3333,398.167 79.6667,396.833 80,395.5C 80.3333,395.833 80.6667,396.167 81,396.5C 81.6667,378.5 81.6667,360.5 81,342.5C 80.6667,348.167 80.3333,353.833 80,359.5C 79.6197,344.654 80.1197,329.987 81.5,315.5C 84.4589,356.545 84.1256,397.545 80.5,438.5C 81.5,438.5 82.5,438.5 83.5,438.5C 83.5,439.5 83.5,440.5 83.5,441.5C 97.771,442.902 112.104,443.569 126.5,443.5C 134.5,443.333 142.5,443.167 150.5,443C 153.334,442.955 155.834,442.121 158,440.5C 159.6,441.866 161.433,442.866 163.5,443.5C 157.579,444.991 151.579,446.158 145.5,447C 131.833,447.667 118.167,447.667 104.5,447C 94.7892,444.961 85.1225,445.128 75.5,447.5C 75.9175,446.778 76.5842,446.278 77.5,446C 76.5842,445.722 75.9175,445.222 75.5,444.5C 75.8333,444.5 76.1667,444.5 76.5,444.5C 77.8306,437.699 78.4972,430.533 78.5,423C 78.4997,415.659 78.1663,408.492 77.5,401.5C 77.5,368.167 77.5,334.833 77.5,301.5 Z"/></g>
<g><path style="opacity:1" fill="#0f0f0f" d="M 376.5,446.5 C 386.938,446.049 397.271,446.549 407.5,448C 406.167,448.667 404.833,449.333 403.5,450C 394.833,450.667 386.167,450.667 377.5,450C 376.663,448.989 376.33,447.822 376.5,446.5 Z"/></g>
<g><path style="opacity:1" fill="#1d1d1d" d="M 499.5,446.5 C 501.09,446.628 502.423,447.295 503.5,448.5C 498.794,450.776 493.794,452.276 488.5,453C 463.797,453.978 439.13,455.145 414.5,456.5C 413.571,455.311 413.238,453.978 413.5,452.5C 431.472,451.201 449.472,450.368 467.5,450C 478.4,449.596 489.067,448.429 499.5,446.5 Z"/></g>
<g><path style="opacity:1" fill="#919191" d="M 413.5,447.5 C 415.114,449.075 417.114,449.741 419.5,449.5C 417.735,450.461 415.735,450.795 413.5,450.5C 413.5,449.5 413.5,448.5 413.5,447.5 Z"/></g>
<g><path style="opacity:1" fill="#1e1e1e" d="M 197.5,450.5 C 200.898,450.18 204.232,450.513 207.5,451.5C 207.291,452.086 206.957,452.586 206.5,453C 202.514,453.499 198.514,453.666 194.5,453.5C 186.16,453.666 177.827,453.5 169.5,453C 169.043,452.586 168.709,452.086 168.5,451.5C 178.144,450.502 187.81,450.168 197.5,450.5 Z"/></g>
<g><path style="opacity:1" fill="#8b8b8b" d="M 162.5,448.5 C 162.66,450.199 162.494,451.866 162,453.5C 143.576,452.507 125.076,452.174 106.5,452.5C 124.659,451.503 142.992,451.17 161.5,451.5C 161.263,450.209 161.596,449.209 162.5,448.5 Z"/></g>
<g><path style="opacity:1" fill="#646464" d="M 361.5,454.5 C 364.687,453.194 368.02,453.194 371.5,454.5C 371.376,455.107 371.043,455.44 370.5,455.5C 367.713,454.523 364.713,454.19 361.5,454.5 Z"/></g>
<g><path style="opacity:1" fill="#050505" d="M 361.5,454.5 C 364.713,454.19 367.713,454.523 370.5,455.5C 369.527,457.068 369.36,458.735 370,460.5C 374.02,463.364 377.853,466.364 381.5,469.5C 383.265,470.461 385.265,470.795 387.5,470.5C 387.5,480.167 387.5,489.833 387.5,499.5C 386.888,522.162 386.554,544.828 386.5,567.5C 379.052,567.055 371.718,566.055 364.5,564.5C 363.391,564.443 362.391,564.11 361.5,563.5C 360.048,562.698 358.382,562.198 356.5,562C 351.177,561.501 345.844,561.334 340.5,561.5C 291.443,560.814 242.443,561.814 193.5,564.5C 191.167,564.5 188.833,564.5 186.5,564.5C 186.5,556.5 186.5,548.5 186.5,540.5C 187.157,521.841 187.491,503.174 187.5,484.5C 188.482,481.038 188.815,477.371 188.5,473.5C 190.735,473.795 192.735,473.461 194.5,472.5C 195.167,472.5 195.5,472.167 195.5,471.5C 196.167,472.167 196.833,472.833 197.5,473.5C 203.016,471.676 206.349,467.843 207.5,462C 210,461.625 212.333,460.792 214.5,459.5C 215.754,457.741 215.421,456.241 213.5,455C 262.851,455.083 312.184,454.916 361.5,454.5 Z"/></g>
<g><path style="opacity:1" fill="#171717" d="M 396.5,453.5 C 400.582,453.344 404.582,453.844 408.5,455C 409.815,456.395 409.481,457.395 407.5,458C 399.244,458.192 391.078,459.025 383,460.5C 377.584,461.755 375.75,459.921 377.5,455C 384.013,454.828 390.347,454.328 396.5,453.5 Z"/></g>
<g><path style="opacity:1" fill="#141414" d="M 497.5,460.5 C 491.31,460.823 485.31,460.49 479.5,459.5C 479.611,458.883 479.944,458.383 480.5,458C 487.306,456.68 493.973,455.18 500.5,453.5C 506.158,458.212 505.158,460.546 497.5,460.5 Z"/></g>
<g><path style="opacity:1" fill="#151515" d="M 89.5,461.5 C 85.4862,461.666 81.4862,461.499 77.5,461C 76.3157,459.855 76.3157,458.688 77.5,457.5C 106.537,455.814 135.537,454.981 164.5,455C 162.963,456.11 162.297,457.61 162.5,459.5C 138.142,460.006 113.809,460.673 89.5,461.5 Z"/></g>
<g><path style="opacity:1" fill="#606060" d="M 168.5,457.5 C 170.5,457.5 172.5,457.5 174.5,457.5C 172.469,457.972 170.802,458.972 169.5,460.5C 168.596,459.791 168.263,458.791 168.5,457.5 Z"/></g>
<g><path style="opacity:1" fill="#1c1c1c" d="M 174.5,457.5 C 185.838,457.333 197.172,457.5 208.5,458C 207.672,458.915 206.672,459.581 205.5,460C 196.691,460.922 188.024,461.755 179.5,462.5C 175.671,463.069 172.337,462.402 169.5,460.5C 170.802,458.972 172.469,457.972 174.5,457.5 Z"/></g>
<g><path style="opacity:1" fill="#030303" d="M 474.5,468.5 C 474.09,479.719 474.756,490.719 476.5,501.5C 476.5,503.167 476.5,504.833 476.5,506.5C 476.5,516.5 476.5,526.5 476.5,536.5C 468.316,536.174 460.316,536.508 452.5,537.5C 433.564,538.971 415.897,544.471 399.5,554C 397.004,555.331 395.004,557.164 393.5,559.5C 392.504,545.343 392.171,531.01 392.5,516.5C 392.5,500.833 392.5,485.167 392.5,469.5C 395.216,469.322 397.883,468.822 400.5,468C 402.607,466.736 403.607,464.903 403.5,462.5C 407.313,461.84 410.979,460.674 414.5,459C 431.506,458.389 448.506,458.055 465.5,458C 467.911,459.955 470.411,461.789 473,463.5C 474.009,465.025 474.509,466.692 474.5,468.5 Z"/></g>
<g><path style="opacity:1" fill="#202020" d="M 471.5,458.5 C 472.568,457.566 473.901,457.232 475.5,457.5C 475.719,458.675 475.386,459.675 474.5,460.5C 473.482,459.807 472.482,459.141 471.5,458.5 Z"/></g>
<g><path style="opacity:1" fill="#6b6b6b" d="M 479.5,459.5 C 485.31,460.49 491.31,460.823 497.5,460.5C 491.322,461.817 484.988,461.817 478.5,460.5C 478.624,459.893 478.957,459.56 479.5,459.5 Z"/></g>
<g><path style="opacity:1" fill="#040404" d="M 182.5,502.5 C 181.833,510.167 181.167,517.833 180.5,525.5C 179.883,509.174 179.383,492.841 179,476.5C 178.586,476.043 178.086,475.709 177.5,475.5C 176.458,493.502 176.625,511.502 178,529.5C 178.202,531.256 178.702,532.922 179.5,534.5C 180.107,534.376 180.44,534.043 180.5,533.5C 181.451,534.919 181.784,536.585 181.5,538.5C 181.666,545.508 181.5,552.508 181,559.5C 172.593,548.776 161.759,541.609 148.5,538C 139.03,536.795 129.53,535.962 120,535.5C 114.675,535.329 109.508,535.996 104.5,537.5C 103.5,537.5 102.5,537.5 101.5,537.5C 101.823,530.978 101.49,524.645 100.5,518.5C 100.167,512.5 99.8333,506.5 99.5,500.5C 99.5,495.167 99.5,489.833 99.5,484.5C 100.806,482.184 102.139,479.85 103.5,477.5C 104.194,474.579 105.027,471.579 106,468.5C 108.045,467.113 110.212,465.946 112.5,465C 123.167,464.667 133.833,464.333 144.5,464C 146.708,463.809 148.708,463.309 150.5,462.5C 154.39,462.728 158.224,462.394 162,461.5C 165.573,464.184 168.073,467.684 169.5,472C 173.821,472.499 178.154,472.666 182.5,472.5C 182.5,482.5 182.5,492.5 182.5,502.5 Z"/></g>
<g><path style="opacity:1" fill="#e8e8e8" d="M 75.5,444.5 C 75.9175,445.222 76.5842,445.722 77.5,446C 76.5842,446.278 75.9175,446.778 75.5,447.5C 74.5213,449.145 73.188,450.479 71.5,451.5C 72.2427,452.182 72.9094,452.849 73.5,453.5C 79.9874,454.328 86.654,454.828 93.5,455C 89.1667,455.333 84.8333,455.667 80.5,456C 78.4936,456.083 77.4936,456.583 77.5,457.5C 76.3157,458.688 76.3157,459.855 77.5,461C 81.4862,461.499 85.4862,461.666 89.5,461.5C 94.5206,462.235 99.6872,462.902 105,463.5C 121.332,462.775 137.665,461.775 154,460.5C 155.833,460.667 157.667,460.833 159.5,461C 156.305,461.181 153.305,461.681 150.5,462.5C 148.708,463.309 146.708,463.809 144.5,464C 133.833,464.333 123.167,464.667 112.5,465C 110.212,465.946 108.045,467.113 106,468.5C 105.027,471.579 104.194,474.579 103.5,477.5C 103.496,473.75 102.496,473.083 100.5,475.5C 100.5,473.833 100.5,472.167 100.5,470.5C 91.8796,470.765 83.713,472.765 76,476.5C 75.5172,477.448 75.3505,478.448 75.5,479.5C 75.1667,480.167 74.8333,480.833 74.5,481.5C 73.1201,481.038 72.4534,480.038 72.5,478.5C 72.9391,476.896 73.6057,475.396 74.5,474C 71.446,469.826 72.446,466.826 77.5,465C 72.8458,464.169 71.5125,461.669 73.5,457.5C 68.9227,456.092 67.4227,453.092 69,448.5C 70.9438,446.779 73.1105,445.446 75.5,444.5 Z"/></g>
<g><path style="opacity:1" fill="#1b1b1b" d="M 389.5,463.5 C 392.898,463.18 396.232,463.513 399.5,464.5C 399.291,465.086 398.957,465.586 398.5,466C 393.136,466.829 387.802,466.663 382.5,465.5C 384.969,464.832 387.302,464.165 389.5,463.5 Z"/></g>
<g><path style="opacity:1" fill="#343434" d="M 502.5,462.5 C 504.048,462.821 504.715,463.821 504.5,465.5C 496.974,465.863 489.474,466.53 482,467.5C 478.937,467.065 478.77,466.232 481.5,465C 488.704,464.655 495.704,463.821 502.5,462.5 Z"/></g>
<g><path style="opacity:1" fill="#202020" d="M 89.5,464.5 C 93.1817,464.335 96.8484,464.501 100.5,465C 100.957,465.414 101.291,465.914 101.5,466.5C 97.5408,467.327 93.5408,467.827 89.5,468C 85.2258,471.069 80.5592,471.902 75.5,470.5C 76.7786,468.854 78.4453,467.687 80.5,467C 83.678,466.34 86.678,465.507 89.5,464.5 Z"/></g>
<g><path style="opacity:1" fill="#1b1b1b" d="M 197.5,473.5 C 196.833,472.833 196.167,472.167 195.5,471.5C 194.688,470.007 193.355,469.34 191.5,469.5C 185.181,470.271 178.848,470.104 172.5,469C 171.833,468.333 171.167,467.667 170.5,467C 178.483,466.168 186.483,465.668 194.5,465.5C 196.679,464.897 198.846,464.23 201,463.5C 201.167,463.833 201.333,464.167 201.5,464.5C 199.857,467.445 198.524,470.445 197.5,473.5 Z"/></g>
<g><path style="opacity:1" fill="#f9f9f9" d="M 410.5,464.5 C 411.117,464.611 411.617,464.944 412,465.5C 412.827,469.541 412.66,473.541 411.5,477.5C 410.508,473.217 410.174,468.884 410.5,464.5 Z"/></g>
<g><path style="opacity:1" fill="#e1e1e1" d="M 403.5,470.5 C 404.814,472.915 405.481,475.748 405.5,479C 405.333,481.833 405.167,484.667 405,487.5C 404.586,487.957 404.086,488.291 403.5,488.5C 402.212,482.446 402.212,476.446 403.5,470.5 Z"/></g>
<g><path style="opacity:1" fill="#4a4a4a" d="M 474.5,468.5 C 475.452,479.33 476.118,490.33 476.5,501.5C 474.756,490.719 474.09,479.719 474.5,468.5 Z"/></g>
<g><path style="opacity:1" fill="#030303" d="M 494.5,469.5 C 494.831,492.673 494.498,515.673 493.5,538.5C 488.897,537.617 484.23,537.283 479.5,537.5C 481.044,532.724 481.711,527.724 481.5,522.5C 480.361,511.196 479.695,499.863 479.5,488.5C 479.5,482.833 479.5,477.167 479.5,471.5C 481.735,471.795 483.735,471.461 485.5,470.5C 488.482,470.037 491.482,469.704 494.5,469.5 Z"/></g>
<g><path style="opacity:1" fill="#7d7d7d" d="M 506.5,469.5 C 504.393,470.468 502.059,470.802 499.5,470.5C 499.5,477.833 499.5,485.167 499.5,492.5C 498.508,485.018 498.175,477.352 498.5,469.5C 501.167,469.5 503.833,469.5 506.5,469.5 Z"/></g>
<g><path style="opacity:1" fill="#1c1c1c" d="M 100.5,475.5 C 100.389,476.117 100.056,476.617 99.5,477C 91.4239,477.402 83.4239,478.236 75.5,479.5C 75.3505,478.448 75.5172,477.448 76,476.5C 83.713,472.765 91.8796,470.765 100.5,470.5C 100.5,472.167 100.5,473.833 100.5,475.5 Z"/></g>
<g><path style="opacity:1" fill="#494949" d="M 485.5,470.5 C 483.735,471.461 481.735,471.795 479.5,471.5C 479.5,477.167 479.5,482.833 479.5,488.5C 478.51,482.69 478.177,476.69 478.5,470.5C 480.833,470.5 483.167,470.5 485.5,470.5 Z"/></g>
<g><path style="opacity:1" fill="#313131" d="M 381.5,469.5 C 383.833,469.5 386.167,469.5 388.5,469.5C 388.827,479.681 388.494,489.681 387.5,499.5C 387.5,489.833 387.5,480.167 387.5,470.5C 385.265,470.795 383.265,470.461 381.5,469.5 Z"/></g>
<g><path style="opacity:1" fill="#494949" d="M 194.5,472.5 C 192.735,473.461 190.735,473.795 188.5,473.5C 188.815,477.371 188.482,481.038 187.5,484.5C 187.5,480.5 187.5,476.5 187.5,472.5C 189.833,472.5 192.167,472.5 194.5,472.5 Z"/></g>
<g><path style="opacity:1" fill="#cacaca" d="M 408.5,481.5 C 409.5,481.5 410.5,481.5 411.5,481.5C 410.754,485.31 409.754,485.31 408.5,481.5 Z"/></g>
<g><path style="opacity:1" fill="#e5e5e5" d="M 396.5,476.5 C 397.5,476.5 398.5,476.5 399.5,476.5C 399.667,498.503 399.5,520.503 399,542.5C 398.586,542.957 398.086,543.291 397.5,543.5C 396.5,521.177 396.167,498.843 396.5,476.5 Z"/></g>
<g><path style="opacity:1" fill="#3b3b3b" d="M 494.5,469.5 C 495.829,492.67 495.829,516.003 494.5,539.5C 493.893,539.376 493.56,539.043 493.5,538.5C 494.498,515.673 494.831,492.673 494.5,469.5 Z"/></g>
<g><path style="opacity:1" fill="#e3e3e3" d="M 389.5,470.5 C 390.831,477.636 391.497,485.136 391.5,493C 391.764,506.017 390.93,518.851 389,531.5C 389.301,511.18 389.468,490.846 389.5,470.5 Z"/></g>
<g><path style="opacity:1" fill="#454545" d="M 476.5,506.5 C 477.494,516.653 477.828,526.986 477.5,537.5C 469.167,537.5 460.833,537.5 452.5,537.5C 460.316,536.508 468.316,536.174 476.5,536.5C 476.5,526.5 476.5,516.5 476.5,506.5 Z"/></g>
<g><path style="opacity:1" fill="#dedede" d="M 222.5,493.5 C 221.174,507.339 221.174,521.339 222.5,535.5C 223.107,535.376 223.44,535.043 223.5,534.5C 236.099,532.551 248.766,531.051 261.5,530C 291.542,529.175 321.542,529.342 351.5,530.5C 352.192,529.975 352.692,529.308 353,528.5C 353.137,510.481 353.303,492.481 353.5,474.5C 354.086,474.709 354.586,475.043 355,475.5C 355.796,494.864 355.63,514.198 354.5,533.5C 326.494,534.285 298.494,534.285 270.5,533.5C 253.132,534.842 235.799,536.509 218.5,538.5C 218.367,518.499 218.7,498.666 219.5,479C 262.789,476.788 306.122,475.621 349.5,475.5C 349.5,476.5 349.5,477.5 349.5,478.5C 311.173,479.233 272.84,479.733 234.5,480C 230.534,480.828 226.534,481.328 222.5,481.5C 222.5,485.5 222.5,489.5 222.5,493.5 Z"/></g>
<g><path style="opacity:1" fill="#545454" d="M 222.5,493.5 C 222.171,507.344 222.504,521.01 223.5,534.5C 223.44,535.043 223.107,535.376 222.5,535.5C 221.174,521.339 221.174,507.339 222.5,493.5 Z"/></g>
<g><path style="opacity:1" fill="#494949" d="M 331.5,522.5 C 337.5,522.833 343.5,523.167 349.5,523.5C 343.452,524.63 337.452,524.297 331.5,522.5 Z"/></g>
<g><path style="opacity:1" fill="#f0f0f0" d="M 229.5,490.5 C 229.187,493.247 229.52,495.914 230.5,498.5C 231.902,498.135 232.902,497.301 233.5,496C 232.767,494.234 232.433,492.401 232.5,490.5C 233.167,490.167 233.833,489.833 234.5,489.5C 234.369,492.367 235.703,494.033 238.5,494.5C 238.402,496.214 238.402,498.548 238.5,501.5C 237.518,500.859 236.518,500.193 235.5,499.5C 233.209,501.123 231.209,502.957 229.5,505C 230.421,506.064 231.421,506.564 232.5,506.5C 232.611,508.648 231.944,508.981 230.5,507.5C 229.167,510.833 229.167,514.167 230.5,517.5C 231.739,517.942 232.739,518.609 233.5,519.5C 231.554,520.254 230.721,521.588 231,523.5C 234.394,522.544 237.894,522.211 241.5,522.5C 242.401,521.71 243.068,520.71 243.5,519.5C 245.872,520.553 247.872,519.886 249.5,517.5C 248.156,515.471 246.823,513.471 245.5,511.5C 245.5,510.5 245.5,509.5 245.5,508.5C 241.661,507.95 241.661,506.95 245.5,505.5C 246.739,505.942 247.739,506.609 248.5,507.5C 247.475,507.897 247.308,508.563 248,509.5C 249.685,511.017 251.185,512.684 252.5,514.5C 255.464,513.192 257.797,511.192 259.5,508.5C 260.234,507.292 260.567,505.959 260.5,504.5C 261.705,506.138 263.038,506.471 264.5,505.5C 264.938,505.435 265.272,505.601 265.5,506C 264.672,506.915 263.672,507.581 262.5,508C 263.126,508.75 263.626,509.584 264,510.5C 264.278,509.584 264.778,508.918 265.5,508.5C 265.5,509.167 265.5,509.833 265.5,510.5C 265.586,511.496 265.252,512.329 264.5,513C 265.823,513.816 266.489,514.983 266.5,516.5C 264.851,515.351 263.351,514.018 262,512.5C 258.939,514.059 256.773,516.392 255.5,519.5C 254.957,519.56 254.624,519.893 254.5,520.5C 255.5,521.333 256.5,522.167 257.5,523C 255.167,523.333 252.833,523.667 250.5,524C 260.863,524.681 271.196,524.348 281.5,523C 278.964,522.814 276.631,522.314 274.5,521.5C 277.187,521.664 279.854,521.497 282.5,521C 283.308,520.692 283.975,520.192 284.5,519.5C 283.227,516.479 281.227,515.479 278.5,516.5C 278.062,516.565 277.728,516.399 277.5,516C 278.687,514.981 279.687,513.814 280.5,512.5C 279.68,510.026 278.68,507.693 277.5,505.5C 279.145,506.479 280.479,507.812 281.5,509.5C 284.084,507.916 286.084,505.916 287.5,503.5C 288.234,502.292 288.567,500.959 288.5,499.5C 289.482,500.141 290.482,500.807 291.5,501.5C 293.186,500.143 294.852,498.81 296.5,497.5C 298.027,496.069 299.694,494.735 301.5,493.5C 302.833,492.833 304.167,492.167 305.5,491.5C 306.401,492.29 307.068,493.29 307.5,494.5C 306.13,494.856 305.13,495.69 304.5,497C 306.371,499.904 308.371,502.737 310.5,505.5C 311.94,504.048 313.606,503.048 315.5,502.5C 316.15,502.804 316.817,503.137 317.5,503.5C 318.172,502.051 318.839,500.718 319.5,499.5C 319.833,499.5 320.167,499.5 320.5,499.5C 321.01,501.071 321.01,503.405 320.5,506.5C 319.849,505.909 319.182,505.243 318.5,504.5C 315.697,505.482 313.863,507.149 313,509.5C 314.711,512.255 316.878,514.589 319.5,516.5C 322.993,515.062 323.993,512.729 322.5,509.5C 323.29,508.599 324.29,507.932 325.5,507.5C 325.833,508.167 326.167,508.833 326.5,509.5C 328.042,510.163 329.709,510.83 331.5,511.5C 328.864,513.064 329.031,514.397 332,515.5C 332.278,514.584 332.778,513.918 333.5,513.5C 334.535,515.205 334.535,516.872 333.5,518.5C 336.985,520.094 340.652,520.76 344.5,520.5C 345.167,515.167 345.833,509.833 346.5,504.5C 346.5,509.833 346.5,515.167 346.5,520.5C 347.5,520.5 348.5,520.5 349.5,520.5C 349.5,521.5 349.5,522.5 349.5,523.5C 343.5,523.167 337.5,522.833 331.5,522.5C 302.804,523.001 274.137,524.168 245.5,526C 242.22,527.888 239.053,527.721 236,525.5C 233.192,526.386 230.359,526.553 227.5,526C 226.57,524.806 225.903,523.473 225.5,522C 226.693,518.986 227.359,515.819 227.5,512.5C 226.985,508.379 226.985,504.379 227.5,500.5C 228.098,496.58 228.765,493.247 229.5,490.5 Z"/></g>
<g><path style="opacity:1" fill="#181818" d="M 241.5,522.5 C 237.894,522.211 234.394,522.544 231,523.5C 230.721,521.588 231.554,520.254 233.5,519.5C 237.185,516.014 239.852,517.014 241.5,522.5 Z"/></g>
<g><path style="opacity:1" fill="#262626" d="M 274.5,521.5 C 274.062,521.565 273.728,521.399 273.5,521C 275.24,519.483 276.906,517.983 278.5,516.5C 281.227,515.479 283.227,516.479 284.5,519.5C 283.975,520.192 283.308,520.692 282.5,521C 279.854,521.497 277.187,521.664 274.5,521.5 Z"/></g>
<g><path style="opacity:1" fill="#171717" d="M 238.5,501.5 C 239.259,503.436 240.259,505.269 241.5,507C 238.147,513.048 235.147,512.882 232.5,506.5C 231.421,506.564 230.421,506.064 229.5,505C 231.209,502.957 233.209,501.123 235.5,499.5C 236.518,500.193 237.518,500.859 238.5,501.5 Z"/></g>
<g><path style="opacity:1" fill="#e8e8e8" d="M 346.5,504.5 C 345.833,509.833 345.167,515.167 344.5,520.5C 341.121,516.782 337.954,512.782 335,508.5C 332.676,509.775 332.176,511.442 333.5,513.5C 332.778,513.918 332.278,514.584 332,515.5C 329.031,514.397 328.864,513.064 331.5,511.5C 329.709,510.83 328.042,510.163 326.5,509.5C 329.285,509.067 331.619,507.734 333.5,505.5C 332.334,502.497 330.667,499.83 328.5,497.5C 325.829,498.658 323.829,500.491 322.5,503C 323.315,504.643 324.315,506.143 325.5,507.5C 324.29,507.932 323.29,508.599 322.5,509.5C 321.094,509.027 320.427,508.027 320.5,506.5C 321.01,503.405 321.01,501.071 320.5,499.5C 322.151,498.03 323.985,496.697 326,495.5C 326.536,493.433 326.036,491.599 324.5,490C 325.5,489.333 326.5,489.333 327.5,490C 329.193,492.952 331.026,493.118 333,490.5C 333.617,489.551 333.451,488.718 332.5,488C 326.349,486.921 320.516,487.754 315,490.5C 315.726,493.771 317.226,496.771 319.5,499.5C 318.839,500.718 318.172,502.051 317.5,503.5C 316.817,503.137 316.15,502.804 315.5,502.5C 315.611,501.883 315.944,501.383 316.5,501C 315,498.833 313.5,496.667 312,494.5C 310.51,493.272 309.01,493.272 307.5,494.5C 307.068,493.29 306.401,492.29 305.5,491.5C 305.918,490.778 306.584,490.278 307.5,490C 304.137,489.374 300.804,489.041 297.5,489C 299.041,490.371 300.375,491.871 301.5,493.5C 299.694,494.735 298.027,496.069 296.5,497.5C 296.804,496.85 297.137,496.183 297.5,495.5C 295.924,493.021 294.924,490.354 294.5,487.5C 284.419,487.123 274.419,487.789 264.5,489.5C 265.325,490.386 266.325,490.719 267.5,490.5C 269.127,499.368 273.294,501.034 280,495.5C 278.665,489.415 280.165,488.415 284.5,492.5C 285.167,492.167 285.833,491.833 286.5,491.5C 285.903,494.36 286.57,497.026 288.5,499.5C 288.567,500.959 288.234,502.292 287.5,503.5C 285.886,501.544 284.219,499.544 282.5,497.5C 280.807,499.027 278.973,500.36 277,501.5C 276.421,502.928 276.588,504.262 277.5,505.5C 278.68,507.693 279.68,510.026 280.5,512.5C 279.687,513.814 278.687,514.981 277.5,516C 277.728,516.399 278.062,516.565 278.5,516.5C 276.906,517.983 275.24,519.483 273.5,521C 273.728,521.399 274.062,521.565 274.5,521.5C 276.631,522.314 278.964,522.814 281.5,523C 271.196,524.348 260.863,524.681 250.5,524C 252.833,523.667 255.167,523.333 257.5,523C 256.5,522.167 255.5,521.333 254.5,520.5C 254.624,519.893 254.957,519.56 255.5,519.5C 259.739,522.061 264.406,523.061 269.5,522.5C 269.385,520.053 268.385,518.053 266.5,516.5C 266.489,514.983 265.823,513.816 264.5,513C 265.252,512.329 265.586,511.496 265.5,510.5C 268.173,512.506 270.506,514.839 272.5,517.5C 274.65,515.851 276.65,514.018 278.5,512C 276.451,509.407 274.285,506.907 272,504.5C 270.028,506.232 267.861,507.565 265.5,508.5C 264.778,508.918 264.278,509.584 264,510.5C 263.626,509.584 263.126,508.75 262.5,508C 263.672,507.581 264.672,506.915 265.5,506C 265.272,505.601 264.938,505.435 264.5,505.5C 266.123,504.221 267.79,502.887 269.5,501.5C 267.851,499.35 266.018,497.35 264,495.5C 262.22,497.293 260.387,498.96 258.5,500.5C 259.18,501.86 259.847,503.193 260.5,504.5C 260.567,505.959 260.234,507.292 259.5,508.5C 258.215,506.548 256.549,504.882 254.5,503.5C 252.21,504.467 250.21,505.8 248.5,507.5C 247.739,506.609 246.739,505.942 245.5,505.5C 241.661,506.95 241.661,507.95 245.5,508.5C 245.5,509.5 245.5,510.5 245.5,511.5C 243.071,511.585 241.071,512.585 239.5,514.5C 240.857,516.186 242.19,517.852 243.5,519.5C 243.068,520.71 242.401,521.71 241.5,522.5C 239.852,517.014 237.185,516.014 233.5,519.5C 232.739,518.609 231.739,517.942 230.5,517.5C 229.167,514.167 229.167,510.833 230.5,507.5C 231.944,508.981 232.611,508.648 232.5,506.5C 235.147,512.882 238.147,513.048 241.5,507C 240.259,505.269 239.259,503.436 238.5,501.5C 238.402,498.548 238.402,496.214 238.5,494.5C 239.937,493.275 241.604,492.275 243.5,491.5C 244.386,490.675 244.719,489.675 244.5,488.5C 241.098,488.342 237.764,488.676 234.5,489.5C 233.833,489.833 233.167,490.167 232.5,490.5C 231.5,490.5 230.5,490.5 229.5,490.5C 228.765,493.247 228.098,496.58 227.5,500.5C 227.766,496.429 227.433,492.429 226.5,488.5C 227.783,484.058 229.283,483.725 231,487.5C 232.399,486.773 233.899,486.273 235.5,486C 251.17,485.605 266.837,485.105 282.5,484.5C 301.449,486.389 320.283,485.722 339,482.5C 341.424,482.53 343.757,482.863 346,483.5C 346.5,490.492 346.666,497.492 346.5,504.5 Z"/></g>
<g><path style="opacity:1" fill="#626262" d="M 250.5,520.5 C 251.675,520.281 252.675,520.614 253.5,521.5C 251.948,522.798 250.948,522.465 250.5,520.5 Z"/></g>
<g><path style="opacity:1" fill="#747474" d="M 323.5,517.5 C 325.167,518.833 326.833,518.833 328.5,517.5C 329.043,517.56 329.376,517.893 329.5,518.5C 327.167,519.833 324.833,519.833 322.5,518.5C 322.624,517.893 322.957,517.56 323.5,517.5 Z"/></g>
<g><path style="opacity:1" fill="#232323" d="M 328.5,517.5 C 326.833,518.833 325.167,518.833 323.5,517.5C 324.482,516.859 325.482,516.193 326.5,515.5C 327.182,516.243 327.849,516.909 328.5,517.5 Z"/></g>
<g><path style="opacity:1" fill="#191919" d="M 266.5,516.5 C 268.385,518.053 269.385,520.053 269.5,522.5C 264.406,523.061 259.739,522.061 255.5,519.5C 256.773,516.392 258.939,514.059 262,512.5C 263.351,514.018 264.851,515.351 266.5,516.5 Z"/></g>
<g><path style="opacity:1" fill="#1b1b1b" d="M 307.5,511.5 C 310.07,513.403 312.404,515.737 314.5,518.5C 311.216,519.657 307.882,519.824 304.5,519C 303.643,518.311 302.977,517.478 302.5,516.5C 303.882,514.451 305.548,512.785 307.5,511.5 Z"/></g>
<g><path style="opacity:1" fill="#171717" d="M 245.5,511.5 C 246.823,513.471 248.156,515.471 249.5,517.5C 247.872,519.886 245.872,520.553 243.5,519.5C 242.19,517.852 240.857,516.186 239.5,514.5C 241.071,512.585 243.071,511.585 245.5,511.5 Z"/></g>
<g><path style="opacity:1" fill="#1e1e1e" d="M 230.5,509.5 C 235.039,511.502 235.373,513.835 231.5,516.5C 230.526,514.257 230.192,511.924 230.5,509.5 Z"/></g>
<g><path style="opacity:1" fill="#191919" d="M 344.5,520.5 C 340.652,520.76 336.985,520.094 333.5,518.5C 334.535,516.872 334.535,515.205 333.5,513.5C 332.176,511.442 332.676,509.775 335,508.5C 337.954,512.782 341.121,516.782 344.5,520.5 Z"/></g>
<g><path style="opacity:1" fill="#131313" d="M 289.5,507.5 C 291.816,510.095 294.149,512.761 296.5,515.5C 294.81,519.233 292.143,520.233 288.5,518.5C 286.774,516.772 285.441,514.772 284.5,512.5C 286.006,510.599 287.673,508.932 289.5,507.5 Z"/></g>
<g><path style="opacity:1" fill="#131313" d="M 320.5,506.5 C 320.427,508.027 321.094,509.027 322.5,509.5C 323.993,512.729 322.993,515.062 319.5,516.5C 316.878,514.589 314.711,512.255 313,509.5C 313.863,507.149 315.697,505.482 318.5,504.5C 319.182,505.243 319.849,505.909 320.5,506.5 Z"/></g>
<g><path style="opacity:1" fill="#111111" d="M 265.5,510.5 C 265.5,509.833 265.5,509.167 265.5,508.5C 267.861,507.565 270.028,506.232 272,504.5C 274.285,506.907 276.451,509.407 278.5,512C 276.65,514.018 274.65,515.851 272.5,517.5C 270.506,514.839 268.173,512.506 265.5,510.5 Z"/></g>
<g><path style="opacity:1" fill="#131313" d="M 259.5,508.5 C 257.797,511.192 255.464,513.192 252.5,514.5C 251.185,512.684 249.685,511.017 248,509.5C 247.308,508.563 247.475,507.897 248.5,507.5C 250.21,505.8 252.21,504.467 254.5,503.5C 256.549,504.882 258.215,506.548 259.5,508.5 Z"/></g>
<g><path style="opacity:1" fill="#202020" d="M 341.5,502.5 C 342.777,503.694 343.444,505.36 343.5,507.5C 343.333,509.167 343.167,510.833 343,512.5C 341.5,510.167 340,507.833 338.5,505.5C 339.77,504.712 340.77,503.712 341.5,502.5 Z"/></g>
<g><path style="opacity:1" fill="#131313" d="M 299.5,499.5 C 302.269,501.647 304.603,504.314 306.5,507.5C 304.47,509.607 302.303,511.607 300,513.5C 297.64,510.64 295.473,507.64 293.5,504.5C 295.544,502.781 297.544,501.114 299.5,499.5 Z"/></g>
<g><path style="opacity:1" fill="#121212" d="M 326.5,509.5 C 326.167,508.833 325.833,508.167 325.5,507.5C 324.315,506.143 323.315,504.643 322.5,503C 323.829,500.491 325.829,498.658 328.5,497.5C 330.667,499.83 332.334,502.497 333.5,505.5C 331.619,507.734 329.285,509.067 326.5,509.5 Z"/></g>
<g><path style="opacity:1" fill="#151515" d="M 287.5,503.5 C 286.084,505.916 284.084,507.916 281.5,509.5C 280.479,507.812 279.145,506.479 277.5,505.5C 276.588,504.262 276.421,502.928 277,501.5C 278.973,500.36 280.807,499.027 282.5,497.5C 284.219,499.544 285.886,501.544 287.5,503.5 Z"/></g>
<g><path style="opacity:1" fill="#161616" d="M 264.5,505.5 C 263.038,506.471 261.705,506.138 260.5,504.5C 259.847,503.193 259.18,501.86 258.5,500.5C 260.387,498.96 262.22,497.293 264,495.5C 266.018,497.35 267.851,499.35 269.5,501.5C 267.79,502.887 266.123,504.221 264.5,505.5 Z"/></g>
<g><path style="opacity:1" fill="#151515" d="M 243.5,494.5 C 247.326,494.797 250.326,496.63 252.5,500C 250.188,502.375 247.521,503.708 244.5,504C 242.47,502.104 240.803,499.937 239.5,497.5C 240.901,496.479 242.235,495.479 243.5,494.5 Z"/></g>
<g><path style="opacity:1" fill="#141414" d="M 334.5,492.5 C 337.055,494.606 339.388,496.94 341.5,499.5C 340.167,500.5 338.833,501.5 337.5,502.5C 333.414,499.756 332.414,496.423 334.5,492.5 Z"/></g>
<g><path style="opacity:1" fill="#151515" d="M 315.5,502.5 C 313.606,503.048 311.94,504.048 310.5,505.5C 308.371,502.737 306.371,499.904 304.5,497C 305.13,495.69 306.13,494.856 307.5,494.5C 309.01,493.272 310.51,493.272 312,494.5C 313.5,496.667 315,498.833 316.5,501C 315.944,501.383 315.611,501.883 315.5,502.5 Z"/></g>
<g><path style="opacity:1" fill="#252525" d="M 229.5,490.5 C 230.5,490.5 231.5,490.5 232.5,490.5C 232.433,492.401 232.767,494.234 233.5,496C 232.902,497.301 231.902,498.135 230.5,498.5C 229.52,495.914 229.187,493.247 229.5,490.5 Z"/></g>
<g><path style="opacity:1" fill="#1e1e1e" d="M 305.5,491.5 C 304.167,492.167 302.833,492.833 301.5,493.5C 300.375,491.871 299.041,490.371 297.5,489C 300.804,489.041 304.137,489.374 307.5,490C 306.584,490.278 305.918,490.778 305.5,491.5 Z"/></g>
<g><path style="opacity:1" fill="#121212" d="M 248.5,490.5 C 252.634,489.515 256.968,489.182 261.5,489.5C 262.028,490.847 262.195,492.181 262,493.5C 259.966,495.032 257.799,496.365 255.5,497.5C 253.146,495.146 250.812,492.812 248.5,490.5 Z"/></g>
<g><path style="opacity:1" fill="#222222" d="M 238.5,494.5 C 235.703,494.033 234.369,492.367 234.5,489.5C 237.764,488.676 241.098,488.342 244.5,488.5C 244.719,489.675 244.386,490.675 243.5,491.5C 241.604,492.275 239.937,493.275 238.5,494.5 Z"/></g>
<g><path style="opacity:1" fill="#161616" d="M 320.5,499.5 C 320.167,499.5 319.833,499.5 319.5,499.5C 317.226,496.771 315.726,493.771 315,490.5C 320.516,487.754 326.349,486.921 332.5,488C 333.451,488.718 333.617,489.551 333,490.5C 331.026,493.118 329.193,492.952 327.5,490C 326.5,489.333 325.5,489.333 324.5,490C 326.036,491.599 326.536,493.433 326,495.5C 323.985,496.697 322.151,498.03 320.5,499.5 Z"/></g>
<g><path style="opacity:1" fill="#151515" d="M 296.5,497.5 C 294.852,498.81 293.186,500.143 291.5,501.5C 290.482,500.807 289.482,500.141 288.5,499.5C 286.57,497.026 285.903,494.36 286.5,491.5C 285.833,491.833 285.167,492.167 284.5,492.5C 280.165,488.415 278.665,489.415 280,495.5C 273.294,501.034 269.127,499.368 267.5,490.5C 266.325,490.719 265.325,490.386 264.5,489.5C 274.419,487.789 284.419,487.123 294.5,487.5C 294.924,490.354 295.924,493.021 297.5,495.5C 297.137,496.183 296.804,496.85 296.5,497.5 Z"/></g>
<g><path style="opacity:1" fill="#5d5d5d" d="M 261.5,489.5 C 256.968,489.182 252.634,489.515 248.5,490.5C 247.957,490.44 247.624,490.107 247.5,489.5C 252.318,488.188 256.985,488.188 261.5,489.5 Z"/></g>
<g><path style="opacity:1" fill="#8f8f8f" d="M 336.5,486.5 C 338.607,485.532 340.941,485.198 343.5,485.5C 343.82,488.898 343.487,492.232 342.5,495.5C 341.893,495.376 341.56,495.043 341.5,494.5C 342.473,492.052 342.806,489.385 342.5,486.5C 340.5,486.5 338.5,486.5 336.5,486.5 Z"/></g>
<g><path style="opacity:1" fill="#0f0f0f" d="M 336.5,486.5 C 338.5,486.5 340.5,486.5 342.5,486.5C 342.806,489.385 342.473,492.052 341.5,494.5C 339.831,491.813 338.164,489.147 336.5,486.5 Z"/></g>
<g><path style="opacity:1" fill="#2c2c2c" d="M 392.5,516.5 C 392.171,531.01 392.504,545.343 393.5,559.5C 393.217,560.289 392.717,560.956 392,561.5C 391.172,546.328 391.339,531.328 392.5,516.5 Z"/></g>
<g><path style="opacity:1" fill="#212121" d="M 180.5,564.5 C 180.103,565.525 179.437,565.692 178.5,565C 171.011,559.089 163.345,553.423 155.5,548C 150.142,546.665 144.809,545.331 139.5,544C 133.651,543.182 127.985,543.348 122.5,544.5C 114.519,545.157 106.519,545.657 98.5,546C 92.9999,547.958 87.3333,549.125 81.5,549.5C 81.5,548.5 81.5,547.5 81.5,546.5C 92.0451,545.896 102.378,544.063 112.5,541C 125.98,540.123 139.314,541.123 152.5,544C 163.703,548.382 173.036,555.215 180.5,564.5 Z"/></g>
<g><path style="opacity:1" fill="#0b0b0b" d="M 490.5,542.5 C 491.822,542.33 492.989,542.663 494,543.5C 494.499,549.491 494.666,555.491 494.5,561.5C 457.148,554.879 423.481,562.879 393.5,585.5C 392.523,582.713 392.19,579.713 392.5,576.5C 409.147,558.655 429.813,549.155 454.5,548C 467.181,547.345 479.848,547.512 492.5,548.5C 492.5,547.5 492.5,546.5 492.5,545.5C 487.537,544.746 482.537,544.413 477.5,544.5C 470.345,543.671 463.011,543.171 455.5,543C 467.162,542.5 478.829,542.333 490.5,542.5 Z"/></g>
<g><path style="opacity:1" fill="#0e0e0e" d="M 139.5,547.5 C 144.596,549.31 149.929,550.81 155.5,552C 163.378,558.051 171.378,563.885 179.5,569.5C 180.5,569.833 181.167,570.5 181.5,571.5C 181.82,574.898 181.487,578.232 180.5,581.5C 172.485,570.659 161.818,564.159 148.5,562C 129.678,558.182 110.678,556.848 91.5,558C 88.6428,559.627 85.6428,560.793 82.5,561.5C 82.0604,557.821 82.727,554.488 84.5,551.5C 102.694,548.839 121.027,547.506 139.5,547.5 Z"/></g>
<g><path style="opacity:1" fill="#282828" d="M 490.5,542.5 C 478.829,542.333 467.162,542.5 455.5,543C 463.011,543.171 470.345,543.671 477.5,544.5C 459.127,544.007 441.127,546.174 423.5,551C 413.576,555.111 404.576,560.611 396.5,567.5C 395.479,566.998 395.312,566.332 396,565.5C 403.507,557.007 412.674,551.174 423.5,548C 445.615,541.754 467.949,539.921 490.5,542.5 Z"/></g>
<g><path style="opacity:1" fill="#e1e1e1" d="M 122.5,544.5 C 127.985,543.348 133.651,543.182 139.5,544C 144.809,545.331 150.142,546.665 155.5,548C 163.345,553.423 171.011,559.089 178.5,565C 179.437,565.692 180.103,565.525 180.5,564.5C 181.692,565.566 181.359,566.399 179.5,567C 180.598,567.77 180.598,568.603 179.5,569.5C 171.378,563.885 163.378,558.051 155.5,552C 149.929,550.81 144.596,549.31 139.5,547.5C 137.841,546.347 135.341,545.68 132,545.5C 121.563,547.33 111.063,547.83 100.5,547C 109.526,546.665 118.526,545.999 127.5,545C 125.866,544.506 124.199,544.34 122.5,544.5 Z"/></g>
<g><path style="opacity:1" fill="#5c5c5c" d="M 186.5,540.5 C 186.5,548.5 186.5,556.5 186.5,564.5C 188.833,564.5 191.167,564.5 193.5,564.5C 191.052,565.473 188.385,565.806 185.5,565.5C 185.174,556.983 185.507,548.65 186.5,540.5 Z"/></g>
<g><path style="opacity:1" fill="#e5e5e5" d="M 81.5,561.5 C 81.8333,561.5 82.1667,561.5 82.5,561.5C 85.6428,560.793 88.6428,559.627 91.5,558C 110.678,556.848 129.678,558.182 148.5,562C 161.818,564.159 172.485,570.659 180.5,581.5C 181.487,578.232 181.82,574.898 181.5,571.5C 182.79,570.942 183.623,569.942 184,568.5C 184.667,575.833 184.667,583.167 184,590.5C 183.458,585.279 182.624,585.279 181.5,590.5C 180.261,590.942 179.261,591.609 178.5,592.5C 176.265,591.772 174.432,590.439 173,588.5C 170.5,585.333 168,582.167 165.5,579C 157.44,575.235 149.106,572.235 140.5,570C 119.866,568.599 99.1994,568.099 78.5,568.5C 78.5,554.5 78.5,540.5 78.5,526.5C 79.3313,511.672 79.8313,496.672 80,481.5C 80.4361,508.117 80.2695,534.617 79.5,561C 80.2555,562.38 80.9222,562.547 81.5,561.5 Z"/></g>
<g><path style="opacity:1" fill="#191919" d="M 129.5,562.5 C 127.735,563.461 125.735,563.795 123.5,563.5C 110.81,563.512 98.1436,563.679 85.5,564C 87.5,563.333 89.5,562.667 91.5,562C 104.179,561.374 116.846,561.541 129.5,562.5 Z"/></g>
<g><path style="opacity:1" fill="#ededed" d="M 167.5,438.5 C 168.791,438.263 169.791,438.596 170.5,439.5C 169.172,440.91 169.505,442.076 171.5,443C 181.161,443.5 190.828,443.666 200.5,443.5C 192.874,444.379 183.207,444.879 171.5,445C 182.99,445.022 194.324,445.688 205.5,447C 193.192,448.086 180.859,448.752 168.5,449C 178.342,449.17 188.009,449.67 197.5,450.5C 187.81,450.168 178.144,450.502 168.5,451.5C 168.709,452.086 169.043,452.586 169.5,453C 177.827,453.5 186.16,453.666 194.5,453.5C 189.966,454.216 185.299,454.883 180.5,455.5C 176.847,454.236 173.18,454.236 169.5,455.5C 169.137,456.183 168.804,456.85 168.5,457.5C 168.263,458.791 168.596,459.791 169.5,460.5C 172.337,462.402 175.671,463.069 179.5,462.5C 184.445,463.991 189.445,464.991 194.5,465.5C 186.483,465.668 178.483,466.168 170.5,467C 171.167,467.667 171.833,468.333 172.5,469C 178.848,470.104 185.181,470.271 191.5,469.5C 193.355,469.34 194.688,470.007 195.5,471.5C 195.5,472.167 195.167,472.5 194.5,472.5C 192.167,472.5 189.833,472.5 187.5,472.5C 187.5,476.5 187.5,480.5 187.5,484.5C 187.491,503.174 187.157,521.841 186.5,540.5C 185.507,548.65 185.174,556.983 185.5,565.5C 188.385,565.806 191.052,565.473 193.5,564.5C 242.443,561.814 291.443,560.814 340.5,561.5C 347.317,562.565 354.317,563.232 361.5,563.5C 362.391,564.11 363.391,564.443 364.5,564.5C 364.265,565.097 363.765,565.43 363,565.5C 339.591,562.668 316.091,561.835 292.5,563C 304.5,563.333 316.5,563.667 328.5,564C 321.667,564.167 314.833,564.333 308,564.5C 282.478,563.162 256.978,563.329 231.5,565C 235.333,565.167 239.167,565.333 243,565.5C 255.031,564.508 267.031,564.174 279,564.5C 279.5,564.667 280,564.833 280.5,565C 279.584,565.278 278.918,565.778 278.5,566.5C 259.341,567.638 240.174,567.638 221,566.5C 210.092,566.42 199.259,567.087 188.5,568.5C 187.791,567.596 186.791,567.263 185.5,567.5C 185.175,575.352 185.508,583.018 186.5,590.5C 187.097,591.139 187.93,591.472 189,591.5C 200.477,590.518 211.977,589.851 223.5,589.5C 214.7,590.867 205.7,591.7 196.5,592C 203.687,592.703 210.853,592.536 218,591.5C 219.167,591.667 220.333,591.833 221.5,592C 219.292,592.191 217.292,592.691 215.5,593.5C 210.833,593.5 206.167,593.5 201.5,593.5C 193.799,593.691 186.132,593.358 178.5,592.5C 179.261,591.609 180.261,590.942 181.5,590.5C 182.624,585.279 183.458,585.279 184,590.5C 184.667,583.167 184.667,575.833 184,568.5C 183.623,569.942 182.79,570.942 181.5,571.5C 181.167,570.5 180.5,569.833 179.5,569.5C 180.598,568.603 180.598,567.77 179.5,567C 181.359,566.399 181.692,565.566 180.5,564.5C 173.036,555.215 163.703,548.382 152.5,544C 139.314,541.123 125.98,540.123 112.5,541C 102.378,544.063 92.0451,545.896 81.5,546.5C 81.5,547.5 81.5,548.5 81.5,549.5C 87.3333,549.125 92.9999,547.958 98.5,546C 106.519,545.657 114.519,545.157 122.5,544.5C 124.199,544.34 125.866,544.506 127.5,545C 118.526,545.999 109.526,546.665 100.5,547C 111.063,547.83 121.563,547.33 132,545.5C 135.341,545.68 137.841,546.347 139.5,547.5C 121.027,547.506 102.694,548.839 84.5,551.5C 83.5,551.5 82.5,551.5 81.5,551.5C 81.5,554.833 81.5,558.167 81.5,561.5C 80.9222,562.547 80.2555,562.38 79.5,561C 80.2695,534.617 80.4361,508.117 80,481.5C 79.8313,496.672 79.3313,511.672 78.5,526.5C 77.5485,511.536 77.2152,496.536 77.5,481.5C 76.5,481.5 75.5,481.5 74.5,481.5C 74.8333,480.833 75.1667,480.167 75.5,479.5C 83.4239,478.236 91.4239,477.402 99.5,477C 100.056,476.617 100.389,476.117 100.5,475.5C 102.496,473.083 103.496,473.75 103.5,477.5C 102.139,479.85 100.806,482.184 99.5,484.5C 98.783,491.867 97.783,499.2 96.5,506.5C 95.5135,498.101 95.5135,489.768 96.5,481.5C 97.0431,481.44 97.3764,481.107 97.5,480.5C 94.6908,479.2 92.0241,479.2 89.5,480.5C 86.8822,480.779 84.3822,481.446 82,482.5C 81.2207,500.525 81.3873,518.525 82.5,536.5C 81.2031,538.693 81.2031,541.027 82.5,543.5C 83.1067,543.376 83.44,543.043 83.5,542.5C 87.9037,540.343 92.5704,539.01 97.5,538.5C 98.1124,531.535 98.1124,524.535 97.5,517.5C 97.3213,511.596 97.9879,505.929 99.5,500.5C 99.8333,506.5 100.167,512.5 100.5,518.5C 100.5,525.167 100.5,531.833 100.5,538.5C 102.099,538.768 103.432,538.434 104.5,537.5C 109.508,535.996 114.675,535.329 120,535.5C 129.53,535.962 139.03,536.795 148.5,538C 161.759,541.609 172.593,548.776 181,559.5C 181.5,552.508 181.666,545.508 181.5,538.5C 182.495,526.678 182.828,514.678 182.5,502.5C 182.5,492.5 182.5,482.5 182.5,472.5C 178.154,472.666 173.821,472.499 169.5,472C 168.073,467.684 165.573,464.184 162,461.5C 158.224,462.394 154.39,462.728 150.5,462.5C 153.305,461.681 156.305,461.181 159.5,461C 157.667,460.833 155.833,460.667 154,460.5C 137.665,461.775 121.332,462.775 105,463.5C 99.6872,462.902 94.5206,462.235 89.5,461.5C 113.809,460.673 138.142,460.006 162.5,459.5C 162.297,457.61 162.963,456.11 164.5,455C 135.537,454.981 106.537,455.814 77.5,457.5C 77.4936,456.583 78.4936,456.083 80.5,456C 84.8333,455.667 89.1667,455.333 93.5,455C 86.654,454.828 79.9874,454.328 73.5,453.5C 84.5015,453.206 95.5015,452.872 106.5,452.5C 125.076,452.174 143.576,452.507 162,453.5C 162.494,451.866 162.66,450.199 162.5,448.5C 163.66,447.735 164.66,446.735 165.5,445.5C 163.846,442.442 164.513,440.108 167.5,438.5 Z"/></g>
<g><path style="opacity:1" fill="#848484" d="M 84.5,551.5 C 82.727,554.488 82.0604,557.821 82.5,561.5C 82.1667,561.5 81.8333,561.5 81.5,561.5C 81.5,558.167 81.5,554.833 81.5,551.5C 82.5,551.5 83.5,551.5 84.5,551.5 Z"/></g>
<g><path style="opacity:1" fill="#878787" d="M 100.5,518.5 C 101.49,524.645 101.823,530.978 101.5,537.5C 102.5,537.5 103.5,537.5 104.5,537.5C 103.432,538.434 102.099,538.768 100.5,538.5C 100.5,531.833 100.5,525.167 100.5,518.5 Z"/></g>
<g><path style="opacity:1" fill="#707070" d="M 82.5,536.5 C 82.2053,538.735 82.5386,540.735 83.5,542.5C 83.44,543.043 83.1067,543.376 82.5,543.5C 81.2031,541.027 81.2031,538.693 82.5,536.5 Z"/></g>
<g><path style="opacity:1" fill="#2c2c2c" d="M 182.5,502.5 C 182.828,514.678 182.495,526.678 181.5,538.5C 181.784,536.585 181.451,534.919 180.5,533.5C 180.5,530.833 180.5,528.167 180.5,525.5C 181.167,517.833 181.833,510.167 182.5,502.5 Z"/></g>
<g><path style="opacity:1" fill="#e2e2e2" d="M 185.5,473.5 C 186.161,475.134 186.494,476.967 186.5,479C 185.764,507.499 184.93,535.999 184,564.5C 183.896,535.819 183.729,507.152 183.5,478.5C 183.667,477.167 183.833,475.833 184,474.5C 184.333,476.833 184.667,479.167 185,481.5C 185.497,478.854 185.664,476.187 185.5,473.5 Z"/></g>
<g><path style="opacity:1" fill="#a8a8a8" d="M 99.5,484.5 C 99.5,489.833 99.5,495.167 99.5,500.5C 97.9879,505.929 97.3213,511.596 97.5,517.5C 96.5184,514.038 96.185,510.371 96.5,506.5C 97.783,499.2 98.783,491.867 99.5,484.5 Z"/></g>
<g><path style="opacity:1" fill="#d4d4d4" d="M 168.5,495.5 C 171.861,496.203 172.194,497.537 169.5,499.5C 167.358,498.563 167.024,497.23 168.5,495.5 Z"/></g>
<g><path style="opacity:1" fill="#e8e8e8" d="M 180.5,525.5 C 180.5,528.167 180.5,530.833 180.5,533.5C 180.44,534.043 180.107,534.376 179.5,534.5C 178.702,532.922 178.202,531.256 178,529.5C 176.625,511.502 176.458,493.502 177.5,475.5C 178.086,475.709 178.586,476.043 179,476.5C 179.383,492.841 179.883,509.174 180.5,525.5 Z"/></g>
<g><path style="opacity:1" fill="#0b0b0b" d="M 89.5,480.5 C 92.0593,480.198 94.3926,480.532 96.5,481.5C 95.5135,489.768 95.5135,498.101 96.5,506.5C 96.185,510.371 96.5184,514.038 97.5,517.5C 98.1124,524.535 98.1124,531.535 97.5,538.5C 92.5704,539.01 87.9037,540.343 83.5,542.5C 82.5386,540.735 82.2053,538.735 82.5,536.5C 81.3873,518.525 81.2207,500.525 82,482.5C 84.3822,481.446 86.8822,480.779 89.5,480.5 Z"/></g>
<g><path style="opacity:1" fill="#737373" d="M 89.5,480.5 C 92.0241,479.2 94.6908,479.2 97.5,480.5C 97.3764,481.107 97.0431,481.44 96.5,481.5C 94.3926,480.532 92.0593,480.198 89.5,480.5 Z"/></g>
<g><path style="opacity:1" fill="#dbdbdb" d="M 168.5,478.5 C 169.5,478.5 170.5,478.5 171.5,478.5C 171.824,482.555 171.491,486.555 170.5,490.5C 169.914,490.291 169.414,489.957 169,489.5C 168.501,485.848 168.335,482.182 168.5,478.5 Z"/></g>
<g><path style="opacity:1" fill="#474747" d="M 340.5,561.5 C 345.844,561.334 351.177,561.501 356.5,562C 358.382,562.198 360.048,562.698 361.5,563.5C 354.317,563.232 347.317,562.565 340.5,561.5 Z"/></g>
<g><path style="opacity:1" fill="#1d1d1d" d="M 494.5,564.5 C 490.366,565.485 486.032,565.818 481.5,565.5C 452.445,564.058 425.778,571.225 401.5,587C 399.045,590.64 395.711,592.807 391.5,593.5C 392.468,590.956 394.135,588.789 396.5,587C 403.002,583.25 409.335,579.25 415.5,575C 440.57,562.47 466.903,558.97 494.5,564.5 Z"/></g>
<g><path style="opacity:1" fill="#5a5a5a" d="M 129.5,562.5 C 134.028,562.77 138.361,563.437 142.5,564.5C 140.901,564.232 139.568,564.566 138.5,565.5C 133.398,564.879 128.398,564.213 123.5,563.5C 125.735,563.795 127.735,563.461 129.5,562.5 Z"/></g>
<g><path style="opacity:1" fill="#7d7d7d" d="M 494.5,564.5 C 495.043,564.56 495.376,564.893 495.5,565.5C 490.682,566.812 486.015,566.812 481.5,565.5C 486.032,565.818 490.366,565.485 494.5,564.5 Z"/></g>
<g><path style="opacity:1" fill="#050505" d="M 278.5,566.5 C 304.835,566.333 331.169,566.5 357.5,567C 367.503,568.168 377.503,569.335 387.5,570.5C 387.83,577.2 387.497,583.866 386.5,590.5C 332.127,590.732 277.794,590.398 223.5,589.5C 211.977,589.851 200.477,590.518 189,591.5C 187.93,591.472 187.097,591.139 186.5,590.5C 185.87,582.757 186.537,575.424 188.5,568.5C 199.259,567.087 210.092,566.42 221,566.5C 240.174,567.638 259.341,567.638 278.5,566.5 Z"/></g>
<g><path style="opacity:1" fill="#1c1c1c" d="M 138.5,565.5 C 139.568,564.566 140.901,564.232 142.5,564.5C 159.533,565.682 172.533,573.515 181.5,588C 181.167,588.5 180.833,589 180.5,589.5C 176.01,584.841 171.677,580.008 167.5,575C 158.237,570.523 148.57,567.357 138.5,565.5 Z"/></g>
<g><path style="opacity:1" fill="#595959" d="M 188.5,568.5 C 186.537,575.424 185.87,582.757 186.5,590.5C 185.508,583.018 185.175,575.352 185.5,567.5C 186.791,567.263 187.791,567.596 188.5,568.5 Z"/></g>
<g><path style="opacity:1" fill="#6d6d6d" d="M 392.5,576.5 C 392.19,579.713 392.523,582.713 393.5,585.5C 393.44,586.043 393.107,586.376 392.5,586.5C 391.194,583.02 391.194,579.687 392.5,576.5 Z"/></g>
<g><path style="opacity:1" fill="#646464" d="M 178.5,592.5 C 186.132,593.358 193.799,593.691 201.5,593.5C 195.013,594.654 188.346,594.821 181.5,594C 180.263,593.768 179.263,593.268 178.5,592.5 Z"/></g>
<g><path style="opacity:1" fill="#3e3e3e" d="M 274.5,593.5 C 293.157,594.256 311.823,594.589 330.5,594.5C 323.341,595.166 316.008,595.5 308.5,595.5C 296.963,595.653 285.629,594.986 274.5,593.5 Z"/></g>
</svg>
