<?xml version="1.0" encoding="UTF-8"?>
<!DOCTYPE svg PUBLIC "-//W3C//DTD SVG 1.1//EN" "http://www.w3.org/Graphics/SVG/1.1/DTD/svg11.dtd">
<svg xmlns="http://www.w3.org/2000/svg" version="1.1" width="499px" height="499px" style="shape-rendering:geometricPrecision; text-rendering:geometricPrecision; image-rendering:optimizeQuality; fill-rule:evenodd; clip-rule:evenodd" xmlns:xlink="http://www.w3.org/1999/xlink">
<g><path style="opacity:0.898" fill="#35547d" d="M 275.5,4.5 C 254.506,4.94488 233.506,5.27821 212.5,5.5C 224.401,3.09136 236.567,2.09136 249,2.5C 255.833,2.66667 262.667,2.83333 269.5,3C 271.708,3.19088 273.708,3.69088 275.5,4.5 Z"/></g>
<g><path style="opacity:1" fill="#034279" d="M 275.5,4.5 C 329.1,9.97585 375.766,30.6425 415.5,66.5C 416.778,68.7991 418.111,71.1324 419.5,73.5C 421.819,74.9873 423.985,76.654 426,78.5C 426.483,79.448 426.649,80.448 426.5,81.5C 429.388,81.2196 430.888,82.5529 431,85.5C 436.215,90.7245 441.382,96.0578 446.5,101.5C 450.798,106.071 454.631,111.071 458,116.5C 503.881,193.539 508.881,273.206 473,355.5C 472.25,356.126 471.416,356.626 470.5,357C 454.171,357.989 437.838,358.822 421.5,359.5C 407.577,359.069 393.911,360.069 380.5,362.5C 380.167,362.5 379.833,362.5 379.5,362.5C 374.821,362.334 370.155,362.501 365.5,363C 363.942,363.21 362.609,363.71 361.5,364.5C 328.106,367.581 294.773,371.247 261.5,375.5C 260.228,375.43 259.062,375.097 258,374.5C 257.501,370.514 257.334,366.514 257.5,362.5C 258.402,359.003 259.069,355.337 259.5,351.5C 259.333,331.831 259.5,312.164 260,292.5C 260.333,294.833 260.667,297.167 261,299.5C 261.333,287.833 261.667,276.167 262,264.5C 262.878,261.356 263.045,258.356 262.5,255.5C 262.842,247.469 263.508,239.469 264.5,231.5C 264.461,228.083 264.127,224.75 263.5,221.5C 263.614,211.376 263.614,201.043 263.5,190.5C 263.847,183.568 265.347,176.902 268,170.5C 271.401,165.423 274.401,160.089 277,154.5C 280.743,150.268 284.243,145.935 287.5,141.5C 291.497,138.496 293.83,134.496 294.5,129.5C 295.5,129.5 296.5,129.5 297.5,129.5C 297.5,128.167 297.5,126.833 297.5,125.5C 305.142,126.192 312.808,126.692 320.5,127C 324.171,127.58 327.504,128.746 330.5,130.5C 331.995,125.164 333.329,119.831 334.5,114.5C 333.5,114.5 332.5,114.5 331.5,114.5C 330.41,113.143 329.076,112.143 327.5,111.5C 326.047,110.175 326.381,109.342 328.5,109C 327.5,108.833 326.5,108.667 325.5,108.5C 320.014,109.913 314.68,109.746 309.5,108C 310.5,107.667 311.5,107.333 312.5,107C 311,105.885 309.333,105.052 307.5,104.5C 300.758,105.422 293.424,106.088 285.5,106.5C 276.768,106.546 268.102,105.879 259.5,104.5C 259.5,95.5 259.5,86.5 259.5,77.5C 259.5,76.5 259.5,75.5 259.5,74.5C 259.133,65.1321 259.8,55.6321 261.5,46C 260.852,44.5603 260.519,43.0603 260.5,41.5C 255.537,40.5036 250.537,40.3369 245.5,41C 244.069,41.4652 242.903,42.2986 242,43.5C 241.178,51.0118 241.345,58.3451 242.5,65.5C 242.5,66.1667 242.167,66.5 241.5,66.5C 240.504,66.5858 239.671,66.2524 239,65.5C 238.501,70.1548 238.334,74.8215 238.5,79.5C 239.5,79.5 240.5,79.5 241.5,79.5C 243.491,87.6312 243.991,95.9645 243,104.5C 242.626,105.416 242.126,106.25 241.5,107C 228.171,107.5 214.837,107.667 201.5,107.5C 201.5,108.5 201.5,109.5 201.5,110.5C 195.451,111.073 189.451,111.74 183.5,112.5C 180.024,111.357 176.358,111.19 172.5,112C 172,112.5 171.5,113 171,113.5C 169.437,118.718 169.104,124.051 170,129.5C 173.789,132.121 177.622,132.121 181.5,129.5C 182.086,129.709 182.586,130.043 183,130.5C 185.697,128.424 188.53,126.757 191.5,125.5C 197.329,124.02 203.329,123.187 209.5,123C 210.333,123.833 211.167,124.667 212,125.5C 217.348,137.53 223.182,149.196 229.5,160.5C 232.82,166.722 235.486,173.388 237.5,180.5C 238.247,187.577 239.247,194.577 240.5,201.5C 240.167,203.5 239.833,205.5 239.5,207.5C 238.325,206.145 237.325,206.312 236.5,208C 237.641,213.75 237.807,219.584 237,225.5C 236.101,230.365 235.267,235.198 234.5,240C 235.57,246.35 235.57,252.683 234.5,259C 235.003,263.192 235.669,267.359 236.5,271.5C 237.176,272.602 237.842,273.602 238.5,274.5C 240.51,283.944 241.51,293.611 241.5,303.5C 240.409,327.832 240.409,352.165 241.5,376.5C 240.653,377.966 239.32,378.8 237.5,379C 184.137,386.227 131.137,395.394 78.5,406.5C 73.7381,406.533 69.0714,407.199 64.5,408.5C 61.4187,408.251 58.9187,406.918 57,404.5C 55.5866,399.768 52.7533,396.435 48.5,394.5C 9.64042,340.016 -5.19292,279.35 4,212.5C 10.1824,174.841 24.0157,140.508 45.5,109.5C 46.7206,108.972 47.8873,108.305 49,107.5C 50.6709,105.104 52.3376,102.771 54,100.5C 55.4728,100.903 56.8061,101.57 58,102.5C 56.5185,100.932 55.8518,98.9318 56,96.5C 57.8962,94.4701 60.0629,92.8034 62.5,91.5C 63.2458,90.2638 63.5792,88.9305 63.5,87.5C 68.1005,87.5666 70.4338,85.2332 70.5,80.5C 74.8821,78.309 77.7154,75.309 79,71.5C 80.7583,69.9168 82.2583,68.2501 83.5,66.5C 119.995,33.0926 162.995,12.7592 212.5,5.5C 233.506,5.27821 254.506,4.94488 275.5,4.5 Z"/></g>
<g><path style="opacity:0.31" fill="#45607e" d="M 259.5,74.5 C 258.753,69.5246 258.086,64.5246 257.5,59.5C 258.423,54.5174 258.59,49.5174 258,44.5C 252.879,43.2981 247.712,43.2981 242.5,44.5C 242.722,51.6075 242.722,58.6075 242.5,65.5C 241.345,58.3451 241.178,51.0118 242,43.5C 242.903,42.2986 244.069,41.4652 245.5,41C 250.537,40.3369 255.537,40.5036 260.5,41.5C 260.519,43.0603 260.852,44.5603 261.5,46C 259.8,55.6321 259.133,65.1321 259.5,74.5 Z"/></g>
<g><path style="opacity:0.988" fill="#39557c" d="M 83.5,66.5 C 82.2583,68.2501 80.7583,69.9168 79,71.5C 77.7154,75.309 74.8821,78.309 70.5,80.5C 70.4338,85.2332 68.1005,87.5666 63.5,87.5C 63.5792,88.9305 63.2458,90.2638 62.5,91.5C 60.0629,92.8034 57.8962,94.4701 56,96.5C 55.8518,98.9318 56.5185,100.932 58,102.5C 56.8061,101.57 55.4728,100.903 54,100.5C 52.3376,102.771 50.6709,105.104 49,107.5C 47.8873,108.305 46.7206,108.972 45.5,109.5C 51.3443,99.8415 58.1777,90.8415 66,82.5C 71.4242,76.5694 77.2575,71.2361 83.5,66.5 Z"/></g>
<g><path style="opacity:0.451" fill="#485d81" d="M 415.5,66.5 C 427.476,76.8423 437.81,88.509 446.5,101.5C 441.382,96.0578 436.215,90.7245 431,85.5C 430.888,82.5529 429.388,81.2196 426.5,81.5C 426.649,80.448 426.483,79.448 426,78.5C 423.985,76.654 421.819,74.9873 419.5,73.5C 418.111,71.1324 416.778,68.7991 415.5,66.5 Z"/></g>
<g><path style="opacity:0.925" fill="#496088" d="M 259.5,77.5 C 259.5,86.5 259.5,95.5 259.5,104.5C 268.102,105.879 276.768,106.546 285.5,106.5C 293.424,106.088 300.758,105.422 307.5,104.5C 309.333,105.052 311,105.885 312.5,107C 311.5,107.333 310.5,107.667 309.5,108C 314.68,109.746 320.014,109.913 325.5,108.5C 326.5,108.667 327.5,108.833 328.5,109C 326.381,109.342 326.047,110.175 327.5,111.5C 305.176,109.614 282.842,107.781 260.5,106C 259.333,105.5 258.5,104.667 258,103.5C 257.691,94.6501 258.191,85.9835 259.5,77.5 Z"/></g>
<g><path style="opacity:0.4" fill="#687d9e" d="M 241.5,66.5 C 239.8,71.8967 240.634,76.8967 244,81.5C 246.105,90.2856 245.938,98.9523 243.5,107.5C 229.557,108.968 215.557,109.968 201.5,110.5C 201.5,109.5 201.5,108.5 201.5,107.5C 214.837,107.667 228.171,107.5 241.5,107C 242.126,106.25 242.626,105.416 243,104.5C 243.991,95.9645 243.491,87.6312 241.5,79.5C 240.5,79.5 239.5,79.5 238.5,79.5C 238.334,74.8215 238.501,70.1548 239,65.5C 239.671,66.2524 240.504,66.5858 241.5,66.5 Z"/></g>
<g><path style="opacity:0.173" fill="#85a8c1" d="M 225.5,121.5 C 230.833,120.167 236.167,120.167 241.5,121.5C 236.12,121.512 230.787,121.512 225.5,121.5 Z"/></g>
<g><path style="opacity:1" fill="#164174" d="M 274.5,142.5 C 271.796,146.707 269.296,151.04 267,155.5C 265.867,157.211 264.367,157.711 262.5,157C 260.091,150.012 258.425,142.846 257.5,135.5C 259.43,131.627 260.097,127.294 259.5,122.5C 266.508,122.334 273.508,122.5 280.5,123C 282.167,124 283.833,125 285.5,126C 284.5,126.333 283.5,126.667 282.5,127C 282.833,127.333 283.167,127.667 283.5,128C 281.5,129.667 279.5,131.333 277.5,133C 278.337,134.011 278.67,135.178 278.5,136.5C 275.221,137.031 273.887,139.031 274.5,142.5 Z"/></g>
<g><path style="opacity:0.973" fill="#3a567b" d="M 331.5,114.5 C 332.5,114.5 333.5,114.5 334.5,114.5C 333.329,119.831 331.995,125.164 330.5,130.5C 327.504,128.746 324.171,127.58 320.5,127C 312.808,126.692 305.142,126.192 297.5,125.5C 297.5,126.833 297.5,128.167 297.5,129.5C 296.5,129.5 295.5,129.5 294.5,129.5C 293.83,134.496 291.497,138.496 287.5,141.5C 289.866,135.21 292.7,129.21 296,123.5C 296.772,123.355 297.439,123.022 298,122.5C 308.315,123.998 318.648,125.331 329,126.5C 330.985,122.794 331.818,118.794 331.5,114.5 Z"/></g>
<g><path style="opacity:0.157" fill="#5f6d8e" d="M 225.5,121.5 C 230.787,121.512 236.12,121.512 241.5,121.5C 243.124,121.36 244.29,122.027 245,123.5C 246.346,135.782 245.179,147.782 241.5,159.5C 240.914,159.709 240.414,160.043 240,160.5C 238.331,159.154 237.164,157.487 236.5,155.5C 240.615,154.058 242.615,151.058 242.5,146.5C 243.497,138.862 243.831,131.196 243.5,123.5C 236.001,123.563 228.667,123.897 221.5,124.5C 222.588,128.326 223.922,131.993 225.5,135.5C 221.566,131.632 219.233,126.965 218.5,121.5C 220.833,121.5 223.167,121.5 225.5,121.5 Z"/></g>
<g><path style="opacity:0.714" fill="#2e4b71" d="M 183.5,112.5 C 179.751,112.751 176.085,113.417 172.5,114.5C 172.422,118.954 173.089,123.287 174.5,127.5C 175.167,127.833 175.833,128.167 176.5,128.5C 181.352,126.703 186.352,125.703 191.5,125.5C 188.53,126.757 185.697,128.424 183,130.5C 182.586,130.043 182.086,129.709 181.5,129.5C 177.622,132.121 173.789,132.121 170,129.5C 169.104,124.051 169.437,118.718 171,113.5C 171.5,113 172,112.5 172.5,112C 176.358,111.19 180.024,111.357 183.5,112.5 Z"/></g>
<g><path style="opacity:0.686" fill="#5f6f8d" d="M 274.5,142.5 C 273.887,139.031 275.221,137.031 278.5,136.5C 278.67,135.178 278.337,134.011 277.5,133C 279.5,131.333 281.5,129.667 283.5,128C 283.167,127.667 282.833,127.333 282.5,127C 283.5,126.667 284.5,126.333 285.5,126C 283.833,125 282.167,124 280.5,123C 273.508,122.5 266.508,122.334 259.5,122.5C 260.097,127.294 259.43,131.627 257.5,135.5C 257.334,131.154 257.501,126.821 258,122.5C 258.75,121.874 259.584,121.374 260.5,121C 269.546,120.193 278.546,120.526 287.5,122C 288.517,123.049 288.684,124.216 288,125.5C 284.26,129.311 281.26,133.644 279,138.5C 277.333,139.733 275.833,141.067 274.5,142.5 Z"/></g>
<g><path style="opacity:1" fill="#134276" d="M 236.5,155.5 C 234.871,154.375 233.371,153.041 232,151.5C 230.103,146.042 227.936,140.709 225.5,135.5C 223.922,131.993 222.588,128.326 221.5,124.5C 228.667,123.897 236.001,123.563 243.5,123.5C 243.831,131.196 243.497,138.862 242.5,146.5C 242.615,151.058 240.615,154.058 236.5,155.5 Z"/></g>
<g><path style="opacity:0.075" fill="#8ba6b5" d="M 263.5,190.5 C 263.614,201.043 263.614,211.376 263.5,221.5C 262.228,211.026 262.228,200.693 263.5,190.5 Z"/></g>
<g><path style="opacity:0.516" fill="#485f85" d="M 229.5,160.5 C 233.735,164.601 236.568,169.601 238,175.5C 239.788,184.849 241.621,194.182 243.5,203.5C 242.901,206.702 241.734,209.702 240,212.5C 237.344,233.111 236.844,253.778 238.5,274.5C 237.842,273.602 237.176,272.602 236.5,271.5C 235.669,267.359 235.003,263.192 234.5,259C 235.57,252.683 235.57,246.35 234.5,240C 235.267,235.198 236.101,230.365 237,225.5C 237.807,219.584 237.641,213.75 236.5,208C 237.325,206.312 238.325,206.145 239.5,207.5C 239.833,205.5 240.167,203.5 240.5,201.5C 239.247,194.577 238.247,187.577 237.5,180.5C 235.486,173.388 232.82,166.722 229.5,160.5 Z"/></g>
<g><path style="opacity:0.21" fill="#314a6f" d="M 262.5,255.5 C 263.045,258.356 262.878,261.356 262,264.5C 261.667,276.167 261.333,287.833 261,299.5C 260.667,297.167 260.333,294.833 260,292.5C 259.5,312.164 259.333,331.831 259.5,351.5C 258.503,335.008 258.17,318.342 258.5,301.5C 258.312,285.892 259.645,270.559 262.5,255.5 Z"/></g>
<g><path style="opacity:0.861" fill="#4a698c" d="M 238.5,274.5 C 240.783,282.907 242.616,291.573 244,300.5C 244.985,326.048 244.152,351.381 241.5,376.5C 240.409,352.165 240.409,327.832 241.5,303.5C 241.51,293.611 240.51,283.944 238.5,274.5 Z"/></g>
<g><path style="opacity:0.047" fill="#657b90" d="M 258.5,301.5 C 258.17,318.342 258.503,335.008 259.5,351.5C 259.069,355.337 258.402,359.003 257.5,362.5C 257.17,341.993 257.503,321.66 258.5,301.5 Z"/></g>
<g><path style="opacity:0.2" fill="#536e91" d="M 421.5,359.5 C 408.026,361.094 394.359,362.094 380.5,362.5C 393.911,360.069 407.577,359.069 421.5,359.5 Z"/></g>
<g><path style="opacity:0.031" fill="#7c8aa4" d="M 379.5,362.5 C 373.688,363.577 367.688,364.243 361.5,364.5C 362.609,363.71 363.942,363.21 365.5,363C 370.155,362.501 374.821,362.334 379.5,362.5 Z"/></g>
<g><path style="opacity:1" fill="#074279" d="M 431.5,416.5 C 429.801,416.34 428.134,416.506 426.5,417C 424.61,420.619 422.61,424.119 420.5,427.5C 417.833,428.833 415.167,430.167 412.5,431.5C 411.167,434.167 409.833,436.833 408.5,439.5C 408.167,439.5 407.833,439.5 407.5,439.5C 404.745,440.344 402.079,441.344 399.5,442.5C 399.5,443.5 399.5,444.5 399.5,445.5C 398.127,445.343 396.793,445.51 395.5,446C 395.833,446.333 396.167,446.667 396.5,447C 394.924,447.44 393.59,448.273 392.5,449.5C 391.833,449.167 391.167,448.833 390.5,448.5C 389.241,451.77 386.908,453.437 383.5,453.5C 383.5,454.5 383.5,455.5 383.5,456.5C 379.44,455.848 377.44,457.515 377.5,461.5C 339.636,483.122 298.97,495.455 255.5,498.5C 248.833,498.5 242.167,498.5 235.5,498.5C 210.73,495.377 186.396,489.877 162.5,482C 158.29,480.391 154.29,478.558 150.5,476.5C 148.113,474.713 147.947,472.713 150,470.5C 153.453,468.524 156.953,466.691 160.5,465C 162.063,464.241 163.063,463.074 163.5,461.5C 213.048,436.401 265.048,418.068 319.5,406.5C 336.525,404.867 353.525,402.367 370.5,399C 371.167,398 371.833,397 372.5,396C 378.683,395.382 384.849,395.549 391,396.5C 395.444,395.346 399.944,394.512 404.5,394C 409.632,392.799 414.632,391.132 419.5,389C 429.517,388.168 439.517,388.334 449.5,389.5C 448.359,390.425 448.359,391.259 449.5,392C 444.036,392.777 442.036,395.943 443.5,401.5C 441.856,401.286 440.356,401.62 439,402.5C 438.338,404.813 437.838,407.146 437.5,409.5C 432.627,409.373 430.627,411.706 431.5,416.5 Z"/></g>
<g><path style="opacity:0.467" fill="#586d8e" d="M 48.5,394.5 C 52.7533,396.435 55.5866,399.768 57,404.5C 58.9187,406.918 61.4187,408.251 64.5,408.5C 69.0714,407.199 73.7381,406.533 78.5,406.5C 73.1717,408.946 67.505,410.113 61.5,410C 56.1086,405.715 51.7753,400.548 48.5,394.5 Z"/></g>
<g><path style="opacity:0.848" fill="#284771" d="M 431.5,416.5 C 430.627,411.706 432.627,409.373 437.5,409.5C 437.838,407.146 438.338,404.813 439,402.5C 440.356,401.62 441.856,401.286 443.5,401.5C 442.036,395.943 444.036,392.777 449.5,392C 448.359,391.259 448.359,390.425 449.5,389.5C 439.517,388.334 429.517,388.168 419.5,389C 414.632,391.132 409.632,392.799 404.5,394C 399.944,394.512 395.444,395.346 391,396.5C 384.849,395.549 378.683,395.382 372.5,396C 371.833,397 371.167,398 370.5,399C 353.525,402.367 336.525,404.867 319.5,406.5C 336.633,402.387 353.967,398.554 371.5,395C 398.091,390.581 424.758,386.748 451.5,383.5C 453.5,383.5 454.5,384.5 454.5,386.5C 453.946,388.61 453.112,390.61 452,392.5C 446.022,401.305 439.188,409.305 431.5,416.5 Z"/></g>
<g><path style="opacity:0.616" fill="#576889" d="M 431.5,416.5 C 424.827,425.173 417.161,432.839 408.5,439.5C 409.833,436.833 411.167,434.167 412.5,431.5C 415.167,430.167 417.833,428.833 420.5,427.5C 422.61,424.119 424.61,420.619 426.5,417C 428.134,416.506 429.801,416.34 431.5,416.5 Z"/></g>
<g><path style="opacity:0.714" fill="#455c80" d="M 407.5,439.5 C 398.366,447.96 388.366,455.294 377.5,461.5C 377.44,457.515 379.44,455.848 383.5,456.5C 383.5,455.5 383.5,454.5 383.5,453.5C 386.908,453.437 389.241,451.77 390.5,448.5C 391.167,448.833 391.833,449.167 392.5,449.5C 393.59,448.273 394.924,447.44 396.5,447C 396.167,446.667 395.833,446.333 395.5,446C 396.793,445.51 398.127,445.343 399.5,445.5C 399.5,444.5 399.5,443.5 399.5,442.5C 402.079,441.344 404.745,440.344 407.5,439.5 Z"/></g>
<g><path style="opacity:0.294" fill="#617492" d="M 163.5,461.5 C 163.063,463.074 162.063,464.241 160.5,465C 156.953,466.691 153.453,468.524 150,470.5C 147.947,472.713 148.113,474.713 150.5,476.5C 147.023,476.388 145.523,474.721 146,471.5C 151.807,468.017 157.64,464.683 163.5,461.5 Z"/></g>
</svg>
