<?xml version="1.0" encoding="UTF-8"?>
<!DOCTYPE svg PUBLIC "-//W3C//DTD SVG 1.1//EN" "http://www.w3.org/Graphics/SVG/1.1/DTD/svg11.dtd">
<svg xmlns="http://www.w3.org/2000/svg" version="1.1" width="1284px" height="1282px" style="shape-rendering:geometricPrecision; text-rendering:geometricPrecision; image-rendering:optimizeQuality; fill-rule:evenodd; clip-rule:evenodd" xmlns:xlink="http://www.w3.org/1999/xlink">
<g><path style="opacity:1" fill="#000000" d="M -0.5,-0.5 C 427.5,-0.5 855.5,-0.5 1283.5,-0.5C 1283.5,426.833 1283.5,854.167 1283.5,1281.5C 1095.17,1281.5 906.833,1281.5 718.5,1281.5C 718.667,1262.16 718.5,1242.83 718,1223.5C 717.535,1219.61 716.369,1215.94 714.5,1212.5C 724.194,1211.58 733.86,1210.41 743.5,1209C 744.833,1206.67 744.833,1204.33 743.5,1202C 733.167,1201.67 722.833,1201.33 712.5,1201C 710.508,1200.43 709.008,1199.26 708,1197.5C 706.533,1188.36 704.533,1179.36 702,1170.5C 702.301,1150.09 702.801,1129.75 703.5,1109.5C 707.495,1111.21 711.662,1112.21 716,1112.5C 725.065,1110.87 734.231,1109.7 743.5,1109C 764.185,1108.81 784.852,1108.14 805.5,1107C 810.346,1106.81 815.012,1105.81 819.5,1104C 822.89,1102.99 823.89,1100.99 822.5,1098C 803.49,1097.28 784.49,1096.44 765.5,1095.5C 753.487,1094.56 741.82,1096.06 730.5,1100C 720.881,1102.64 711.548,1101.98 702.5,1098C 700.652,1096.48 699.152,1094.65 698,1092.5C 695.743,1086.71 694.576,1080.71 694.5,1074.5C 696.012,1064.45 697.846,1054.45 700,1044.5C 701.591,1047.35 702.924,1050.35 704,1053.5C 705.333,1054.83 706.667,1054.83 708,1053.5C 707.947,1051.06 708.113,1048.73 708.5,1046.5C 721.977,1052.04 735.977,1053.87 750.5,1052C 760.806,1050.42 771.139,1048.92 781.5,1047.5C 791.195,1048.92 800.861,1048.75 810.5,1047C 824.988,1043.25 839.654,1040.59 854.5,1039C 856.394,1037.92 856.727,1036.59 855.5,1035C 851.227,1033.97 846.894,1033.3 842.5,1033C 813.891,1032.75 785.391,1030.92 757,1027.5C 751.05,1027.59 745.217,1028.42 739.5,1030C 727.5,1030.67 715.5,1030.67 703.5,1030C 701.5,1029.33 699.5,1028.67 697.5,1028C 690.464,1016.43 684.631,1004.26 680,991.5C 679.31,974.492 679.476,957.492 680.5,940.5C 680.333,937.5 680.167,934.5 680,931.5C 679.5,931 679,930.5 678.5,930C 691.016,922.162 704.016,915.162 717.5,909C 735.955,902.071 754.621,895.737 773.5,890C 781.716,886.059 790.049,882.392 798.5,879C 799.747,877.542 799.747,876.042 798.5,874.5C 799.5,874.167 800.5,873.833 801.5,873.5C 831.816,870.436 862.149,870.102 892.5,872.5C 892.351,871.448 892.517,870.448 893,869.5C 900.064,872.188 907.231,874.688 914.5,877C 916.105,879.543 917.438,882.209 918.5,885C 920.313,884.954 921.979,885.12 923.5,885.5C 938.744,916.988 954.244,948.321 970,979.5C 978.374,994.415 986.874,1009.25 995.5,1024C 993.59,1024.41 992.59,1025.57 992.5,1027.5C 993.702,1031.94 995.202,1036.27 997,1040.5C 1022.32,1087.81 1048.65,1134.48 1076,1180.5C 1091.49,1213.27 1110.16,1243.94 1132,1272.5C 1134.28,1276.41 1136.45,1276.41 1138.5,1272.5C 1123.74,1249.9 1109.57,1226.9 1096,1203.5C 1070.63,1147.43 1042.63,1092.76 1012,1039.5C 1006.47,1026.1 1000.13,1013.1 993,1000.5C 984.126,978.046 974.96,955.712 965.5,933.5C 965.931,932.707 966.265,931.873 966.5,931C 956.318,910.136 945.985,889.303 935.5,868.5C 938.257,866.912 939.09,864.579 938,861.5C 936.184,860.671 934.351,859.837 932.5,859C 921.562,858.798 910.729,857.965 900,856.5C 891.671,840.647 882.504,825.481 872.5,811C 870.624,809.625 868.624,808.458 866.5,807.5C 867.167,806.5 867.833,805.5 868.5,804.5C 865.912,803.416 863.745,801.749 862,799.5C 859.5,795.833 857,792.167 854.5,788.5C 856.124,787.131 856.624,785.464 856,783.5C 852.255,775.676 848.255,768.009 844,760.5C 842.508,755.589 842.174,750.589 843,745.5C 847.255,729.401 853.088,713.901 860.5,699C 860.012,697.416 859.012,696.249 857.5,695.5C 861.539,687.1 864.706,678.434 867,669.5C 869.802,661.898 873.135,654.565 877,647.5C 877.651,645.765 877.485,644.098 876.5,642.5C 888.203,612.558 898.203,582.058 906.5,551C 904.952,546.036 904.118,540.869 904,535.5C 903.209,533.396 901.709,532.063 899.5,531.5C 895.812,521.124 891.312,511.124 886,501.5C 875.588,493.596 869.088,483.263 866.5,470.5C 864.61,470.703 863.11,470.037 862,468.5C 859.626,464.25 857.126,460.084 854.5,456C 851.724,455.934 849.558,454.768 848,452.5C 840.939,444.706 834.605,436.372 829,427.5C 824.524,424.343 820.191,421.01 816,417.5C 814.039,414.537 811.706,411.871 809,409.5C 809.331,407.981 809.164,406.648 808.5,405.5C 814.417,399.331 819.084,392.331 822.5,384.5C 827.777,368.927 833.943,353.593 841,338.5C 843.666,318.466 846.333,298.466 849,278.5C 852.753,242.02 848.086,206.687 835,172.5C 828.093,159.688 821.427,146.688 815,133.5C 805.154,117.985 794.154,103.318 782,89.5C 755.154,63.6585 723.321,47.1585 686.5,40C 628.418,33.6876 574.418,45.6876 524.5,76C 516.721,83.7792 508.887,91.6126 501,99.5C 493.725,111.107 486.058,122.44 478,133.5C 474.287,138.632 472.62,144.299 473,150.5C 473.419,149.328 474.085,148.328 475,147.5C 468.74,174.559 463.407,201.893 459,229.5C 458.788,249.503 459.121,269.503 460,289.5C 462.64,305.477 465.14,321.477 467.5,337.5C 466.714,341.156 466.547,344.823 467,348.5C 471.786,358.857 475.786,369.523 479,380.5C 484.54,393.69 492.707,404.856 503.5,414C 499.399,421.38 494.232,427.88 488,433.5C 482.058,443.107 475.725,452.44 469,461.5C 463.158,471.183 457.824,481.183 453,491.5C 438.091,508.64 426.757,527.973 419,549.5C 416.927,560.027 418.927,569.694 425,578.5C 426.47,582.378 427.303,586.378 427.5,590.5C 425.833,590.5 424.167,590.5 422.5,590.5C 426.187,599.702 430.187,608.869 434.5,618C 431.607,622.006 430.774,626.506 432,631.5C 438.667,650.167 445.333,668.833 452,687.5C 456.522,711.256 461.522,734.922 467,758.5C 467.667,763.167 467.667,767.833 467,772.5C 461.945,795.053 456.112,817.387 449.5,839.5C 445.756,839.685 442.089,840.352 438.5,841.5C 434.381,838.686 430.381,838.853 426.5,842C 421.721,846.779 416.887,851.613 412,856.5C 408.547,861.621 404.714,866.454 400.5,871C 386.327,880.498 373.327,891.498 361.5,904C 352.965,906.272 345.131,909.772 338,914.5C 335.506,922.492 332.173,930.159 328,937.5C 314.908,958.679 302.574,980.346 291,1002.5C 284.583,1013 277.916,1023.34 271,1033.5C 269.826,1037.66 271.159,1038.99 275,1037.5C 281.39,1027.95 287.557,1018.28 293.5,1008.5C 294.167,1008.5 294.5,1008.83 294.5,1009.5C 279.183,1036.79 264.35,1064.46 250,1092.5C 236.302,1125.25 221.636,1157.59 206,1189.5C 201.723,1199.72 197.723,1210.06 194,1220.5C 193.785,1223.86 193.785,1227.19 194,1230.5C 188.993,1240.18 184.827,1250.18 181.5,1260.5C 181.261,1263.95 182.594,1264.95 185.5,1263.5C 194.785,1241.6 204.618,1219.93 215,1198.5C 217.112,1200.92 219.112,1200.92 221,1198.5C 238.98,1149.54 261.98,1103.21 290,1059.5C 293.021,1054.94 294.521,1049.94 294.5,1044.5C 293.178,1044.33 292.011,1044.66 291,1045.5C 289.333,1048.83 287.667,1052.17 286,1055.5C 302.199,1015.95 319.199,975.619 337,934.5C 340.474,927.074 344.641,920.241 349.5,914C 358.653,912.949 367.32,910.283 375.5,906C 381.85,905.562 388.017,904.395 394,902.5C 395.833,902.667 397.667,902.833 399.5,903C 397.222,903.986 394.889,904.82 392.5,905.5C 390.998,907.833 391.498,909.499 394,910.5C 404.167,906.667 414.333,902.833 424.5,899C 427.486,899.128 430.486,899.128 433.5,899C 434.071,897.795 434.738,896.628 435.5,895.5C 467.824,896.936 500.158,898.769 532.5,901C 539.903,901.962 547.236,903.296 554.5,905C 553.109,906.02 551.609,906.853 550,907.5C 549.316,908.784 549.483,909.951 550.5,911C 568.745,908.982 585.078,913.649 599.5,925C 603.145,930.641 607.478,935.641 612.5,940C 614.167,940.667 615.833,940.667 617.5,940C 618.022,939.439 618.355,938.772 618.5,938C 617.048,936.155 615.215,934.655 613,933.5C 612.018,932.241 611.685,930.908 612,929.5C 614.695,931.694 617.528,933.694 620.5,935.5C 621.23,937.341 621.897,939.175 622.5,941C 624.945,941.91 626.278,941.076 626.5,938.5C 627.167,938.5 627.5,938.833 627.5,939.5C 627.333,942.863 625.833,943.863 623,942.5C 621.739,942.759 620.739,943.426 620,944.5C 619.667,951.167 619.333,957.833 619,964.5C 614.794,977.618 610.294,990.618 605.5,1003.5C 606.342,1006.01 607.842,1006.68 610,1005.5C 613.53,996.577 616.863,987.577 620,978.5C 620.667,983.167 620.667,987.833 620,992.5C 615.912,1006.93 617.079,1020.93 623.5,1034.5C 622.333,1038.5 621.167,1042.5 620,1046.5C 610.926,1053.29 601.426,1059.46 591.5,1065C 582.323,1067.77 572.989,1069.77 563.5,1071C 560.167,1072.67 556.833,1074.33 553.5,1076C 551.473,1077.4 551.14,1079.06 552.5,1081C 569.393,1082.52 585.393,1079.52 600.5,1072C 608,1066.5 615.5,1061 623,1055.5C 623.667,1057.17 623.667,1058.83 623,1060.5C 612.945,1068.34 609.945,1078.34 614,1090.5C 615.934,1094.76 618.268,1098.76 621,1102.5C 616.446,1115.66 607.946,1125.83 595.5,1133C 584.337,1139.08 573.337,1145.41 562.5,1152C 560.226,1153.77 558.559,1155.93 557.5,1158.5C 557.434,1160.27 558.268,1161.27 560,1161.5C 581.633,1153.19 600.633,1140.85 617,1124.5C 618,1122.83 619,1121.17 620,1119.5C 619.177,1133.6 616.677,1147.43 612.5,1161C 613.46,1164.5 613.293,1168 612,1171.5C 611.389,1197.19 611.889,1222.85 613.5,1248.5C 613.674,1259.62 612.674,1270.62 610.5,1281.5C 406.833,1281.5 203.167,1281.5 -0.5,1281.5C -0.5,854.167 -0.5,426.833 -0.5,-0.5 Z"/></g>
<g><path style="opacity:1" fill="#f7f7f7" d="M 822.5,384.5 C 820.208,384.756 818.041,384.423 816,383.5C 815.324,378.129 815.491,372.796 816.5,367.5C 819.531,354.376 823.031,341.376 827,328.5C 828.865,310.023 831.532,291.69 835,273.5C 837.732,240.292 833.732,207.959 823,176.5C 821.667,173.833 820.333,171.167 819,168.5C 819.847,173.427 820.18,178.427 820,183.5C 818,186.167 816,186.167 814,183.5C 809.617,160.962 802.617,139.296 793,118.5C 788.321,114.82 784.321,110.486 781,105.5C 781.612,110.083 779.779,111.916 775.5,111C 769.241,104.745 763.741,97.9115 759,90.5C 753.595,84.424 747.595,79.0907 741,74.5C 738.715,77.925 735.882,78.425 732.5,76C 722.767,69.2716 712.767,62.9383 702.5,57C 700.899,56.7266 699.399,56.2266 698,55.5C 696.607,58.3661 694.274,59.6994 691,59.5C 685.576,58.0404 680.409,55.8737 675.5,53C 637.519,49.4971 600.852,54.8304 565.5,69C 550.55,76.1417 535.883,83.8084 521.5,92C 508.223,107.374 497.056,124.207 488,142.5C 483.256,160.553 479.923,178.886 478,197.5C 476.667,235.494 476,273.494 476,311.5C 478.691,328.986 482.025,346.319 486,363.5C 491.322,381.161 501.322,395.494 516,406.5C 516.273,408.101 516.773,409.601 517.5,411C 540.363,431.597 566.696,445.597 596.5,453C 600.125,435.702 610.459,424.368 627.5,419C 643.662,416.983 652.662,424.149 654.5,440.5C 652.938,452.745 651.772,465.079 651,477.5C 649.691,497.691 649.191,517.858 649.5,538C 650.995,546.134 652.328,554.301 653.5,562.5C 653.37,564.375 653.037,566.208 652.5,568C 654.281,573.394 655.615,578.894 656.5,584.5C 656.987,585.473 657.487,586.473 658,587.5C 658.5,569.17 658.667,550.836 658.5,532.5C 658.806,515.738 657.806,499.071 655.5,482.5C 656.726,471.764 658.059,460.931 659.5,450C 654.443,436.807 658.443,427.807 671.5,423C 676.184,422.65 680.851,422.15 685.5,421.5C 693.339,425.505 701.505,428.839 710,431.5C 711.814,430.24 713.647,430.24 715.5,431.5C 718.272,438.047 720.772,444.714 723,451.5C 723.408,453.41 724.575,454.41 726.5,454.5C 737.135,450.499 745.969,445.499 753,439.5C 754.613,440.622 755.78,440.122 756.5,438C 760.29,437.77 763.624,436.437 766.5,434C 776.734,423.271 786.734,412.437 796.5,401.5C 791.583,409.599 786.416,417.599 781,425.5C 780.333,427.5 780.333,429.5 781,431.5C 781.414,431.957 781.914,432.291 782.5,432.5C 787.616,428.518 792.449,424.185 797,419.5C 800.32,414.353 804.153,409.686 808.5,405.5C 809.164,406.648 809.331,407.981 809,409.5C 811.706,411.871 814.039,414.537 816,417.5C 820.191,421.01 824.524,424.343 829,427.5C 834.605,436.372 840.939,444.706 848,452.5C 849.558,454.768 851.724,455.934 854.5,456C 857.126,460.084 859.626,464.25 862,468.5C 863.11,470.037 864.61,470.703 866.5,470.5C 869.088,483.263 875.588,493.596 886,501.5C 891.312,511.124 895.812,521.124 899.5,531.5C 901.709,532.063 903.209,533.396 904,535.5C 904.118,540.869 904.952,546.036 906.5,551C 898.203,582.058 888.203,612.558 876.5,642.5C 877.485,644.098 877.651,645.765 877,647.5C 873.135,654.565 869.802,661.898 867,669.5C 864.706,678.434 861.539,687.1 857.5,695.5C 859.012,696.249 860.012,697.416 860.5,699C 853.088,713.901 847.255,729.401 843,745.5C 842.174,750.589 842.508,755.589 844,760.5C 848.255,768.009 852.255,775.676 856,783.5C 856.624,785.464 856.124,787.131 854.5,788.5C 857,792.167 859.5,795.833 862,799.5C 863.745,801.749 865.912,803.416 868.5,804.5C 867.833,805.5 867.167,806.5 866.5,807.5C 868.624,808.458 870.624,809.625 872.5,811C 882.504,825.481 891.671,840.647 900,856.5C 910.729,857.965 921.562,858.798 932.5,859C 934.351,859.837 936.184,860.671 938,861.5C 939.09,864.579 938.257,866.912 935.5,868.5C 945.985,889.303 956.318,910.136 966.5,931C 966.265,931.873 965.931,932.707 965.5,933.5C 974.96,955.712 984.126,978.046 993,1000.5C 1000.13,1013.1 1006.47,1026.1 1012,1039.5C 1042.63,1092.76 1070.63,1147.43 1096,1203.5C 1109.57,1226.9 1123.74,1249.9 1138.5,1272.5C 1136.45,1276.41 1134.28,1276.41 1132,1272.5C 1110.16,1243.94 1091.49,1213.27 1076,1180.5C 1048.65,1134.48 1022.32,1087.81 997,1040.5C 995.202,1036.27 993.702,1031.94 992.5,1027.5C 992.59,1025.57 993.59,1024.41 995.5,1024C 986.874,1009.25 978.374,994.415 970,979.5C 954.244,948.321 938.744,916.988 923.5,885.5C 921.979,885.12 920.313,884.954 918.5,885C 917.438,882.209 916.105,879.543 914.5,877C 907.231,874.688 900.064,872.188 893,869.5C 892.517,870.448 892.351,871.448 892.5,872.5C 862.149,870.102 831.816,870.436 801.5,873.5C 800.5,873.833 799.5,874.167 798.5,874.5C 799.747,876.042 799.747,877.542 798.5,879C 790.049,882.392 781.716,886.059 773.5,890C 754.621,895.737 735.955,902.071 717.5,909C 704.016,915.162 691.016,922.162 678.5,930C 679,930.5 679.5,931 680,931.5C 680.167,934.5 680.333,937.5 680.5,940.5C 679.476,957.492 679.31,974.492 680,991.5C 684.631,1004.26 690.464,1016.43 697.5,1028C 699.5,1028.67 701.5,1029.33 703.5,1030C 715.5,1030.67 727.5,1030.67 739.5,1030C 745.217,1028.42 751.05,1027.59 757,1027.5C 785.391,1030.92 813.891,1032.75 842.5,1033C 846.894,1033.3 851.227,1033.97 855.5,1035C 856.727,1036.59 856.394,1037.92 854.5,1039C 839.654,1040.59 824.988,1043.25 810.5,1047C 800.861,1048.75 791.195,1048.92 781.5,1047.5C 771.139,1048.92 760.806,1050.42 750.5,1052C 735.977,1053.87 721.977,1052.04 708.5,1046.5C 708.113,1048.73 707.947,1051.06 708,1053.5C 706.667,1054.83 705.333,1054.83 704,1053.5C 702.924,1050.35 701.591,1047.35 700,1044.5C 697.846,1054.45 696.012,1064.45 694.5,1074.5C 694.576,1080.71 695.743,1086.71 698,1092.5C 699.152,1094.65 700.652,1096.48 702.5,1098C 711.548,1101.98 720.881,1102.64 730.5,1100C 741.82,1096.06 753.487,1094.56 765.5,1095.5C 784.49,1096.44 803.49,1097.28 822.5,1098C 823.89,1100.99 822.89,1102.99 819.5,1104C 815.012,1105.81 810.346,1106.81 805.5,1107C 784.852,1108.14 764.185,1108.81 743.5,1109C 734.231,1109.7 725.065,1110.87 716,1112.5C 711.662,1112.21 707.495,1111.21 703.5,1109.5C 702.801,1129.75 702.301,1150.09 702,1170.5C 704.533,1179.36 706.533,1188.36 708,1197.5C 709.008,1199.26 710.508,1200.43 712.5,1201C 722.833,1201.33 733.167,1201.67 743.5,1202C 744.833,1204.33 744.833,1206.67 743.5,1209C 733.86,1210.41 724.194,1211.58 714.5,1212.5C 716.369,1215.94 717.535,1219.61 718,1223.5C 718.5,1242.83 718.667,1262.16 718.5,1281.5C 715.833,1281.5 713.167,1281.5 710.5,1281.5C 710.667,1262.5 710.5,1243.5 710,1224.5C 709.667,1222.5 709.333,1220.5 709,1218.5C 705.651,1211.8 702.318,1205.14 699,1198.5C 698.506,1190.35 697.172,1182.35 695,1174.5C 695.032,1151.82 695.365,1129.16 696,1106.5C 684.748,1099.74 681.248,1090.24 685.5,1078C 686.448,1077.52 687.448,1077.35 688.5,1077.5C 688.25,1072.42 688.75,1067.42 690,1062.5C 692.072,1056.95 693.738,1051.29 695,1045.5C 695.5,1043.67 696.667,1042.5 698.5,1042C 690.572,1038.43 683.738,1033.27 678,1026.5C 677.453,1044.53 677.953,1062.53 679.5,1080.5C 678.178,1080.67 677.011,1080.34 676,1079.5C 675.105,1076.42 674.105,1073.42 673,1070.5C 670.738,1050.9 669.404,1031.23 669,1011.5C 668.22,1007.32 667.386,1003.15 666.5,999C 666.639,997.699 667.305,996.866 668.5,996.5C 669.828,976.996 669.828,957.329 668.5,937.5C 667.893,937.624 667.56,937.957 667.5,938.5C 667.833,941.5 666.5,942.833 663.5,942.5C 663.517,939.08 663.683,935.746 664,932.5C 661.656,934.181 659.323,935.848 657,937.5C 655.5,937.333 654.667,936.5 654.5,935C 657.305,932.031 660.305,929.197 663.5,926.5C 664.833,925.833 665.833,924.833 666.5,923.5C 701.813,901.321 739.48,883.821 779.5,871C 788.986,868.103 798.653,866.103 808.5,865C 829.833,864.333 851.167,864.333 872.5,865C 877.776,865.21 882.942,866.044 888,867.5C 888.5,867.167 889,866.833 889.5,866.5C 886.15,863.771 885.817,860.771 888.5,857.5C 884.667,849.833 880.833,842.167 877,834.5C 872.42,828.34 868.086,822.007 864,815.5C 863.667,816.5 863.333,817.5 863,818.5C 855.246,817.353 847.413,817.186 839.5,818C 837.754,818.471 836.087,819.138 834.5,820C 807.526,822.748 781.193,827.415 755.5,834C 732.993,843.391 709.993,851.391 686.5,858C 678.558,860.969 671.225,864.969 664.5,870C 665.132,884.759 665.132,899.592 664.5,914.5C 664.5,917.833 664.5,921.167 664.5,924.5C 663.5,924.5 662.5,924.5 661.5,924.5C 659.823,916.933 657.99,909.267 656,901.5C 655.125,889.081 655.792,876.747 658,864.5C 659.356,863.62 660.856,863.286 662.5,863.5C 664.963,851.593 666.963,839.593 668.5,827.5C 666.261,797.547 664.927,767.547 664.5,737.5C 664.935,735.26 665.602,733.094 666.5,731C 663.635,716.577 661.302,702.077 659.5,687.5C 658.79,685.254 658.29,682.92 658,680.5C 657.5,687.158 657.334,693.825 657.5,700.5C 658.522,709.147 659.022,717.814 659,726.5C 654.389,749.734 649.222,772.734 643.5,795.5C 643.939,797.104 644.606,798.604 645.5,800C 640.201,816.23 634.701,832.397 629,848.5C 628.748,858.081 629.414,867.414 631,876.5C 634.541,885.29 637.375,894.29 639.5,903.5C 639.794,907.612 638.127,910.278 634.5,911.5C 634.666,921.172 634.5,930.839 634,940.5C 629.761,946.199 627.261,952.699 626.5,960C 627.365,966.646 628.031,973.313 628.5,980C 627.439,990.202 626.105,1000.37 624.5,1010.5C 624.572,1012.56 624.905,1014.56 625.5,1016.5C 626.325,1017.39 627.325,1017.72 628.5,1017.5C 628.34,1019.2 628.506,1020.87 629,1022.5C 631.37,1024.87 632.87,1027.7 633.5,1031C 633.532,1032.97 632.698,1034.47 631,1035.5C 630.667,1043.83 630.333,1052.17 630,1060.5C 627.472,1065.7 624.139,1070.37 620,1074.5C 619.19,1079.26 619.524,1083.92 621,1088.5C 624.105,1093.71 626.939,1099.04 629.5,1104.5C 627.628,1106.76 626.461,1109.42 626,1112.5C 625.286,1126.16 623.453,1139.66 620.5,1153C 621.836,1157.67 621.336,1162.17 619,1166.5C 618.942,1197.51 619.275,1228.51 620,1259.5C 619.124,1267 617.624,1274.33 615.5,1281.5C 613.833,1281.5 612.167,1281.5 610.5,1281.5C 612.674,1270.62 613.674,1259.62 613.5,1248.5C 611.889,1222.85 611.389,1197.19 612,1171.5C 613.293,1168 613.46,1164.5 612.5,1161C 616.677,1147.43 619.177,1133.6 620,1119.5C 619,1121.17 618,1122.83 617,1124.5C 600.633,1140.85 581.633,1153.19 560,1161.5C 558.268,1161.27 557.434,1160.27 557.5,1158.5C 558.559,1155.93 560.226,1153.77 562.5,1152C 573.337,1145.41 584.337,1139.08 595.5,1133C 607.946,1125.83 616.446,1115.66 621,1102.5C 618.268,1098.76 615.934,1094.76 614,1090.5C 609.945,1078.34 612.945,1068.34 623,1060.5C 623.667,1058.83 623.667,1057.17 623,1055.5C 615.5,1061 608,1066.5 600.5,1072C 585.393,1079.52 569.393,1082.52 552.5,1081C 551.14,1079.06 551.473,1077.4 553.5,1076C 556.833,1074.33 560.167,1072.67 563.5,1071C 572.989,1069.77 582.323,1067.77 591.5,1065C 601.426,1059.46 610.926,1053.29 620,1046.5C 621.167,1042.5 622.333,1038.5 623.5,1034.5C 617.079,1020.93 615.912,1006.93 620,992.5C 620.667,987.833 620.667,983.167 620,978.5C 616.863,987.577 613.53,996.577 610,1005.5C 607.842,1006.68 606.342,1006.01 605.5,1003.5C 610.294,990.618 614.794,977.618 619,964.5C 619.333,957.833 619.667,951.167 620,944.5C 620.739,943.426 621.739,942.759 623,942.5C 625.833,943.863 627.333,942.863 627.5,939.5C 628.434,938.432 628.768,937.099 628.5,935.5C 627.184,918.851 626.017,902.184 625,885.5C 624.016,879.047 622.516,872.713 620.5,866.5C 621.981,850.909 625.814,835.909 632,821.5C 632.581,817.81 632.415,814.144 631.5,810.5C 636.175,789.297 641.675,768.297 648,747.5C 647.484,718.51 647.484,689.51 648,660.5C 649.011,659.663 650.178,659.33 651.5,659.5C 651.286,652.803 651.619,646.136 652.5,639.5C 652.333,638.5 652.167,637.5 652,636.5C 650.667,637.833 649.333,637.833 648,636.5C 647.833,627.333 647.667,618.167 647.5,609C 647.562,598.916 648.229,588.916 649.5,579C 647.447,570.513 645.447,562.013 643.5,553.5C 643.722,551.945 644.389,550.611 645.5,549.5C 644.462,539.361 643.462,529.195 642.5,519C 643.426,505.132 643.759,491.299 643.5,477.5C 642.767,470.502 641.1,463.835 638.5,457.5C 640.792,457.244 642.959,457.577 645,458.5C 645.667,451.167 645.667,443.833 645,436.5C 644.261,437.574 643.261,438.241 642,438.5C 635.017,435.987 627.85,435.153 620.5,436C 613.163,441.991 607.496,449.325 603.5,458C 604.167,458.667 604.833,459.333 605.5,460C 604.206,462.087 603.039,464.254 602,466.5C 600.649,466.446 599.482,466.946 598.5,468C 598.833,469 599.167,470 599.5,471C 598.414,473.752 596.914,476.252 595,478.5C 594.505,480.473 594.338,482.473 594.5,484.5C 591.305,484.513 589.638,486.18 589.5,489.5C 590.069,492.468 590.403,495.468 590.5,498.5C 585.971,529.734 585.304,561.067 588.5,592.5C 587.919,597.91 586.919,603.243 585.5,608.5C 585.63,610.375 585.963,612.208 586.5,614C 584.728,619.288 583.561,624.788 583,630.5C 582.735,632.651 581.735,634.318 580,635.5C 578.115,635.138 577.281,633.971 577.5,632C 578.12,628.157 578.787,624.324 579.5,620.5C 579.167,619.833 578.833,619.167 578.5,618.5C 574.839,623.674 571.339,629.007 568,634.5C 566.867,636.211 565.367,636.711 563.5,636C 560.842,630.658 557.342,625.824 553,621.5C 547.626,611.01 543.626,600.01 541,588.5C 538.054,583.555 533.888,580.055 528.5,578C 522.551,576.453 516.551,575.119 510.5,574C 506.888,572.92 505.888,570.753 507.5,567.5C 511.459,563.775 516.126,562.608 521.5,564C 526.778,564.767 531.778,566.1 536.5,568C 530.566,555.456 522.899,544.123 513.5,534C 511.913,533.138 510.246,532.471 508.5,532C 502.833,531.667 497.167,531.333 491.5,531C 487.32,527.852 487.653,525.186 492.5,523C 501.895,520.84 511.228,521.006 520.5,523.5C 527.158,505.196 533.824,486.863 540.5,468.5C 540.167,467.833 539.833,467.167 539.5,466.5C 536.971,467.96 534.304,468.46 531.5,468C 529.006,465.756 529.006,463.423 531.5,461C 539.921,458.87 547.255,454.87 553.5,449C 537.627,440.902 522.96,431.068 509.5,419.5C 507.474,421.705 505.808,424.205 504.5,427C 502.324,427.163 500.491,427.996 499,429.5C 490.628,440.957 482.295,452.291 474,463.5C 467.886,473.394 462.552,483.728 458,494.5C 443.686,510.787 432.686,529.12 425,549.5C 424.003,552.669 424.67,555.336 427,557.5C 428.046,555.91 429.213,554.41 430.5,553C 431.449,552.383 432.282,552.549 433,553.5C 432.531,557.611 432.031,561.777 431.5,566C 431.503,570.01 432.336,573.844 434,577.5C 437.782,584.075 442.282,590.075 447.5,595.5C 447.253,598.082 445.92,598.915 443.5,598C 440,595.833 437.167,593 435,589.5C 439.322,611.462 446.655,632.462 457,652.5C 459.994,662.151 462.994,671.818 466,681.5C 466.667,683.5 466.667,685.5 466,687.5C 463.546,689.013 461.879,688.346 461,685.5C 460.5,686.5 460,687.5 459.5,688.5C 466.903,705.531 471.736,723.197 474,741.5C 472.795,742.071 471.628,742.738 470.5,743.5C 471.213,745.776 471.713,748.109 472,750.5C 472.667,751.167 473.333,751.833 474,752.5C 474.412,759.34 474.912,766.173 475.5,773C 476.079,777.153 474.412,779.32 470.5,779.5C 467.425,799.302 462.091,818.469 454.5,837C 461.415,835.905 468.415,834.905 475.5,834C 477.135,832.252 479.135,831.085 481.5,830.5C 484.864,826.301 488.698,822.635 493,819.5C 495.319,820.409 495.986,822.075 495,824.5C 491.688,826.645 488.854,829.312 486.5,832.5C 510.524,833.072 534.524,833.905 558.5,835C 570.015,837.712 581.348,841.045 592.5,845C 598.427,847.935 604.094,851.268 609.5,855C 612.246,856.75 615.246,857.75 618.5,858C 620.211,859.133 620.711,860.633 620,862.5C 616.927,863.617 613.76,863.784 610.5,863C 593.309,852.357 574.642,845.357 554.5,842C 532.162,841.673 509.829,841.173 487.5,840.5C 480.793,840.514 474.126,841.014 467.5,842C 458.231,844.145 448.898,845.978 439.5,847.5C 436.953,847.558 434.62,846.891 432.5,845.5C 432.251,849.249 430.251,851.083 426.5,851C 422.784,855.048 419.45,859.382 416.5,864C 419.629,864.117 420.795,865.617 420,868.5C 416.202,869.732 412.869,871.732 410,874.5C 406.833,879.667 403.667,884.833 400.5,890C 408.035,890.541 415.535,891.374 423,892.5C 431.025,889.786 439.191,887.619 447.5,886C 464.047,883.915 480.047,885.915 495.5,892C 516.645,892.543 537.645,894.543 558.5,898C 580.633,905.566 601.633,915.566 621.5,928C 623.79,929.777 625.457,931.944 626.5,934.5C 626.5,935.833 626.5,937.167 626.5,938.5C 626.278,941.076 624.945,941.91 622.5,941C 621.897,939.175 621.23,937.341 620.5,935.5C 617.528,933.694 614.695,931.694 612,929.5C 611.685,930.908 612.018,932.241 613,933.5C 615.215,934.655 617.048,936.155 618.5,938C 618.355,938.772 618.022,939.439 617.5,940C 615.833,940.667 614.167,940.667 612.5,940C 607.478,935.641 603.145,930.641 599.5,925C 585.078,913.649 568.745,908.982 550.5,911C 549.483,909.951 549.316,908.784 550,907.5C 551.609,906.853 553.109,906.02 554.5,905C 547.236,903.296 539.903,901.962 532.5,901C 500.158,898.769 467.824,896.936 435.5,895.5C 434.738,896.628 434.071,897.795 433.5,899C 430.486,899.128 427.486,899.128 424.5,899C 414.333,902.833 404.167,906.667 394,910.5C 391.498,909.499 390.998,907.833 392.5,905.5C 394.889,904.82 397.222,903.986 399.5,903C 397.667,902.833 395.833,902.667 394,902.5C 388.017,904.395 381.85,905.562 375.5,906C 367.32,910.283 358.653,912.949 349.5,914C 344.641,920.241 340.474,927.074 337,934.5C 319.199,975.619 302.199,1015.95 286,1055.5C 287.667,1052.17 289.333,1048.83 291,1045.5C 292.011,1044.66 293.178,1044.33 294.5,1044.5C 294.521,1049.94 293.021,1054.94 290,1059.5C 261.98,1103.21 238.98,1149.54 221,1198.5C 219.112,1200.92 217.112,1200.92 215,1198.5C 204.618,1219.93 194.785,1241.6 185.5,1263.5C 182.594,1264.95 181.261,1263.95 181.5,1260.5C 184.827,1250.18 188.993,1240.18 194,1230.5C 193.785,1227.19 193.785,1223.86 194,1220.5C 197.723,1210.06 201.723,1199.72 206,1189.5C 221.636,1157.59 236.302,1125.25 250,1092.5C 264.35,1064.46 279.183,1036.79 294.5,1009.5C 297.167,1005.84 299,1001.84 300,997.5C 297.822,1001.19 295.655,1004.86 293.5,1008.5C 287.557,1018.28 281.39,1027.95 275,1037.5C 271.159,1038.99 269.826,1037.66 271,1033.5C 277.916,1023.34 284.583,1013 291,1002.5C 302.574,980.346 314.908,958.679 328,937.5C 332.173,930.159 335.506,922.492 338,914.5C 345.131,909.772 352.965,906.272 361.5,904C 373.327,891.498 386.327,880.498 400.5,871C 404.714,866.454 408.547,861.621 412,856.5C 416.887,851.613 421.721,846.779 426.5,842C 430.381,838.853 434.381,838.686 438.5,841.5C 442.089,840.352 445.756,839.685 449.5,839.5C 456.112,817.387 461.945,795.053 467,772.5C 467.667,767.833 467.667,763.167 467,758.5C 461.522,734.922 456.522,711.256 452,687.5C 445.333,668.833 438.667,650.167 432,631.5C 430.774,626.506 431.607,622.006 434.5,618C 430.187,608.869 426.187,599.702 422.5,590.5C 424.167,590.5 425.833,590.5 427.5,590.5C 427.303,586.378 426.47,582.378 425,578.5C 418.927,569.694 416.927,560.027 419,549.5C 426.757,527.973 438.091,508.64 453,491.5C 457.824,481.183 463.158,471.183 469,461.5C 475.725,452.44 482.058,443.107 488,433.5C 494.232,427.88 499.399,421.38 503.5,414C 492.707,404.856 484.54,393.69 479,380.5C 475.786,369.523 471.786,358.857 467,348.5C 466.547,344.823 466.714,341.156 467.5,337.5C 465.14,321.477 462.64,305.477 460,289.5C 459.121,269.503 458.788,249.503 459,229.5C 463.407,201.893 468.74,174.559 475,147.5C 474.085,148.328 473.419,149.328 473,150.5C 472.62,144.299 474.287,138.632 478,133.5C 486.058,122.44 493.725,111.107 501,99.5C 508.887,91.6126 516.721,83.7792 524.5,76C 574.418,45.6876 628.418,33.6876 686.5,40C 723.321,47.1585 755.154,63.6585 782,89.5C 794.154,103.318 805.154,117.985 815,133.5C 821.427,146.688 828.093,159.688 835,172.5C 848.086,206.687 852.753,242.02 849,278.5C 846.333,298.466 843.666,318.466 841,338.5C 833.943,353.593 827.777,368.927 822.5,384.5 Z"/></g>
<g><path style="opacity:1" fill="#000000" d="M 816.5,367.5 C 813.205,373.523 810.371,379.856 808,386.5C 804.272,391.709 800.439,396.709 796.5,401.5C 786.734,412.437 776.734,423.271 766.5,434C 763.624,436.437 760.29,437.77 756.5,438C 755.78,440.122 754.613,440.622 753,439.5C 745.969,445.499 737.135,450.499 726.5,454.5C 724.575,454.41 723.408,453.41 723,451.5C 720.772,444.714 718.272,438.047 715.5,431.5C 713.647,430.24 711.814,430.24 710,431.5C 701.505,428.839 693.339,425.505 685.5,421.5C 680.851,422.15 676.184,422.65 671.5,423C 658.443,427.807 654.443,436.807 659.5,450C 658.059,460.931 656.726,471.764 655.5,482.5C 657.806,499.071 658.806,515.738 658.5,532.5C 657.833,549.833 657.167,567.167 656.5,584.5C 655.615,578.894 654.281,573.394 652.5,568C 653.037,566.208 653.37,564.375 653.5,562.5C 652.328,554.301 650.995,546.134 649.5,538C 649.191,517.858 649.691,497.691 651,477.5C 651.772,465.079 652.938,452.745 654.5,440.5C 652.662,424.149 643.662,416.983 627.5,419C 610.459,424.368 600.125,435.702 596.5,453C 566.696,445.597 540.363,431.597 517.5,411C 516.773,409.601 516.273,408.101 516,406.5C 501.322,395.494 491.322,381.161 486,363.5C 482.025,346.319 478.691,328.986 476,311.5C 476,273.494 476.667,235.494 478,197.5C 479.923,178.886 483.256,160.553 488,142.5C 497.056,124.207 508.223,107.374 521.5,92C 535.883,83.8084 550.55,76.1417 565.5,69C 600.852,54.8304 637.519,49.4971 675.5,53C 680.409,55.8737 685.576,58.0404 691,59.5C 694.274,59.6994 696.607,58.3661 698,55.5C 699.399,56.2266 700.899,56.7266 702.5,57C 712.767,62.9383 722.767,69.2716 732.5,76C 735.882,78.425 738.715,77.925 741,74.5C 747.595,79.0907 753.595,84.424 759,90.5C 763.741,97.9115 769.241,104.745 775.5,111C 779.779,111.916 781.612,110.083 781,105.5C 784.321,110.486 788.321,114.82 793,118.5C 802.617,139.296 809.617,160.962 814,183.5C 816,186.167 818,186.167 820,183.5C 820.18,178.427 819.847,173.427 819,168.5C 820.333,171.167 821.667,173.833 823,176.5C 833.732,207.959 837.732,240.292 835,273.5C 831.532,291.69 828.865,310.023 827,328.5C 823.031,341.376 819.531,354.376 816.5,367.5 Z"/></g>
<g><path style="opacity:1" fill="#f9f9f9" d="M 651.5,145.5 C 661.732,143.575 670.065,146.575 676.5,154.5C 675.365,162.451 675.198,170.451 676,178.5C 677,179.167 678,179.833 679,180.5C 680.687,195.454 681.521,210.454 681.5,225.5C 694.374,225.353 707.041,226.186 719.5,228C 720.297,224.255 720.797,220.421 721,216.5C 722.333,215.167 723.667,215.167 725,216.5C 724.642,221.48 726.309,225.48 730,228.5C 730.654,240.343 730.488,252.176 729.5,264C 730.909,270.031 731.909,276.198 732.5,282.5C 724.897,283.719 717.397,285.386 710,287.5C 698.833,285.527 687.667,283.861 676.5,282.5C 677.137,311.855 677.971,341.189 679,370.5C 677.807,374.36 675.307,376.86 671.5,378C 662.66,378.384 653.826,378.884 645,379.5C 635.188,380.602 629.855,376.269 629,366.5C 627.526,337.939 626.526,309.273 626,280.5C 622.06,282.15 617.893,282.983 613.5,283C 599.833,283.667 586.167,283.667 572.5,283C 571.333,281.833 570.167,280.667 569,279.5C 568.357,265.827 568.023,252.16 568,238.5C 569.913,234.415 573.08,232.082 577.5,231.5C 586.145,232.579 594.812,232.745 603.5,232C 599.87,231.729 598.87,230.062 600.5,227C 607.346,226.412 614.179,226.578 621,227.5C 629.336,227.942 632.502,223.942 630.5,215.5C 628.482,194.508 626.982,173.508 626,152.5C 626.5,151.333 627.333,150.5 628.5,150C 636.527,149.694 644.194,148.194 651.5,145.5 Z"/></g>
<g><path style="opacity:1" fill="#040404" d="M 640.5,160.5 C 649.315,160.146 658.315,160.146 667.5,160.5C 666.221,176.152 666.221,191.818 667.5,207.5C 667.68,211.034 667.013,214.368 665.5,217.5C 665.833,218.5 666.5,219.167 667.5,219.5C 668.328,224.132 668.828,228.798 669,233.5C 670.887,235.026 671.887,237.026 672,239.5C 676.033,240.755 680.199,241.422 684.5,241.5C 696.513,241.503 708.513,241.503 720.5,241.5C 720.64,251.583 720.64,261.583 720.5,271.5C 716.321,273.881 711.821,274.881 707,274.5C 695.835,273.548 684.668,273.382 673.5,274C 672.726,271.595 672.226,269.095 672,266.5C 670.333,265.167 668.667,265.167 667,266.5C 666.667,268.833 666.333,271.167 666,273.5C 662.159,272.005 660.826,273.339 662,277.5C 665.827,278 667.327,280.167 666.5,284C 666.181,287.445 665.181,290.612 663.5,293.5C 665.867,318.11 666.867,342.776 666.5,367.5C 658.849,367.598 651.349,367.598 644,367.5C 642.083,341.662 641.583,315.829 642.5,290C 641.485,286.719 639.485,285.885 636.5,287.5C 635.888,280.448 635.054,273.448 634,266.5C 622.91,265.347 611.743,265.18 600.5,266C 593.286,267.129 586.286,268.962 579.5,271.5C 581.362,262.385 583.696,253.385 586.5,244.5C 599.396,243.784 612.229,242.451 625,240.5C 626.5,240.833 628,241.167 629.5,241.5C 630.212,243.046 631.378,244.046 633,244.5C 636.649,243.027 638.482,240.361 638.5,236.5C 640.144,236.714 641.644,236.38 643,235.5C 645.887,227.59 647.053,219.423 646.5,211C 645.242,195.161 643.742,179.328 642,163.5C 641.768,162.263 641.268,161.263 640.5,160.5 Z"/></g>
<g><path style="opacity:1" fill="#646464" d="M 632.5,158.5 C 634.852,159.543 635.019,160.876 633,162.5C 632.51,161.207 632.343,159.873 632.5,158.5 Z"/></g>
<g><path style="opacity:1" fill="#202020" d="M 578.5,242.5 C 579.497,242.47 580.164,242.97 580.5,244C 578.937,249.608 578.271,249.108 578.5,242.5 Z"/></g>
<g><path style="opacity:1" fill="#ecf2bd" d="M 816.5,367.5 C 815.491,372.796 815.324,378.129 816,383.5C 818.041,384.423 820.208,384.756 822.5,384.5C 819.084,392.331 814.417,399.331 808.5,405.5C 804.153,409.686 800.32,414.353 797,419.5C 792.449,424.185 787.616,428.518 782.5,432.5C 781.914,432.291 781.414,431.957 781,431.5C 780.333,429.5 780.333,427.5 781,425.5C 786.416,417.599 791.583,409.599 796.5,401.5C 800.439,396.709 804.272,391.709 808,386.5C 810.371,379.856 813.205,373.523 816.5,367.5 Z"/></g>
<g><path style="opacity:1" fill="#010101" d="M 672.5,784.5 C 672.179,779.305 672.513,774.305 673.5,769.5C 672.425,773.938 674.092,775.938 678.5,775.5C 678.03,763.013 676.364,750.68 673.5,738.5C 674.523,736.997 675.523,735.497 676.5,734C 673.934,727.637 671.768,721.137 670,714.5C 667.591,700.895 665.591,687.228 664,673.5C 663.513,653.469 664.18,633.469 666,613.5C 667.236,612.601 668.07,611.434 668.5,610C 667.042,607.942 666.375,605.609 666.5,603C 667.569,591.181 667.736,579.348 667,567.5C 664.428,565.192 663.261,562.192 663.5,558.5C 664.871,535.181 665.371,511.848 665,488.5C 662.951,484.845 662.117,480.845 662.5,476.5C 663.317,465.317 664.317,454.151 665.5,443C 663.226,438.377 663.893,434.044 667.5,430C 673.408,429.498 679.408,429.165 685.5,429C 686.716,430.74 688.382,431.74 690.5,432C 697.438,439.374 703.271,447.541 708,456.5C 708.495,458.473 708.662,460.473 708.5,462.5C 707.325,462.281 706.325,462.614 705.5,463.5C 706.543,466.501 708.043,469.168 710,471.5C 712.047,470.391 714.213,469.724 716.5,469.5C 716.829,478.084 716.162,486.584 714.5,495C 714.095,498.944 715.595,500.11 719,498.5C 719.92,495.899 720.587,493.232 721,490.5C 721.333,491.5 721.667,492.5 722,493.5C 723.259,516.801 723.926,540.135 724,563.5C 725.129,572.015 727.795,580.015 732,587.5C 732.462,594.554 733.962,601.387 736.5,608C 733.289,614.732 734.289,620.732 739.5,626C 746.931,629.256 754.264,632.756 761.5,636.5C 758.156,641.054 759.156,643.221 764.5,643C 766.552,639.101 768.886,638.768 771.5,642C 773.769,642.758 775.936,642.591 778,641.5C 779,637.5 780,633.5 781,629.5C 785.706,620.587 790.54,611.753 795.5,603C 802.374,599.063 809.374,595.397 816.5,592C 825.6,590.078 834.6,587.745 843.5,585C 848.741,581.197 848.741,577.53 843.5,574C 831.536,574.572 819.869,576.905 808.5,581C 803.396,583.773 798.563,586.94 794,590.5C 799.083,571.194 809.583,555.361 825.5,543C 833.5,539 841.5,535 849.5,531C 851.968,529.784 853.968,528.117 855.5,526C 854.523,523.239 852.523,521.906 849.5,522C 843.694,521.967 838.027,522.301 832.5,523C 826.958,528.211 821.125,533.044 815,537.5C 812.566,531.861 808.899,527.194 804,523.5C 796.464,511.588 790.964,498.755 787.5,485C 790.143,481.401 793.809,479.734 798.5,480C 800.211,478.867 800.711,477.367 800,475.5C 787.76,474.301 776.594,470.134 766.5,463C 763.901,462.231 761.401,462.398 759,463.5C 758.251,464.635 758.417,465.635 759.5,466.5C 766.086,470.709 772.586,475.043 779,479.5C 782.268,490.637 785.934,501.637 790,512.5C 793.207,519.086 797.041,525.253 801.5,531C 793.395,544.782 783.395,557.115 771.5,568C 762.191,572.715 752.524,576.548 742.5,579.5C 740.998,581.833 741.498,583.499 744,584.5C 754.508,581.997 764.674,578.497 774.5,574C 778.633,570.869 782.466,567.369 786,563.5C 792.886,554.948 799.386,546.114 805.5,537C 807.939,537.896 810.606,538.563 813.5,539C 804.704,545.462 796.871,552.962 790,561.5C 785.755,570.331 780.755,578.664 775,586.5C 771.257,594.986 767.257,603.319 763,611.5C 749.609,599.731 739.943,585.398 734,568.5C 732.427,557.559 732.094,546.559 733,535.5C 734.1,525.494 735.267,515.494 736.5,505.5C 735.303,494.737 733.803,484.07 732,473.5C 742.493,468.492 752.326,462.492 761.5,455.5C 766.595,459.389 772.262,461.556 778.5,462C 779.833,460.667 779.833,459.333 778.5,458C 774.462,457.101 770.795,455.434 767.5,453C 768.967,451.902 769.801,450.402 770,448.5C 775.833,443.333 781.667,438.167 787.5,433C 793.742,427.429 799.242,421.262 804,414.5C 813.38,424.278 822.047,434.611 830,445.5C 836.478,451.734 843.145,457.734 850,463.5C 854.418,468.242 858.418,473.242 862,478.5C 866.344,492.145 873.344,505.145 883,517.5C 884.205,518.071 885.372,518.738 886.5,519.5C 890.134,526.296 893.967,532.962 898,539.5C 898.935,546.38 898.102,553.047 895.5,559.5C 895.529,561.029 896.196,562.196 897.5,563C 885.779,587.155 876.613,612.322 870,638.5C 862.471,652.893 855.471,667.56 849,682.5C 846.029,691.717 843.696,701.05 842,710.5C 839.316,716.53 836.65,722.53 834,728.5C 833.667,727.5 833.333,726.5 833,725.5C 827.201,736.874 825.868,748.874 829,761.5C 832.281,775.011 836.948,788.011 843,800.5C 844.167,801.667 845.333,802.833 846.5,804C 851.372,803.31 854.705,805.477 856.5,810.5C 850.896,810.389 845.23,810.722 839.5,811.5C 834.675,816.243 829.341,816.743 823.5,813C 820.5,812.333 817.5,812.333 814.5,813C 796.951,817.377 779.284,821.377 761.5,825C 742.899,830.311 724.733,836.811 707,844.5C 703.779,843.208 700.613,843.374 697.5,845C 687.894,849.645 678.394,854.478 669,859.5C 670.648,849.917 672.314,840.25 674,830.5C 674.902,815.106 674.402,799.773 672.5,784.5 Z"/></g>
<g><path style="opacity:1" fill="#010101" d="M 628.5,935.5 C 627.833,935.167 627.167,934.833 626.5,934.5C 625.457,931.944 623.79,929.777 621.5,928C 601.633,915.566 580.633,905.566 558.5,898C 537.645,894.543 516.645,892.543 495.5,892C 480.047,885.915 464.047,883.915 447.5,886C 439.191,887.619 431.025,889.786 423,892.5C 415.535,891.374 408.035,890.541 400.5,890C 403.667,884.833 406.833,879.667 410,874.5C 412.869,871.732 416.202,869.732 420,868.5C 420.795,865.617 419.629,864.117 416.5,864C 419.45,859.382 422.784,855.048 426.5,851C 430.251,851.083 432.251,849.249 432.5,845.5C 434.62,846.891 436.953,847.558 439.5,847.5C 448.898,845.978 458.231,844.145 467.5,842C 474.126,841.014 480.793,840.514 487.5,840.5C 509.829,841.173 532.162,841.673 554.5,842C 574.642,845.357 593.309,852.357 610.5,863C 613.76,863.784 616.927,863.617 620,862.5C 620.711,860.633 620.211,859.133 618.5,858C 615.246,857.75 612.246,856.75 609.5,855C 604.094,851.268 598.427,847.935 592.5,845C 581.348,841.045 570.015,837.712 558.5,835C 534.524,833.905 510.524,833.072 486.5,832.5C 488.854,829.312 491.688,826.645 495,824.5C 495.986,822.075 495.319,820.409 493,819.5C 488.698,822.635 484.864,826.301 481.5,830.5C 479.135,831.085 477.135,832.252 475.5,834C 468.415,834.905 461.415,835.905 454.5,837C 462.091,818.469 467.425,799.302 470.5,779.5C 474.412,779.32 476.079,777.153 475.5,773C 474.912,766.173 474.412,759.34 474,752.5C 473.333,751.833 472.667,751.167 472,750.5C 471.713,748.109 471.213,745.776 470.5,743.5C 471.628,742.738 472.795,742.071 474,741.5C 471.736,723.197 466.903,705.531 459.5,688.5C 460,687.5 460.5,686.5 461,685.5C 461.879,688.346 463.546,689.013 466,687.5C 466.667,685.5 466.667,683.5 466,681.5C 462.994,671.818 459.994,662.151 457,652.5C 446.655,632.462 439.322,611.462 435,589.5C 437.167,593 440,595.833 443.5,598C 445.92,598.915 447.253,598.082 447.5,595.5C 442.282,590.075 437.782,584.075 434,577.5C 432.336,573.844 431.503,570.01 431.5,566C 432.031,561.777 432.531,557.611 433,553.5C 432.282,552.549 431.449,552.383 430.5,553C 429.213,554.41 428.046,555.91 427,557.5C 424.67,555.336 424.003,552.669 425,549.5C 432.686,529.12 443.686,510.787 458,494.5C 462.552,483.728 467.886,473.394 474,463.5C 482.295,452.291 490.628,440.957 499,429.5C 500.491,427.996 502.324,427.163 504.5,427C 505.808,424.205 507.474,421.705 509.5,419.5C 522.96,431.068 537.627,440.902 553.5,449C 547.255,454.87 539.921,458.87 531.5,461C 529.006,463.423 529.006,465.756 531.5,468C 534.304,468.46 536.971,467.96 539.5,466.5C 539.833,467.167 540.167,467.833 540.5,468.5C 533.824,486.863 527.158,505.196 520.5,523.5C 511.228,521.006 501.895,520.84 492.5,523C 487.653,525.186 487.32,527.852 491.5,531C 497.167,531.333 502.833,531.667 508.5,532C 510.246,532.471 511.913,533.138 513.5,534C 522.899,544.123 530.566,555.456 536.5,568C 531.778,566.1 526.778,564.767 521.5,564C 516.126,562.608 511.459,563.775 507.5,567.5C 505.888,570.753 506.888,572.92 510.5,574C 516.551,575.119 522.551,576.453 528.5,578C 533.888,580.055 538.054,583.555 541,588.5C 543.626,600.01 547.626,611.01 553,621.5C 557.342,625.824 560.842,630.658 563.5,636C 565.367,636.711 566.867,636.211 568,634.5C 571.339,629.007 574.839,623.674 578.5,618.5C 578.833,619.167 579.167,619.833 579.5,620.5C 578.787,624.324 578.12,628.157 577.5,632C 577.281,633.971 578.115,635.138 580,635.5C 581.735,634.318 582.735,632.651 583,630.5C 583.561,624.788 584.728,619.288 586.5,614C 585.963,612.208 585.63,610.375 585.5,608.5C 586.919,603.243 587.919,597.91 588.5,592.5C 585.304,561.067 585.971,529.734 590.5,498.5C 590.403,495.468 590.069,492.468 589.5,489.5C 589.638,486.18 591.305,484.513 594.5,484.5C 594.338,482.473 594.505,480.473 595,478.5C 596.914,476.252 598.414,473.752 599.5,471C 599.167,470 598.833,469 598.5,468C 599.482,466.946 600.649,466.446 602,466.5C 603.039,464.254 604.206,462.087 605.5,460C 604.833,459.333 604.167,458.667 603.5,458C 607.496,449.325 613.163,441.991 620.5,436C 627.85,435.153 635.017,435.987 642,438.5C 643.261,438.241 644.261,437.574 645,436.5C 645.667,443.833 645.667,451.167 645,458.5C 642.959,457.577 640.792,457.244 638.5,457.5C 641.1,463.835 642.767,470.502 643.5,477.5C 643.759,491.299 643.426,505.132 642.5,519C 643.462,529.195 644.462,539.361 645.5,549.5C 644.389,550.611 643.722,551.945 643.5,553.5C 645.447,562.013 647.447,570.513 649.5,579C 648.229,588.916 647.562,598.916 647.5,609C 647.667,618.167 647.833,627.333 648,636.5C 649.333,637.833 650.667,637.833 652,636.5C 652.167,637.5 652.333,638.5 652.5,639.5C 651.619,646.136 651.286,652.803 651.5,659.5C 650.178,659.33 649.011,659.663 648,660.5C 647.484,689.51 647.484,718.51 648,747.5C 641.675,768.297 636.175,789.297 631.5,810.5C 632.415,814.144 632.581,817.81 632,821.5C 625.814,835.909 621.981,850.909 620.5,866.5C 622.516,872.713 624.016,879.047 625,885.5C 626.017,902.184 627.184,918.851 628.5,935.5 Z"/></g>
<g><path style="opacity:1" fill="#303030" d="M 635.5,427.5 C 637.783,427.608 639.783,428.441 641.5,430C 642.451,430.718 642.617,431.551 642,432.5C 639.263,431.44 636.43,430.606 633.5,430C 634.381,429.292 635.047,428.458 635.5,427.5 Z"/></g>
<g><path style="opacity:1" fill="#151515" d="M 700.5,435.5 C 704.458,435.914 707.958,437.914 711,441.5C 714.299,447.198 715.799,453.198 715.5,459.5C 714.833,459.833 714.167,460.167 713.5,460.5C 711.509,450.849 707.176,442.516 700.5,435.5 Z"/></g>
<g><path style="opacity:1" fill="#f4f4f4" d="M 693.5,444.5 C 695.722,444.178 697.556,444.845 699,446.5C 701.846,458.211 704.513,469.878 707,481.5C 705.437,484.728 702.937,486.895 699.5,488C 692.563,489.527 685.563,490.194 678.5,490C 675.27,488.276 674.936,486.276 677.5,484C 683.416,482.249 689.416,480.916 695.5,480C 697.002,479.417 698.335,478.584 699.5,477.5C 697.508,474.408 696.008,471.075 695,467.5C 694.25,466.874 693.416,466.374 692.5,466C 693.428,465.612 694.095,464.945 694.5,464C 691.304,457.485 690.971,450.985 693.5,444.5 Z"/></g>
<g><path style="opacity:1" fill="#f3f3f3" d="M 619.5,446.5 C 623.099,445.938 625.099,447.438 625.5,451C 622.388,459.718 619.721,468.551 617.5,477.5C 621.877,477.577 626.21,478.077 630.5,479C 634.795,480.845 635.462,483.512 632.5,487C 625.285,488.113 618.285,487.446 611.5,485C 608.735,482.005 607.902,478.505 609,474.5C 611.59,464.79 615.09,455.457 619.5,446.5 Z"/></g>
<g><path style="opacity:1" fill="#020202" d="M 560.5,452.5 C 570.512,455.835 580.512,459.169 590.5,462.5C 586.248,474.755 582.081,487.088 578,499.5C 573.006,517.616 573.339,535.616 579,553.5C 579.667,558.167 579.667,562.833 579,567.5C 576.667,565.833 574.333,564.167 572,562.5C 567.082,555 562.416,547.333 558,539.5C 551.083,530.283 541.916,524.449 530.5,522C 539.544,502.984 546.044,483.151 550,462.5C 555.316,461.016 558.816,457.683 560.5,452.5 Z"/></g>
<g><path style="opacity:1" fill="#080808" d="M 535.5,532.5 C 535.897,531.475 536.563,531.308 537.5,532C 540.939,534.139 544.106,536.639 547,539.5C 551.918,547 556.584,554.667 561,562.5C 565.653,569.324 571.986,573.657 580,575.5C 581.165,582.472 581.498,589.472 581,596.5C 579.753,599.329 578.253,601.995 576.5,604.5C 568.812,598.979 562.312,592.312 557,584.5C 555.451,569.636 551.117,555.636 544,542.5C 541.302,538.975 538.469,535.642 535.5,532.5 Z"/></g>
<g><path style="opacity:1" fill="#d1d1d1" d="M 658.5,532.5 C 658.667,550.836 658.5,569.17 658,587.5C 657.487,586.473 656.987,585.473 656.5,584.5C 657.167,567.167 657.833,549.833 658.5,532.5 Z"/></g>
<g><path style="opacity:1" fill="#f7f7f7" d="M 461.5,586.5 C 461.334,590.514 461.501,594.514 462,598.5C 462.717,597.956 463.217,597.289 463.5,596.5C 464.835,591.658 467.835,588.825 472.5,588C 473.022,588.561 473.355,589.228 473.5,590C 467.847,596.725 464.681,604.558 464,613.5C 462.916,627.323 463.916,640.99 467,654.5C 467.667,658.167 467.667,661.833 467,665.5C 465.667,666.833 464.333,666.833 463,665.5C 461.388,654.036 459.554,642.703 457.5,631.5C 456.522,631.023 455.689,630.357 455,629.5C 453.493,612.194 453.159,594.86 454,577.5C 455.415,574.782 457.415,574.115 460,575.5C 464.747,567.715 471.581,563.881 480.5,564C 481.833,565.333 481.833,566.667 480.5,568C 470.391,570.275 464.058,576.442 461.5,586.5 Z"/></g>
<g><path style="opacity:1" fill="#6f6f6f" d="M 461.5,586.5 C 462.167,589.833 462.833,593.167 463.5,596.5C 463.217,597.289 462.717,597.956 462,598.5C 461.501,594.514 461.334,590.514 461.5,586.5 Z"/></g>
<g><path style="opacity:1" fill="#131313" d="M 654.5,598.5 C 655.623,600.979 655.623,603.312 654.5,605.5C 653.167,603.167 653.167,600.833 654.5,598.5 Z"/></g>
<g><path style="opacity:1" fill="#757575" d="M 654.5,598.5 C 653.167,600.833 653.167,603.167 654.5,605.5C 654.5,606.167 654.5,606.833 654.5,607.5C 653.167,610.833 653.167,614.167 654.5,617.5C 654.44,618.043 654.107,618.376 653.5,618.5C 652.335,610.521 652.168,602.521 653,594.5C 653.791,595.745 654.291,597.078 654.5,598.5 Z"/></g>
<g><path style="opacity:1" fill="#060606" d="M 654.5,607.5 C 655.37,609.599 656.703,609.932 658.5,608.5C 659.66,612.459 659.827,616.459 659,620.5C 658.411,618.137 656.911,617.137 654.5,617.5C 653.167,614.167 653.167,610.833 654.5,607.5 Z"/></g>
<g><path style="opacity:1" fill="#1a1a1a" d="M 437.5,626.5 C 446.144,644.266 453.31,662.599 459,681.5C 457.667,680.833 456.667,679.833 456,678.5C 449.534,661.242 443.367,643.909 437.5,626.5 Z"/></g>
<g><path style="opacity:1" fill="#010101" d="M 659.5,687.5 C 661.302,702.077 663.635,716.577 666.5,731C 665.602,733.094 664.935,735.26 664.5,737.5C 664.927,767.547 666.261,797.547 668.5,827.5C 666.963,839.593 664.963,851.593 662.5,863.5C 660.856,863.286 659.356,863.62 658,864.5C 655.792,876.747 655.125,889.081 656,901.5C 657.99,909.267 659.823,916.933 661.5,924.5C 662.167,925.167 662.833,925.833 663.5,926.5C 660.305,929.197 657.305,932.031 654.5,935C 654.667,936.5 655.5,937.333 657,937.5C 659.323,935.848 661.656,934.181 664,932.5C 663.683,935.746 663.517,939.08 663.5,942.5C 666.5,942.833 667.833,941.5 667.5,938.5C 668.497,957.659 668.83,976.993 668.5,996.5C 667.305,996.866 666.639,997.699 666.5,999C 667.386,1003.15 668.22,1007.32 669,1011.5C 669.404,1031.23 670.738,1050.9 673,1070.5C 674.105,1073.42 675.105,1076.42 676,1079.5C 677.011,1080.34 678.178,1080.67 679.5,1080.5C 677.953,1062.53 677.453,1044.53 678,1026.5C 683.738,1033.27 690.572,1038.43 698.5,1042C 696.667,1042.5 695.5,1043.67 695,1045.5C 693.738,1051.29 692.072,1056.95 690,1062.5C 688.75,1067.42 688.25,1072.42 688.5,1077.5C 687.448,1077.35 686.448,1077.52 685.5,1078C 681.248,1090.24 684.748,1099.74 696,1106.5C 695.365,1129.16 695.032,1151.82 695,1174.5C 697.172,1182.35 698.506,1190.35 699,1198.5C 702.318,1205.14 705.651,1211.8 709,1218.5C 709.333,1220.5 709.667,1222.5 710,1224.5C 710.5,1243.5 710.667,1262.5 710.5,1281.5C 678.833,1281.5 647.167,1281.5 615.5,1281.5C 617.624,1274.33 619.124,1267 620,1259.5C 619.275,1228.51 618.942,1197.51 619,1166.5C 621.336,1162.17 621.836,1157.67 620.5,1153C 623.453,1139.66 625.286,1126.16 626,1112.5C 626.461,1109.42 627.628,1106.76 629.5,1104.5C 626.939,1099.04 624.105,1093.71 621,1088.5C 619.524,1083.92 619.19,1079.26 620,1074.5C 624.139,1070.37 627.472,1065.7 630,1060.5C 630.333,1052.17 630.667,1043.83 631,1035.5C 632.698,1034.47 633.532,1032.97 633.5,1031C 632.87,1027.7 631.37,1024.87 629,1022.5C 628.506,1020.87 628.34,1019.2 628.5,1017.5C 627.325,1017.72 626.325,1017.39 625.5,1016.5C 624.905,1014.56 624.572,1012.56 624.5,1010.5C 626.105,1000.37 627.439,990.202 628.5,980C 628.031,973.313 627.365,966.646 626.5,960C 627.261,952.699 629.761,946.199 634,940.5C 634.5,930.839 634.666,921.172 634.5,911.5C 638.127,910.278 639.794,907.612 639.5,903.5C 637.375,894.29 634.541,885.29 631,876.5C 629.414,867.414 628.748,858.081 629,848.5C 634.701,832.397 640.201,816.23 645.5,800C 644.606,798.604 643.939,797.104 643.5,795.5C 649.222,772.734 654.389,749.734 659,726.5C 659.022,717.814 658.522,709.147 657.5,700.5C 658.167,696.167 658.833,691.833 659.5,687.5 Z"/></g>
<g><path style="opacity:1" fill="#5f5f5f" d="M 659.5,687.5 C 658.833,691.833 658.167,696.167 657.5,700.5C 657.334,693.825 657.5,687.158 658,680.5C 658.29,682.92 658.79,685.254 659.5,687.5 Z"/></g>
<g><path style="opacity:1" fill="#797979" d="M 673.5,769.5 C 672.513,774.305 672.179,779.305 672.5,784.5C 671.345,777.679 671.179,770.679 672,763.5C 672.813,765.436 673.313,767.436 673.5,769.5 Z"/></g>
<g><path style="opacity:1" fill="#020202" d="M 666.5,923.5 C 665.833,920.5 665.167,917.5 664.5,914.5C 665.132,899.592 665.132,884.759 664.5,870C 671.225,864.969 678.558,860.969 686.5,858C 709.993,851.391 732.993,843.391 755.5,834C 781.193,827.415 807.526,822.748 834.5,820C 836.087,819.138 837.754,818.471 839.5,818C 847.413,817.186 855.246,817.353 863,818.5C 863.333,817.5 863.667,816.5 864,815.5C 868.086,822.007 872.42,828.34 877,834.5C 880.833,842.167 884.667,849.833 888.5,857.5C 885.817,860.771 886.15,863.771 889.5,866.5C 889,866.833 888.5,867.167 888,867.5C 882.942,866.044 877.776,865.21 872.5,865C 851.167,864.333 829.833,864.333 808.5,865C 798.653,866.103 788.986,868.103 779.5,871C 739.48,883.821 701.813,901.321 666.5,923.5 Z"/></g>
<g><path style="opacity:1" fill="#1f1f1f" d="M 923.5,871.5 C 926.808,870.321 928.308,871.655 928,875.5C 925.981,874.643 924.481,873.309 923.5,871.5 Z"/></g>
<g><path style="opacity:1" fill="#979797" d="M 788.5,877.5 C 788.5,877.167 788.5,876.833 788.5,876.5C 790.225,875.095 792.225,874.595 794.5,875C 792.512,875.938 790.512,876.772 788.5,877.5 Z"/></g>
<g><path style="opacity:1" fill="#252525" d="M 934.5,888.5 C 934.167,888.5 933.833,888.5 933.5,888.5C 931.517,886.246 930.517,883.913 930.5,881.5C 932.6,883.364 933.933,885.697 934.5,888.5 Z"/></g>
<g><path style="opacity:1" fill="#242424" d="M 788.5,876.5 C 788.5,876.833 788.5,877.167 788.5,877.5C 776.32,882.061 763.987,885.895 751.5,889C 763.47,883.678 775.804,879.511 788.5,876.5 Z"/></g>
<g><path style="opacity:1" fill="#7b7b7b" d="M 933.5,888.5 C 933.833,888.5 934.167,888.5 934.5,888.5C 936.175,890.179 937.008,892.179 937,894.5C 935.569,892.636 934.403,890.636 933.5,888.5 Z"/></g>
<g><path style="opacity:1" fill="#171717" d="M 396.5,895.5 C 402.262,895.149 407.928,895.649 413.5,897C 407.5,897.667 401.5,897.667 395.5,897C 396.056,896.617 396.389,896.117 396.5,895.5 Z"/></g>
<g><path style="opacity:1" fill="#969696" d="M 664.5,914.5 C 665.167,917.5 665.833,920.5 666.5,923.5C 665.833,924.833 664.833,925.833 663.5,926.5C 662.833,925.833 662.167,925.167 661.5,924.5C 662.5,924.5 663.5,924.5 664.5,924.5C 664.5,921.167 664.5,917.833 664.5,914.5 Z"/></g>
<g><path style="opacity:1" fill="#8c8c8c" d="M 626.5,934.5 C 627.167,934.833 627.833,935.167 628.5,935.5C 628.768,937.099 628.434,938.432 627.5,939.5C 627.5,938.833 627.167,938.5 626.5,938.5C 626.5,937.167 626.5,935.833 626.5,934.5 Z"/></g>
<g><path style="opacity:1" fill="#aeaeae" d="M 667.5,938.5 C 667.56,937.957 667.893,937.624 668.5,937.5C 669.828,957.329 669.828,976.996 668.5,996.5C 668.83,976.993 668.497,957.659 667.5,938.5 Z"/></g>
<g><path style="opacity:1" fill="#393939" d="M 294.5,1009.5 C 294.5,1008.83 294.167,1008.5 293.5,1008.5C 295.655,1004.86 297.822,1001.19 300,997.5C 299,1001.84 297.167,1005.84 294.5,1009.5 Z"/></g>
<g><path style="opacity:1" fill="#8d8d8d" d="M 282.5,1044.5 C 282.167,1044.5 281.833,1044.5 281.5,1044.5C 282.403,1042.36 283.569,1040.36 285,1038.5C 285.008,1040.82 284.175,1042.82 282.5,1044.5 Z"/></g>
<g><path style="opacity:1" fill="#5c5c5c" d="M 1010.5,1052.5 C 1012.08,1053 1012.58,1054 1012,1055.5C 1010.96,1054.76 1010.46,1053.76 1010.5,1052.5 Z"/></g>
<g><path style="opacity:1" fill="#171717" d="M 281.5,1044.5 C 281.833,1044.5 282.167,1044.5 282.5,1044.5C 263.661,1083.51 245.495,1122.85 228,1162.5C 221.491,1173.52 215.491,1184.85 210,1196.5C 209.333,1195.5 209.333,1194.5 210,1193.5C 225.023,1164.09 238.69,1134.09 251,1103.5C 260.669,1083.49 270.836,1063.83 281.5,1044.5 Z"/></g>
<g><path style="opacity:1" fill="#5f5f5f" d="M 1013.5,1057.5 C 1015.42,1058.67 1016.25,1060.33 1016,1062.5C 1014.63,1061.09 1013.79,1059.42 1013.5,1057.5 Z"/></g>
<g><path style="opacity:1" fill="#707070" d="M 1017.5,1064.5 C 1019.42,1065.67 1020.25,1067.33 1020,1069.5C 1018.63,1068.09 1017.79,1066.42 1017.5,1064.5 Z"/></g>
<g><path style="opacity:1" fill="#ededed" d="M 809.5,1086.5 C 819.053,1085.93 828.386,1087.09 837.5,1090C 843.825,1090.5 850.158,1090.67 856.5,1090.5C 856.739,1092.47 856.406,1094.3 855.5,1096C 849.167,1096.67 842.833,1096.67 836.5,1096C 824.601,1093.35 812.601,1092.85 800.5,1094.5C 796.313,1095.16 794.98,1093.66 796.5,1090C 801.133,1089.5 805.467,1088.34 809.5,1086.5 Z"/></g>
</svg>
