<svg xmlns="http://www.w3.org/2000/svg" version="1.1" width="1068px" height="644px" style="shape-rendering:geometricPrecision; text-rendering:geometricPrecision; image-rendering:optimizeQuality; fill-rule:evenodd; clip-rule:evenodd" xmlns:xlink="http://www.w3.org/1999/xlink">
<g></g>
<g><path style="opacity: 1; visibility: visible; fill: rgb(255, 255, 255);" fill="#f8f8f8" d="M 772.5,65.5 C 792.819,63.4136 811.486,67.9136 828.5,79C 834.095,83.5909 837.595,89.4243 839,96.5C 844.583,122.953 837.75,145.453 818.5,164C 812.338,168.08 805.671,171.08 798.5,173C 788.167,173.667 777.833,173.667 767.5,173C 744.306,168.473 730.473,154.64 726,131.5C 722.582,119.484 724.582,108.484 732,98.5C 739.5,88.3333 748.333,79.5 758.5,72C 763.147,69.5056 767.814,67.339 772.5,65.5 Z" data-index="1"></path></g>
<g><path style="opacity: 1; visibility: visible; fill: rgb(255, 255, 255);" fill="#020202" d="M 778.5,77.5 C 793.363,77.1778 807.029,81.0111 819.5,89C 821.969,91.4411 823.802,94.2744 825,97.5C 830.094,120.423 824.261,139.923 807.5,156C 803.581,157.862 799.581,159.529 795.5,161C 777.607,164.511 761.273,161.178 746.5,151C 738.153,140.293 733.986,128.126 734,114.5C 736.473,108.221 739.473,102.221 743,96.5C 749.768,92.7278 756.268,88.5611 762.5,84C 767.607,80.9354 772.94,78.7688 778.5,77.5 Z" data-index="2"></path></g>
<g><path style="opacity: 1; visibility: visible;" fill="#f6f6f6" d="M 504.5,81.5 C 507.602,81.154 510.435,81.8207 513,83.5C 520.688,101.52 529.688,118.853 540,135.5C 570.336,182.163 599.669,229.496 628,277.5C 634.258,287.42 641.591,296.42 650,304.5C 650.667,306.167 650.667,307.833 650,309.5C 641.197,319.304 632.03,328.804 622.5,338C 607.532,351.3 592.866,364.966 578.5,379C 564.454,390.714 550.121,402.048 535.5,413C 503.911,442.601 470.578,469.935 435.5,495C 424.833,504.333 414.167,513.667 403.5,523C 404.167,523.667 404.833,523.667 405.5,523C 411.655,518.089 417.989,513.423 424.5,509C 461.657,486.713 500.657,468.046 541.5,453C 559.059,447.26 577.059,444.593 595.5,445C 597.991,447.968 598.157,451.135 596,454.5C 573.137,472.984 547.97,487.818 520.5,499C 498.321,507.726 475.988,516.06 453.5,524C 463.988,523.131 474.322,521.131 484.5,518C 493.957,518.012 503.291,517.012 512.5,515C 540.923,513.797 569.257,511.464 597.5,508C 642.139,505.593 686.806,504.593 731.5,505C 740.802,506.065 750.135,506.732 759.5,507C 764.193,507.908 768.86,508.908 773.5,510C 798.2,510.384 822.867,511.05 847.5,512C 830.516,504.181 814.516,494.847 799.5,484C 776.609,475.554 753.942,466.554 731.5,457C 724.833,453.333 718.167,449.667 711.5,446C 699.047,440.607 686.714,434.94 674.5,429C 670.084,426.588 666.251,423.422 663,419.5C 660.409,412.893 661.409,406.893 666,401.5C 670.5,396.333 675,391.167 679.5,386C 685.167,381.667 690.833,377.333 696.5,373C 685.541,348.667 678.875,323.167 676.5,296.5C 676.433,290.199 678.433,284.699 682.5,280C 687.5,276.667 692.5,276.667 697.5,280C 710.042,287.878 719.875,298.378 727,311.5C 740.15,326.312 752.15,341.979 763,358.5C 770.821,368.32 779.321,377.487 788.5,386C 796.832,391.835 805.499,397.168 814.5,402C 832.104,403.084 847.438,409.417 860.5,421C 867.167,425 873.833,429 880.5,433C 911.323,457.491 942.99,480.824 975.5,503C 991.099,515.929 1006.1,529.595 1020.5,544C 1031.18,549.934 1040.68,557.434 1049,566.5C 1050.17,570.667 1048.67,572.167 1044.5,571C 1036.53,564.013 1027.86,558.013 1018.5,553C 1000.8,536.96 982.796,521.294 964.5,506C 939.047,489.881 914.714,472.214 891.5,453C 876.5,442.667 861.5,432.333 846.5,422C 842.286,419.726 837.953,417.726 833.5,416C 826.464,414.793 819.464,413.459 812.5,412C 788.768,400.934 769.268,384.768 754,363.5C 737.891,342.725 722.558,321.391 708,299.5C 702.268,293.932 696.101,288.932 689.5,284.5C 685.712,286.742 684.046,290.075 684.5,294.5C 687.57,321.78 694.237,348.114 704.5,373.5C 696.537,381.294 688.37,388.961 680,396.5C 677.814,400.198 675.147,403.532 672,406.5C 668.963,412.931 670.796,417.431 677.5,420C 697.319,429.077 716.985,438.41 736.5,448C 758.833,457 781.167,466 803.5,475C 814.324,483.584 825.991,490.917 838.5,497C 847.304,503.398 856.638,508.731 866.5,513C 868.602,514.733 868.935,516.733 867.5,519C 862.844,520.844 858.01,521.677 853,521.5C 839.793,520.497 826.626,519.164 813.5,517.5C 795.256,520.831 777.256,519.998 759.5,515C 734.541,512.83 709.541,512.164 684.5,513C 656.191,514.618 627.858,515.951 599.5,517C 581.78,518.539 564.113,520.539 546.5,523C 535.833,523.333 525.167,523.667 514.5,524C 505.606,525.869 496.606,526.869 487.5,527C 468.563,530.277 449.729,534.111 431,538.5C 426.621,537.025 425.621,534.359 428,530.5C 434.245,525.959 440.745,521.792 447.5,518C 479.06,505.887 510.393,493.22 541.5,480C 556.03,472.126 570.03,463.459 583.5,454C 567.398,455.028 551.731,458.361 536.5,464C 498.882,478.143 462.882,495.477 428.5,516C 414.713,526.45 400.379,536.117 385.5,545C 380.821,547.736 378.321,546.569 378,541.5C 386.755,530.074 396.255,519.241 406.5,509C 420.5,497.333 434.5,485.667 448.5,474C 460.858,465.487 472.858,456.487 484.5,447C 499.098,435.073 513.098,422.406 526.5,409C 541.455,397.714 556.121,386.047 570.5,374C 594.075,351.253 618.075,329.087 642.5,307.5C 638.849,303.348 635.016,299.348 631,295.5C 612.502,269.849 595.502,243.183 580,215.5C 564.084,191.337 548.417,167.003 533,142.5C 523.225,126.284 515.059,109.284 508.5,91.5C 496.88,106.409 488.713,123.075 484,141.5C 483.333,146.833 483.333,152.167 484,157.5C 486.841,165.354 490.174,173.02 494,180.5C 496.807,193.796 494.141,205.796 486,216.5C 482.818,223.52 481.818,230.853 483,238.5C 486.743,246.986 490.743,255.319 495,263.5C 496.506,270.433 496.839,277.433 496,284.5C 493.667,288.5 491.333,292.5 489,296.5C 484.867,299.631 481.034,303.131 477.5,307C 460.663,317.831 443.33,327.831 425.5,337C 423.113,341.053 419.78,344.053 415.5,346C 403.589,358.302 402.756,371.135 413,384.5C 426.034,395.867 438.034,408.2 449,421.5C 453.4,428.243 457.4,435.243 461,442.5C 462.5,447.667 460.667,449.5 455.5,448C 443.215,428.043 427.715,410.876 409,396.5C 391.173,377.548 391.007,358.381 408.5,339C 413.47,336.025 417.804,332.358 421.5,328C 442.888,318.23 462.721,306.063 481,291.5C 486.295,284.393 487.962,276.393 486,267.5C 481.667,258.167 477.333,248.833 473,239.5C 472.058,232.018 472.725,224.685 475,217.5C 478.333,210.833 481.667,204.167 485,197.5C 485.861,191.415 485.527,185.415 484,179.5C 472.053,162.872 470.387,145.206 479,126.5C 482.894,117.378 487.228,108.711 492,100.5C 483.066,107.43 474.733,115.097 467,123.5C 452.779,140.278 439.779,157.944 428,176.5C 403.388,225.452 369.555,266.952 326.5,301C 313.493,309.172 300.16,316.839 286.5,324C 282.988,326.257 279.654,328.757 276.5,331.5C 300.904,343.642 321.404,360.642 338,382.5C 351.594,402.678 363.927,423.678 375,445.5C 375.687,447.92 375.187,450.087 373.5,452C 370.072,452.701 366.738,452.368 363.5,451C 357.675,448.255 352.008,445.255 346.5,442C 328.308,422.808 309.808,403.975 291,385.5C 287.909,380.986 284.575,376.653 281,372.5C 268.111,358.947 255.278,345.447 242.5,332C 236.006,327.252 229.339,322.752 222.5,318.5C 220.598,333.969 216.098,348.636 209,362.5C 207.442,370.679 204.608,378.346 200.5,385.5C 209.522,393.023 218.689,400.357 228,407.5C 230.598,410.852 231.098,414.519 229.5,418.5C 227.636,419.993 225.47,420.66 223,420.5C 219.358,420.287 215.858,419.453 212.5,418C 200.497,412.003 189.163,405.003 178.5,397C 169.939,389.654 168.439,381.154 174,371.5C 177.557,367.975 181.39,364.809 185.5,362C 193.635,354.57 198.801,345.403 201,334.5C 202.864,326.047 204.864,317.714 207,309.5C 195.479,323.353 182.979,336.187 169.5,348C 151.974,359.262 134.974,371.262 118.5,384C 116.667,385.833 114.833,387.667 113,389.5C 105.153,405.022 94.9866,418.855 82.5,431C 76.1415,434.539 69.3081,436.039 62,435.5C 52.3939,435.289 42.8939,434.456 33.5,433C 31.9103,430.52 32.4103,428.687 35,427.5C 46.4661,428.635 57.9661,428.802 69.5,428C 72.8612,427.946 75.8612,426.946 78.5,425C 81.984,420.549 85.8173,416.382 90,412.5C 95.3333,403.167 100.667,393.833 106,384.5C 108.833,381.667 111.667,378.833 114.5,376C 121.32,370.424 128.32,365.091 135.5,360C 162.828,343.678 186.828,323.345 207.5,299C 209.441,298.257 211.274,298.424 213,299.5C 213.667,303.5 213.667,307.5 213,311.5C 208.726,323.32 205.06,335.32 202,347.5C 199.167,353.17 195.834,358.503 192,363.5C 186.667,367.5 182,372.167 178,377.5C 177.333,380.167 177.333,382.833 178,385.5C 180.128,388.63 182.628,391.463 185.5,394C 193.832,399.835 202.499,405.168 211.5,410C 215.302,412.05 219.302,413.05 223.5,413C 213.785,404.95 203.785,397.284 193.5,390C 192.106,389.044 191.439,387.711 191.5,386C 193.607,382.539 195.774,379.039 198,375.5C 200.608,363.344 204.608,351.677 210,340.5C 211.033,331.703 212.7,323.036 215,314.5C 215.608,310.539 217.774,309.039 221.5,310C 239.167,318.245 254.334,329.745 267,344.5C 276,354.833 285,365.167 294,375.5C 314.04,394.54 333.04,414.54 351,435.5C 355.841,440.05 361.341,443.217 367.5,445C 355.788,424.401 342.954,404.567 329,385.5C 312.653,365.138 292.82,349.304 269.5,338C 266.075,335.715 265.575,332.882 268,329.5C 270.833,326.667 273.667,323.833 276.5,321C 292.167,312.169 307.5,302.836 322.5,293C 347.15,272.354 368.983,249.187 388,223.5C 401.251,202.668 414.251,181.668 427,160.5C 442.27,137.556 460.104,116.723 480.5,98C 488.129,91.8561 496.129,86.3561 504.5,81.5 Z" data-index="3"></path></g>
<g><path style="opacity: 1;" fill="#f6f6f6" d="M 508.5,168.5 C 509.5,168.5 510.5,168.5 511.5,168.5C 512.758,180.201 515.592,191.534 520,202.5C 524.568,208.059 530.401,211.559 537.5,213C 541.458,215.234 544.958,218.067 548,221.5C 554.249,233.916 559.916,246.583 565,259.5C 567.618,264.451 571.284,268.451 576,271.5C 576.667,273.167 576.667,274.833 576,276.5C 575.275,277.059 574.442,277.392 573.5,277.5C 566.034,274.272 560.534,268.939 557,261.5C 552.24,249.546 546.907,237.879 541,226.5C 536.714,221.212 531.214,218.045 524.5,217C 517.738,212.905 513.238,207.072 511,199.5C 507.713,190.075 506.38,180.408 507,170.5C 507.717,169.956 508.217,169.289 508.5,168.5 Z" data-index="4"></path></g>
<g><path style="opacity: 1;" fill="#f5f5f5" d="M 517.5,235.5 C 519.655,235.372 521.655,235.872 523.5,237C 528.793,242.423 532.959,248.589 536,255.5C 533.682,286.26 544.349,311.26 568,330.5C 568.684,331.784 568.517,332.951 567.5,334C 562.067,334.623 557.4,332.956 553.5,329C 548.667,322.833 543.833,316.667 539,310.5C 536.111,305.391 533.778,300.057 532,294.5C 530.998,282.138 529.665,269.805 528,257.5C 525.35,250.865 521.684,244.865 517,239.5C 516.421,238.072 516.588,236.738 517.5,235.5 Z" data-index="5"></path></g>
<g><path style="opacity: 1;" fill="#f6f6f6" d="M 723.5,335.5 C 726.325,335.081 728.491,336.081 730,338.5C 733.529,346.754 736.862,355.087 740,363.5C 745,370.833 750,378.167 755,385.5C 758.581,389.752 762.748,393.252 767.5,396C 772.367,400.532 776.867,405.366 781,410.5C 785.214,417.24 786.381,424.406 784.5,432C 782.888,432.72 781.388,432.554 780,431.5C 777.289,425.076 774.289,418.743 771,412.5C 763.667,405.833 756.333,399.167 749,392.5C 742.167,382.838 735.834,372.838 730,362.5C 727.494,354.318 724.994,346.151 722.5,338C 722.743,337.098 723.077,336.265 723.5,335.5 Z" data-index="6"></path></g>
<g><path style="opacity: 1;" fill="#f4f4f4" d="M 229.5,350.5 C 231.308,350.491 232.975,350.991 234.5,352C 238.333,355.833 242.167,359.667 246,363.5C 251.333,372.833 256.667,382.167 262,391.5C 260.054,386.604 258.387,381.604 257,376.5C 257.949,373.8 259.783,372.967 262.5,374C 268.536,381.233 273.703,389.067 278,397.5C 280.15,403.624 282.483,409.624 285,415.5C 289.237,419.036 293.737,422.202 298.5,425C 306.352,433.351 314.018,441.851 321.5,450.5C 321.023,451.478 320.357,452.311 319.5,453C 316.199,452.176 313.199,450.51 310.5,448C 304.801,442.635 299.467,436.969 294.5,431C 288.77,427.938 283.603,424.104 279,419.5C 276.482,413.077 273.815,406.744 271,400.5C 269.695,403.306 267.528,404.14 264.5,403C 261.705,401.207 259.205,399.04 257,396.5C 251.746,387.661 246.746,378.661 242,369.5C 238,364.167 233.333,359.5 228,355.5C 227.387,353.505 227.887,351.838 229.5,350.5 Z" data-index="7"></path></g>
<g><path style="opacity: 1;" fill="#f1f1f1" d="M 458.5,353.5 C 466.961,354.314 473.461,358.314 478,365.5C 481.75,372.002 485.75,378.335 490,384.5C 494.265,387.882 499.098,390.048 504.5,391C 507.427,395.296 506.093,397.462 500.5,397.5C 493.401,396.367 487.567,393.034 483,387.5C 478.031,378.392 472.198,369.892 465.5,362C 462.238,360.571 459.071,359.071 456,357.5C 455.333,356.833 455.333,356.167 456,355.5C 456.995,354.934 457.828,354.267 458.5,353.5 Z" data-index="8"></path></g>
</svg>