<?xml version="1.0" encoding="UTF-8"?>
<!DOCTYPE svg PUBLIC "-//W3C//DTD SVG 1.1//EN" "http://www.w3.org/Graphics/SVG/1.1/DTD/svg11.dtd">
<svg xmlns="http://www.w3.org/2000/svg" version="1.1" width="518px" height="481px" style="shape-rendering:geometricPrecision; text-rendering:geometricPrecision; image-rendering:optimizeQuality; fill-rule:evenodd; clip-rule:evenodd" xmlns:xlink="http://www.w3.org/1999/xlink">
<g><path style="opacity:0.976" fill="#e9e9e9" d="M 109.5,65.5 C 112.505,67.2766 115.838,68.2766 119.5,68.5C 128.819,70.1534 136.152,74.8201 141.5,82.5C 141.427,84.0269 142.094,85.0269 143.5,85.5C 144.524,88.9635 145.191,92.6302 145.5,96.5C 145.769,107.983 143.769,118.983 139.5,129.5C 137.75,130.659 136.75,132.326 136.5,134.5C 134.271,139.78 130.937,144.28 126.5,148C 120.897,152.297 114.897,155.797 108.5,158.5C 102.819,158.635 97.1523,158.968 91.5,159.5C 90.391,159.443 89.391,159.11 88.5,158.5C 82.3778,158.236 76.7112,156.569 71.5,153.5C 71.0269,152.094 70.0269,151.427 68.5,151.5C 59.531,146.347 53.6977,138.68 51,128.5C 48.2739,115.22 49.7739,102.553 55.5,90.5C 56.9063,90.0269 57.573,89.0269 57.5,87.5C 57.7959,85.597 58.4625,83.9303 59.5,82.5C 61.0481,82.1788 61.7148,81.1788 61.5,79.5C 62.5,79.1667 63.1667,78.5 63.5,77.5C 65.5,76.1667 67.1667,74.5 68.5,72.5C 70.3407,71.5977 71.674,70.2644 72.5,68.5C 74.0495,67.5592 75.7162,66.8925 77.5,66.5C 79.5529,66.5979 81.2196,65.9313 82.5,64.5C 86.1515,63.8345 89.9848,63.5012 94,63.5C 99.4324,63.2814 104.599,63.9481 109.5,65.5 Z M 118.5,81.5 C 119.514,82.6737 120.847,83.3404 122.5,83.5C 127.871,85.3716 131.371,89.0383 133,94.5C 134.097,103.706 133.263,112.706 130.5,121.5C 129.326,122.514 128.66,123.847 128.5,125.5C 118.709,145.223 103.042,152.223 81.5,146.5C 79.8185,144.992 77.8185,143.992 75.5,143.5C 70.1667,140.167 65.8333,135.833 62.5,130.5C 62.3404,128.847 61.6737,127.514 60.5,126.5C 57.2188,82.153 76.5521,67.153 118.5,81.5 Z"/></g>
<g><path style="opacity:0.212" fill="#585858" d="M 82.5,64.5 C 81.2196,65.9313 79.5529,66.5979 77.5,66.5C 78.7804,65.0687 80.4471,64.4021 82.5,64.5 Z"/></g>
<g><path style="opacity:0.412" fill="#858585" d="M 109.5,65.5 C 113.162,65.7234 116.495,66.7234 119.5,68.5C 115.838,68.2766 112.505,67.2766 109.5,65.5 Z"/></g>
<g><path style="opacity:0.247" fill="#5a5a5a" d="M 72.5,68.5 C 71.674,70.2644 70.3407,71.5977 68.5,72.5C 68.894,70.2901 70.2273,68.9568 72.5,68.5 Z"/></g>
<g><path style="opacity:0.384" fill="#5f5f5f" d="M 68.5,72.5 C 67.1667,74.5 65.5,76.1667 63.5,77.5C 64.1667,74.8333 65.8333,73.1667 68.5,72.5 Z"/></g>
<g><path style="opacity:0.584" fill="#6e6e6e" d="M 61.5,79.5 C 61.7148,81.1788 61.0481,82.1788 59.5,82.5C 59.9321,81.2905 60.5987,80.2905 61.5,79.5 Z"/></g>
<g><path style="opacity:0.09" fill="#404040" d="M 118.5,81.5 C 120.38,81.2291 121.713,81.8958 122.5,83.5C 120.847,83.3404 119.514,82.6737 118.5,81.5 Z"/></g>
<g><path style="opacity:0.094" fill="#393939" d="M 141.5,82.5 C 142.906,82.9731 143.573,83.9731 143.5,85.5C 142.094,85.0269 141.427,84.0269 141.5,82.5 Z"/></g>
<g><path style="opacity:0.212" fill="#5a5a5a" d="M 57.5,87.5 C 57.573,89.0269 56.9063,90.0269 55.5,90.5C 55.427,88.9731 56.0937,87.9731 57.5,87.5 Z"/></g>
<g><path style="opacity:0.974" fill="#e9e9e9" d="M 384.5,118.5 C 385.659,120.25 387.326,121.25 389.5,121.5C 392.432,122.8 394.766,124.8 396.5,127.5C 396.427,129.027 397.094,130.027 398.5,130.5C 401.053,134.025 402.386,138.025 402.5,142.5C 401.449,150.43 399.783,158.097 397.5,165.5C 396.069,166.78 395.402,168.447 395.5,170.5C 394.492,172.544 393.492,174.544 392.5,176.5C 391.094,176.973 390.427,177.973 390.5,179.5C 379.167,195.997 363.5,202.997 343.5,200.5C 337.365,198.267 331.698,195.267 326.5,191.5C 326.027,190.094 325.027,189.427 323.5,189.5C 317.52,184.889 313.52,178.889 311.5,171.5C 310.222,163.837 310.222,156.171 311.5,148.5C 312.086,142.329 314.086,136.662 317.5,131.5C 318.906,131.027 319.573,130.027 319.5,128.5C 321.817,124.854 324.484,121.52 327.5,118.5C 330.516,117.727 332.85,116.061 334.5,113.5C 341.569,109.32 349.235,107.82 357.5,109C 366.928,111.086 375.928,114.253 384.5,118.5 Z M 347.5,120.5 C 353.895,121.258 360.228,122.425 366.5,124C 371.765,126.801 377.099,129.301 382.5,131.5C 382.973,132.906 383.973,133.573 385.5,133.5C 387.978,136.344 389.645,139.677 390.5,143.5C 390.288,162.096 382.622,176.596 367.5,187C 364.621,187.546 361.954,188.379 359.5,189.5C 354.13,189.608 348.797,189.275 343.5,188.5C 340.029,187.774 336.696,186.44 333.5,184.5C 333.027,183.094 332.027,182.427 330.5,182.5C 329.5,182.167 328.833,181.5 328.5,180.5C 327.833,179.167 326.833,178.167 325.5,177.5C 324.5,177.167 323.833,176.5 323.5,175.5C 323.573,173.973 322.906,172.973 321.5,172.5C 320.179,168.243 319.179,163.91 318.5,159.5C 319.623,154.65 320.623,149.65 321.5,144.5C 322.674,143.486 323.34,142.153 323.5,140.5C 324.795,136.577 326.628,132.91 329,129.5C 331.933,126.212 335.433,123.878 339.5,122.5C 342.373,122.198 345.039,121.531 347.5,120.5 Z"/></g>
<g><path style="opacity:0.341" fill="#8e8e8e" d="M 334.5,113.5 C 332.85,116.061 330.516,117.727 327.5,118.5C 329.296,116.1 331.63,114.433 334.5,113.5 Z"/></g>
<g><path style="opacity:0.137" fill="#3d3d3d" d="M 384.5,118.5 C 386.674,118.75 388.341,119.75 389.5,121.5C 387.326,121.25 385.659,120.25 384.5,118.5 Z"/></g>
<g><path style="opacity:0.268" fill="#757575" d="M 347.5,120.5 C 345.039,121.531 342.373,122.198 339.5,122.5C 341.78,120.777 344.447,120.111 347.5,120.5 Z"/></g>
<g><path style="opacity:0.02" fill="#202020" d="M 130.5,121.5 C 130.771,123.38 130.104,124.713 128.5,125.5C 128.66,123.847 129.326,122.514 130.5,121.5 Z"/></g>
<g><path style="opacity:0.972" fill="#e5e5e5" d="M 263.5,123.5 C 265.214,124.738 267.214,125.405 269.5,125.5C 276.461,130.089 280.961,136.422 283,144.5C 283.667,155.5 283.667,166.5 283,177.5C 281.115,181.923 279.281,186.256 277.5,190.5C 276.094,190.973 275.427,191.973 275.5,193.5C 270.861,203.804 263.528,211.471 253.5,216.5C 252.5,216.833 251.833,217.5 251.5,218.5C 244.188,226.146 236.855,233.813 229.5,241.5C 227.579,242.641 225.579,242.808 223.5,242C 220.246,239.253 217.58,236.086 215.5,232.5C 215.167,231.5 214.5,230.833 213.5,230.5C 205.271,224.778 197.771,218.111 191,210.5C 189.156,207.472 187.322,204.472 185.5,201.5C 185.715,199.821 185.048,198.821 183.5,198.5C 182.559,196.95 181.893,195.284 181.5,193.5C 181.573,191.973 180.906,190.973 179.5,190.5C 178.264,188.351 177.264,186.018 176.5,183.5C 176.573,181.973 175.906,180.973 174.5,180.5C 173.729,177.546 173.062,174.546 172.5,171.5C 171.771,166.87 171.437,162.203 171.5,157.5C 170.975,146.886 174.975,138.552 183.5,132.5C 185.749,131.92 187.415,130.587 188.5,128.5C 202.848,124.168 215.014,127.502 225,138.5C 227.306,134.627 230.14,131.127 233.5,128C 243.094,123.473 253.094,121.973 263.5,123.5 Z M 272.5,177.5 C 271.264,179.649 270.264,181.982 269.5,184.5C 267.234,188.458 264.901,192.458 262.5,196.5C 260.413,197.585 259.08,199.251 258.5,201.5C 247.849,208.485 238.849,217.151 231.5,227.5C 229.806,228.527 228.473,229.861 227.5,231.5C 222.874,227.51 218.207,223.51 213.5,219.5C 213.5,218.167 212.833,217.5 211.5,217.5C 210.833,216.167 209.833,215.167 208.5,214.5C 208.5,213.167 207.833,212.5 206.5,212.5C 202.525,206.851 198.525,201.185 194.5,195.5C 194.573,193.973 193.906,192.973 192.5,192.5C 191.147,189.795 189.814,187.128 188.5,184.5C 188.573,182.973 187.906,181.973 186.5,181.5C 185.488,178.743 184.488,176.076 183.5,173.5C 183.435,170.572 182.768,167.905 181.5,165.5C 180.551,156.037 183.051,147.703 189,140.5C 194.493,136.505 200.659,134.838 207.5,135.5C 208.78,136.931 210.447,137.598 212.5,137.5C 216.358,140.845 219.525,144.845 222,149.5C 227.079,153.016 229.746,151.683 230,145.5C 235.399,137.929 242.566,132.929 251.5,130.5C 253.996,131.53 256.163,130.863 258,128.5C 260.441,130.969 263.274,132.802 266.5,134C 269.835,138.01 272.335,142.51 274,147.5C 274.777,157.574 274.277,167.574 272.5,177.5 Z M 228.5,210.5 C 226.845,202.383 225.845,194.05 225.5,185.5C 225.5,184.5 225.5,183.5 225.5,182.5C 224.5,182.5 223.5,182.5 222.5,182.5C 217.706,183.097 213.373,182.43 209.5,180.5C 211.167,180.5 212.833,180.5 214.5,180.5C 214.735,181.097 215.235,181.43 216,181.5C 218.669,180.984 221.169,180.317 223.5,179.5C 224.488,174.36 224.821,169.026 224.5,163.5C 225.833,163.5 227.167,163.5 228.5,163.5C 228.5,168.833 228.5,174.167 228.5,179.5C 234.44,179.88 240.44,180.046 246.5,180C 240.528,181.089 234.528,181.923 228.5,182.5C 228.5,191.833 228.5,201.167 228.5,210.5 Z"/></g>
<g><path style="opacity:0.141" fill="#393939" d="M 263.5,123.5 C 265.898,123.259 267.898,123.926 269.5,125.5C 267.214,125.405 265.214,124.738 263.5,123.5 Z"/></g>
<g><path style="opacity:0.294" fill="#414141" d="M 396.5,127.5 C 397.906,127.973 398.573,128.973 398.5,130.5C 397.094,130.027 396.427,129.027 396.5,127.5 Z"/></g>
<g><path style="opacity:0.224" fill="#666666" d="M 60.5,126.5 C 61.6737,127.514 62.3404,128.847 62.5,130.5C 60.8958,129.713 60.2291,128.38 60.5,126.5 Z"/></g>
<g><path style="opacity:0.259" fill="#414141" d="M 319.5,128.5 C 319.573,130.027 318.906,131.027 317.5,131.5C 317.427,129.973 318.094,128.973 319.5,128.5 Z"/></g>
<g><path style="opacity:0.106" fill="#3e3e3e" d="M 139.5,129.5 C 139.25,131.674 138.25,133.341 136.5,134.5C 136.75,132.326 137.75,130.659 139.5,129.5 Z"/></g>
<g><path style="opacity:0.518" fill="#777777" d="M 188.5,128.5 C 187.415,130.587 185.749,131.92 183.5,132.5C 184.585,130.413 186.251,129.08 188.5,128.5 Z"/></g>
<g><path style="opacity:0.325" fill="#565656" d="M 382.5,131.5 C 384.027,131.427 385.027,132.094 385.5,133.5C 383.973,133.573 382.973,132.906 382.5,131.5 Z"/></g>
<g><path style="opacity:0.078" fill="#515151" d="M 207.5,135.5 C 209.553,135.402 211.22,136.069 212.5,137.5C 210.447,137.598 208.78,136.931 207.5,135.5 Z"/></g>
<g><path style="opacity:0.173" fill="#424242" d="M 323.5,140.5 C 323.34,142.153 322.674,143.486 321.5,144.5C 321.229,142.62 321.896,141.287 323.5,140.5 Z"/></g>
<g><path style="opacity:0.125" fill="#4c4c4c" d="M 75.5,143.5 C 77.8185,143.992 79.8185,144.992 81.5,146.5C 78.911,146.539 76.911,145.539 75.5,143.5 Z"/></g>
<g><path style="opacity:0.071" fill="#323232" d="M 68.5,151.5 C 70.0269,151.427 71.0269,152.094 71.5,153.5C 69.9731,153.573 68.9731,152.906 68.5,151.5 Z"/></g>
<g><path style="opacity:0.578" fill="#a8a8a8" d="M 321.5,144.5 C 320.623,149.65 319.623,154.65 318.5,159.5C 318.124,154.106 319.124,149.106 321.5,144.5 Z"/></g>
<g><path style="opacity:0.949" fill="#e2e2e2" d="M 228.5,153.5 C 230.792,153.244 232.959,153.577 235,154.5C 235.498,157.817 235.665,161.15 235.5,164.5C 235.5,167.167 235.5,169.833 235.5,172.5C 241.271,171.887 246.604,172.554 251.5,174.5C 251.833,177.833 252.167,181.167 252.5,184.5C 251.942,185.79 250.942,186.623 249.5,187C 245.249,188.195 240.915,188.695 236.5,188.5C 237.49,198.13 236.823,207.63 234.5,217C 232.284,216.637 230.118,216.804 228,217.5C 225.774,217.022 223.608,216.355 221.5,215.5C 220.538,208.892 220.205,202.226 220.5,195.5C 220.5,192.833 220.5,190.167 220.5,187.5C 217.941,187.198 215.607,187.532 213.5,188.5C 210.223,188.784 207.057,188.451 204,187.5C 203.501,183.848 203.335,180.182 203.5,176.5C 208.692,175.034 214.025,174.367 219.5,174.5C 219.806,171.615 219.473,168.948 218.5,166.5C 218.335,163.15 218.502,159.817 219,156.5C 222.005,154.998 225.171,153.998 228.5,153.5 Z M 228.5,210.5 C 226.845,202.383 225.845,194.05 225.5,185.5C 225.5,184.5 225.5,183.5 225.5,182.5C 224.5,182.5 223.5,182.5 222.5,182.5C 217.706,183.097 213.373,182.43 209.5,180.5C 211.167,180.5 212.833,180.5 214.5,180.5C 214.735,181.097 215.235,181.43 216,181.5C 218.669,180.984 221.169,180.317 223.5,179.5C 224.488,174.36 224.821,169.026 224.5,163.5C 225.833,163.5 227.167,163.5 228.5,163.5C 228.5,168.833 228.5,174.167 228.5,179.5C 234.44,179.88 240.44,180.046 246.5,180C 240.528,181.089 234.528,181.923 228.5,182.5C 228.5,191.833 228.5,201.167 228.5,210.5 Z"/></g>
<g><path style="opacity:0.209" fill="#5d5d5d" d="M 311.5,148.5 C 310.222,156.171 310.222,163.837 311.5,171.5C 308.88,163.842 308.88,156.176 311.5,148.5 Z"/></g>
<g><path style="opacity:0.134" fill="#757575" d="M 228.5,153.5 C 230.895,152.186 233.395,152.186 236,153.5C 236.81,157.358 236.643,161.024 235.5,164.5C 235.665,161.15 235.498,157.817 235,154.5C 232.959,153.577 230.792,153.244 228.5,153.5 Z"/></g>
<g><path style="opacity:0.043" fill="#4c4c4c" d="M 88.5,158.5 C 89.391,159.11 90.391,159.443 91.5,159.5C 90.0527,160.885 89.0527,160.552 88.5,158.5 Z"/></g>
<g><path style="opacity:0.973" fill="#e9e9e9" d="M 108.5,158.5 C 111.518,158.335 114.518,158.502 117.5,159C 118.701,159.903 119.535,161.069 120,162.5C 123.479,180.998 125.312,199.665 125.5,218.5C 127.735,218.205 129.735,218.539 131.5,219.5C 135.693,220.283 140.027,220.949 144.5,221.5C 146.861,221.674 149.194,222.007 151.5,222.5C 152.167,223.833 153.167,224.833 154.5,225.5C 157.629,228.595 158.295,232.261 156.5,236.5C 156.738,238.404 157.738,239.738 159.5,240.5C 164.024,246.796 162.69,251.463 155.5,254.5C 153.181,254.992 151.181,255.992 149.5,257.5C 147.784,257.629 146.117,257.962 144.5,258.5C 138.559,259.413 132.559,259.746 126.5,259.5C 125.081,258.549 123.415,258.216 121.5,258.5C 121.5,259.833 121.5,261.167 121.5,262.5C 120.822,268.912 118.489,274.579 114.5,279.5C 113.094,279.973 112.427,280.973 112.5,282.5C 108.548,288.728 103.881,294.394 98.5,299.5C 99.2823,305.879 100.282,312.213 101.5,318.5C 101.882,323.744 102.882,328.744 104.5,333.5C 105.686,339.1 106.353,344.767 106.5,350.5C 106.184,356.75 106.85,362.75 108.5,368.5C 109.802,373.933 109.802,379.266 108.5,384.5C 107.5,384.833 106.833,385.5 106.5,386.5C 105.833,387.5 105.167,388.5 104.5,389.5C 103.167,389.5 102.5,390.167 102.5,391.5C 101.5,392.167 100.5,392.833 99.5,393.5C 97.9731,393.427 96.9731,394.094 96.5,395.5C 91.0056,397.177 86.1722,395.843 82,391.5C 79.0549,395.232 75.5549,398.399 71.5,401C 67.2353,402.245 63.902,401.078 61.5,397.5C 61.0075,395.181 60.0075,393.181 58.5,391.5C 56.0158,389.88 54.5158,387.547 54,384.5C 53.1728,370.66 53.3395,356.994 54.5,343.5C 56.0538,339.433 56.7204,335.1 56.5,330.5C 57.3691,320.659 59.7024,311.159 63.5,302C 61.5865,295.342 59.2531,288.842 56.5,282.5C 56.7709,280.62 56.1042,279.287 54.5,278.5C 49.5514,264.76 48.218,250.76 50.5,236.5C 51.7286,230.669 52.7286,224.669 53.5,218.5C 54.1788,210.778 55.3455,203.111 57,195.5C 60.6005,187.031 63.6005,178.365 66,169.5C 67.4585,167.568 68.6252,165.568 69.5,163.5C 73.1667,162.833 76.8333,162.167 80.5,161.5C 87.0828,163.114 93.7495,163.614 100.5,163C 103.359,161.74 106.026,160.24 108.5,158.5 Z M 105.5,171.5 C 106.93,171.579 108.264,171.246 109.5,170.5C 110.298,170.957 110.631,171.624 110.5,172.5C 110.276,183.356 111.11,194.356 113,205.5C 113.5,214.16 113.666,222.827 113.5,231.5C 112.5,231.5 111.5,231.5 110.5,231.5C 107.713,230.523 104.713,230.19 101.5,230.5C 101.817,226.298 101.483,222.298 100.5,218.5C 100.795,216.265 100.461,214.265 99.5,212.5C 97.9873,209.073 95.9873,208.739 93.5,211.5C 92.3656,219.755 92.199,228.088 93,236.5C 94.008,238.259 95.508,239.426 97.5,240C 114.578,239.977 131.578,240.81 148.5,242.5C 148.5,243.5 148.5,244.5 148.5,245.5C 146.035,245.767 143.701,246.434 141.5,247.5C 139.5,247.5 138.5,248.5 138.5,250.5C 133.296,250.298 128.129,250.631 123,251.5C 112.009,248.649 100.843,246.815 89.5,246C 87.1136,244.807 84.7802,243.64 82.5,242.5C 83.4647,232.336 83.4647,222.336 82.5,212.5C 82.5858,211.504 82.2524,210.671 81.5,210C 79.9343,209.235 78.6009,209.402 77.5,210.5C 76.3263,211.514 75.6596,212.847 75.5,214.5C 72.4178,224.918 71.2511,235.584 72,246.5C 72.7172,247.044 73.2172,247.711 73.5,248.5C 73.9731,249.906 74.9731,250.573 76.5,250.5C 78.6794,251.677 81.0128,252.677 83.5,253.5C 88.061,256.018 93.061,257.018 98.5,256.5C 101.305,257.319 104.305,257.819 107.5,258C 108.516,258.519 109.182,259.353 109.5,260.5C 109.039,264.83 107.705,268.83 105.5,272.5C 104.094,272.973 103.427,273.973 103.5,275.5C 103.5,275.833 103.5,276.167 103.5,276.5C 101.184,277.422 99.517,279.089 98.5,281.5C 95.4575,285.544 91.7908,288.877 87.5,291.5C 83.7159,293.316 79.7159,294.316 75.5,294.5C 73.7094,291.679 71.2094,289.679 68,288.5C 62.988,278.786 60.3213,268.452 60,257.5C 59.5003,249.841 59.3336,242.174 59.5,234.5C 60.6006,228.982 61.6006,223.315 62.5,217.5C 63.8299,211.608 65.1633,205.608 66.5,199.5C 67.6737,198.486 68.3404,197.153 68.5,195.5C 71.3292,188.498 73.4959,181.165 75,173.5C 76,172.167 77,170.833 78,169.5C 80.6549,171.053 83.4883,172.22 86.5,173C 92.1667,173.667 97.8333,173.667 103.5,173C 104.416,172.722 105.082,172.222 105.5,171.5 Z M 141.5,228.5 C 142.5,229.167 143.5,229.833 144.5,230.5C 138.402,229.883 132.735,230.55 127.5,232.5C 125.896,231.713 125.229,230.38 125.5,228.5C 130.833,228.5 136.167,228.5 141.5,228.5 Z M 87.5,303.5 C 88.9311,303.881 89.7645,304.881 90,306.5C 91.4162,315.992 92.9162,325.325 94.5,334.5C 94.4299,338.425 95.0966,342.091 96.5,345.5C 97.6654,356.813 98.1654,368.147 98,379.5C 96.0266,380.64 94.1933,381.973 92.5,383.5C 91.1401,382.82 89.8068,382.153 88.5,381.5C 87.8902,380.609 87.5569,379.609 87.5,378.5C 88.3019,377.048 88.8019,375.382 89,373.5C 89.8293,352.663 89.6626,331.996 88.5,311.5C 88.1667,308.833 87.8333,306.167 87.5,303.5 Z M 73.5,304.5 C 75.3736,305.285 77.3736,305.952 79.5,306.5C 81.0399,330.598 80.2066,354.598 77,378.5C 74,381.5 71,384.5 68,387.5C 66.8549,386.364 65.6883,385.364 64.5,384.5C 64.3404,382.847 63.6737,381.514 62.5,380.5C 61.3525,359.678 62.6858,339.011 66.5,318.5C 67.9313,317.22 68.5979,315.553 68.5,313.5C 69.475,310.689 70.1417,307.689 70.5,304.5C 71.5,304.5 72.5,304.5 73.5,304.5 Z"/></g>
<g><path style="opacity:0.132" fill="#6a6a6a" d="M 171.5,157.5 C 171.437,162.203 171.771,166.87 172.5,171.5C 171.027,168.983 170.36,166.15 170.5,163C 170.506,160.967 170.839,159.134 171.5,157.5 Z"/></g>
<g><path style="opacity:0.6" fill="#8b8b8b" d="M 80.5,161.5 C 76.8333,162.167 73.1667,162.833 69.5,163.5C 71.1585,162.819 72.8251,161.985 74.5,161C 76.7116,160.211 78.7116,160.378 80.5,161.5 Z"/></g>
<g><path style="opacity:0.192" fill="#565656" d="M 397.5,165.5 C 397.598,167.553 396.931,169.22 395.5,170.5C 395.402,168.447 396.069,166.78 397.5,165.5 Z"/></g>
<g><path style="opacity:0.357" fill="#6d6d6d" d="M 110.5,172.5 C 110.631,171.624 110.298,170.957 109.5,170.5C 108.264,171.246 106.93,171.579 105.5,171.5C 107.102,169.926 109.102,169.259 111.5,169.5C 111.737,170.791 111.404,171.791 110.5,172.5 Z"/></g>
<g><path style="opacity:0.049" fill="#4a4a4a" d="M 181.5,165.5 C 182.768,167.905 183.435,170.572 183.5,173.5C 181.96,171.162 181.294,168.495 181.5,165.5 Z"/></g>
<g><path style="opacity:0.191" fill="#6c6c6c" d="M 484.5,170.5 C 479.138,170.472 473.805,170.806 468.5,171.5C 471.55,170.065 474.883,169.398 478.5,169.5C 480.696,169.505 482.696,169.838 484.5,170.5 Z"/></g>
<g><path style="opacity:0.969" fill="#e8e8e8" d="M 484.5,170.5 C 490.93,172.362 492.763,176.362 490,182.5C 484.425,189.208 477.258,193.208 468.5,194.5C 466.447,194.402 464.78,195.069 463.5,196.5C 463.158,197.338 462.492,197.672 461.5,197.5C 458.607,197.031 456.607,198.031 455.5,200.5C 455.167,200.5 454.833,200.5 454.5,200.5C 453.417,200.539 452.417,200.873 451.5,201.5C 450.534,203.396 450.201,205.396 450.5,207.5C 450.737,223.778 449.404,239.778 446.5,255.5C 445.087,258.219 444.42,261.219 444.5,264.5C 444.028,269.567 443.361,274.567 442.5,279.5C 441.028,283.919 440.362,288.586 440.5,293.5C 438.823,300.596 438.157,307.929 438.5,315.5C 438.334,320.844 438.501,326.177 439,331.5C 447.629,339.885 450.463,349.885 447.5,361.5C 446.076,363.515 445.41,365.848 445.5,368.5C 444.613,372.419 443.279,376.085 441.5,379.5C 440.094,379.973 439.427,380.973 439.5,382.5C 439.5,383.167 439.167,383.5 438.5,383.5C 437.094,383.973 436.427,384.973 436.5,386.5C 433.096,389.868 429.096,392.201 424.5,393.5C 422.326,393.75 420.659,394.75 419.5,396.5C 418.292,397.234 416.959,397.567 415.5,397.5C 413.214,397.595 411.214,398.262 409.5,399.5C 396.063,402.687 382.397,403.187 368.5,401C 365.617,399.729 362.95,398.229 360.5,396.5C 360.5,394.5 359.5,393.5 357.5,393.5C 357.167,392.833 356.833,392.167 356.5,391.5C 356.144,389.81 355.144,388.81 353.5,388.5C 352.452,386.067 351.786,386.067 351.5,388.5C 349.664,390.588 347.331,391.921 344.5,392.5C 342.326,392.75 340.659,393.75 339.5,395.5C 330.993,399.17 324.827,396.837 321,388.5C 319.662,391.019 317.496,392.353 314.5,392.5C 300.019,388.142 294.519,378.475 298,363.5C 303.51,346.447 307.01,329.114 308.5,311.5C 309.738,309.786 310.405,307.786 310.5,305.5C 310.75,303.326 311.75,301.659 313.5,300.5C 315.795,299.864 317.461,298.531 318.5,296.5C 321.402,295.422 324.402,294.756 327.5,294.5C 329.786,294.405 331.786,293.738 333.5,292.5C 337.313,291.213 341.313,290.213 345.5,289.5C 349.078,289.451 352.411,288.785 355.5,287.5C 358.079,286.772 360.746,286.272 363.5,286C 364.428,285.612 365.095,284.945 365.5,284C 363.891,281.915 362.558,279.749 361.5,277.5C 361.715,275.821 361.048,274.821 359.5,274.5C 348.874,277.012 338.041,278.345 327,278.5C 317.355,279.607 311.189,275.607 308.5,266.5C 309.199,262.101 311.199,258.435 314.5,255.5C 313.265,253.684 313.265,252.017 314.5,250.5C 315.906,250.027 316.573,249.027 316.5,247.5C 325.82,244.01 335.486,241.843 345.5,241C 343.327,233.148 340.993,225.314 338.5,217.5C 338.543,216.584 338.876,215.917 339.5,215.5C 340.906,215.027 341.573,214.027 341.5,212.5C 342.167,212.5 342.833,212.5 343.5,212.5C 344.167,212.5 344.833,212.5 345.5,212.5C 345.027,211.094 344.027,210.427 342.5,210.5C 342.167,209.833 341.833,209.167 341.5,208.5C 340.477,206.423 340.81,204.423 342.5,202.5C 343.791,202.263 344.791,202.596 345.5,203.5C 346.3,205.741 347.966,206.741 350.5,206.5C 358.588,208.699 365.921,207.366 372.5,202.5C 375.167,201.833 376.833,200.167 377.5,197.5C 379.997,196.871 381.33,195.204 381.5,192.5C 381.833,192.5 382.167,192.5 382.5,192.5C 385.172,190.61 387.838,188.943 390.5,187.5C 392.389,186.258 394.389,186.258 396.5,187.5C 396.833,188.5 397.5,189.167 398.5,189.5C 400.144,189.81 401.144,190.81 401.5,192.5C 401.833,193.5 402.5,194.167 403.5,194.5C 404.488,195.795 405.488,197.128 406.5,198.5C 406.427,200.027 407.094,201.027 408.5,201.5C 410.887,203.913 413.054,206.58 415,209.5C 418.69,218.207 422.357,226.874 426,235.5C 427.764,218.885 428.764,202.218 429,185.5C 430.402,177.829 434.902,175.329 442.5,178C 443.416,178.278 444.082,178.778 444.5,179.5C 444.427,181.027 445.094,182.027 446.5,182.5C 449.833,180.167 453.167,177.833 456.5,175.5C 458.027,175.573 459.027,174.906 459.5,173.5C 462.37,172.366 465.37,171.7 468.5,171.5C 473.805,170.806 479.138,170.472 484.5,170.5 Z M 473.5,178.5 C 475.735,178.205 477.735,178.539 479.5,179.5C 477.999,180.752 476.332,181.752 474.5,182.5C 472.973,182.427 471.973,183.094 471.5,184.5C 463.882,185.775 457.048,188.775 451,193.5C 450.308,192.975 449.808,192.308 449.5,191.5C 453.37,189.73 456.703,187.23 459.5,184C 463.863,181.316 468.53,179.482 473.5,178.5 Z M 441.5,189.5 C 442.585,201.807 442.752,214.141 442,226.5C 440.28,237.486 438.78,248.486 437.5,259.5C 435.74,263.547 434.74,267.88 434.5,272.5C 434.167,272.5 433.833,272.5 433.5,272.5C 433.101,268.989 432.434,265.656 431.5,262.5C 431.829,259.772 431.163,257.438 429.5,255.5C 429.579,254.07 429.246,252.736 428.5,251.5C 429.76,250.618 430.926,249.618 432,248.5C 435.215,228.631 436.715,208.631 436.5,188.5C 437.29,187.391 437.79,186.058 438,184.5C 439.189,186.233 440.356,187.9 441.5,189.5 Z M 393.5,199.5 C 394.026,201.23 395.026,202.564 396.5,203.5C 398.898,206.571 400.898,209.905 402.5,213.5C 403.026,215.23 404.026,216.564 405.5,217.5C 407.237,224.71 409.57,231.71 412.5,238.5C 412.229,240.38 412.896,241.713 414.5,242.5C 416.558,251.171 418.725,259.838 421,268.5C 421.667,273.833 421.667,279.167 421,284.5C 411.491,292.175 400.657,295.675 388.5,295C 386.975,293.991 385.308,293.491 383.5,293.5C 383.027,292.094 382.027,291.427 380.5,291.5C 379.272,290.694 378.272,289.694 377.5,288.5C 377.573,286.973 376.906,285.973 375.5,285.5C 374.021,281.259 372.687,276.925 371.5,272.5C 373.527,272.662 375.527,272.495 377.5,272C 382.272,269.41 387.272,267.41 392.5,266C 394.043,264.122 395.876,262.622 398,261.5C 398.655,259.372 399.489,257.372 400.5,255.5C 402.157,252.911 402.491,250.244 401.5,247.5C 400.925,241.54 399.592,235.874 397.5,230.5C 397.573,228.973 396.906,227.973 395.5,227.5C 393.442,225.025 391.442,225.025 389.5,227.5C 391.563,231.742 392.896,236.076 393.5,240.5C 393.658,243.902 393.324,247.236 392.5,250.5C 392.822,252.722 392.155,254.556 390.5,256C 385.056,258.179 379.722,260.346 374.5,262.5C 370.922,262.549 367.589,263.215 364.5,264.5C 356.683,265.694 349.017,267.028 341.5,268.5C 336.924,268.438 332.591,269.105 328.5,270.5C 325.432,269.978 322.432,269.145 319.5,268C 318.167,266.667 318.167,265.333 319.5,264C 321.813,263.338 324.146,262.838 326.5,262.5C 331.028,262.23 335.361,261.563 339.5,260.5C 345.74,259.68 351.74,258.347 357.5,256.5C 360.428,256.435 363.095,255.768 365.5,254.5C 369.979,254.464 374.312,253.631 378.5,252C 379.71,250.961 380.71,249.794 381.5,248.5C 383.026,247.508 383.693,246.008 383.5,244C 383.486,242.615 383.152,241.449 382.5,240.5C 381.489,238.628 380.655,236.628 380,234.5C 378.653,232.534 377.153,232.201 375.5,233.5C 374.167,233.5 373.5,234.167 373.5,235.5C 372.903,235.735 372.57,236.235 372.5,237C 373.422,239.505 373.922,242.005 374,244.5C 371.318,246.329 368.484,247.663 365.5,248.5C 363.194,248.993 360.861,249.326 358.5,249.5C 356.343,243.204 354.343,236.871 352.5,230.5C 352.598,228.447 351.931,226.78 350.5,225.5C 350.037,222.779 349.371,220.112 348.5,217.5C 348.263,216.209 348.596,215.209 349.5,214.5C 363.39,218.37 374.89,214.703 384,203.5C 385.62,199.918 387.953,196.918 391,194.5C 391.847,196.193 392.68,197.86 393.5,199.5 Z M 348.5,250.5 C 345.947,251.255 343.28,251.922 340.5,252.5C 338.585,252.784 336.919,252.451 335.5,251.5C 339.785,250.705 344.119,250.372 348.5,250.5 Z M 333.5,312.5 C 330.703,312.967 329.369,314.633 329.5,317.5C 328.262,319.214 327.595,321.214 327.5,323.5C 327.5,325.833 327.5,328.167 327.5,330.5C 326.111,335.269 325.444,340.269 325.5,345.5C 324.691,347.028 324.024,348.694 323.5,350.5C 322.695,358.773 322.028,367.107 321.5,375.5C 320.197,377.142 318.864,378.809 317.5,380.5C 315.565,381.15 313.565,381.483 311.5,381.5C 310.5,380.833 309.5,380.167 308.5,379.5C 308.204,377.597 307.537,375.93 306.5,374.5C 307.051,371.193 307.384,367.86 307.5,364.5C 308.49,360.614 309.49,356.614 310.5,352.5C 311.931,351.22 312.598,349.553 312.5,347.5C 314.916,337.786 316.249,327.786 316.5,317.5C 317.475,314.689 318.142,311.689 318.5,308.5C 320.095,305.74 322.428,303.907 325.5,303C 330.157,302.588 334.491,301.421 338.5,299.5C 341.152,299.59 343.485,298.924 345.5,297.5C 350.1,297.72 354.433,297.054 358.5,295.5C 360.898,295.741 362.898,295.074 364.5,293.5C 365.822,293.67 366.989,293.337 368,292.5C 370.518,294.682 371.685,297.182 371.5,300C 362.849,302.33 354.183,304.663 345.5,307C 341.152,308.379 337.152,310.213 333.5,312.5 Z M 421.5,300.5 C 420.172,302.793 418.839,305.127 417.5,307.5C 412.638,311.099 407.305,313.933 401.5,316C 389.614,316.002 377.948,316.835 366.5,318.5C 364.102,318.259 362.102,318.926 360.5,320.5C 353.803,323.213 350.803,328.213 351.5,335.5C 349.896,336.287 349.229,337.62 349.5,339.5C 347.982,343.566 347.149,347.899 347,352.5C 346.5,360.493 346.334,368.493 346.5,376.5C 345.197,378.142 343.864,379.809 342.5,381.5C 339.2,383.108 335.867,384.775 332.5,386.5C 330.337,384.353 329.337,381.686 329.5,378.5C 330.243,372.3 330.91,365.966 331.5,359.5C 332.611,350.981 333.611,342.315 334.5,333.5C 335.924,331.485 336.59,329.152 336.5,326.5C 337.748,323.516 339.415,320.682 341.5,318C 351.086,315.616 360.753,313.616 370.5,312C 375.689,309.461 380.855,306.961 386,304.5C 398.587,307.616 410.087,305.282 420.5,297.5C 421.386,298.325 421.719,299.325 421.5,300.5 Z M 435.5,364.5 C 434.069,365.78 433.402,367.447 433.5,369.5C 432.007,374.319 429.34,378.319 425.5,381.5C 423.973,381.427 422.973,382.094 422.5,383.5C 419.828,384.501 417.162,385.501 414.5,386.5C 412.847,386.66 411.514,387.326 410.5,388.5C 401.659,389.71 392.826,391.043 384,392.5C 378.729,391.82 373.562,390.82 368.5,389.5C 367.5,387.833 366.167,386.5 364.5,385.5C 363.833,385.5 363.5,385.167 363.5,384.5C 362.5,382.833 361.167,381.5 359.5,380.5C 359.167,379.833 358.833,379.167 358.5,378.5C 357.974,374.688 357.307,371.021 356.5,367.5C 355.167,362.167 355.167,356.833 356.5,351.5C 357.167,354.833 357.833,358.167 358.5,361.5C 358.41,364.152 359.076,366.485 360.5,368.5C 360.604,370.703 361.27,372.703 362.5,374.5C 362.427,376.027 363.094,377.027 364.5,377.5C 365.712,380.107 367.712,381.774 370.5,382.5C 372.78,384.223 375.447,384.889 378.5,384.5C 386.99,385.657 395.657,385.824 404.5,385C 408.468,383.962 412.135,382.462 415.5,380.5C 416.71,380.068 417.71,379.401 418.5,378.5C 418.833,377.5 419.5,376.833 420.5,376.5C 422.027,376.573 423.027,375.906 423.5,374.5C 424.167,374.5 424.5,374.167 424.5,373.5C 425.674,372.486 426.34,371.153 426.5,369.5C 428.4,366.482 429.733,363.149 430.5,359.5C 431.162,357.696 431.495,355.696 431.5,353.5C 431.713,350.473 431.047,347.807 429.5,345.5C 429.073,342.99 428.407,340.657 427.5,338.5C 427.34,336.847 426.674,335.514 425.5,334.5C 424.833,331.833 424.167,329.167 423.5,326.5C 411.599,326.451 399.933,327.451 388.5,329.5C 379.651,329.826 370.984,329.493 362.5,328.5C 374.692,326.485 387.025,325.318 399.5,325C 403.372,324.096 407.039,322.93 410.5,321.5C 412.38,321.771 413.713,321.104 414.5,319.5C 419.42,317.581 423.087,314.248 425.5,309.5C 426.737,308.035 427.737,306.368 428.5,304.5C 428.783,303.711 429.283,303.044 430,302.5C 430.587,309.535 430.254,316.535 429,323.5C 428.308,324.025 427.808,324.692 427.5,325.5C 430.577,332.576 433.744,339.576 437,346.5C 437.823,352.629 437.323,358.629 435.5,364.5 Z M 417.5,338.5 C 417.5,338.833 417.5,339.167 417.5,339.5C 417.427,341.027 418.094,342.027 419.5,342.5C 422.362,347.764 423.195,353.43 422,359.5C 419.403,363.705 416.569,367.705 413.5,371.5C 411.25,372.13 409.25,373.13 407.5,374.5C 398.619,376.471 389.619,376.971 380.5,376C 377.676,374.755 375.009,373.255 372.5,371.5C 372.573,369.973 371.906,368.973 370.5,368.5C 368.803,357.924 369.803,347.591 373.5,337.5C 382.173,337.666 390.84,337.5 399.5,337C 401.708,336.809 403.708,336.309 405.5,335.5C 408.066,335.656 410.566,335.322 413,334.5C 414.715,335.604 416.215,336.938 417.5,338.5 Z M 360.5,343.5 C 359.732,344.263 359.232,345.263 359,346.5C 358.536,345.906 358.369,345.239 358.5,344.5C 359.032,341.54 359.699,341.207 360.5,343.5 Z"/></g>
<g><path style="opacity:0.112" fill="#424242" d="M 218.5,166.5 C 219.473,168.948 219.806,171.615 219.5,174.5C 214.025,174.367 208.692,175.034 203.5,176.5C 203.97,175.307 204.97,174.64 206.5,174.5C 210.465,173.726 214.465,173.393 218.5,173.5C 218.5,171.167 218.5,168.833 218.5,166.5 Z"/></g>
<g><path style="opacity:0.353" fill="#565656" d="M 321.5,172.5 C 322.906,172.973 323.573,173.973 323.5,175.5C 322.094,175.027 321.427,174.027 321.5,172.5 Z"/></g>
<g><path style="opacity:0.278" fill="#5e5e5e" d="M 459.5,173.5 C 459.027,174.906 458.027,175.573 456.5,175.5C 456.973,174.094 457.973,173.427 459.5,173.5 Z"/></g>
<g><path style="opacity:0.012" fill="#131313" d="M 473.5,178.5 C 475.966,177.366 478.633,177.199 481.5,178C 480.956,178.717 480.289,179.217 479.5,179.5C 477.735,178.539 475.735,178.205 473.5,178.5 Z"/></g>
<g><path style="opacity:0.286" fill="#484848" d="M 325.5,177.5 C 326.833,178.167 327.833,179.167 328.5,180.5C 326.5,180.5 325.5,179.5 325.5,177.5 Z"/></g>
<g><path style="opacity:0.051" fill="#494949" d="M 392.5,176.5 C 392.573,178.027 391.906,179.027 390.5,179.5C 390.427,177.973 391.094,176.973 392.5,176.5 Z"/></g>
<g><path style="opacity:0.394" fill="#7c7c7c" d="M 223.5,179.5 C 221.169,180.317 218.669,180.984 216,181.5C 215.235,181.43 214.735,181.097 214.5,180.5C 217.43,179.701 220.43,179.368 223.5,179.5 Z"/></g>
<g><path style="opacity:0.061" fill="#333333" d="M 251.5,174.5 C 253.376,177.737 253.71,181.07 252.5,184.5C 252.167,181.167 251.833,177.833 251.5,174.5 Z"/></g>
<g><path style="opacity:0.659" fill="#898989" d="M 272.5,177.5 C 272.834,180.491 271.834,182.824 269.5,184.5C 270.264,181.982 271.264,179.649 272.5,177.5 Z"/></g>
<g><path style="opacity:0.247" fill="#6a6a6a" d="M 444.5,179.5 C 445.906,179.973 446.573,180.973 446.5,182.5C 445.094,182.027 444.427,181.027 444.5,179.5 Z"/></g>
<g><path style="opacity:0.161" fill="#555555" d="M 174.5,180.5 C 175.906,180.973 176.573,181.973 176.5,183.5C 175.094,183.027 174.427,182.027 174.5,180.5 Z"/></g>
<g><path style="opacity:0.086" fill="#161616" d="M 209.5,180.5 C 213.373,182.43 217.706,183.097 222.5,182.5C 218.03,183.486 213.363,183.819 208.5,183.5C 208.263,182.209 208.596,181.209 209.5,180.5 Z"/></g>
<g><path style="opacity:0.102" fill="#3b3b3b" d="M 186.5,181.5 C 187.906,181.973 188.573,182.973 188.5,184.5C 187.094,184.027 186.427,183.027 186.5,181.5 Z"/></g>
<g><path style="opacity:0.047" fill="#434343" d="M 330.5,182.5 C 332.027,182.427 333.027,183.094 333.5,184.5C 331.973,184.573 330.973,183.906 330.5,182.5 Z"/></g>
<g><path style="opacity:0.227" fill="#7b7b7b" d="M 441.5,189.5 C 440.356,187.9 439.189,186.233 438,184.5C 437.79,186.058 437.29,187.391 436.5,188.5C 436.5,186.833 436.5,185.167 436.5,183.5C 440.009,183.808 441.676,185.808 441.5,189.5 Z"/></g>
<g><path style="opacity:0.314" fill="#474747" d="M 474.5,182.5 C 474.027,183.906 473.027,184.573 471.5,184.5C 471.973,183.094 472.973,182.427 474.5,182.5 Z"/></g>
<g><path style="opacity:0.004" fill="#2b2b2b" d="M 396.5,187.5 C 397.833,187.5 398.5,188.167 398.5,189.5C 397.5,189.167 396.833,188.5 396.5,187.5 Z"/></g>
<g><path style="opacity:0.209" fill="#666666" d="M 343.5,188.5 C 348.797,189.275 354.13,189.608 359.5,189.5C 357.527,190.163 355.361,190.496 353,190.5C 349.523,190.672 346.356,190.006 343.5,188.5 Z"/></g>
<g><path style="opacity:0.042" fill="#323232" d="M 213.5,188.5 C 215.607,187.532 217.941,187.198 220.5,187.5C 220.5,190.167 220.5,192.833 220.5,195.5C 219.532,193.393 219.198,191.059 219.5,188.5C 217.5,188.5 215.5,188.5 213.5,188.5 Z"/></g>
<g><path style="opacity:0.224" fill="#5f5f5f" d="M 323.5,189.5 C 325.027,189.427 326.027,190.094 326.5,191.5C 324.973,191.573 323.973,190.906 323.5,189.5 Z"/></g>
<g><path style="opacity:0.431" fill="#898989" d="M 390.5,187.5 C 387.838,188.943 385.172,190.61 382.5,192.5C 382.511,190.983 383.177,189.816 384.5,189C 386.586,188.685 388.586,188.185 390.5,187.5 Z"/></g>
<g><path style="opacity:0.145" fill="#575757" d="M 179.5,190.5 C 180.906,190.973 181.573,191.973 181.5,193.5C 180.094,193.027 179.427,192.027 179.5,190.5 Z"/></g>
<g><path style="opacity:0.412" fill="#848585" d="M 225.5,185.5 C 225.845,194.05 226.845,202.383 228.5,210.5C 227.791,211.404 226.791,211.737 225.5,211.5C 225.5,202.833 225.5,194.167 225.5,185.5 Z"/></g>
<g><path style="opacity:0.106" fill="#5b5b5b" d="M 277.5,190.5 C 277.573,192.027 276.906,193.027 275.5,193.5C 275.427,191.973 276.094,190.973 277.5,190.5 Z"/></g>
<g><path style="opacity:0.004" fill="#292929" d="M 401.5,192.5 C 402.833,192.5 403.5,193.167 403.5,194.5C 402.5,194.167 401.833,193.5 401.5,192.5 Z"/></g>
<g><path style="opacity:0.29" fill="#4e4e4e" d="M 192.5,192.5 C 193.906,192.973 194.573,193.973 194.5,195.5C 193.094,195.027 192.427,194.027 192.5,192.5 Z"/></g>
<g><path style="opacity:0.145" fill="#6a6a6a" d="M 468.5,194.5 C 467.22,195.931 465.553,196.598 463.5,196.5C 464.78,195.069 466.447,194.402 468.5,194.5 Z"/></g>
<g><path style="opacity:0.463" fill="#777777" d="M 381.5,192.5 C 381.33,195.204 379.997,196.871 377.5,197.5C 378.604,195.611 379.937,193.945 381.5,192.5 Z"/></g>
<g><path style="opacity:0.108" fill="#636363" d="M 68.5,195.5 C 68.3404,197.153 67.6737,198.486 66.5,199.5C 66.2291,197.62 66.8958,196.287 68.5,195.5 Z"/></g>
<g><path style="opacity:0.682" fill="#878787" d="M 461.5,197.5 C 459.574,198.486 457.574,199.486 455.5,200.5C 456.607,198.031 458.607,197.031 461.5,197.5 Z"/></g>
<g><path style="opacity:0.278" fill="#6f6f6f" d="M 262.5,196.5 C 261.92,198.749 260.587,200.415 258.5,201.5C 259.08,199.251 260.413,197.585 262.5,196.5 Z"/></g>
<g><path style="opacity:0.494" fill="#5e5e5e" d="M 393.5,199.5 C 395.446,200.035 396.446,201.368 396.5,203.5C 395.026,202.564 394.026,201.23 393.5,199.5 Z"/></g>
<g><path style="opacity:0.4" fill="#636363" d="M 406.5,198.5 C 407.906,198.973 408.573,199.973 408.5,201.5C 407.094,201.027 406.427,200.027 406.5,198.5 Z"/></g>
<g><path style="opacity:0.024" fill="#4e4e4e" d="M 183.5,198.5 C 185.048,198.821 185.715,199.821 185.5,201.5C 184.599,200.71 183.932,199.71 183.5,198.5 Z"/></g>
<g><path style="opacity:0.208" fill="#7e7e7e" d="M 377.5,197.5 C 376.833,200.167 375.167,201.833 372.5,202.5C 373.833,200.5 375.5,198.833 377.5,197.5 Z"/></g>
<g><path style="opacity:0.063" fill="#4a4a4a" d="M 454.5,200.5 C 452.509,202.488 451.175,204.822 450.5,207.5C 450.201,205.396 450.534,203.396 451.5,201.5C 452.417,200.873 453.417,200.539 454.5,200.5 Z"/></g>
<g><path style="opacity:0.573" fill="#6a6a6a" d="M 342.5,202.5 C 340.81,204.423 340.477,206.423 341.5,208.5C 340.305,208.134 339.639,207.301 339.5,206C 339.707,204.05 340.707,202.884 342.5,202.5 Z"/></g>
<g><path style="opacity:0.51" fill="#6e6e6e" d="M 345.5,203.5 C 347.368,204.263 349.035,205.263 350.5,206.5C 347.966,206.741 346.3,205.741 345.5,203.5 Z"/></g>
<g><path style="opacity:0.596" fill="#757575" d="M 99.5,212.5 C 97.6208,211.659 95.6208,211.325 93.5,211.5C 95.9873,208.739 97.9873,209.073 99.5,212.5 Z"/></g>
<g><path style="opacity:0.102" fill="#383838" d="M 342.5,210.5 C 344.027,210.427 345.027,211.094 345.5,212.5C 344.833,212.5 344.167,212.5 343.5,212.5C 343.167,211.833 342.833,211.167 342.5,210.5 Z"/></g>
<g><path style="opacity:0.012" fill="#353535" d="M 206.5,212.5 C 207.833,212.5 208.5,213.167 208.5,214.5C 207.5,214.167 206.833,213.5 206.5,212.5 Z"/></g>
<g><path style="opacity:0.137" fill="#5a5a5a" d="M 77.5,210.5 C 77.7709,212.38 77.1042,213.713 75.5,214.5C 75.6596,212.847 76.3263,211.514 77.5,210.5 Z"/></g>
<g><path style="opacity:0.008" fill="#191919" d="M 345.5,212.5 C 347.153,212.66 348.486,213.326 349.5,214.5C 348.596,215.209 348.263,216.209 348.5,217.5C 347.692,215.78 346.692,214.113 345.5,212.5 Z"/></g>
<g><path style="opacity:0.216" fill="#595959" d="M 341.5,212.5 C 341.573,214.027 340.906,215.027 339.5,215.5C 339.427,213.973 340.094,212.973 341.5,212.5 Z"/></g>
<g><path style="opacity:0.024" fill="#585858" d="M 402.5,213.5 C 404.446,214.035 405.446,215.368 405.5,217.5C 404.026,216.564 403.026,215.23 402.5,213.5 Z"/></g>
<g><path style="opacity:0.004" fill="#373737" d="M 211.5,217.5 C 212.833,217.5 213.5,218.167 213.5,219.5C 212.5,219.167 211.833,218.5 211.5,217.5 Z"/></g>
<g><path style="opacity:0.004" fill="#2b2b2b" d="M 253.5,216.5 C 253.5,217.833 252.833,218.5 251.5,218.5C 251.833,217.5 252.5,216.833 253.5,216.5 Z"/></g>
<g><path style="opacity:0.051" fill="#9b9b9b" d="M 100.5,218.5 C 101.483,222.298 101.817,226.298 101.5,230.5C 104.713,230.19 107.713,230.523 110.5,231.5C 107.167,231.5 103.833,231.5 100.5,231.5C 100.5,227.167 100.5,222.833 100.5,218.5 Z"/></g>
<g><path style="opacity:0.375" fill="#717171" d="M 131.5,219.5 C 135.514,219.334 139.514,219.501 143.5,220C 144.056,220.383 144.389,220.883 144.5,221.5C 140.027,220.949 135.693,220.283 131.5,219.5 Z"/></g>
<g><path style="opacity:0.004" fill="#2f2f2f" d="M 151.5,222.5 C 153.5,222.5 154.5,223.5 154.5,225.5C 153.167,224.833 152.167,223.833 151.5,222.5 Z"/></g>
<g><path style="opacity:0.157" fill="#505050" d="M 82.5,212.5 C 83.4647,222.336 83.4647,232.336 82.5,242.5C 82.0357,232.679 82.0357,222.679 82.5,212.5 Z"/></g>
<g><path style="opacity:0.541" fill="#717171" d="M 231.5,227.5 C 231.297,229.044 230.63,230.378 229.5,231.5C 228.743,232.773 228.077,232.773 227.5,231.5C 228.473,229.861 229.806,228.527 231.5,227.5 Z"/></g>
<g><path style="opacity:0.067" fill="#474747" d="M 350.5,225.5 C 351.931,226.78 352.598,228.447 352.5,230.5C 351.069,229.22 350.402,227.553 350.5,225.5 Z"/></g>
<g><path style="opacity:0.175" fill="#acacac" d="M 62.5,217.5 C 61.6006,223.315 60.6006,228.982 59.5,234.5C 59.1257,228.463 60.1257,222.797 62.5,217.5 Z"/></g>
<g><path style="opacity:0.486" fill="#888888" d="M 141.5,228.5 C 144.152,228.41 146.485,229.076 148.5,230.5C 147.167,230.5 145.833,230.5 144.5,230.5C 143.5,229.833 142.5,229.167 141.5,228.5 Z"/></g>
<g><path style="opacity:0.165" fill="#535353" d="M 395.5,227.5 C 396.906,227.973 397.573,228.973 397.5,230.5C 396.094,230.027 395.427,229.027 395.5,227.5 Z"/></g>
<g><path style="opacity:0.576" fill="#a3a3a3" d="M 144.5,230.5 C 145.568,231.434 146.901,231.768 148.5,231.5C 141.617,231.368 134.617,231.701 127.5,232.5C 132.735,230.55 138.402,229.883 144.5,230.5 Z"/></g>
<g><path style="opacity:0.02" fill="#363636" d="M 213.5,230.5 C 214.5,230.833 215.167,231.5 215.5,232.5C 214.167,232.5 213.5,231.833 213.5,230.5 Z"/></g>
<g><path style="opacity:0.316" fill="#686868" d="M 53.5,218.5 C 52.7286,224.669 51.7286,230.669 50.5,236.5C 50.2375,230.165 51.2375,224.165 53.5,218.5 Z"/></g>
<g><path style="opacity:0.118" fill="#353535" d="M 375.5,233.5 C 375.167,234.5 374.5,235.167 373.5,235.5C 373.5,234.167 374.167,233.5 375.5,233.5 Z"/></g>
<g><path style="opacity:0.424" fill="#4c4c4c" d="M 156.5,236.5 C 158.262,237.262 159.262,238.596 159.5,240.5C 157.738,239.738 156.738,238.404 156.5,236.5 Z"/></g>
<g><path style="opacity:0.184" fill="#3f3f3f" d="M 412.5,238.5 C 413.674,239.514 414.34,240.847 414.5,242.5C 412.896,241.713 412.229,240.38 412.5,238.5 Z"/></g>
<g><path style="opacity:0.065" fill="#1b1b1b" d="M 382.5,240.5 C 383.152,241.449 383.486,242.615 383.5,244C 383.693,246.008 383.026,247.508 381.5,248.5C 382.265,245.904 382.599,243.237 382.5,240.5 Z"/></g>
<g><path style="opacity:0.176" fill="#3f3f3f" d="M 393.5,240.5 C 394.638,243.304 394.805,246.304 394,249.5C 393.617,250.056 393.117,250.389 392.5,250.5C 393.324,247.236 393.658,243.902 393.5,240.5 Z"/></g>
<g><path style="opacity:0.188" fill="#4f4f4f" d="M 141.5,247.5 C 140.833,248.833 139.833,249.833 138.5,250.5C 138.5,248.5 139.5,247.5 141.5,247.5 Z"/></g>
<g><path style="opacity:0.157" fill="#5d5d5d" d="M 73.5,248.5 C 75.0269,248.427 76.0269,249.094 76.5,250.5C 74.9731,250.573 73.9731,249.906 73.5,248.5 Z"/></g>
<g><path style="opacity:0.161" fill="#505050" d="M 316.5,247.5 C 316.573,249.027 315.906,250.027 314.5,250.5C 314.427,248.973 315.094,247.973 316.5,247.5 Z"/></g>
<g><path style="opacity:0.192" fill="#616161" d="M 348.5,250.5 C 344.119,250.372 339.785,250.705 335.5,251.5C 337.634,249.967 340.134,249.3 343,249.5C 345.033,249.506 346.866,249.839 348.5,250.5 Z"/></g>
<g><path style="opacity:0.256" fill="#737373" d="M 365.5,248.5 C 363.345,250.534 361.012,250.867 358.5,249.5C 360.861,249.326 363.194,248.993 365.5,248.5 Z"/></g>
<g><path style="opacity:0.047" fill="#252525" d="M 331.5,252.5 C 332.568,251.566 333.901,251.232 335.5,251.5C 336.919,252.451 338.585,252.784 340.5,252.5C 338.393,253.468 336.059,253.802 333.5,253.5C 333.158,252.662 332.492,252.328 331.5,252.5 Z"/></g>
<g><path style="opacity:0.214" fill="#525252" d="M 401.5,247.5 C 402.491,250.244 402.157,252.911 400.5,255.5C 400.575,252.794 400.908,250.127 401.5,247.5 Z"/></g>
<g><path style="opacity:0.259" fill="#5c5c5c" d="M 83.5,253.5 C 88.6095,254.588 93.6095,255.588 98.5,256.5C 93.061,257.018 88.061,256.018 83.5,253.5 Z"/></g>
<g><path style="opacity:0.141" fill="#424242" d="M 155.5,254.5 C 154.089,256.539 152.089,257.539 149.5,257.5C 151.181,255.992 153.181,254.992 155.5,254.5 Z"/></g>
<g><path style="opacity:0.245" fill="#5a5a5a" d="M 365.5,254.5 C 363.095,255.768 360.428,256.435 357.5,256.5C 359.838,254.96 362.505,254.294 365.5,254.5 Z"/></g>
<g><path style="opacity:0.612" fill="#959595" d="M 126.5,259.5 C 125.167,259.5 123.833,259.5 122.5,259.5C 122.737,260.791 122.404,261.791 121.5,262.5C 121.5,261.167 121.5,259.833 121.5,258.5C 123.415,258.216 125.081,258.549 126.5,259.5 Z"/></g>
<g><path style="opacity:0.059" fill="#5e5e5e" d="M 429.5,255.5 C 431.163,257.438 431.829,259.772 431.5,262.5C 430.388,260.401 429.721,258.067 429.5,255.5 Z"/></g>
<g><path style="opacity:0.293" fill="#737373" d="M 144.5,258.5 C 144.389,259.117 144.056,259.617 143.5,260C 137.651,260.818 131.985,260.652 126.5,259.5C 132.559,259.746 138.559,259.413 144.5,258.5 Z"/></g>
<g><path style="opacity:0.157" fill="#464646" d="M 339.5,260.5 C 335.361,261.563 331.028,262.23 326.5,262.5C 330.545,260.823 334.878,260.156 339.5,260.5 Z"/></g>
<g><path style="opacity:0.153" fill="#727272" d="M 446.5,255.5 C 446.58,258.781 445.913,261.781 444.5,264.5C 444.42,261.219 445.087,258.219 446.5,255.5 Z"/></g>
<g><path style="opacity:0.328" fill="#585858" d="M 374.5,262.5 C 371.456,264.011 368.122,264.678 364.5,264.5C 367.589,263.215 370.922,262.549 374.5,262.5 Z"/></g>
<g><path style="opacity:0.486" fill="#929292" d="M 437.5,259.5 C 437.102,264.412 436.102,269.079 434.5,273.5C 434.5,273.167 434.5,272.833 434.5,272.5C 434.74,267.88 435.74,263.547 437.5,259.5 Z"/></g>
<g><path style="opacity:0.212" fill="#737373" d="M 341.5,268.5 C 337.409,269.895 333.076,270.562 328.5,270.5C 332.591,269.105 336.924,268.438 341.5,268.5 Z"/></g>
<g><path style="opacity:0.333" fill="#5c5c5c" d="M 105.5,272.5 C 105.573,274.027 104.906,275.027 103.5,275.5C 103.427,273.973 104.094,272.973 105.5,272.5 Z"/></g>
<g><path style="opacity:0.557" fill="#6d6d6d" d="M 359.5,274.5 C 361.048,274.821 361.715,275.821 361.5,277.5C 360.599,276.71 359.932,275.71 359.5,274.5 Z"/></g>
<g><path style="opacity:0.224" fill="#545454" d="M 54.5,278.5 C 56.1042,279.287 56.7709,280.62 56.5,282.5C 55.3263,281.486 54.6596,280.153 54.5,278.5 Z"/></g>
<g><path style="opacity:0.38" fill="#707070" d="M 103.5,276.5 C 102.483,278.911 100.816,280.578 98.5,281.5C 99.517,279.089 101.184,277.422 103.5,276.5 Z"/></g>
<g><path style="opacity:0.031" fill="#434343" d="M 114.5,279.5 C 114.573,281.027 113.906,282.027 112.5,282.5C 112.427,280.973 113.094,279.973 114.5,279.5 Z"/></g>
<g><path style="opacity:0.075" fill="#272727" d="M 433.5,272.5 C 433.833,272.5 434.167,272.5 434.5,272.5C 434.5,272.833 434.5,273.167 434.5,273.5C 433.777,280.171 432.944,286.838 432,293.5C 431.353,286.284 431.853,279.284 433.5,272.5 Z"/></g>
<g><path style="opacity:0.137" fill="#404040" d="M 375.5,285.5 C 376.906,285.973 377.573,286.973 377.5,288.5C 376.094,288.027 375.427,287.027 375.5,285.5 Z"/></g>
<g><path style="opacity:0.196" fill="#595959" d="M 355.5,287.5 C 352.411,288.785 349.078,289.451 345.5,289.5C 348.544,287.989 351.878,287.322 355.5,287.5 Z"/></g>
<g><path style="opacity:0.145" fill="#555555" d="M 442.5,279.5 C 442.468,284.391 441.801,289.057 440.5,293.5C 440.362,288.586 441.028,283.919 442.5,279.5 Z"/></g>
<g><path style="opacity:0.182" fill="#4b4b4b" d="M 333.5,292.5 C 331.786,293.738 329.786,294.405 327.5,294.5C 329.102,292.926 331.102,292.259 333.5,292.5 Z"/></g>
<g><path style="opacity:0.059" fill="#323232" d="M 380.5,291.5 C 382.027,291.427 383.027,292.094 383.5,293.5C 381.973,293.573 380.973,292.906 380.5,291.5 Z"/></g>
<g><path style="opacity:0.392" fill="#666666" d="M 87.5,291.5 C 84.0332,294.995 80.0332,295.995 75.5,294.5C 79.7159,294.316 83.7159,293.316 87.5,291.5 Z"/></g>
<g><path style="opacity:0.312" fill="#6c6c6c" d="M 364.5,293.5 C 362.898,295.074 360.898,295.741 358.5,295.5C 360.214,294.262 362.214,293.595 364.5,293.5 Z"/></g>
<g><path style="opacity:0.424" fill="#787878" d="M 318.5,296.5 C 317.461,298.531 315.795,299.864 313.5,300.5C 314.579,298.457 316.246,297.124 318.5,296.5 Z"/></g>
<g><path style="opacity:0.451" fill="#8f8f8f" d="M 345.5,297.5 C 343.485,298.924 341.152,299.59 338.5,299.5C 340.515,298.076 342.848,297.41 345.5,297.5 Z"/></g>
<g><path style="opacity:0.314" fill="#5a5a5a" d="M 73.5,304.5 C 76.0821,304.025 78.0821,304.692 79.5,306.5C 77.3736,305.952 75.3736,305.285 73.5,304.5 Z"/></g>
<g><path style="opacity:0.094" fill="#434343" d="M 428.5,304.5 C 427.737,306.368 426.737,308.035 425.5,309.5C 425.259,306.966 426.259,305.3 428.5,304.5 Z"/></g>
<g><path style="opacity:0.451" fill="#8b8b8b" d="M 421.5,300.5 C 421.313,302.564 420.813,304.564 420,306.5C 419.329,307.252 418.496,307.586 417.5,307.5C 418.839,305.127 420.172,302.793 421.5,300.5 Z"/></g>
<g><path style="opacity:0.051" fill="#373737" d="M 310.5,305.5 C 310.405,307.786 309.738,309.786 308.5,311.5C 308.259,309.102 308.926,307.102 310.5,305.5 Z"/></g>
<g><path style="opacity:0.248" fill="#a6a6a6" d="M 440.5,293.5 C 440.204,301.014 439.538,308.347 438.5,315.5C 438.157,307.929 438.823,300.596 440.5,293.5 Z"/></g>
<g><path style="opacity:0.251" fill="#535353" d="M 87.5,303.5 C 87.8333,306.167 88.1667,308.833 88.5,311.5C 86.5873,308.96 86.254,306.293 87.5,303.5 Z"/></g>
<g><path style="opacity:0.099" fill="#404040" d="M 318.5,308.5 C 318.142,311.689 317.475,314.689 316.5,317.5C 316.068,314.123 316.735,311.123 318.5,308.5 Z"/></g>
<g><path style="opacity:0.78" fill="#929292" d="M 333.5,312.5 C 332.203,314.161 330.87,315.828 329.5,317.5C 329.369,314.633 330.703,312.967 333.5,312.5 Z"/></g>
<g><path style="opacity:0.231" fill="#5c5c5c" d="M 68.5,313.5 C 68.5979,315.553 67.9313,317.22 66.5,318.5C 66.4021,316.447 67.0687,314.78 68.5,313.5 Z"/></g>
<g><path style="opacity:0.388" fill="#6f6f6f" d="M 366.5,318.5 C 364.786,319.738 362.786,320.405 360.5,320.5C 362.102,318.926 364.102,318.259 366.5,318.5 Z"/></g>
<g><path style="opacity:0.09" fill="#424242" d="M 414.5,319.5 C 413.713,321.104 412.38,321.771 410.5,321.5C 411.514,320.326 412.847,319.66 414.5,319.5 Z"/></g>
<g><path style="opacity:0.857" fill="#838383" d="M 329.5,317.5 C 330.962,320.642 330.295,322.642 327.5,323.5C 327.595,321.214 328.262,319.214 329.5,317.5 Z"/></g>
<g><path style="opacity:0.169" fill="#454545" d="M 101.5,318.5 C 103.375,323.206 104.375,328.206 104.5,333.5C 102.882,328.744 101.882,323.744 101.5,318.5 Z"/></g>
<g><path style="opacity:0.519" fill="#969696" d="M 362.5,328.5 C 370.984,329.493 379.651,329.826 388.5,329.5C 379.343,330.658 370.009,330.824 360.5,330C 361.044,329.283 361.711,328.783 362.5,328.5 Z"/></g>
<g><path style="opacity:0.427" fill="#888888" d="M 336.5,326.5 C 336.59,329.152 335.924,331.485 334.5,333.5C 334.41,330.848 335.076,328.515 336.5,326.5 Z"/></g>
<g><path style="opacity:0.27" fill="#555555" d="M 56.5,330.5 C 56.7204,335.1 56.0538,339.433 54.5,343.5C 54.6245,338.951 55.2911,334.618 56.5,330.5 Z"/></g>
<g><path style="opacity:0.204" fill="#797979" d="M 417.5,338.5 C 416.215,336.938 414.715,335.604 413,334.5C 410.566,335.322 408.066,335.656 405.5,335.5C 408.596,334.052 411.929,333.552 415.5,334C 416.582,335.33 417.249,336.83 417.5,338.5 Z"/></g>
<g><path style="opacity:0.227" fill="#5c5c5c" d="M 351.5,335.5 C 351.34,337.153 350.674,338.486 349.5,339.5C 349.229,337.62 349.896,336.287 351.5,335.5 Z"/></g>
<g><path style="opacity:0.125" fill="#3d3d3d" d="M 425.5,334.5 C 426.674,335.514 427.34,336.847 427.5,338.5C 425.896,337.713 425.229,336.38 425.5,334.5 Z"/></g>
<g><path style="opacity:0.388" fill="#909090" d="M 327.5,330.5 C 327.556,335.731 326.889,340.731 325.5,345.5C 325.444,340.269 326.111,335.269 327.5,330.5 Z"/></g>
<g><path style="opacity:0.027" fill="#2c2c2c" d="M 417.5,339.5 C 418.906,339.973 419.573,340.973 419.5,342.5C 418.094,342.027 417.427,341.027 417.5,339.5 Z"/></g>
<g><path style="opacity:0.114" fill="#575757" d="M 94.5,334.5 C 95.9034,337.909 96.5701,341.575 96.5,345.5C 95.0966,342.091 94.4299,338.425 94.5,334.5 Z"/></g>
<g><path style="opacity:0.008" fill="#313131" d="M 360.5,343.5 C 360.741,345.898 360.074,347.898 358.5,349.5C 358.5,348.833 358.167,348.5 357.5,348.5C 357.232,346.901 357.566,345.568 358.5,344.5C 358.369,345.239 358.536,345.906 359,346.5C 359.232,345.263 359.732,344.263 360.5,343.5 Z"/></g>
<g><path style="opacity:0.373" fill="#686868" d="M 325.5,345.5 C 325.923,347.781 325.256,349.448 323.5,350.5C 324.024,348.694 324.691,347.028 325.5,345.5 Z"/></g>
<g><path style="opacity:0.191" fill="#5c5c5c" d="M 429.5,345.5 C 431.047,347.807 431.713,350.473 431.5,353.5C 431.495,355.696 431.162,357.696 430.5,359.5C 430.647,354.786 430.314,350.119 429.5,345.5 Z"/></g>
<g><path style="opacity:0.235" fill="#616161" d="M 312.5,347.5 C 312.598,349.553 311.931,351.22 310.5,352.5C 310.402,350.447 311.069,348.78 312.5,347.5 Z"/></g>
<g><path style="opacity:0.17" fill="#5f5f5f" d="M 106.5,350.5 C 107.577,356.312 108.243,362.312 108.5,368.5C 106.85,362.75 106.184,356.75 106.5,350.5 Z"/></g>
<g><path style="opacity:0.043" fill="#242424" d="M 357.5,349.5 C 357.5,350.167 357.833,350.5 358.5,350.5C 358.5,354.167 358.5,357.833 358.5,361.5C 357.833,358.167 357.167,354.833 356.5,351.5C 356.328,350.508 356.662,349.842 357.5,349.5 Z"/></g>
<g><path style="opacity:0.329" fill="#585858" d="M 358.5,361.5 C 359.924,363.515 360.59,365.848 360.5,368.5C 359.076,366.485 358.41,364.152 358.5,361.5 Z"/></g>
<g><path style="opacity:0.175" fill="#575757" d="M 447.5,361.5 C 447.59,364.152 446.924,366.485 445.5,368.5C 445.41,365.848 446.076,363.515 447.5,361.5 Z"/></g>
<g><path style="opacity:0.067" fill="#474747" d="M 435.5,364.5 C 435.598,366.553 434.931,368.22 433.5,369.5C 433.402,367.447 434.069,365.78 435.5,364.5 Z"/></g>
<g><path style="opacity:0.176" fill="#606060" d="M 370.5,368.5 C 371.906,368.973 372.573,369.973 372.5,371.5C 371.094,371.027 370.427,370.027 370.5,368.5 Z"/></g>
<g><path style="opacity:0.447" fill="#686868" d="M 426.5,369.5 C 426.34,371.153 425.674,372.486 424.5,373.5C 424.229,371.62 424.896,370.287 426.5,369.5 Z"/></g>
<g><path style="opacity:0.467" fill="#676767" d="M 307.5,364.5 C 307.384,367.86 307.051,371.193 306.5,374.5C 305.506,371.103 305.84,367.77 307.5,364.5 Z"/></g>
<g><path style="opacity:0.063" fill="#454545" d="M 356.5,367.5 C 357.307,371.021 357.974,374.688 358.5,378.5C 357.883,378.389 357.383,378.056 357,377.5C 356.502,374.183 356.335,370.85 356.5,367.5 Z"/></g>
<g><path style="opacity:0.037" fill="#949494" d="M 331.5,359.5 C 330.91,365.966 330.243,372.3 329.5,378.5C 329.334,372.491 329.501,366.491 330,360.5C 330.383,359.944 330.883,359.611 331.5,359.5 Z"/></g>
<g><path style="opacity:0.333" fill="#818181" d="M 413.5,371.5 C 412.216,373.614 410.216,374.614 407.5,374.5C 409.25,373.13 411.25,372.13 413.5,371.5 Z"/></g>
<g><path style="opacity:0.175" fill="#525252" d="M 306.5,374.5 C 307.537,375.93 308.204,377.597 308.5,379.5C 306.787,378.365 306.12,376.698 306.5,374.5 Z"/></g>
<g><path style="opacity:0.012" fill="#252525" d="M 423.5,374.5 C 423.027,375.906 422.027,376.573 420.5,376.5C 420.973,375.094 421.973,374.427 423.5,374.5 Z"/></g>
<g><path style="opacity:0.02" fill="#333333" d="M 362.5,374.5 C 363.906,374.973 364.573,375.973 364.5,377.5C 363.094,377.027 362.427,376.027 362.5,374.5 Z"/></g>
<g><path style="opacity:0.647" fill="#939393" d="M 346.5,376.5 C 346.631,379.367 345.297,381.033 342.5,381.5C 343.864,379.809 345.197,378.142 346.5,376.5 Z"/></g>
<g><path style="opacity:0.267" fill="#555555" d="M 418.5,378.5 C 417.71,379.401 416.71,380.068 415.5,380.5C 415.821,378.952 416.821,378.285 418.5,378.5 Z"/></g>
<g><path style="opacity:0.29" fill="#5c5c5c" d="M 87.5,378.5 C 87.5569,379.609 87.8902,380.609 88.5,381.5C 86.4482,380.947 86.1148,379.947 87.5,378.5 Z"/></g>
<g><path style="opacity:0.392" fill="#7f7f7f" d="M 321.5,375.5 C 321.631,378.367 320.297,380.033 317.5,380.5C 318.864,378.809 320.197,377.142 321.5,375.5 Z"/></g>
<g><path style="opacity:0.094" fill="#424242" d="M 317.5,380.5 C 316.866,381.947 315.699,382.613 314,382.5C 312.93,382.472 312.097,382.139 311.5,381.5C 313.565,381.483 315.565,381.15 317.5,380.5 Z"/></g>
<g><path style="opacity:0.596" fill="#686868" d="M 359.5,380.5 C 361.167,381.5 362.5,382.833 363.5,384.5C 361.167,384.167 359.833,382.833 359.5,380.5 Z"/></g>
<g><path style="opacity:0.055" fill="#5b5b5b" d="M 441.5,379.5 C 441.573,381.027 440.906,382.027 439.5,382.5C 439.427,380.973 440.094,379.973 441.5,379.5 Z"/></g>
<g><path style="opacity:0.408" fill="#646464" d="M 425.5,381.5 C 425.027,382.906 424.027,383.573 422.5,383.5C 422.973,382.094 423.973,381.427 425.5,381.5 Z"/></g>
<g><path style="opacity:0.055" fill="#2b2b2b" d="M 62.5,380.5 C 63.6737,381.514 64.3404,382.847 64.5,384.5C 62.8958,383.713 62.2291,382.38 62.5,380.5 Z"/></g>
<g><path style="opacity:0.378" fill="#717171" d="M 370.5,382.5 C 373.373,382.802 376.039,383.469 378.5,384.5C 375.447,384.889 372.78,384.223 370.5,382.5 Z"/></g>
<g><path style="opacity:0.012" fill="#2d2d2d" d="M 438.5,383.5 C 438.573,385.027 437.906,386.027 436.5,386.5C 436.427,384.973 437.094,383.973 438.5,383.5 Z"/></g>
<g><path style="opacity:0.004" fill="#303030" d="M 108.5,384.5 C 108.5,385.833 107.833,386.5 106.5,386.5C 106.833,385.5 107.5,384.833 108.5,384.5 Z"/></g>
<g><path style="opacity:0.282" fill="#666666" d="M 364.5,385.5 C 366.167,386.5 367.5,387.833 368.5,389.5C 366.167,389.167 364.833,387.833 364.5,385.5 Z"/></g>
<g><path style="opacity:0.012" fill="#161616" d="M 353.5,388.5 C 352.833,388.5 352.167,388.5 351.5,388.5C 351.786,386.067 352.452,386.067 353.5,388.5 Z"/></g>
<g><path style="opacity:0.169" fill="#444444" d="M 414.5,386.5 C 413.713,388.104 412.38,388.771 410.5,388.5C 411.514,387.326 412.847,386.66 414.5,386.5 Z"/></g>
<g><path style="opacity:0.541" fill="#646464" d="M 353.5,388.5 C 355.144,388.81 356.144,389.81 356.5,391.5C 354.856,391.19 353.856,390.19 353.5,388.5 Z"/></g>
<g><path style="opacity:0.016" fill="#202020" d="M 104.5,389.5 C 104.167,390.5 103.5,391.167 102.5,391.5C 102.5,390.167 103.167,389.5 104.5,389.5 Z"/></g>
<g><path style="opacity:0.169" fill="#636363" d="M 344.5,392.5 C 343.341,394.25 341.674,395.25 339.5,395.5C 340.659,393.75 342.326,392.75 344.5,392.5 Z"/></g>
<g><path style="opacity:0.267" fill="#464646" d="M 357.5,393.5 C 359.5,393.5 360.5,394.5 360.5,396.5C 359.167,395.833 358.167,394.833 357.5,393.5 Z"/></g>
<g><path style="opacity:0.11" fill="#333333" d="M 58.5,391.5 C 60.0075,393.181 61.0075,395.181 61.5,397.5C 59.461,396.089 58.461,394.089 58.5,391.5 Z"/></g>
<g><path style="opacity:0.02" fill="#3a3a3a" d="M 99.5,393.5 C 99.0269,394.906 98.0269,395.573 96.5,395.5C 96.9731,394.094 97.9731,393.427 99.5,393.5 Z"/></g>
<g><path style="opacity:0.106" fill="#3d3d3d" d="M 424.5,393.5 C 423.341,395.25 421.674,396.25 419.5,396.5C 420.659,394.75 422.326,393.75 424.5,393.5 Z"/></g>
<g><path style="opacity:0.251" fill="#686868" d="M 415.5,397.5 C 413.898,399.074 411.898,399.741 409.5,399.5C 411.214,398.262 413.214,397.595 415.5,397.5 Z"/></g>
</svg>
