<?xml version="1.0" encoding="UTF-8"?>
<!DOCTYPE svg PUBLIC "-//W3C//DTD SVG 1.1//EN" "http://www.w3.org/Graphics/SVG/1.1/DTD/svg11.dtd">
<svg xmlns="http://www.w3.org/2000/svg" version="1.1" width="992px" height="836px" style="shape-rendering:geometricPrecision; text-rendering:geometricPrecision; image-rendering:optimizeQuality; fill-rule:evenodd; clip-rule:evenodd" xmlns:xlink="http://www.w3.org/1999/xlink">
<g><path style="opacity:0.893" fill="#fefefe" d="M 144.5,55.5 C 172.97,56.1622 199.97,62.6622 225.5,75C 240.262,83.0913 249.762,95.258 254,111.5C 256.908,142.62 251.242,171.954 237,199.5C 210.068,241.252 172.568,256.085 124.5,244C 78.1815,226.952 58.3482,193.786 65,144.5C 68.9232,117.156 80.4232,93.6557 99.5,74C 112.696,63.4005 127.696,57.2338 144.5,55.5 Z M 139.5,80.5 C 169.255,80.2464 196.921,87.5797 222.5,102.5C 226.25,105.655 228.75,109.655 230,114.5C 235.943,148.796 228.11,179.296 206.5,206C 180.359,229.439 151.026,234.106 118.5,220C 89.1588,204.746 77.3255,180.579 83,147.5C 85.2939,130.258 90.9605,114.258 100,99.5C 110.933,88.3711 124.1,82.0377 139.5,80.5 Z"/></g>
<g><path style="opacity:0.887" fill="#fefffe" d="M 658.5,150.5 C 691.229,150.381 721.229,159.214 748.5,177C 767.536,190.755 774.369,209.255 769,232.5C 766.242,257.459 757.242,279.792 742,299.5C 719.279,325.676 691.113,336.009 657.5,330.5C 655.813,330.76 654.313,331.427 653,332.5C 591.271,310.349 572.271,268.349 596,206.5C 604.035,189.938 614.869,175.438 628.5,163C 637.882,157.156 647.882,152.989 658.5,150.5 Z M 659.5,172.5 C 688.341,173.924 714.674,182.757 738.5,199C 746.786,205.966 749.952,214.799 748,225.5C 747.004,254.896 735.837,279.396 714.5,299C 692.045,314.472 668.045,317.139 642.5,307C 624.903,299.737 612.736,287.237 606,269.5C 602,241.819 607.333,216.152 622,192.5C 629.074,184.044 637.907,178.21 648.5,175C 652.392,174.581 656.058,173.748 659.5,172.5 Z"/></g>
<g><path style="opacity:0.874" fill="#fefefe" d="M 472.5,176.5 C 484.606,175.682 495.94,178.182 506.5,184C 522.111,196.804 530.945,213.304 533,233.5C 538.425,280.716 523.925,320.382 489.5,352.5C 484.85,356.492 479.85,359.992 474.5,363C 455.805,379.964 438.138,397.797 421.5,416.5C 418.894,417.652 416.227,417.818 413.5,417C 405.441,409.277 397.775,401.277 390.5,393C 385.358,389.358 380.358,385.525 375.5,381.5C 366.909,371.406 357.743,361.739 348,352.5C 329.857,327.548 316.524,300.214 308,270.5C 305.473,251.536 307.806,233.203 315,215.5C 317.305,211.696 319.805,208.03 322.5,204.5C 328.022,199.9 333.356,195.067 338.5,190C 342.271,187.781 346.271,186.115 350.5,185C 377.493,180.209 398.993,188.709 415,210.5C 419.057,205.442 422.724,200.108 426,194.5C 428.5,192 431,189.5 433.5,187C 439.709,184.399 446.042,182.065 452.5,180C 459.378,179.22 466.045,178.053 472.5,176.5 Z M 478.5,189.5 C 480.199,189.34 481.866,189.506 483.5,190C 488.666,192.748 493.666,195.748 498.5,199C 503.122,205.078 507.622,211.245 512,217.5C 516.282,230.145 517.616,243.145 516,256.5C 514.065,275.957 508.732,294.29 500,311.5C 495.503,317.824 491.003,324.157 486.5,330.5C 467.532,346.302 449.365,362.969 432,380.5C 428.64,385.899 424.807,390.899 420.5,395.5C 390.598,374.095 366.432,347.429 348,315.5C 340.007,301.518 333.674,286.851 329,271.5C 328.134,265.002 327.3,258.502 326.5,252C 326.048,234.252 332.381,219.586 345.5,208C 358.877,200.934 372.877,199.601 387.5,204C 392.613,207.113 397.113,210.946 401,215.5C 403.679,221.515 407.179,227.015 411.5,232C 419.934,234.396 424.268,231.229 424.5,222.5C 436.666,203.514 453.833,193.181 476,191.5C 477.376,191.316 478.209,190.649 478.5,189.5 Z M 413.5,256.5 C 416.5,256.5 419.5,256.5 422.5,256.5C 422.334,265.506 422.5,274.506 423,283.5C 423.236,285.764 423.736,287.931 424.5,290C 428.16,290.547 431.827,291.047 435.5,291.5C 443.142,290.642 450.809,290.308 458.5,290.5C 458.5,291.5 458.5,292.5 458.5,293.5C 447.028,294.817 435.528,295.817 424,296.5C 422.569,315.2 422.069,333.867 422.5,352.5C 420.5,352.5 418.5,352.5 416.5,352.5C 416.78,334.139 416.447,315.806 415.5,297.5C 404.5,297.5 393.5,297.5 382.5,297.5C 382.338,295.473 382.505,293.473 383,291.5C 393.384,292.962 403.717,292.628 414,290.5C 414.093,279.172 413.927,267.838 413.5,256.5 Z"/></g>
<g><path style="opacity:0.831" fill="#fefefe" d="M 429.5,236.5 C 432.66,236.662 435.16,237.996 437,240.5C 436.102,253.125 435.602,265.791 435.5,278.5C 445.384,278.887 455.051,278.387 464.5,277C 466,277.833 467.167,279 468,280.5C 470.091,287.508 470.425,294.508 469,301.5C 466.417,302.874 463.917,304.374 461.5,306C 453.435,306.402 445.435,307.235 437.5,308.5C 438.441,326.555 437.608,344.555 435,362.5C 433.448,363.966 431.614,364.966 429.5,365.5C 422.857,364.868 416.191,364.202 409.5,363.5C 407.778,360.753 406.611,357.753 406,354.5C 405.667,339.167 405.333,323.833 405,308.5C 403.302,307.267 401.302,306.6 399,306.5C 393.508,307.232 388.008,307.898 382.5,308.5C 378.417,308.577 374.917,307.244 372,304.5C 371.5,297.174 371.334,289.841 371.5,282.5C 381.468,281.102 391.468,280.102 401.5,279.5C 402.332,268.181 402.832,256.848 403,245.5C 404.255,244.789 405.421,243.956 406.5,243C 414.338,241.008 422.004,238.842 429.5,236.5 Z M 413.5,256.5 C 413.927,267.838 414.093,279.172 414,290.5C 403.717,292.628 393.384,292.962 383,291.5C 382.505,293.473 382.338,295.473 382.5,297.5C 393.5,297.5 404.5,297.5 415.5,297.5C 416.447,315.806 416.78,334.139 416.5,352.5C 418.5,352.5 420.5,352.5 422.5,352.5C 422.069,333.867 422.569,315.2 424,296.5C 435.528,295.817 447.028,294.817 458.5,293.5C 458.5,292.5 458.5,291.5 458.5,290.5C 450.809,290.308 443.142,290.642 435.5,291.5C 431.827,291.047 428.16,290.547 424.5,290C 423.736,287.931 423.236,285.764 423,283.5C 422.5,274.506 422.334,265.506 422.5,256.5C 419.5,256.5 416.5,256.5 413.5,256.5 Z"/></g>
<g><path style="opacity:0.885" fill="#fefefe" d="M 179.5,249.5 C 185.842,249.334 192.175,249.5 198.5,250C 201.106,251.938 202.939,254.438 204,257.5C 208.405,294.739 211.905,332.072 214.5,369.5C 225.828,370.311 237.161,371.144 248.5,372C 253.922,374.439 259.588,376.106 265.5,377C 276.1,383.469 279.6,392.636 276,404.5C 281.258,410.849 284.758,418.015 286.5,426C 285.887,431.61 283.221,435.943 278.5,439C 265.764,445.412 252.43,449.912 238.5,452.5C 228.98,451.905 219.48,451.239 210,450.5C 209.127,450.735 208.293,451.069 207.5,451.5C 204.487,465.86 198.987,479.193 191,491.5C 183.976,500.023 177.143,508.69 170.5,517.5C 166.947,521.187 163.114,524.521 159,527.5C 158.75,532.514 159.084,537.514 160,542.5C 164.904,566.732 169.237,591.066 173,615.5C 174.475,641.296 176.975,666.962 180.5,692.5C 179.873,697.703 178.04,702.369 175,706.5C 168.908,714.272 161.408,720.106 152.5,724C 142.073,725.191 132.907,722.357 125,715.5C 119.516,721.316 113.683,726.816 107.5,732C 98.4777,736.456 90.6443,734.956 84,727.5C 80.7726,720.044 76.7726,713.044 72,706.5C 69.2951,701.164 67.9618,695.498 68,689.5C 67.1949,668.813 67.5282,648.147 69,627.5C 72.3205,612.335 74.6539,597.002 76,581.5C 80.5072,565.824 85.0072,550.157 89.5,534.5C 87.585,532.929 86.585,530.929 86.5,528.5C 88.5988,529.231 90.5988,529.231 92.5,528.5C 90.8163,526.649 88.9829,524.982 87,523.5C 79.7695,507.709 73.1028,491.709 67,475.5C 61.8268,456.835 60.1601,437.835 62,418.5C 65.4382,384.427 71.1049,350.761 79,317.5C 85.8408,302.315 91.5074,286.649 96,270.5C 97.655,265.857 99.8217,261.523 102.5,257.5C 108.305,256.362 113.638,254.362 118.5,251.5C 126.464,253.727 134.464,255.894 142.5,258C 153.429,261.007 163.762,259.674 173.5,254C 175.747,252.723 177.747,251.223 179.5,249.5 Z M 116.5,268.5 C 122.896,270.374 129.229,272.541 135.5,275C 147.195,278.006 158.862,278.006 170.5,275C 175.251,273.252 179.918,271.419 184.5,269.5C 184.603,297.338 186.77,325.005 191,352.5C 191.38,366.504 191.213,380.504 190.5,394.5C 182.208,393.593 173.875,393.26 165.5,393.5C 164.805,381.85 164.305,370.183 164,358.5C 160.629,351.038 155.963,350.038 150,355.5C 148.275,370.448 147.608,385.448 148,400.5C 151.071,408.247 156.738,411.914 165,411.5C 168.492,411.084 171.992,410.751 175.5,410.5C 198.831,412.274 222.164,413.108 245.5,413C 251.285,413.893 256.452,416.059 261,419.5C 261.483,420.448 261.649,421.448 261.5,422.5C 256.083,424.04 250.749,425.873 245.5,428C 243.511,430.803 240.844,432.636 237.5,433.5C 233.698,432.905 229.864,432.572 226,432.5C 219.423,432.717 212.923,433.384 206.5,434.5C 185.008,430.214 163.341,426.714 141.5,424C 136.207,421.687 131.207,418.854 126.5,415.5C 126.167,413.833 125.833,412.167 125.5,410.5C 128.272,392.596 129.105,374.596 128,356.5C 126.866,352.017 124.033,350.184 119.5,351C 117.263,353.03 115.763,355.53 115,358.5C 112.931,364.042 111.264,369.709 110,375.5C 107.794,387.907 106.294,400.407 105.5,413C 105.072,420.811 108.072,426.811 114.5,431C 121.414,434.526 128.414,437.86 135.5,441C 145.073,442.857 154.739,443.857 164.5,444C 171.471,445.215 178.138,447.215 184.5,450C 182.478,458.921 179.311,467.421 175,475.5C 169.053,484.447 162.72,493.114 156,501.5C 145.779,512.526 133.279,519.193 118.5,521.5C 116.181,520.936 113.847,520.436 111.5,520C 110.072,517.815 108.405,515.815 106.5,514C 103.246,512.973 100.246,511.473 97.5,509.5C 93.9202,500.079 90.0869,490.745 86,481.5C 81.3537,449.994 80.3537,418.328 83,386.5C 86.1484,369.794 89.4817,353.127 93,336.5C 100.235,320.127 105.902,303.127 110,285.5C 112.072,279.782 114.239,274.115 116.5,268.5 Z M 235.5,387.5 C 243.373,387.884 251.039,389.384 258.5,392C 262.352,394.412 262.185,395.579 258,395.5C 249.936,393.812 241.769,392.812 233.5,392.5C 227.76,392.403 222.26,393.403 217,395.5C 214.272,394.046 213.106,391.712 213.5,388.5C 221.019,388.825 228.352,388.492 235.5,387.5 Z M 139.5,537.5 C 140.5,537.5 141.5,537.5 142.5,537.5C 146.835,568.849 151.335,600.182 156,631.5C 156.781,647.867 157.947,664.2 159.5,680.5C 159.333,684.167 159.167,687.833 159,691.5C 155.107,695.194 150.94,698.527 146.5,701.5C 142.036,699.517 138.37,696.684 135.5,693C 137.098,683.861 138.598,674.694 140,665.5C 141.66,630.825 141.66,596.158 140,561.5C 138.127,554.376 136.627,547.209 135.5,540C 137.066,539.392 138.4,538.558 139.5,537.5 Z M 103.5,539.5 C 109.26,541.771 115.26,542.771 121.5,542.5C 122.931,553.442 123.931,564.442 124.5,575.5C 123.745,607.203 122.245,638.87 120,670.5C 119.142,677.648 117.642,684.648 115.5,691.5C 109.181,697.318 103.014,703.318 97,709.5C 91.4533,706.289 87.7867,701.623 86,695.5C 84.7259,677.514 84.3925,659.514 85,641.5C 87.1449,619.441 89.8116,597.441 93,575.5C 97.0024,563.658 100.502,551.658 103.5,539.5 Z"/></g>
<g><path style="opacity:0.872" fill="#fefefe" d="M 915.5,273.5 C 924.803,272.68 933.803,273.847 942.5,277C 950.131,283.831 951.298,291.664 946,300.5C 940.127,307.515 932.96,312.681 924.5,316C 905.426,321.854 887.093,329.354 869.5,338.5C 868.337,389.47 862.17,439.803 851,489.5C 846.316,525.42 843.482,561.42 842.5,597.5C 851.147,607.909 857.647,619.575 862,632.5C 862.667,638.167 862.667,643.833 862,649.5C 859.218,666.181 854.218,682.181 847,697.5C 840.241,707.46 831.407,714.96 820.5,720C 810.176,725.442 799.509,730.108 788.5,734C 773.978,735.35 759.645,737.684 745.5,741C 733.743,741.885 722.076,741.218 710.5,739C 699.728,736.615 690.395,731.615 682.5,724C 678.323,718.992 673.99,714.159 669.5,709.5C 659.021,718.074 647.354,724.574 634.5,729C 619.711,729.844 610.544,723.01 607,708.5C 600.278,720.576 591.111,722.743 579.5,715C 572.958,710.125 567.458,704.292 563,697.5C 562.46,694.639 561.46,691.972 560,689.5C 558.677,669.489 562.343,650.489 571,632.5C 575.103,607.578 578.77,582.578 582,557.5C 583.818,542.02 591.985,531.52 606.5,526C 624.433,521.121 642.433,516.455 660.5,512C 669.824,510.67 679.158,509.337 688.5,508C 692.005,507.343 695.005,505.843 697.5,503.5C 695.151,495.176 690.818,488.176 684.5,482.5C 666.041,486.368 647.374,488.868 628.5,490C 616.559,491.732 605.226,489.899 594.5,484.5C 583.465,476.229 580.965,465.896 587,453.5C 590.044,450.625 592.877,447.625 595.5,444.5C 592.848,434.974 596.181,428.474 605.5,425C 611.757,423.519 618.09,422.519 624.5,422C 630.688,419.465 637.021,417.465 643.5,416C 648.147,415.995 652.814,416.162 657.5,416.5C 653.967,403.095 650.134,389.762 646,376.5C 645.333,371.833 645.333,367.167 646,362.5C 652.219,355.551 657.553,356.217 662,364.5C 667.656,387.435 674.323,410.101 682,432.5C 682.739,433.574 683.739,434.241 685,434.5C 695.265,432.101 705.098,428.768 714.5,424.5C 715.415,423.672 716.081,422.672 716.5,421.5C 714.174,416.04 713.341,410.373 714,404.5C 716.686,400.023 720.186,399.356 724.5,402.5C 737.264,420.73 733.264,433.564 712.5,441C 704.739,441.286 697.072,442.286 689.5,444C 668.346,450.717 646.679,454.717 624.5,456C 617.536,457.925 610.536,459.592 603.5,461C 599.142,465.945 600.142,469.611 606.5,472C 610.847,473.671 615.347,474.505 620,474.5C 651.1,471.122 681.933,466.289 712.5,460C 719.536,456.654 726.869,454.321 734.5,453C 739.582,450.256 744.582,447.423 749.5,444.5C 752.447,437.272 754.447,429.772 755.5,422C 752.443,410.137 749.443,398.303 746.5,386.5C 749.518,386.335 752.518,386.502 755.5,387C 756.88,388.925 758.38,390.759 760,392.5C 763.252,403.423 766.252,414.423 769,425.5C 770.46,442.337 764.293,455.503 750.5,465C 740.031,468.628 729.698,472.628 719.5,477C 715.547,478.148 711.547,478.982 707.5,479.5C 710.58,491.337 715.08,502.671 721,513.5C 727.063,519.283 734.229,523.116 742.5,525C 753.317,526.141 763.983,525.475 774.5,523C 783.075,519.406 791.408,515.406 799.5,511C 802.667,508.5 805.833,506 809,503.5C 810.695,489.117 810.028,474.784 807,460.5C 799.087,430.353 789.754,400.686 779,371.5C 769.89,354.061 759.557,337.394 748,321.5C 746.374,322.289 744.874,323.289 743.5,324.5C 736.594,336.131 727.927,346.298 717.5,355C 697.61,366.937 677.277,367.604 656.5,357C 652.255,354.424 649.088,350.924 647,346.5C 646.1,341.968 647.934,339.302 652.5,338.5C 662.407,345.065 673.407,348.399 685.5,348.5C 696.115,348.158 705.449,344.658 713.5,338C 720.821,328.68 728.821,320.014 737.5,312C 739.891,310.965 742.224,310.798 744.5,311.5C 751.088,305.074 757.755,305.241 764.5,312C 776.488,325.652 787.322,340.152 797,355.5C 804.313,373.455 811.313,391.455 818,409.5C 820.851,395.041 822.851,380.375 824,365.5C 824.299,347.152 824.965,328.819 826,310.5C 826.143,290.705 835.31,284.205 853.5,291C 856,293.5 858.5,296 861,298.5C 869.832,292.669 878.665,286.835 887.5,281C 896.865,278.148 906.198,275.648 915.5,273.5 Z M 922.5,287.5 C 931.75,286.491 933.083,288.658 926.5,294C 920.468,297.348 914.468,300.681 908.5,304C 898.53,307.066 888.696,310.566 879,314.5C 874.958,317.024 871.291,320.024 868,323.5C 867.163,320.635 866.33,317.802 865.5,315C 874.923,310.906 883.256,305.24 890.5,298C 893.815,295.586 897.482,293.919 901.5,293C 908.66,291.295 915.66,289.461 922.5,287.5 Z M 841.5,301.5 C 843.484,301.383 845.15,302.05 846.5,303.5C 847.964,306.003 849.131,308.67 850,311.5C 851.765,320.259 852.932,329.092 853.5,338C 852.911,383.158 847.411,427.658 837,471.5C 834.884,488.865 832.55,506.198 830,523.5C 830.899,505.861 831.232,488.194 831,470.5C 829.371,458.269 826.871,446.269 823.5,434.5C 825.903,434.607 827.736,433.607 829,431.5C 833.511,409.398 836.511,387.064 838,364.5C 838.333,349.167 838.667,333.833 839,318.5C 839.754,312.799 840.587,307.132 841.5,301.5 Z M 661.5,431.5 C 662.339,432.641 663.006,433.974 663.5,435.5C 659.267,436.981 654.933,438.148 650.5,439C 637.874,440.698 625.207,441.864 612.5,442.5C 611,442.547 610,441.881 609.5,440.5C 626.979,437.427 644.312,434.427 661.5,431.5 Z M 700.5,518.5 C 702.606,518.679 704.272,519.679 705.5,521.5C 708.362,525.195 711.028,529.029 713.5,533C 707.753,535.869 701.753,538.203 695.5,540C 671.254,543.382 648.421,550.882 627,562.5C 624.397,569.382 622.063,576.382 620,583.5C 619,594.5 618,605.5 617,616.5C 613.784,630.317 611.118,644.317 609,658.5C 608.628,667.855 607.962,677.189 607,686.5C 604.185,693.978 598.852,698.644 591,700.5C 578.834,696.073 574.168,687.407 577,674.5C 579.994,656.153 584.994,638.486 592,621.5C 594.373,601.871 596.373,582.205 598,562.5C 598.932,556.43 600.932,550.763 604,545.5C 609.38,543.486 614.547,540.986 619.5,538C 643.343,532.365 667.343,527.365 691.5,523C 694.648,521.576 697.648,520.076 700.5,518.5 Z M 733.5,542.5 C 761.739,549.963 787.072,544.629 809.5,526.5C 809.909,537.686 805.909,547.02 797.5,554.5C 784.471,563.014 770.137,568.014 754.5,569.5C 735.071,567.865 715.737,568.699 696.5,572C 685.129,574.596 676.296,580.763 670,590.5C 669.129,596.521 668.129,602.521 667,608.5C 664.766,611.399 663.433,614.732 663,618.5C 661.551,627.871 659.885,637.204 658,646.5C 657.667,660.833 657.333,675.167 657,689.5C 655.6,692.902 653.433,695.736 650.5,698C 642.817,701.646 635.484,705.646 628.5,710C 625.219,705.959 623.552,701.292 623.5,696C 624.266,683.183 624.766,670.35 625,657.5C 626.185,655.623 627.185,653.623 628,651.5C 627.869,625.5 632.536,600.5 642,576.5C 643.793,573.705 645.96,571.205 648.5,569C 665.373,564.911 682.373,561.577 699.5,559C 710.788,555.017 721.788,550.517 732.5,545.5C 733.386,544.675 733.719,543.675 733.5,542.5 Z M 687.5,616.5 C 677.596,643.375 680.429,668.708 696,692.5C 704.49,701.487 714.99,705.654 727.5,705C 742.167,705.667 756.833,705.667 771.5,705C 788.745,701.061 803.578,692.894 816,680.5C 819.371,672.813 822.705,665.146 826,657.5C 827.906,648.158 827.906,638.825 826,629.5C 820.723,616.122 815.89,602.622 811.5,589C 792.475,589.566 773.475,590.899 754.5,593C 731.46,593.254 708.46,593.921 685.5,595C 688.01,590.908 691.677,588.575 696.5,588C 717.465,585.668 738.465,584.668 759.5,585C 776.659,582.174 792.326,575.84 806.5,566C 813.033,560.474 817.533,553.641 820,545.5C 824.245,540.908 827.245,535.575 829,529.5C 828.281,545.159 827.281,560.825 826,576.5C 825.719,580.179 824.552,583.512 822.5,586.5C 827.677,600.226 833.511,613.559 840,626.5C 842.288,638.643 841.622,650.643 838,662.5C 835.571,670.695 832.571,678.695 829,686.5C 825.158,692.376 820.325,697.21 814.5,701C 805.638,705.263 796.638,709.263 787.5,713C 774.34,714.482 761.34,716.815 748.5,720C 737.833,720.667 727.167,720.667 716.5,720C 710.385,718.893 704.719,716.726 699.5,713.5C 694.808,708.395 689.974,703.395 685,698.5C 681.619,694.12 679.119,689.286 677.5,684C 678.362,676.689 677.528,669.522 675,662.5C 674.333,657.167 674.333,651.833 675,646.5C 678.157,636.851 680.99,627.184 683.5,617.5C 684.689,616.571 686.022,616.238 687.5,616.5 Z M 793.5,602.5 C 794.496,602.414 795.329,602.748 796,603.5C 800.856,611.742 805.523,620.075 810,628.5C 811.932,637.522 811.932,646.522 810,655.5C 803.622,670.548 792.789,680.715 777.5,686C 772.67,688.083 767.67,689.583 762.5,690.5C 750.212,689.686 737.879,689.186 725.5,689C 714.546,685.047 707.379,677.547 704,666.5C 703.241,663.374 702.741,660.207 702.5,657C 703.76,647.177 704.927,637.344 706,627.5C 707.432,621.563 709.599,615.896 712.5,610.5C 714.777,609.077 717.277,608.411 720,608.5C 744.943,610.287 769.443,608.287 793.5,602.5 Z"/></g>
</svg>
