<?xml version="1.0" encoding="UTF-8"?>
<!DOCTYPE svg PUBLIC "-//W3C//DTD SVG 1.1//EN" "http://www.w3.org/Graphics/SVG/1.1/DTD/svg11.dtd">
<svg xmlns="http://www.w3.org/2000/svg" version="1.1" width="1034px" height="896px" style="shape-rendering:geometricPrecision; text-rendering:geometricPrecision; image-rendering:optimizeQuality; fill-rule:evenodd; clip-rule:evenodd" xmlns:xlink="http://www.w3.org/1999/xlink">
<g><path style="opacity:0.976" fill="#fefefe" d="M 192.5,119.5 C 224.015,118.623 253.682,125.456 281.5,140C 300.32,153.227 307.82,171.394 304,194.5C 303.467,218.413 297.467,240.746 286,261.5C 280.037,268.795 272.87,274.629 264.5,279C 251.734,285.039 238.734,290.706 225.5,296C 203.244,299.148 181.911,296.148 161.5,287C 154.136,283.318 146.802,279.651 139.5,276C 129.482,265.579 123.315,253.079 121,238.5C 117.074,202.969 126.074,171.303 148,143.5C 154.726,136.097 162.56,130.264 171.5,126C 178.509,123.509 185.509,121.342 192.5,119.5 Z"/></g>
<g><path style="opacity:0.975" fill="#fefefe" d="M 699.5,198.5 C 728.905,198.581 756.238,206.081 781.5,221C 799.144,231.923 807.31,247.757 806,268.5C 804.192,294.929 795.859,318.929 781,340.5C 757.5,365.983 728.334,377.15 693.5,374C 640.129,358.101 619.629,322.935 632,268.5C 638.758,245.798 650.925,226.631 668.5,211C 678.198,204.942 688.531,200.775 699.5,198.5 Z"/></g>
<g><path style="opacity:0.967" fill="#fefefe" d="M 521.5,219.5 C 544.517,219.398 561.684,229.398 573,249.5C 575.291,255.05 577.957,260.383 581,265.5C 586.589,284.375 586.922,303.375 582,322.5C 573.147,346.205 561.147,368.205 546,388.5C 529.804,403.478 513.638,418.311 497.5,433C 487.942,440.271 478.609,447.771 469.5,455.5C 462.134,451.309 455.801,445.809 450.5,439C 417.927,413.959 389.76,384.793 366,351.5C 353.572,329.004 349.906,305.004 355,279.5C 361.216,253.947 377.05,237.447 402.5,230C 416.991,225.484 430.658,227.151 443.5,235C 450.869,240.357 457.869,246.19 464.5,252.5C 469.313,246.519 474.313,240.686 479.5,235C 492.283,226.352 506.283,221.185 521.5,219.5 Z M 454.5,292.5 C 460.212,292.313 465.879,292.646 471.5,293.5C 471.334,303.506 471.5,313.506 472,323.5C 473.313,324.573 474.813,325.24 476.5,325.5C 484.798,324.56 493.131,324.226 501.5,324.5C 502.413,330.804 503.08,337.137 503.5,343.5C 494.128,342.758 484.795,341.758 475.5,340.5C 474.833,340.833 474.167,341.167 473.5,341.5C 473.609,359.161 473.609,376.828 473.5,394.5C 471.808,395.969 469.808,396.635 467.5,396.5C 463.466,395.96 459.466,395.293 455.5,394.5C 454.791,377.513 454.291,360.513 454,343.5C 443.508,342.235 433.008,342.569 422.5,344.5C 422.093,338.839 421.76,333.172 421.5,327.5C 431.926,326.749 442.259,325.416 452.5,323.5C 452.084,313.503 451.75,303.503 451.5,293.5C 452.791,293.737 453.791,293.404 454.5,292.5 Z"/></g>
<g><path style="opacity:0.975" fill="#fefefe" d="M 246.5,305.5 C 253.066,305.197 257.233,308.197 259,314.5C 263.569,350.128 267.902,385.794 272,421.5C 282.423,422.321 292.923,422.821 303.5,423C 309.348,425.089 315.348,426.756 321.5,428C 331.643,433.763 334.643,442.096 330.5,453C 336.08,459.167 340.08,466.167 342.5,474C 342.36,478.946 340.36,482.946 336.5,486C 327.495,492.002 317.829,496.669 307.5,500C 293.527,501.232 279.527,501.732 265.5,501.5C 264.285,513.254 260.785,524.254 255,534.5C 245.1,549.726 233.767,563.726 221,576.5C 220.833,577.5 220.667,578.5 220.5,579.5C 232.744,630.874 241.077,682.874 245.5,735.5C 245.26,740.312 243.76,744.645 241,748.5C 235.429,754.742 229.262,760.242 222.5,765C 217.254,766.506 211.921,766.839 206.5,766C 201.5,764.318 197,761.818 193,758.5C 187.465,763.706 181.965,769.039 176.5,774.5C 161.971,780.487 152.471,775.82 148,760.5C 139.657,751.206 135.657,740.206 136,727.5C 135.333,710.5 135.333,693.5 136,676.5C 138.802,660.946 140.802,645.28 142,629.5C 146.276,614.11 149.776,598.61 152.5,583C 152.167,582.167 151.833,581.333 151.5,580.5C 143.773,576.717 138.606,570.717 136,562.5C 126.681,536.332 122.681,509.332 124,481.5C 126.462,444.802 131.462,408.469 139,372.5C 146.178,354.474 152.511,336.14 158,317.5C 159.855,310.281 164.355,307.114 171.5,308C 184.381,312.81 197.714,315.643 211.5,316.5C 223.659,314.224 235.326,310.557 246.5,305.5 Z"/></g>
<g><path style="opacity:0.973" fill="#fefefe" d="M 948.5,312.5 C 956.228,312.189 963.895,312.689 971.5,314C 977.079,316.582 980.413,320.916 981.5,327C 978.85,336.306 973.517,343.64 965.5,349C 953.038,354.566 940.371,359.566 927.5,364C 919.667,367.552 912,371.385 904.5,375.5C 904.534,410.355 902.034,445.022 897,479.5C 888.593,528.162 883.926,577.162 883,626.5C 900.265,642.552 906.931,662.219 903,685.5C 900.603,696.355 897.603,707.022 894,717.5C 889.342,728.154 882.176,736.654 872.5,743C 861.221,749.473 849.554,755.139 837.5,760C 818.944,763.805 800.277,766.972 781.5,769.5C 767.536,769.08 754.203,766.08 741.5,760.5C 733.119,754.286 725.952,746.953 720,738.5C 709.368,749.738 696.368,757.072 681,760.5C 669.846,758.012 662.513,751.345 659,740.5C 656.776,746.885 652.276,750.551 645.5,751.5C 630.985,747.828 620.485,739.161 614,725.5C 611.525,709.056 613.192,693.056 619,677.5C 623.551,648.879 627.884,620.212 632,591.5C 634.048,577.792 641.548,568.626 654.5,564C 667.333,560.587 680,556.587 692.5,552C 705.429,549.377 718.429,547.044 731.5,545C 734.505,543.83 737.505,542.664 740.5,541.5C 741.336,538.461 741.002,535.461 739.5,532.5C 736.107,529.388 733.44,525.721 731.5,521.5C 730.167,521.167 728.833,520.833 727.5,520.5C 706.943,524.158 686.276,527.158 665.5,529.5C 657.898,529.22 650.565,527.72 643.5,525C 630.913,516.745 628.08,505.912 635,492.5C 637.378,490.291 639.545,487.958 641.5,485.5C 639.423,479.63 640.423,474.463 644.5,470C 651.454,465.497 659.121,463.164 667.5,463C 673.242,461.197 678.909,459.197 684.5,457C 689.823,456.501 695.156,456.334 700.5,456.5C 698.869,446.104 695.369,436.438 690,427.5C 688.478,418.936 686.145,410.603 683,402.5C 682.462,397.829 681.962,393.162 681.5,388.5C 686.034,388.267 690.368,389.1 694.5,391C 709.044,392.403 723.377,391.403 737.5,388C 760.058,379.057 780.391,366.557 798.5,350.5C 802.456,353.618 806.289,356.951 810,360.5C 818.668,371.514 827.002,382.848 835,394.5C 842.916,411.913 850.249,429.579 857,447.5C 858.124,434.841 859.457,422.174 861,409.5C 861.333,387.833 861.667,366.167 862,344.5C 865.174,328.496 874.007,324.163 888.5,331.5C 890.833,333.5 893.167,335.5 895.5,337.5C 901.257,333.914 906.59,329.747 911.5,325C 923.009,318.108 935.343,313.942 948.5,312.5 Z M 836.5,633.5 C 837.822,633.33 838.989,633.663 840,634.5C 845.004,643.176 850.004,651.843 855,660.5C 858.299,681.284 851.466,697.784 834.5,710C 826.991,712.493 819.658,715.493 812.5,719C 799.5,719.667 786.5,719.667 773.5,719C 762.118,714.954 754.951,707.12 752,695.5C 751.434,684.479 751.768,673.479 753,662.5C 754.038,656.298 755.705,650.298 758,644.5C 759.074,643.382 760.24,642.382 761.5,641.5C 787.03,642.25 812.03,639.583 836.5,633.5 Z"/></g>
</svg>
